<?xml version="1.0" encoding="UTF-8" standalone="no"?>
<!-- Created with Inkscape (http://www.inkscape.org/) -->

<svg
   xmlns:dc="http://purl.org/dc/elements/1.1/"
   xmlns:cc="http://creativecommons.org/ns#"
   xmlns:rdf="http://www.w3.org/1999/02/22-rdf-syntax-ns#"
   xmlns:svg="http://www.w3.org/2000/svg"
   xmlns="http://www.w3.org/2000/svg"
   xmlns:sodipodi="http://sodipodi.sourceforge.net/DTD/sodipodi-0.dtd"
   xmlns:inkscape="http://www.inkscape.org/namespaces/inkscape"
   width="70.000053mm"
   height="62.000057mm"
   viewBox="0 0 248.03169 219.68524"
   id="svg2"
   version="1.1"
   inkscape:version="0.91 r13725"
   sodipodi:docname="label.svg">
  <defs
     id="defs4" />
  <sodipodi:namedview
     id="base"
     pagecolor="#ffffff"
     bordercolor="#666666"
     borderopacity="1.0"
     inkscape:pageopacity="0.0"
     inkscape:pageshadow="2"
     inkscape:zoom="0.7"
     inkscape:cx="-206.53064"
     inkscape:cy="-1.6047485"
     inkscape:document-units="px"
     inkscape:current-layer="layer1"
     showgrid="false"
     inkscape:window-width="1680"
     inkscape:window-height="996"
     inkscape:window-x="0"
     inkscape:window-y="30"
     inkscape:window-maximized="1"
     fit-margin-top="0"
     fit-margin-left="0"
     fit-margin-right="0"
     fit-margin-bottom="0" />
  <metadata
     id="metadata7">
    <rdf:RDF>
      <cc:Work
         rdf:about="">
        <dc:format>image/svg+xml</dc:format>
        <dc:type
           rdf:resource="http://purl.org/dc/dcmitype/StillImage" />
        <dc:title></dc:title>
      </cc:Work>
    </rdf:RDF>
  </metadata>
  <g
     inkscape:label="Layer 1"
     inkscape:groupmode="layer"
     id="layer1"
     transform="translate(-110.32647,-143.05563)">
    <text
       xml:space="preserve"
       style="font-style:normal;font-variant:normal;font-weight:normal;font-stretch:normal;font-size:9.17735291px;line-height:125%;font-family:FreeSans;-inkscape-font-specification:FreeSans;letter-spacing:0px;word-spacing:0px;display:inline;fill:#000000;fill-opacity:1;stroke:none;stroke-width:1px;stroke-linecap:butt;stroke-linejoin:miter;stroke-opacity:1"
       x="117.91717"
       y="324.27039"
       id="text4222"
       sodipodi:linespacing="125%"
       transform="scale(1.0150482,0.98517489)"><tspan
         sodipodi:role="line"
         id="tspan4224"
         x="117.91717"
         y="324.27039">https://github.com/pengshulin/mcush</tspan></text>
    <path
       style="display:inline;fill:#000000"
       d="m 342.41112,185.21423 c -0.0848,-0.0326 -0.15169,-0.26945 -0.15169,-0.53564 l 0,-0.47463 -1.17092,0 c -1.50888,0 -1.9031,-0.21399 -3.01335,-1.63594 -0.91746,-1.175 -1.55585,-1.75891 -2.31168,-2.11399 -0.47528,-0.22345 -0.76235,-0.24939 -2.77196,-0.24939 l -2.24154,0 -0.1662,0.39749 c -0.22818,0.5464 -0.83999,1.13015 -1.366,1.30385 -1.90538,0.62877 -3.57753,-1.30809 -2.69807,-3.12524 0.62648,-1.29407 2.32505,-1.6343 3.38392,-0.67753 0.25934,0.23405 0.53857,0.61196 0.62094,0.83949 0.1468,0.40418 0.16523,0.41364 0.8333,0.41364 0.62388,0 0.7573,-0.0506 1.52079,-0.59321 0.46044,-0.32621 1.26471,-1.06377 1.78729,-1.63904 1.24481,-1.3704 1.55504,-1.52421 3.07452,-1.52535 l 1.18642,0 0.20926,-0.3678 c 0.25901,-0.45522 0.95905,-0.76773 1.49452,-0.66742 1.73609,0.32588 1.48996,2.85481 -0.2776,2.85481 -0.48964,0 -0.60903,-0.0571 -1.01598,-0.48491 l -0.46109,-0.48474 -1.24334,0 -1.24335,0 -1.30646,1.36078 c -0.71864,0.74832 -1.30647,1.40286 -1.30647,1.45423 0,0.0506 3.02656,0.0946 6.72593,0.0946 l 6.72577,0 0,-0.34333 c 0,-0.18904 0.0294,-0.37351 0.0669,-0.41004 0.0375,-0.0375 0.69107,0.21056 1.45407,0.54966 0.76301,0.33893 1.34643,0.65258 1.29668,0.6971 -0.12396,0.11092 -2.59189,1.20306 -2.71715,1.20306 -0.0555,0 -0.10112,-0.19099 -0.10112,-0.42407 l 0,-0.42423 -4.96147,0 c -3.17695,0 -4.98855,0.044 -5.0365,0.12232 -0.0408,0.0669 -0.0277,0.1207 0.0294,0.1207 0.0571,0 0.42831,0.41543 0.82514,0.92333 0.39684,0.50791 0.98646,1.16229 1.31022,1.4544 l 0.58881,0.53075 1.13814,0 1.13814,0 0,-0.53857 0,-0.53825 1.51508,-0.0375 1.51507,-0.0375 -1.6e-4,1.54525 -3.3e-4,1.54509 -1.36339,-0.0196 c -0.74979,0 -1.43156,-0.0375 -1.51475,-0.0701 z"
       id="path4263"
       inkscape:connector-curvature="0" />
    <rect
       style="opacity:0.98999999;fill:#000000;fill-opacity:1;stroke:none;stroke-width:0.426;stroke-linecap:round;stroke-linejoin:round;stroke-miterlimit:4;stroke-dasharray:none;stroke-dashoffset:0;stroke-opacity:1"
       id="rect4279-2"
       width="247.74599"
       height="31.314728"
       x="110.58666"
       y="331.08344" />
    <rect
       style="opacity:0.98999999;fill:#000000;fill-opacity:1;stroke:none;stroke-width:0.426;stroke-linecap:round;stroke-linejoin:round;stroke-miterlimit:4;stroke-dasharray:none;stroke-dashoffset:0;stroke-opacity:1"
       id="rect4279"
       width="247.74599"
       height="25.253813"
       x="110.50031"
       y="143.25217" />
    <rect
       style="opacity:0.98999999;fill:none;fill-opacity:1;stroke:#000000;stroke-width:0.426;stroke-linecap:round;stroke-linejoin:round;stroke-miterlimit:4;stroke-dasharray:none;stroke-dashoffset:0;stroke-opacity:1"
       id="rect4136"
       width="247.6057"
       height="219.25925"
       x="110.53947"
       y="143.26863"
       ry="0" />
    <g
       style="font-style:normal;font-weight:normal;font-size:20px;line-height:125%;font-family:sans-serif;letter-spacing:0px;word-spacing:0px;fill:#000000;fill-opacity:1;stroke:none;stroke-width:1px;stroke-linecap:butt;stroke-linejoin:miter;stroke-opacity:1"
       id="text4155"
       transform="matrix(1.1791591,0,0,1.2959299,-39.759709,-51.611277)">
      <g
         id="g4412"
         transform="matrix(1,0,0,0.80638443,-1.4285715,25.229534)">
        <path
           inkscape:connector-curvature="0"
           id="path4351"
           d="m 263.48242,196.71289 0,20.19529 3.98438,0 0,-1.04296 c 0.78124,0.88493 1.71874,1.32739 2.8125,1.32739 3.3854,0.0632 5.05206,-2.43355 5,-7.49026 -0.10417,-4.29822 -1.64062,-6.57374 -4.60938,-6.82658 -1.30208,0 -2.36979,0.41085 -3.20312,1.23257 l 0,-7.39545 -3.98438,0 z m 13.67188,0 0,20.19529 4.0625,0 0,-20.19529 -4.0625,0 z m -138.51563,1.13776 0,19.05753 4.0625,0 0,-6.44732 2.26563,0 c 4.27083,0 6.40625,-2.11752 6.40625,-6.35252 -0.10417,-4.04537 -2.13542,-6.13127 -6.09375,-6.25769 l -6.64063,0 z m 4.0625,3.79254 1.95313,0 c 1.77083,0 2.65625,0.85333 2.65625,2.55997 -0.0521,1.58025 -0.93751,2.40196 -2.65625,2.46516 l -1.95313,0 0,-5.02513 z m 59.60938,1.04296 c -3.02084,0 -4.92187,1.4854 -5.70313,4.45623 l 3.4375,1.13776 c 0.46876,-1.32739 1.19792,-1.99108 2.1875,-1.99108 1.04167,0 1.5625,0.47406 1.5625,1.4222 -0.72916,0.37925 -1.79688,0.6953 -3.20312,0.94813 -2.76042,0.63209 -4.14063,2.18072 -4.14063,4.64587 0.15626,2.40194 1.38021,3.69772 3.67188,3.88735 1.71874,0 3.02083,-0.50568 3.90625,-1.51702 0.0521,0.25284 0.13021,0.53728 0.23437,0.85333 0.0521,0.18964 0.10419,0.31606 0.15625,0.37926 l 4.21875,0 c -0.46874,-0.88493 -0.70312,-1.89627 -0.70312,-3.03404 l 0,-5.02512 c 0,-4.17178 -1.875,-6.22606 -5.625,-6.16287 z m 53.28125,0 c -3.02084,0 -4.92187,1.4854 -5.70313,4.45623 l 3.4375,1.13776 c 0.46876,-1.32739 1.19792,-1.99108 2.1875,-1.99108 1.04167,0 1.5625,0.47406 1.5625,1.4222 -0.72916,0.37925 -1.79688,0.6953 -3.20312,0.94813 -2.76042,0.63209 -4.14063,2.18072 -4.14063,4.64587 0.15626,2.40194 1.38021,3.69772 3.67188,3.88735 1.71874,0 3.02083,-0.50568 3.90625,-1.51702 0.0521,0.25284 0.13021,0.53728 0.23437,0.85333 0.0521,0.18964 0.10419,0.31606 0.15625,0.37926 l 4.21875,0 c -0.46874,-0.88493 -0.70312,-1.89627 -0.70312,-3.03404 l 0,-5.02512 c 0,-4.17178 -1.875,-6.22606 -5.625,-6.16287 z m -96.875,0.0948 c -0.78126,-0.0632 -1.48438,0.44245 -2.10938,1.51701 l 0,-1.13776 -3.98437,0 0,13.74797 3.98437,0 0,-7.20583 c 0,-1.76987 0.46875,-2.68641 1.40625,-2.7496 0.41667,0 0.83334,0.18963 1.25,0.56888 l 1.40625,-3.88735 c -0.67708,-0.56888 -1.32812,-0.85332 -1.95312,-0.85332 z m 20.78125,0 c -3.22917,0.12642 -4.89584,2.43354 -5,6.92139 0.0521,4.36143 1.64062,6.57375 4.76562,6.63694 1.25,0 2.21354,-0.41086 2.89063,-1.23258 l 0,0.85333 c 0,1.51699 -0.52084,2.2439 -1.5625,2.18071 -1.04167,0.12642 -1.71875,-0.41086 -2.03125,-1.61183 l -3.90625,0.75851 c 0.67708,2.97083 2.47396,4.45623 5.39062,4.45623 4.11457,0.0632 6.14582,-2.02269 6.09375,-6.25769 l 0,-12.32576 -3.98437,0 0,0.85333 c -0.67709,-0.82172 -1.56251,-1.23258 -2.65625,-1.23258 z m 14.60937,0 c -0.78124,-0.0632 -1.48437,0.44245 -2.10937,1.51701 l 0,-1.13776 -3.98438,0 0,13.74797 3.98438,0 0,-7.20583 c 0,-1.76987 0.46875,-2.68641 1.40625,-2.7496 0.41666,0 0.83333,0.18963 1.25,0.56888 l 1.40625,-3.88735 c -0.67709,-0.56888 -1.32813,-0.85332 -1.95313,-0.85332 z m 23.35938,0 c -1.35417,0 -2.42187,0.53727 -3.20313,1.61183 l 0,-1.23258 -3.98437,0 0,13.74797 3.98437,0 0,-7.77471 c 0.0521,-1.64345 0.52084,-2.49678 1.40625,-2.55997 1.04167,-0.0632 1.5625,0.7585 1.5625,2.46515 l 0,7.86953 3.98438,0 0,-7.67991 c 0,-1.76984 0.54688,-2.65477 1.64062,-2.65477 0.9375,0 1.40625,0.85332 1.40625,2.55997 l 0,7.77471 3.98438,0 0,-8.05916 c 0.0521,-4.10857 -1.22396,-6.13126 -3.82813,-6.06806 -1.5625,0 -2.8125,0.7269 -3.75,2.18071 -0.625,-1.45381 -1.69271,-2.18071 -3.20312,-2.18071 z m 20,0 c -1.35417,0 -2.42187,0.53727 -3.20313,1.61183 l 0,-1.23258 -3.98437,0 0,13.74797 3.98437,0 0,-7.77471 c 0.0521,-1.64345 0.52084,-2.49678 1.40625,-2.55997 1.04167,-0.0632 1.5625,0.7585 1.5625,2.46515 l 0,7.86953 3.98438,0 0,-7.67991 c 0,-1.76984 0.54688,-2.65477 1.64062,-2.65477 0.9375,0 1.40625,0.85332 1.40625,2.55997 l 0,7.77471 3.98438,0 0,-8.05916 c 0.0521,-4.10857 -1.22396,-6.13126 -3.82813,-6.06806 -1.5625,0 -2.8125,0.7269 -3.75,2.18071 -0.625,-1.45381 -1.69271,-2.18071 -3.20312,-2.18071 z m -70.15625,0.0948 c -3.85417,0.12641 -5.88542,2.59157 -6.09375,7.39546 0.15624,4.42463 2.16146,6.73175 6.01562,6.92138 3.90626,-0.12642 5.91146,-2.46515 6.01563,-7.0162 -0.10417,-4.74068 -2.08334,-7.17423 -5.9375,-7.30064 z m 121.5625,0 c -3.75,0.18963 -5.70312,2.68639 -5.85938,7.49027 0.10417,4.42462 2.16146,6.70015 6.17188,6.82657 3.07291,0 5.07812,-1.4854 6.01562,-4.45623 l -3.90625,-0.47407 c -0.41666,1.07454 -1.19791,1.61183 -2.34375,1.61183 -1.30208,-0.0632 -2.03124,-0.85332 -2.1875,-2.37034 l 8.125,0 0,-1.23257 c -0.0521,-4.86712 -2.05729,-7.33227 -6.01562,-7.39546 z m -0.0781,3.31847 c 1.35417,0 2.10937,0.72691 2.26563,2.18072 l -4.375,0 c 0.15624,-1.39062 0.85937,-2.11753 2.10937,-2.18072 z m -121.5625,0.28445 c 1.45834,0 2.1875,1.20097 2.1875,3.60291 -0.0521,2.33876 -0.80729,3.53972 -2.26562,3.60292 -1.3021,-0.0632 -1.97919,-1.23259 -2.03125,-3.50811 0.0521,-2.40197 0.75521,-3.63454 2.10937,-3.69772 z m 13.125,0.0948 c 1.19792,0 1.79688,0.88493 1.79688,2.65477 l 0,0.37926 c 0,2.1491 -0.625,3.22366 -1.875,3.22366 -1.14586,-0.0632 -1.74481,-1.13776 -1.79688,-3.22366 0.10417,-2.02269 0.72917,-3.03403 1.875,-3.03403 z m 89.0625,0 c 1.30209,0 1.95313,1.07455 1.95313,3.22366 0.0521,2.59155 -0.65104,3.85573 -2.10938,3.79254 -1.19791,-0.0632 -1.79687,-1.01136 -1.79687,-2.84441 l 0,-1.13776 c 0.0521,-2.02269 0.70312,-3.03403 1.95312,-3.03403 z m -65.54687,4.17179 0,0.37926 c -0.0521,1.83307 -0.83334,2.78121 -2.34375,2.8444 -0.83334,0 -1.25,-0.34764 -1.25,-1.04294 -0.0521,-0.75851 0.44271,-1.26419 1.48437,-1.51702 0.83334,-0.18963 1.53646,-0.41087 2.10938,-0.6637 z m 53.28125,0 0,0.37926 c -0.0521,1.83307 -0.83334,2.78121 -2.34375,2.8444 -0.83334,0 -1.25,-0.34764 -1.25,-1.04294 -0.0521,-0.75851 0.44271,-1.26419 1.48437,-1.51702 0.83334,-0.18963 1.53646,-0.41087 2.10938,-0.6637 z"
           style="font-style:normal;font-variant:normal;font-weight:normal;font-stretch:normal;font-family:'方正超粗黑_GBK';-inkscape-font-specification:'方正超粗黑_GBK'" />
        <path
           inkscape:connector-curvature="0"
           id="path4375"
           d="m 196.13867,228.00135 -3.98437,1.04296 0,4.36142 -1.32813,0 0,3.69772 1.32813,0 0,5.97326 c -0.0521,3.03401 1.19791,4.51942 3.75,4.45623 1.09374,0 2.00521,-0.31605 2.73437,-0.94814 l -0.70312,-3.60291 c -0.36459,0.31604 -0.67709,0.47407 -0.9375,0.47407 -0.57292,0 -0.85938,-0.44247 -0.85938,-1.32739 l 0,-5.02512 2.1875,0 0,-3.69772 -2.1875,0 0,-5.40438 z m -57.26562,0.18963 0,19.05752 4.0625,0 0,-7.20582 6.40625,0 0,-3.98217 -6.40625,0 0,-3.88736 7.34375,0 0,-3.98217 -11.40625,0 z m 61.71875,0 0,3.98217 4.14062,0 0,-3.98217 -4.14062,0 z m -28.51563,5.02512 c -1.09374,0 -2.16146,0.50567 -3.20312,1.51702 l 0,-1.23258 -3.98438,0 0,13.74796 3.98438,0 0,-7.58508 c 0.0521,-1.76987 0.65104,-2.6864 1.79687,-2.7496 1.14584,0 1.71875,0.85333 1.71875,2.55997 l 0,7.77471 3.98438,0 0,-8.34359 c 0.0521,-3.85573 -1.38021,-5.752 -4.29688,-5.68881 z m 11.71875,0 c -3.85416,0.0632 -5.85938,2.52836 -6.01562,7.39546 0.15624,4.55107 2.16146,6.85818 6.01562,6.92138 3.125,0.12642 5.05209,-1.67503 5.78125,-5.40437 l -3.82812,-0.6637 c -0.20834,1.64344 -0.85937,2.46515 -1.95313,2.46515 -1.30208,0 -1.95312,-1.13776 -1.95312,-3.41328 0,-2.40195 0.67708,-3.60292 2.03125,-3.60292 1.04166,0 1.66666,0.75851 1.875,2.27553 l 3.75,-1.04295 c -0.72917,-3.35005 -2.63021,-4.99349 -5.70313,-4.9303 z m 28.90625,0 c -3.85416,0.12641 -5.88541,2.59156 -6.09375,7.39546 0.15626,4.42462 2.16146,6.73175 6.01563,6.92138 3.90624,-0.12642 5.91146,-2.46515 6.01562,-7.0162 -0.10416,-4.74068 -2.08333,-7.17423 -5.9375,-7.30064 z m 14.6875,0 c -1.09374,0 -2.16146,0.50567 -3.20312,1.51702 l 0,-1.23258 -3.98438,0 0,13.74796 3.98438,0 0,-7.58508 c 0.0521,-1.76987 0.65104,-2.6864 1.79687,-2.7496 1.14584,0 1.71875,0.85333 1.71875,2.55997 l 0,7.77471 3.98438,0 0,-8.34359 c 0.0521,-3.85573 -1.38021,-5.752 -4.29688,-5.68881 z m -75.70312,0.28444 0,8.24878 c 0,3.85574 1.45833,5.78362 4.375,5.78362 1.19791,0 2.18749,-0.44246 2.96875,-1.32739 l 0,0.94813 3.98437,0 0,-13.65314 -3.98437,0 0,7.7747 c 0,1.70667 -0.57292,2.59159 -1.71875,2.65478 -1.14582,0.0632 -1.69269,-0.7585 -1.64063,-2.46515 l 0,-7.96433 -3.98437,0 z m 48.90625,0.0948 0,13.65314 4.14062,0 0,-13.65314 -4.14062,0 z m 12.03125,3.22366 c 1.45833,0 2.1875,1.20096 2.1875,3.60291 -0.0521,2.33875 -0.80729,3.53972 -2.26563,3.60291 -1.3021,-0.0632 -1.97918,-1.23258 -2.03125,-3.5081 0.0521,-2.40197 0.75521,-3.63454 2.10938,-3.69772 z"
           style="font-style:normal;font-variant:normal;font-weight:normal;font-stretch:normal;font-family:'方正超粗黑_GBK';-inkscape-font-specification:'方正超粗黑_GBK'" />
        <path
           inkscape:connector-curvature="0"
           id="path4391"
           d="m 146.2168,258.34168 c -4.84376,0.37925 -7.39584,3.63453 -7.65625,9.7658 0.10416,6.38411 2.65625,9.63936 7.65625,9.76578 3.64583,0 5.98958,-1.42219 7.03125,-4.2666 l 0,-7.20583 -7.73438,0 0,4.07698 3.67188,0 0,2.37034 c -0.46876,0.75849 -1.43229,1.10614 -2.89063,1.04295 -2.23958,-0.18963 -3.41146,-2.1175 -3.51562,-5.78362 0.10416,-3.47649 1.25,-5.34117 3.4375,-5.59401 1.51041,-0.0632 2.65624,0.79011 3.4375,2.55997 l 3.59375,-1.70664 c -1.30209,-3.41326 -3.64584,-5.08831 -7.03125,-5.02512 z m 75.39062,0 -3.98437,1.04295 0,4.36143 -1.32813,0 0,3.69772 1.32813,0 0,5.97325 c -0.0521,3.03401 1.19791,4.51943 3.75,4.45623 1.09374,0 2.00521,-0.31605 2.73437,-0.94813 l -0.70312,-3.60292 c -0.36459,0.31604 -0.67709,0.47408 -0.9375,0.47408 -0.57292,0 -0.85938,-0.44247 -0.85938,-1.32739 l 0,-5.02512 2.1875,0 0,-3.69772 -2.1875,0 0,-5.40438 z m -12.57812,5.02512 c -3.02084,0 -4.92187,1.4854 -5.70313,4.45623 l 3.4375,1.13776 c 0.46876,-1.32739 1.19792,-1.99107 2.1875,-1.99107 1.04167,0 1.5625,0.47406 1.5625,1.42219 -0.72916,0.37926 -1.79688,0.69531 -3.20312,0.94814 -2.76042,0.63208 -4.14063,2.18071 -4.14063,4.64587 0.15626,2.40193 1.38021,3.69772 3.67188,3.88734 1.71874,0 3.02083,-0.50567 3.90625,-1.51701 0.0521,0.25283 0.13021,0.53728 0.23437,0.85333 0.0521,0.18963 0.10419,0.31606 0.15625,0.37925 l 4.21875,0 c -0.46874,-0.88493 -0.70312,-1.89627 -0.70312,-3.03403 l 0,-5.02513 c 0,-4.17178 -1.875,-6.22606 -5.625,-6.16287 z m -8.20313,0.0948 c -0.78124,-0.0632 -1.48437,0.44246 -2.10937,1.51702 l 0,-1.13777 -3.98438,0 0,13.74797 3.98438,0 0,-7.20583 c 0,-1.76987 0.46875,-2.6864 1.40625,-2.7496 0.41666,0 0.83333,0.18963 1.25,0.56888 l 1.40625,-3.88734 c -0.67709,-0.56888 -1.32813,-0.85333 -1.95313,-0.85333 z m 44.21875,0 c -0.78124,-0.0632 -1.48437,0.44246 -2.10937,1.51702 l 0,-1.13777 -3.98438,0 0,13.74797 3.98438,0 0,-7.20583 c 0,-1.76987 0.46875,-2.6864 1.40625,-2.7496 0.41666,0 0.83333,0.18963 1.25,0.56888 l 1.40625,-3.88734 c -0.67709,-0.56888 -1.32813,-0.85333 -1.95313,-0.85333 z m -84.60937,0.0948 c -3.75,0.18963 -5.70312,2.68638 -5.85938,7.49026 0.10417,4.42463 2.16146,6.70015 6.17188,6.82657 3.07291,0 5.07812,-1.4854 6.01562,-4.45623 l -3.90625,-0.47407 c -0.41666,1.07455 -1.19791,1.61184 -2.34375,1.61184 -1.30208,-0.0632 -2.03124,-0.85333 -2.1875,-2.37035 l 8.125,0 0,-1.23257 c -0.0521,-4.86712 -2.05729,-7.33227 -6.01562,-7.39545 z m 15,0 c -1.09376,0 -2.16146,0.50566 -3.20313,1.51701 l 0,-1.23258 -3.98437,0 0,13.74797 3.98437,0 0,-7.58508 c 0.0521,-1.76987 0.65104,-2.68641 1.79688,-2.7496 1.14583,0 1.71875,0.85333 1.71875,2.55997 l 0,7.77471 3.98437,0 0,-8.34359 c 0.0521,-3.85573 -1.38021,-5.752 -4.29687,-5.68881 z m 11.5625,0 c -3.75,0.18963 -5.70312,2.68638 -5.85938,7.49026 0.10417,4.42463 2.16146,6.70015 6.17188,6.82657 3.07291,0 5.07812,-1.4854 6.01562,-4.45623 l -3.90625,-0.47407 c -0.41666,1.07455 -1.19791,1.61184 -2.34375,1.61184 -1.30208,-0.0632 -2.03124,-0.85333 -2.1875,-2.37035 l 8.125,0 0,-1.23257 c -0.0521,-4.86712 -2.05729,-7.33227 -6.01562,-7.39545 z m 44.53125,0 c -3.85417,0.12641 -5.88542,2.59156 -6.09375,7.39545 0.15624,4.42463 2.16146,6.73176 6.01562,6.92138 3.90626,-0.12642 5.91146,-2.46515 6.01563,-7.0162 -0.10417,-4.74067 -2.08334,-7.17422 -5.9375,-7.30063 z m -71.17188,3.31847 c 1.35417,0 2.10937,0.7269 2.26563,2.18071 l -4.375,0 c 0.15624,-1.39062 0.85937,-2.11752 2.10937,-2.18071 z m 26.5625,0 c 1.35417,0 2.10937,0.7269 2.26563,2.18071 l -4.375,0 c 0.15624,-1.39062 0.85937,-2.11752 2.10937,-2.18071 z m 44.53125,0.28444 c 1.45834,0 2.1875,1.20097 2.1875,3.60292 -0.0521,2.33875 -0.80729,3.53972 -2.26562,3.60291 -1.3021,-0.0632 -1.97919,-1.23258 -2.03125,-3.50811 0.0521,-2.40197 0.75521,-3.63454 2.10937,-3.69772 z m -20.85937,4.2666 0,0.37926 c -0.0521,1.83308 -0.83334,2.78121 -2.34375,2.8444 -0.83334,0 -1.25,-0.34764 -1.25,-1.04294 -0.0521,-0.75851 0.44271,-1.26418 1.48437,-1.51701 0.83334,-0.18963 1.53646,-0.41087 2.10938,-0.66371 z"
           style="font-style:normal;font-variant:normal;font-weight:normal;font-stretch:normal;font-family:'方正超粗黑_GBK';-inkscape-font-specification:'方正超粗黑_GBK'" />
      </g>
    </g>
    <text
       xml:space="preserve"
       style="font-style:normal;font-weight:normal;font-size:20px;line-height:125%;font-family:sans-serif;letter-spacing:0px;word-spacing:0px;fill:#ffffff;fill-opacity:1;stroke:none;stroke-width:1px;stroke-linecap:butt;stroke-linejoin:miter;stroke-opacity:1"
       x="141.78876"
       y="353.82782"
       id="text4155-6"
       sodipodi:linespacing="125%"><tspan
         sodipodi:role="line"
         x="141.78876"
         y="353.82782"
         id="tspan4161-9"
         style="font-style:normal;font-variant:normal;font-weight:500;font-stretch:normal;font-family:KacstArt;-inkscape-font-specification:'KacstArt Medium';fill:#ffffff">CH.1</tspan></text>
    <text
       xml:space="preserve"
       style="font-style:normal;font-weight:normal;font-size:20px;line-height:125%;font-family:sans-serif;letter-spacing:0px;word-spacing:0px;fill:#ffffff;fill-opacity:1;stroke:none;stroke-width:1px;stroke-linecap:butt;stroke-linejoin:miter;stroke-opacity:1"
       x="273.54529"
       y="353.82782"
       id="text4155-6-5"
       sodipodi:linespacing="125%"><tspan
         sodipodi:role="line"
         x="273.54529"
         y="353.82782"
         id="tspan4161-9-0"
         style="font-style:normal;font-variant:normal;font-weight:500;font-stretch:normal;font-family:KacstArt;-inkscape-font-specification:'KacstArt Medium';fill:#ffffff">CH.2</tspan></text>
    <text
       xml:space="preserve"
       style="font-style:normal;font-weight:normal;font-size:13.13416767px;line-height:125%;font-family:sans-serif;text-align:center;letter-spacing:0px;word-spacing:0px;text-anchor:middle;fill:#ffffff;fill-opacity:1;stroke:none;stroke-width:1px;stroke-linecap:butt;stroke-linejoin:miter;stroke-opacity:1"
       x="323.5787"
       y="161.14035"
       id="text4155-6-5-1"
       sodipodi:linespacing="125%"><tspan
         sodipodi:role="line"
         x="323.5787"
         y="161.14035"
         style="font-style:normal;font-variant:normal;font-weight:500;font-stretch:normal;font-family:KacstArt;-inkscape-font-specification:'KacstArt Medium';text-align:center;text-anchor:middle;fill:#ffffff"
         id="tspan4256">PWR/USB</tspan><tspan
         sodipodi:role="line"
         x="323.5787"
         y="177.55806"
         style="font-style:normal;font-variant:normal;font-weight:500;font-stretch:normal;font-family:KacstArt;-inkscape-font-specification:'KacstArt Medium';text-align:center;text-anchor:middle;fill:#ffffff"
         id="tspan4231" /></text>
    <text
       xml:space="preserve"
       style="font-style:normal;font-weight:normal;font-size:13.13416767px;line-height:125%;font-family:sans-serif;text-align:center;letter-spacing:0px;word-spacing:0px;text-anchor:middle;fill:#ffffff;fill-opacity:1;stroke:none;stroke-width:1px;stroke-linecap:butt;stroke-linejoin:miter;stroke-opacity:1"
       x="137.70859"
       y="160.61415"
       id="text4155-6-5-1-1"
       sodipodi:linespacing="125%"><tspan
         sodipodi:role="line"
         x="137.70859"
         y="160.61415"
         style="font-style:normal;font-variant:normal;font-weight:500;font-stretch:normal;font-family:KacstArt;-inkscape-font-specification:'KacstArt Medium';text-align:center;text-anchor:middle;fill:#ffffff"
         id="tspan4231-8">PWR</tspan></text>
    <g
       style="display:inline"
       id="g4215"
       transform="matrix(0.75054844,0,0,0.75054844,282.19159,295.64509)">
      <g
         style="display:inline"
         transform="translate(0,-35.433071)"
         inkscape:label="background"
         id="layer4" />
      <g
         transform="translate(0,-35.433071)"
         style="display:inline"
         inkscape:label="pins"
         id="layer3">
        <path
           inkscape:connector-curvature="0"
           id="rect4163-72-0"
           d="m 9.3316242,35.432617 0,7.620215 2.1904588,0 0,-7.620215 -2.1904588,0 z m 3.0391018,0 0,7.620215 2.190457,0 0,-7.620215 -2.190457,0 z m 3.039101,0 0,7.620215 2.190459,0 0,-7.620215 -2.190459,0 z m 3.039101,0 0,7.620215 2.190459,0 0,-7.620215 -2.190459,0 z m 3.039102,0 0,7.620215 2.190458,0 0,-7.620215 -2.190458,0 z m 3.039102,0 0,7.620215 2.190458,0 0,-7.620215 -2.190458,0 z m -24.5266818559,8.508898 0,2.191435 7.9376017559,0 0,-2.191435 -7.9376017559,0 z m 27.8128568559,0 0,2.191435 7.620214,0 0,-2.191435 -7.620214,0 z m -27.8128568559,3.039101 0,2.191434 7.9376017559,0 0,-2.191434 -7.9376017559,0 z m 27.8128568559,0 0,2.191434 7.620214,0 0,-2.191434 -7.620214,0 z m -27.8128568559,3.039102 0,2.191434 7.9376017559,0 0,-2.191434 -7.9376017559,0 z m 27.8128568559,0 0,2.191434 7.620214,0 0,-2.191434 -7.620214,0 z m -27.8128568559,3.039101 0,2.191435 7.9376017559,0 0,-2.191435 -7.9376017559,0 z m 27.8128568559,0 0,2.191435 7.620214,0 0,-2.191435 -7.620214,0 z m -27.8128568559,3.039102 0,2.191434 7.9376017559,0 0,-2.191434 -7.9376017559,0 z m 27.8128568559,0 0,2.191434 7.620214,0 0,-2.191434 -7.620214,0 z m -27.8128568559,3.039102 0,2.191435 7.9376017559,0 0,-2.191435 -7.9376017559,0 z m 27.8128568559,0 0,2.191435 7.620214,0 0,-2.191435 -7.620214,0 z m -18.4816828,2.978553 0,8.750112 2.1904588,0 0,-8.750112 -2.1904588,0 z m 3.0391018,0 0,8.750112 2.190457,0 0,-8.750112 -2.190457,0 z m 3.039101,0 0,8.750112 2.190459,0 0,-8.750112 -2.190459,0 z m 3.039101,0 0,8.750112 2.190459,0 0,-8.750112 -2.190459,0 z m 3.039102,0 0,8.750112 2.190458,0 0,-8.750112 -2.190458,0 z m 3.039102,0 0,8.750112 2.190458,0 0,-8.750112 -2.190458,0 z"
           style="fill:#000000;fill-opacity:1;stroke:none;stroke-width:2;stroke-linejoin:miter;stroke-miterlimit:4;stroke-dasharray:none;stroke-dashoffset:0;stroke-opacity:1" />
      </g>
      <rect
         ry="0"
         y="4.4291344"
         x="4.4291325"
         height="26.574802"
         width="26.574802"
         id="rect4141"
         style="opacity:1;fill:#ffffff;fill-opacity:1;stroke:none;stroke-width:3.54330707;stroke-linecap:round;stroke-linejoin:round;stroke-miterlimit:4;stroke-dasharray:none;stroke-dashoffset:0;stroke-opacity:1" />
      <g
         style="display:inline"
         transform="translate(0,-35.433071)"
         inkscape:label="chip"
         id="layer5">
        <rect
           ry="2.8608782"
           y="41.566044"
           x="6.1329727"
           height="23.167122"
           width="23.167122"
           id="rect4150"
           style="fill:#000000;fill-opacity:1;stroke:#000000;stroke-width:1.63602734;stroke-linecap:round;stroke-linejoin:round;stroke-miterlimit:4;stroke-dasharray:none;stroke-dashoffset:0;stroke-opacity:1" />
        <path
           d="M 8.347158,61.402018 A 1.1515895,1.1515895 0 0 1 9.1646714,59.994439 1.1515895,1.1515895 0 0 1 10.573085,60.810515 1.1515895,1.1515895 0 0 1 9.7584477,62.219761 1.1515895,1.1515895 0 0 1 8.3483705,61.406563"
           sodipodi:open="true"
           sodipodi:end="2.8787984"
           sodipodi:start="2.8828825"
           sodipodi:ry="1.1515895"
           sodipodi:rx="1.1515895"
           sodipodi:cy="61.107403"
           sodipodi:cx="9.4604235"
           sodipodi:type="arc"
           id="path4152"
           style="fill:#ffffff;fill-opacity:1;stroke:none;stroke-width:0.35433072;stroke-linecap:round;stroke-linejoin:round;stroke-miterlimit:4;stroke-dasharray:none;stroke-dashoffset:0;stroke-opacity:1" />
      </g>
      <g
         transform="translate(0,-35.433071)"
         style="display:inline"
         inkscape:label="prompt"
         id="layer2-3">
        <g
           id="text4149"
           style="font-style:normal;font-weight:normal;font-size:14.10797596px;line-height:125%;font-family:sans-serif;letter-spacing:0px;word-spacing:0px;display:inline;fill:#000000;fill-opacity:1;stroke:none;stroke-width:1px;stroke-linecap:butt;stroke-linejoin:miter;stroke-opacity:1"
           transform="matrix(0.88039615,0,0,1.1358523,-45.370179,-355.99526)" />
        <path
           inkscape:connector-curvature="0"
           id="path4162"
           d="m 18.31322,48.739394 0,1.601583 5.799879,2.817418 -5.799879,2.790075 0,1.611349 7.212007,-3.679735 0,-1.461932 -7.212007,-3.678758 z m -8.40538,1.875024 0,1.496112 7.212006,0 0,-1.496112 -7.212006,0 z m 0,3.573288 0,1.514667 7.212006,0 0,-1.514667 -7.212006,0 z"
           style="font-style:normal;font-variant:normal;font-weight:500;font-stretch:normal;font-size:31.74294662px;line-height:125%;font-family:monospace;-inkscape-font-specification:'monospace Medium';letter-spacing:0px;word-spacing:0px;display:inline;fill:#ffffff;fill-opacity:1;stroke:none;stroke-width:1px;stroke-linecap:butt;stroke-linejoin:miter;stroke-opacity:1" />
      </g>
      <rect
         y="2.6205726"
         x="2.6249979"
         height="1.4999999"
         width="1.5624999"
         id="rect4143"
         style="opacity:1;fill:#ffffff;fill-opacity:1;stroke:none;stroke-width:3.54330707;stroke-linecap:round;stroke-linejoin:round;stroke-miterlimit:4;stroke-dasharray:none;stroke-dashoffset:0;stroke-opacity:1" />
    </g>
    <g
       id="g4425"
       transform="translate(-3.0104093,6.7642057)">
      <text
         transform="scale(1.0239643,0.97659655)"
         sodipodi:linespacing="125%"
         id="text4202"
         y="321.69009"
         x="310.56458"
         style="font-style:normal;font-weight:normal;font-size:6.10843801px;line-height:125%;font-family:sans-serif;letter-spacing:0px;word-spacing:0px;display:inline;fill:#000000;fill-opacity:1;stroke:none;stroke-width:1px;stroke-linecap:butt;stroke-linejoin:miter;stroke-opacity:1"
         xml:space="preserve"><tspan
           y="321.69009"
           x="310.56458"
           id="tspan4204"
           sodipodi:role="line">STM32F4</tspan></text>
      <path
         inkscape:connector-curvature="0"
         id="path4217"
         d="m 328.52954,306.99175 c 0,-0.11765 0.19994,-0.32166 0.4443,-0.4525 0.6129,-0.32794 1.33576,-1.82444 1.33576,-2.76525 0,-1.23895 -0.59193,-2.12495 -2.59827,-3.88922 -1.38981,-1.22216 -1.85657,-1.76796 -1.80719,-2.1137 0.0651,-0.45637 0.1783,-0.46753 5.35113,-0.52577 3.7792,-0.0433 5.28453,0.0138 5.28453,0.1887 0,0.1373 -0.14272,0.56415 -0.31715,0.94977 -1.15881,2.56187 -1.57158,3.5408 -2.04485,4.85006 -0.29402,0.81321 -0.78275,2.03978 -1.08604,2.72565 l -0.55147,1.24689 -2.00538,0 c -1.13981,0 -2.00537,-0.0934 -2.00537,-0.21463 z m 6.89772,0.0138 c 0,-0.1386 0.61203,-1.62668 1.36006,-3.30707 0.74801,-1.68038 1.53732,-3.55601 1.75401,-4.16796 0.87312,-2.46564 0.7109,-2.33627 2.92935,-2.33627 1.48662,0 1.96685,0.0729 1.96685,0.29546 0,0.284 -0.52035,1.61995 -2.39499,6.14899 -1.15342,2.78655 -1.86848,3.40689 -4.07026,3.53138 -1.05279,0.0581 -1.54502,0 -1.54502,-0.16453 z m -18.02307,-2.68994 c 0,-0.1253 0.54047,-1.45478 1.20103,-2.95245 0.66055,-1.49742 1.61132,-3.76697 2.11279,-5.04356 0.50148,-1.27651 1.13753,-2.56612 1.41345,-2.86555 1.05673,-1.1475 1.13788,-1.15498 12.6471,-1.15498 l 10.71343,0 -0.13416,0.50077 c -0.0738,0.27516 -0.13554,0.61859 -0.1372,0.76273 -0.001,0.14422 -0.16039,0.41947 -0.3527,0.61196 -0.30704,0.30689 -1.51736,0.34962 -9.93093,0.34962 -9.4296,0 -9.59359,0.0138 -10.35896,0.48046 -1.0427,0.64463 -1.70596,2.12957 -1.51095,3.38273 0.16388,1.05357 0.48054,1.44721 2.86832,3.56553 1.27755,1.13328 1.70965,1.65446 1.65999,2.00251 -0.0658,0.461 -0.16766,0.47152 -5.12917,0.53011 -3.37077,0.0396 -5.06204,-0.0175 -5.06204,-0.16988 z"
         style="display:inline;fill:#000000" />
    </g>
    <path
       style="fill:#000000"
       d="m 291.77055,277.86241 c -0.10693,-0.81476 -0.40856,-9.71719 -0.67054,-19.78313 -0.262,-10.06597 -0.54134,-18.3585 -0.62073,-18.4279 -0.0794,-0.0694 -0.1636,0.7728 -0.18719,1.87153 -0.0235,1.09868 -0.12744,5.51265 -0.2312,9.80875 l -0.18832,7.81107 -2.59129,0.0786 c -1.42518,0.0433 -2.70159,-0.0162 -2.83639,-0.13455 -0.13482,-0.11741 0.96191,-0.21358 2.43716,-0.21358 l 2.68231,0 0.23869,-10.89639 c 0.23744,-10.83812 0.52687,-14.2013 0.95136,-11.05545 0.16622,1.23121 1.12376,33.27687 1.12216,37.55156 -2.8e-4,0.72834 0.0677,1.26476 0.15085,1.19199 0.0831,-0.0729 0.36265,-6.9714 0.6209,-15.33033 0.49104,-15.89462 0.65981,-18.77502 1.07757,-18.39225 0.21323,0.19534 1.24241,23.3786 1.2349,27.81699 -10e-4,0.80241 0.0811,1.38604 0.18302,1.29688 0.10181,-0.0892 0.42352,-5.56177 0.71442,-12.16133 0.29087,-6.59959 0.62353,-12.08196 0.73919,-12.18302 0.11578,-0.10131 0.27625,-0.12631 0.35687,-0.0558 0.0806,0.0704 0.38481,4.87509 0.67597,10.677 0.29117,5.80192 0.59726,10.48961 0.68021,10.4171 0.083,-0.0722 0.38862,-4.0768 0.67929,-8.89847 0.48779,-8.09162 0.63258,-9.32545 1.05133,-8.95952 0.17622,0.15396 1.0818,11.77415 1.0818,13.88126 0,0.78612 0.11554,1.42931 0.25657,1.42931 0.1411,0 0.423,-2.27264 0.62641,-5.05026 0.45275,-6.18251 0.65993,-7.87845 0.96251,-7.87845 0.32842,0 0.54058,1.39745 0.94051,6.19501 0.50881,6.10333 0.71779,6.2106 1.31847,0.67667 0.28715,-2.64515 0.59827,-4.87594 0.69139,-4.95735 0.38638,-0.33764 0.68014,0.7195 1.02605,3.69259 0.38403,3.30077 0.63845,4.72896 0.81493,4.57476 0.0579,-0.0505 0.33091,-1.60222 0.60654,-3.44797 0.27565,-1.84575 0.55255,-3.40079 0.61535,-3.45567 0.3952,-0.34536 0.75311,0.52126 1.06509,2.57887 0.51791,3.41564 0.77477,3.79905 1.21903,1.81952 0.67333,-3.00025 0.7985,-3.39947 1.08181,-3.45057 0.32971,-0.0594 0.62019,0.68919 1.1119,2.8659 0.19508,0.86356 0.41825,1.51455 0.49593,1.44668 0.0776,-0.068 0.37767,-0.88578 0.66659,-1.81753 0.64232,-2.0714 1.14401,-2.30433 1.60521,-0.74531 0.57977,1.95956 0.65162,2.11707 0.9035,1.98103 0.13412,-0.0726 0.4213,-0.68576 0.63827,-1.36301 0.49653,-1.5497 1.11301,-1.50566 1.84469,0.13183 l 0.53791,1.20385 0.66346,-1.13651 c 0.36492,-0.62506 0.79581,-1.13647 0.95755,-1.13647 0.16167,0 0.50921,0.36362 0.77221,0.80803 0.58745,0.99268 0.72098,0.99829 1.6045,0.0673 l 0.70296,-0.74069 0.81169,0.79533 0.8117,0.79533 0.54983,-0.59331 c 0.6406,-0.69135 1.29702,-0.75897 1.83801,-0.18933 0.4932,0.51932 0.89583,0.51032 1.58604,-0.0354 0.5145,-0.40689 0.61635,-0.40481 1.37202,0.0277 0.69703,0.39909 0.92576,0.41615 1.566,0.11678 0.55252,-0.25842 1.59396,-0.0722 1.59396,-0.0722 l 0.23215,0.33057 c 0,0 -0.9948,-0.22845 -1.71105,0.0309 -0.78218,0.28313 -1.05367,0.27211 -1.64544,-0.0666 -0.60788,-0.34804 -0.79194,-0.35257 -1.29364,-0.0319 -0.77971,0.49823 -1.37428,0.47115 -2.09046,-0.0951 -0.56648,-0.44799 -0.61815,-0.44197 -1.15245,0.13455 -0.71974,0.77669 -1.09877,0.76135 -1.72186,-0.0699 -0.64343,-0.85812 -0.78253,-0.84477 -1.42142,0.13634 -0.28879,0.4435 -0.65651,0.80638 -0.81719,0.80638 -0.16061,0 -0.60197,-0.45453 -0.98071,-1.01007 l -0.68858,-1.01006 -0.56211,1.14472 c -0.30918,0.6296 -0.71146,1.14474 -0.89396,1.14474 -0.1825,0 -0.62152,-0.57574 -0.97562,-1.2794 l -0.64378,-1.27941 -0.41016,0.80803 c -0.22558,0.44445 -0.4164,1.00531 -0.42407,1.24645 -0.006,0.24108 -0.21964,0.58759 -0.47113,0.76997 -0.50076,0.36316 -0.78673,-0.0604 -1.22248,-1.81132 -0.32367,-1.30053 -0.71789,-1.30462 -1.08084,-0.01 -0.55845,1.9903 -0.78968,2.50167 -1.0997,2.43227 -0.35526,-0.0795 -0.59782,-0.7202 -1.0788,-2.84952 -0.19508,-0.86356 -0.41545,-1.51699 -0.48972,-1.4521 -0.0744,0.0648 -0.34902,1.19569 -0.61052,2.51282 -0.75508,3.80314 -1.10739,3.71583 -1.82372,-0.45191 -0.26292,-1.52965 -0.52992,-2.82652 -0.59339,-2.88195 -0.16551,-0.14442 -0.40632,1.0466 -0.81065,4.00833 -0.32979,2.41548 -0.67294,3.49519 -1.01508,3.19399 -0.14284,-0.12579 -1.12233,-7.08165 -1.12233,-7.96998 0,-0.25398 -0.0858,-0.38684 -0.1906,-0.29521 -0.1048,0.0916 -0.37633,1.83898 -0.60331,3.88308 -0.8659,7.79785 -1.16471,7.81882 -1.88933,0.13274 -0.28156,-2.98673 -0.58703,-5.36481 -0.67879,-5.28462 -0.0917,0.08 -0.39733,2.99357 -0.67909,6.47419 -0.48582,6.00218 -0.63286,6.88411 -1.08229,6.49141 -0.10543,-0.0921 -0.41755,-3.49611 -0.69349,-7.5643 -0.27598,-4.06821 -0.57977,-7.46481 -0.67508,-7.54805 -0.0953,-0.0832 -0.3452,3.08836 -0.55535,7.04802 -0.4616,8.69775 -0.67464,11.10492 -0.9829,11.10492 -0.37999,0 -0.56177,-2.08965 -0.93714,-10.7739 -0.34646,-8.01543 -0.7857,-12.48058 -0.86108,-8.75381 -0.12127,6.00287 -1.04829,23.20594 -1.26045,23.3952 -0.40593,0.36212 -0.58261,-2.26363 -1.07394,-15.95845 -0.25185,-7.02036 -0.53101,-12.82817 -0.62032,-12.90623 -0.0892,-0.078 -0.16151,0.51458 -0.16028,1.31704 0.006,4.61363 -1.00631,31.75808 -1.21051,32.43395 -0.22334,0.73914 -0.2607,0.68172 -0.43831,-0.67335 z"
       id="path4449"
       inkscape:connector-curvature="0"
       sodipodi:nodetypes="csccccccscssscscccsccscsssssssscscscsscscccccscsssccccsscccccscccscssscssscsccsccccsscscsccscscscsssscsccscc" />
    <rect
       style="opacity:0.98999999;fill:none;fill-opacity:1;stroke:#000000;stroke-width:0.85161668;stroke-linecap:round;stroke-linejoin:round;stroke-miterlimit:4;stroke-dasharray:none;stroke-dashoffset:0;stroke-opacity:1"
       id="rect4451"
       width="56.39595"
       height="52.028942"
       x="281.64496"
       y="231.888"
       ry="9.3446646" />
    <text
       xml:space="preserve"
       style="font-style:normal;font-weight:normal;font-size:6.29488659px;line-height:125%;font-family:sans-serif;letter-spacing:0px;word-spacing:0px;fill:#000000;fill-opacity:1;stroke:none;stroke-width:1px;stroke-linecap:butt;stroke-linejoin:miter;stroke-opacity:1"
       x="312.67172"
       y="280.23779"
       id="text4453"
       sodipodi:linespacing="125%"><tspan
         sodipodi:role="line"
         id="tspan4455"
         x="312.67172"
         y="280.23779">preset</tspan></text>
  </g>
</svg>
