<?xml version="1.0" encoding="UTF-8" standalone="no"?>
<!-- Created with Inkscape (http://www.inkscape.org/) -->

<svg
   xmlns:dc="http://purl.org/dc/elements/1.1/"
   xmlns:cc="http://creativecommons.org/ns#"
   xmlns:rdf="http://www.w3.org/1999/02/22-rdf-syntax-ns#"
   xmlns:svg="http://www.w3.org/2000/svg"
   xmlns="http://www.w3.org/2000/svg"
   xmlns:sodipodi="http://sodipodi.sourceforge.net/DTD/sodipodi-0.dtd"
   xmlns:inkscape="http://www.inkscape.org/namespaces/inkscape"
   width="20mm"
   height="20mm"
   viewBox="0 0 70.866137 70.86614"
   id="svg2"
   version="1.1"
   inkscape:version="0.91 r13725"
   sodipodi:docname="logo_greyscale.svg"
   inkscape:export-filename="/home/trees/src/github.mcush/doc/logo_greyscale.png"
   inkscape:export-xdpi="300"
   inkscape:export-ydpi="300">
  <defs
     id="defs4" />
  <sodipodi:namedview
     id="base"
     pagecolor="#ffffff"
     bordercolor="#666666"
     borderopacity="1.0"
     inkscape:pageopacity="1"
     inkscape:pageshadow="2"
     inkscape:zoom="4.0000002"
     inkscape:cx="26.244448"
     inkscape:cy="6.0990584"
     inkscape:document-units="mm"
     inkscape:current-layer="layer2"
     showgrid="false"
     fit-margin-top="0"
     fit-margin-left="0"
     fit-margin-right="0"
     fit-margin-bottom="0"
     inkscape:window-width="1920"
     inkscape:window-height="1026"
     inkscape:window-x="0"
     inkscape:window-y="30"
     inkscape:window-maximized="1" />
  <metadata
     id="metadata7">
    <rdf:RDF>
      <cc:Work
         rdf:about="">
        <dc:format>image/svg+xml</dc:format>
        <dc:type
           rdf:resource="http://purl.org/dc/dcmitype/StillImage" />
        <dc:title />
      </cc:Work>
    </rdf:RDF>
  </metadata>
  <g
     inkscape:groupmode="layer"
     id="layer3"
     inkscape:label="pins"
     style="display:inline">
    <path
       style="fill:#666666;fill-opacity:1;stroke:none;stroke-width:2;stroke-linejoin:miter;stroke-miterlimit:4;stroke-dasharray:none;stroke-dashoffset:0;stroke-opacity:1"
       d="m 18.662559,4.5386614e-4 0,15.24023413386 4.38086,0 0,-15.24023413386 -4.38086,0 z m 6.078125,0 0,15.24023413386 4.38086,0 0,-15.24023413386 -4.38086,0 z m 6.078125,0 0,15.24023413386 4.38086,0 0,-15.24023413386 -4.38086,0 z m 6.078125,0 0,15.24023413386 4.38086,0 0,-15.24023413386 -4.38086,0 z m 6.078125,0 0,15.24023413386 4.38086,0 0,-15.24023413386 -4.38086,0 z m 6.078125,0 0,15.24023413386 4.38086,0 0,-15.24023413386 -4.38086,0 z M 4.501441e-4,17.018032 l 0,4.382813 15.8749998559,0 0,-4.382813 -15.8749998559,0 z m 55.6249998559,0 0,4.382813 15.240234,0 0,-4.382813 -15.240234,0 z m -55.6249998559,6.078125 0,4.382813 15.8749998559,0 0,-4.382813 -15.8749998559,0 z m 55.6249998559,0 0,4.382813 15.240234,0 0,-4.382813 -15.240234,0 z m -55.6249998559,6.078125 0,4.382813 15.8749998559,0 0,-4.382813 -15.8749998559,0 z m 55.6249998559,0 0,4.382813 15.240234,0 0,-4.382813 -15.240234,0 z m -55.6249998559,6.078125 0,4.382813 15.8749998559,0 0,-4.382813 -15.8749998559,0 z m 55.6249998559,0 0,4.382813 15.240234,0 0,-4.382813 -15.240234,0 z m -55.6249998559,6.078125 0,4.382813 15.8749998559,0 0,-4.382813 -15.8749998559,0 z m 55.6249998559,0 0,4.382813 15.240234,0 0,-4.382813 -15.240234,0 z m -55.6249998559,6.078125 0,4.382813 15.8749998559,0 0,-4.382813 -15.8749998559,0 z m 55.6249998559,0 0,4.382813 15.240234,0 0,-4.382813 -15.240234,0 z m -36.962891,5.957031 0,17.5 4.38086,0 0,-17.5 -4.38086,0 z m 6.078125,0 0,17.5 4.38086,0 0,-17.5 -4.38086,0 z m 6.078125,0 0,17.5 4.38086,0 0,-17.5 -4.38086,0 z m 6.078125,0 0,17.5 4.38086,0 0,-17.5 -4.38086,0 z m 6.078125,0 0,17.5 4.38086,0 0,-17.5 -4.38086,0 z m 6.078125,0 0,17.5 4.38086,0 0,-17.5 -4.38086,0 z"
       id="rect4163-72-0"
       inkscape:connector-curvature="0" />
  </g>
  <g
     inkscape:groupmode="layer"
     id="layer4"
     inkscape:label="background" />
  <g
     inkscape:groupmode="layer"
     id="layer5"
     inkscape:label="chip">
    <rect
       style="fill:#000000;fill-opacity:1;stroke:none;stroke-width:0;stroke-linecap:round;stroke-linejoin:round;stroke-miterlimit:4;stroke-dasharray:none;stroke-dashoffset:0;stroke-opacity:1"
       id="rect4150"
       width="52.467319"
       height="49.736675"
       x="9.1994066"
       y="10.564734"
       ry="4.1069522" />
    <path
       style="fill:#666666;fill-opacity:1;stroke:none;stroke-width:0;stroke-linecap:round;stroke-linejoin:round;stroke-miterlimit:4;stroke-dasharray:none;stroke-dashoffset:0;stroke-opacity:1"
       id="path4152"
       sodipodi:type="arc"
       sodipodi:cx="15.738174"
       sodipodi:cy="53.11713"
       sodipodi:rx="2.3031497"
       sodipodi:ry="2.3031497"
       sodipodi:start="2.8828825"
       sodipodi:end="2.8787984"
       sodipodi:open="true"
       d="m 13.511672,53.706354 a 2.3031497,2.3031497 0 0 1 1.635006,-2.815124 2.3031497,2.3031497 0 0 1 2.816791,1.632131 2.3031497,2.3031497 0 0 1 -1.629254,2.818457 2.3031497,2.3031497 0 0 1 -2.820118,-1.626376" />
  </g>
  <g
     inkscape:groupmode="layer"
     id="layer2"
     inkscape:label="prompt"
     style="display:inline">
    <g
       transform="matrix(0.88039615,0,0,1.1358523,-45.370179,-355.99526)"
       style="font-style:normal;font-weight:normal;font-size:14.10797596px;line-height:125%;font-family:sans-serif;letter-spacing:0px;word-spacing:0px;display:inline;fill:#000000;fill-opacity:1;stroke:none;stroke-width:1px;stroke-linecap:butt;stroke-linejoin:miter;stroke-opacity:1"
       id="text4149" />
    <path
       style="font-style:normal;font-variant:normal;font-weight:500;font-stretch:normal;font-size:31.74294662px;line-height:125%;font-family:monospace;-inkscape-font-specification:'monospace Medium';letter-spacing:0px;word-spacing:0px;display:inline;fill:#ffffff;fill-opacity:1;stroke:none;stroke-width:1px;stroke-linecap:butt;stroke-linejoin:miter;stroke-opacity:1"
       d="m 37.80273,26.612758 0,3.203125 11.59961,5.634765 -11.59961,5.580079 0,3.222656 14.423828,-7.359375 0,-2.923828 -14.423828,-7.357422 z m -16.810546,3.75 0,2.992187 14.423828,0 0,-2.992187 -14.423828,0 z m 0,7.146484 0,3.029297 14.423828,0 0,-3.029297 -14.423828,0 z"
       id="path4162"
       inkscape:connector-curvature="0" />
  </g>
</svg>
