G04 #@! TF.FileFunction,Copper,L1,Top,Signal*
%FSLAX46Y46*%
G04 Gerber Fmt 4.6, Leading zero omitted, Abs format (unit mm)*
G04 Created by KiCad (PCBNEW 4.0.2+dfsg1-stable) date Wed 09 May 2018 09:33:26 CST*
%MOMM*%
G01*
G04 APERTURE LIST*
%ADD10C,0.100000*%
%ADD11R,1.727200X2.032000*%
%ADD12O,1.727200X2.032000*%
%ADD13C,1.501140*%
%ADD14R,1.000000X1.600000*%
%ADD15R,1.600000X1.000000*%
%ADD16R,0.900000X0.500000*%
%ADD17R,0.500000X0.900000*%
%ADD18R,1.300000X0.250000*%
%ADD19R,0.250000X1.300000*%
%ADD20R,0.800000X0.750000*%
%ADD21R,0.750000X0.800000*%
%ADD22R,1.000760X1.501140*%
%ADD23R,1.998980X2.999740*%
%ADD24R,0.797560X0.797560*%
%ADD25R,3.600000X1.778000*%
%ADD26C,1.200000*%
G04 APERTURE END LIST*
D10*
D11*
X108127800Y-101376480D03*
D12*
X110667800Y-101376480D03*
X113207800Y-101376480D03*
X115747800Y-101376480D03*
X118287800Y-101376480D03*
D13*
X129621280Y-110015020D03*
X129621280Y-105133140D03*
D14*
X107892720Y-104531160D03*
X110892720Y-104531160D03*
D15*
X113035080Y-107219880D03*
X113035080Y-104219880D03*
D16*
X113558320Y-112269840D03*
X113558320Y-113769840D03*
X111798100Y-113805400D03*
X111798100Y-112305400D03*
D17*
X110239240Y-113454180D03*
X108739240Y-113454180D03*
D18*
X124687580Y-111380720D03*
X124687580Y-110880720D03*
X124687580Y-110380720D03*
X124687580Y-109880720D03*
X124687580Y-109380720D03*
X124687580Y-108880720D03*
X124687580Y-108380720D03*
X124687580Y-107880720D03*
X124687580Y-107380720D03*
X124687580Y-106880720D03*
X124687580Y-106380720D03*
X124687580Y-105880720D03*
D19*
X123087580Y-104280720D03*
X122587580Y-104280720D03*
X122087580Y-104280720D03*
X121587580Y-104280720D03*
X121087580Y-104280720D03*
X120587580Y-104280720D03*
X120087580Y-104280720D03*
X119587580Y-104280720D03*
X119087580Y-104280720D03*
X118587580Y-104280720D03*
X118087580Y-104280720D03*
X117587580Y-104280720D03*
D18*
X115987580Y-105880720D03*
X115987580Y-106380720D03*
X115987580Y-106880720D03*
X115987580Y-107380720D03*
X115987580Y-107880720D03*
X115987580Y-108380720D03*
X115987580Y-108880720D03*
X115987580Y-109380720D03*
X115987580Y-109880720D03*
X115987580Y-110380720D03*
X115987580Y-110880720D03*
X115987580Y-111380720D03*
D19*
X117587580Y-112980720D03*
X118087580Y-112980720D03*
X118587580Y-112980720D03*
X119087580Y-112980720D03*
X119587580Y-112980720D03*
X120087580Y-112980720D03*
X120587580Y-112980720D03*
X121087580Y-112980720D03*
X121587580Y-112980720D03*
X122087580Y-112980720D03*
X122587580Y-112980720D03*
X123087580Y-112980720D03*
D20*
X126149800Y-100863400D03*
X124649800Y-100863400D03*
D21*
X113261140Y-108932280D03*
X113261140Y-110432280D03*
X121056400Y-100621400D03*
X121056400Y-102121400D03*
D16*
X122961400Y-102121400D03*
X122961400Y-100621400D03*
D20*
X133209600Y-112471200D03*
X134709600Y-112471200D03*
X133209600Y-110871000D03*
X134709600Y-110871000D03*
D17*
X134735000Y-114096800D03*
X133235000Y-114096800D03*
X133184200Y-109220000D03*
X134684200Y-109220000D03*
X130364800Y-100893880D03*
X131864800Y-100893880D03*
X134709600Y-100838000D03*
X133209600Y-100838000D03*
X134684200Y-102514400D03*
X133184200Y-102514400D03*
X134684200Y-104190800D03*
X133184200Y-104190800D03*
X134684200Y-105867200D03*
X133184200Y-105867200D03*
X129086040Y-100871020D03*
X127586040Y-100871020D03*
D22*
X110967520Y-106883200D03*
X109466380Y-106883200D03*
X107965240Y-106883200D03*
D23*
X109466380Y-109834680D03*
D10*
G36*
X108465620Y-108360210D02*
X108966000Y-107610910D01*
X109966760Y-107610910D01*
X110467140Y-108360210D01*
X108465620Y-108360210D01*
X108465620Y-108360210D01*
G37*
D24*
X134708900Y-107495340D03*
X133210300Y-107495340D03*
D25*
X138204800Y-105029000D03*
X138204800Y-107569000D03*
X138204800Y-102489000D03*
X138204800Y-112649000D03*
X138204800Y-110109000D03*
D26*
X102271320Y-113527320D03*
X102576120Y-113527320D03*
X102880920Y-113527320D03*
X103185720Y-113527320D03*
X103490520Y-113527320D03*
X102195120Y-101513120D03*
X102499920Y-101513120D03*
X102804720Y-101513120D03*
X103109520Y-101513120D03*
X103414320Y-101513120D03*
X103795320Y-113527320D03*
X102957120Y-109513120D03*
X102957120Y-105513120D03*
X103719120Y-101513120D03*
D13*
X105737240Y-111069980D03*
X105737240Y-108529980D03*
X105737240Y-106497980D03*
X105737240Y-103957980D03*
M02*
