M48
;DRILL file {KiCad 4.0.2+dfsg1-stable} date Wed 09 May 2018 09:33:37 CST
;FORMAT={-:-/ absolute / metric / decimal}
FMAT,2
METRIC,TZ
T1C0.700
T2C0.800
T3C1.000
T4C1.001
T5C1.016
%
G90
G05
M71
T1
X102.195Y-101.513
X102.271Y-113.527
X102.5Y-101.513
X102.576Y-113.527
X102.805Y-101.513
X102.881Y-113.527
X103.11Y-101.513
X103.186Y-113.527
X103.414Y-101.513
X103.491Y-113.527
X103.719Y-101.513
X103.795Y-113.527
T2
X129.621Y-105.133
X129.621Y-110.015
T3
X102.957Y-105.513
X102.957Y-109.513
T4
X105.737Y-103.958
X105.737Y-106.498
X105.737Y-108.53
X105.737Y-111.07
T5
X108.128Y-101.376
X110.668Y-101.376
X113.208Y-101.376
X115.748Y-101.376
X118.288Y-101.376
T0
M30
