<?xml version="1.0" encoding="UTF-8" standalone="no"?>
<!-- Created with Inkscape (http://www.inkscape.org/) -->

<svg
   xmlns:dc="http://purl.org/dc/elements/1.1/"
   xmlns:cc="http://creativecommons.org/ns#"
   xmlns:rdf="http://www.w3.org/1999/02/22-rdf-syntax-ns#"
   xmlns:svg="http://www.w3.org/2000/svg"
   xmlns="http://www.w3.org/2000/svg"
   xmlns:sodipodi="http://sodipodi.sourceforge.net/DTD/sodipodi-0.dtd"
   xmlns:inkscape="http://www.inkscape.org/namespaces/inkscape"
   width="45mm"
   height="23mm"
   viewBox="0 0 159.44882 81.496063"
   id="svg2"
   version="1.1"
   inkscape:version="0.91 r13725"
   sodipodi:docname="label.svg"
   inkscape:export-filename="/home/trees/src/github.mcush/hardware/tiny.svg.png"
   inkscape:export-xdpi="115.01"
   inkscape:export-ydpi="115.01">
  <defs
     id="defs4" />
  <sodipodi:namedview
     id="base"
     pagecolor="#ffffff"
     bordercolor="#666666"
     borderopacity="1.0"
     inkscape:pageopacity="1"
     inkscape:pageshadow="2"
     inkscape:zoom="4"
     inkscape:cx="93.442072"
     inkscape:cy="1.1674172"
     inkscape:document-units="mm"
     inkscape:current-layer="layer1"
     showgrid="false"
     showguides="true"
     inkscape:guide-bbox="true"
     inkscape:window-width="1680"
     inkscape:window-height="996"
     inkscape:window-x="0"
     inkscape:window-y="30"
     inkscape:window-maximized="1" />
  <metadata
     id="metadata7">
    <rdf:RDF>
      <cc:Work
         rdf:about="">
        <dc:format>image/svg+xml</dc:format>
        <dc:type
           rdf:resource="http://purl.org/dc/dcmitype/StillImage" />
        <dc:title />
      </cc:Work>
    </rdf:RDF>
  </metadata>
  <g
     inkscape:groupmode="layer"
     id="layer2"
     inkscape:label="background"
     style="display:inline"
     sodipodi:insensitive="true">
    <rect
       style="display:inline;fill:#000000;fill-opacity:1;stroke:#000000;stroke-width:0;stroke-linecap:round;stroke-linejoin:round;stroke-miterlimit:4;stroke-dasharray:none;stroke-dashoffset:0;stroke-opacity:1"
       id="rect4222"
       width="159.45258"
       height="13.965361"
       x="0.001611721"
       y="-0.0062169712" />
    <rect
       style="display:inline;fill:#000000;fill-opacity:1;stroke:#000000;stroke-width:0;stroke-linecap:round;stroke-linejoin:round;stroke-miterlimit:4;stroke-dasharray:none;stroke-dashoffset:0;stroke-opacity:1"
       id="rect4222-5"
       width="159.47469"
       height="14.031651"
       x="-0.013585613"
       y="67.540878" />
    <rect
       style="opacity:1;fill:#000000;fill-opacity:1;stroke:none;stroke-width:0;stroke-linecap:round;stroke-linejoin:round;stroke-miterlimit:4;stroke-dasharray:none;stroke-dashoffset:0;stroke-opacity:1"
       id="rect4188"
       width="1.7716535"
       height="54.172253"
       x="157.677"
       y="13.516385" />
    <rect
       style="display:inline;opacity:1;fill:#000000;fill-opacity:1;stroke:none;stroke-width:0;stroke-linecap:round;stroke-linejoin:round;stroke-miterlimit:4;stroke-dasharray:none;stroke-dashoffset:0;stroke-opacity:1"
       id="rect4188-2"
       width="1.7716535"
       height="19.991127"
       x="133.98918"
       y="12.450821" />
    <rect
       style="display:inline;opacity:1;fill:#000000;fill-opacity:1;stroke:none;stroke-width:0;stroke-linecap:round;stroke-linejoin:round;stroke-miterlimit:4;stroke-dasharray:none;stroke-dashoffset:0;stroke-opacity:1"
       id="rect4188-2-8"
       width="1.7716535"
       height="22.267776"
       x="133.98918"
       y="46.817871" />
    <path
       transform="translate(0,-970.86614)"
       style="display:inline;fill:#ffffff;fill-opacity:1;stroke:none;stroke-width:0.70866144;stroke-linejoin:miter;stroke-miterlimit:4;stroke-dasharray:none;stroke-dashoffset:0;stroke-opacity:1"
       id="path4140"
       sodipodi:type="arc"
       sodipodi:cx="138.21295"
       sodipodi:cy="977.89868"
       sodipodi:rx="5.0748935"
       sodipodi:ry="5.074964"
       sodipodi:start="2.8828825"
       sodipodi:end="2.8787984"
       sodipodi:open="true"
       d="m 133.30695,979.19703 a 5.0748935,5.074964 0 0 1 3.60266,-6.20309 5.0748935,5.074964 0 0 1 6.20669,3.59638 5.0748935,5.074964 0 0 1 -3.59,6.21043 5.0748935,5.074964 0 0 1 -6.21401,-3.58369" />
    <path
       transform="translate(0,-970.86614)"
       style="display:inline;fill:#ffffff;fill-opacity:1;stroke:none;stroke-width:0.70866144;stroke-linejoin:miter;stroke-miterlimit:4;stroke-dasharray:none;stroke-dashoffset:0;stroke-opacity:1"
       id="path4140-3"
       sodipodi:type="arc"
       sodipodi:cx="138.21295"
       sodipodi:cy="1045.425"
       sodipodi:rx="5.0748935"
       sodipodi:ry="5.074964"
       sodipodi:start="2.8828825"
       sodipodi:end="2.8787984"
       sodipodi:open="true"
       d="m 133.30695,1046.7234 a 5.0748935,5.074964 0 0 1 3.60266,-6.2031 5.0748935,5.074964 0 0 1 6.20669,3.5964 5.0748935,5.074964 0 0 1 -3.59,6.2104 5.0748935,5.074964 0 0 1 -6.21401,-3.5837" />
  </g>
  <g
     inkscape:label="contents"
     inkscape:groupmode="layer"
     id="layer1"
     transform="translate(0,-970.86614)"
     style="display:inline">
    <text
       xml:space="preserve"
       style="font-style:normal;font-variant:normal;font-weight:normal;font-stretch:normal;font-size:7.71833038px;line-height:125%;font-family:FreeSans;-inkscape-font-specification:FreeSans;letter-spacing:0px;word-spacing:0px;fill:#ffffff;fill-opacity:1;stroke:none;stroke-width:1px;stroke-linecap:butt;stroke-linejoin:miter;stroke-opacity:1"
       x="6.9109211"
       y="1015.3724"
       id="text4222"
       sodipodi:linespacing="125%"
       transform="scale(0.96890898,1.0320887)"><tspan
         sodipodi:role="line"
         id="tspan4224"
         x="6.9109211"
         y="1015.3724">https://github.com/pengshulin/mcush</tspan></text>
    <text
       xml:space="preserve"
       style="font-style:normal;font-variant:normal;font-weight:normal;font-stretch:normal;font-size:9.7940712px;line-height:125%;font-family:FreeSans;-inkscape-font-specification:FreeSans;letter-spacing:0px;word-spacing:0px;fill:#ffffff;fill-opacity:1;stroke:none;stroke-width:1px;stroke-linecap:butt;stroke-linejoin:miter;stroke-opacity:1"
       x="9.1959057"
       y="1060.6831"
       id="text4226"
       sodipodi:linespacing="125%"
       transform="scale(1.0806522,0.92536711)"><tspan
         sodipodi:role="line"
         x="9.1959057"
         y="1060.6831"
         id="tspan4352"
         style="font-style:normal;font-variant:normal;font-weight:normal;font-stretch:normal;font-family:FreeSans;-inkscape-font-specification:FreeSans;fill:#ffffff;fill-opacity:1">MCUSH CONTROLLER</tspan></text>
    <text
       xml:space="preserve"
       style="font-style:normal;font-weight:normal;font-size:5.70534515px;line-height:125%;font-family:sans-serif;letter-spacing:0px;word-spacing:0px;fill:#000000;fill-opacity:1;stroke:none;stroke-width:1px;stroke-linecap:butt;stroke-linejoin:miter;stroke-opacity:1"
       x="138.71761"
       y="992.37732"
       id="text4230"
       sodipodi:linespacing="125%"><tspan
         sodipodi:role="line"
         id="tspan4232"
         x="138.71761"
         y="992.37732">D0</tspan></text>
    <text
       xml:space="preserve"
       style="font-style:normal;font-weight:normal;font-size:5.70534515px;line-height:125%;font-family:sans-serif;letter-spacing:0px;word-spacing:0px;fill:#000000;fill-opacity:1;stroke:none;stroke-width:1px;stroke-linecap:butt;stroke-linejoin:miter;stroke-opacity:1"
       x="149.13011"
       y="992.37445"
       id="text4230-2"
       sodipodi:linespacing="125%"><tspan
         sodipodi:role="line"
         id="tspan4232-7"
         x="149.13011"
         y="992.37445">D1</tspan></text>
    <text
       xml:space="preserve"
       style="font-style:normal;font-weight:normal;font-size:5.70534515px;line-height:125%;font-family:sans-serif;letter-spacing:0px;word-spacing:0px;fill:#000000;fill-opacity:1;stroke:none;stroke-width:1px;stroke-linecap:butt;stroke-linejoin:miter;stroke-opacity:1"
       x="138.72046"
       y="1002.7986"
       id="text4230-0"
       sodipodi:linespacing="125%"><tspan
         sodipodi:role="line"
         id="tspan4232-9"
         x="138.72046"
         y="1002.7986">D2</tspan></text>
    <text
       xml:space="preserve"
       style="font-style:normal;font-weight:normal;font-size:5.70534515px;line-height:125%;font-family:sans-serif;letter-spacing:0px;word-spacing:0px;fill:#000000;fill-opacity:1;stroke:none;stroke-width:1px;stroke-linecap:butt;stroke-linejoin:miter;stroke-opacity:1"
       x="149.10445"
       y="1002.6459"
       id="text4230-3"
       sodipodi:linespacing="125%"><tspan
         sodipodi:role="line"
         id="tspan4232-6"
         x="149.10445"
         y="1002.6459">D3</tspan></text>
    <text
       xml:space="preserve"
       style="font-style:normal;font-weight:normal;font-size:5.70534515px;line-height:125%;font-family:sans-serif;letter-spacing:0px;word-spacing:0px;fill:#000000;fill-opacity:1;stroke:none;stroke-width:1px;stroke-linecap:butt;stroke-linejoin:miter;stroke-opacity:1"
       x="138.66911"
       y="1013.0273"
       id="text4230-06"
       sodipodi:linespacing="125%"><tspan
         sodipodi:role="line"
         id="tspan4232-2"
         x="138.66911"
         y="1013.0273">D4</tspan></text>
    <text
       xml:space="preserve"
       style="font-style:normal;font-weight:normal;font-size:5.70534515px;line-height:125%;font-family:sans-serif;letter-spacing:0px;word-spacing:0px;fill:#000000;fill-opacity:1;stroke:none;stroke-width:1px;stroke-linecap:butt;stroke-linejoin:miter;stroke-opacity:1"
       x="149.09874"
       y="1012.9902"
       id="text4230-6"
       sodipodi:linespacing="125%"><tspan
         sodipodi:role="line"
         id="tspan4232-1"
         x="149.09874"
         y="1012.9902">D5</tspan></text>
    <text
       xml:space="preserve"
       style="font-style:normal;font-weight:normal;font-size:5.72404528px;line-height:125%;font-family:sans-serif;letter-spacing:0px;word-spacing:0px;fill:#000000;fill-opacity:1;stroke:none;stroke-width:1px;stroke-linecap:butt;stroke-linejoin:miter;stroke-opacity:1"
       x="136.71005"
       y="1023.4269"
       id="text4230-8"
       sodipodi:linespacing="125%"><tspan
         sodipodi:role="line"
         id="tspan4232-79"
         x="136.71005"
         y="1023.4269">3.3V</tspan></text>
    <text
       xml:space="preserve"
       style="font-style:normal;font-weight:normal;font-size:5.72404528px;line-height:125%;font-family:sans-serif;letter-spacing:0px;word-spacing:0px;fill:#000000;fill-opacity:1;stroke:none;stroke-width:1px;stroke-linecap:butt;stroke-linejoin:miter;stroke-opacity:1"
       x="150.84827"
       y="1023.4254"
       id="text4230-20"
       sodipodi:linespacing="125%"><tspan
         sodipodi:role="line"
         id="tspan4232-23"
         x="150.84827"
         y="1023.4254">G</tspan></text>
    <text
       xml:space="preserve"
       style="font-style:normal;font-weight:normal;font-size:5.72404528px;line-height:125%;font-family:sans-serif;letter-spacing:0px;word-spacing:0px;fill:#000000;fill-opacity:1;stroke:none;stroke-width:1px;stroke-linecap:butt;stroke-linejoin:miter;stroke-opacity:1"
       x="139.09421"
       y="1033.7822"
       id="text4230-7"
       sodipodi:linespacing="125%"><tspan
         sodipodi:role="line"
         id="tspan4232-5"
         x="139.09421"
         y="1033.7822">5V</tspan></text>
    <text
       xml:space="preserve"
       style="font-style:normal;font-weight:normal;font-size:5.72404528px;line-height:125%;font-family:sans-serif;letter-spacing:0px;word-spacing:0px;fill:#000000;fill-opacity:1;stroke:none;stroke-width:1px;stroke-linecap:butt;stroke-linejoin:miter;stroke-opacity:1"
       x="150.84827"
       y="1033.8623"
       id="text4230-9"
       sodipodi:linespacing="125%"><tspan
         sodipodi:role="line"
         id="tspan4232-22"
         x="150.84827"
         y="1033.8623">G</tspan></text>
    <text
       xml:space="preserve"
       style="font-style:normal;font-weight:normal;font-size:9.64910793px;line-height:125%;font-family:sans-serif;letter-spacing:0px;word-spacing:0px;fill:#000000;fill-opacity:1;stroke:none;stroke-width:1px;stroke-linecap:butt;stroke-linejoin:miter;stroke-opacity:1"
       x="-14.731235"
       y="1000.042"
       id="text4226-0"
       sodipodi:linespacing="125%"><tspan
         sodipodi:role="line"
         id="tspan4228-4"
         x="-14.731235"
         y="1000.042" /></text>
    <text
       xml:space="preserve"
       style="font-style:normal;font-weight:normal;font-size:8.95344162px;line-height:144.00000572%;font-family:sans-serif;letter-spacing:0px;word-spacing:0px;fill:#000000;fill-opacity:1;stroke:none;stroke-width:1px;stroke-linecap:butt;stroke-linejoin:miter;stroke-opacity:1"
       x="93.317123"
       y="984.47675"
       id="text4336"
       sodipodi:linespacing="144.00001%"
       transform="scale(0.98349798,1.0167789)"><tspan
         sodipodi:role="line"
         x="93.317123"
         y="984.47675"
         id="tspan4342"
         style="line-height:144.00000572%">PA.0  PA.1</tspan><tspan
         sodipodi:role="line"
         x="93.317123"
         y="997.36969"
         id="tspan4346"
         style="line-height:144.00000572%">PA.2  PA.3</tspan><tspan
         sodipodi:role="line"
         x="93.317123"
         y="1010.2626"
         id="tspan4350"
         style="line-height:144.00000572%">PA.4  PA.5</tspan></text>
    <path
       style="fill:#000000"
       d="m 9.33971,1009.1351 c -0.02,0.052 -0.1652,0.093 -0.3284,0.093 l -0.291,0 0,0.7179 c 0,0.9251 -0.1312,1.1668 -1.003,1.8475 -0.7204,0.5625 -1.0784,0.9539 -1.2961,1.4173 -0.137,0.2914 -0.1529,0.4674 -0.1529,1.6995 l 0,1.3743 0.2437,0.1019 c 0.335,0.1399 0.6929,0.515 0.7994,0.8375 0.3855,1.1682 -0.802,2.1934 -1.9161,1.6542 -0.7933999,-0.3841 -1.0019999,-1.4255 -0.4153999,-2.0747 0.1434999,-0.159 0.3751999,-0.3302 0.5146999,-0.3807 0.2478,-0.09 0.2536,-0.1013 0.2536,-0.5109 0,-0.3825 -0.031,-0.4643 -0.3637,-0.9324 -0.2,-0.2823 -0.6521999,-0.7754 -1.0048999,-1.0958 -0.8402,-0.7632 -0.9345,-0.9534 -0.9352,-1.885 l 0,-0.7274 -0.2255,-0.1283 c -0.2791,-0.1588 -0.4707,-0.588 -0.4092,-0.9163 0.1998,-1.0644 1.7503,-0.9135 1.7503,0.1702 0,0.3002 -0.035,0.3734 -0.2973,0.6229 l -0.2972,0.2827 0,0.7623 0,0.7623 0.8343,0.801 c 0.4587999,0.4406 0.8600999,0.801 0.8915999,0.801 0.031,0 0.058,-1.8556 0.058,-4.1237 l 0,-4.1236 -0.2105,0 c -0.1159,0 -0.229,-0.018 -0.2514,-0.041 -0.023,-0.023 0.1291,-0.4237 0.337,-0.8915 0.2078,-0.4678 0.4001,-0.8255 0.4274,-0.795 0.068,0.076 0.7376,1.5891 0.7376,1.6659 0,0.034 -0.1171,0.062 -0.26,0.062 l -0.2601,0 0,3.0419 c 0,1.9478 0.027,3.0585 0.075,3.0879 0.041,0.025 0.074,0.017 0.074,-0.018 0,-0.035 0.2547,-0.2626 0.5661,-0.5059 0.3114,-0.2433 0.7126,-0.6048 0.8917,-0.8033 l 0.3254,-0.361 0,-0.6978 0,-0.6978 -0.3302,0 -0.33,0 -0.023,-0.9289 -0.023,-0.9289 0.9474,10e-5 0.9473,2e-4 -0.012,0.8359 c 0,0.4597 -0.023,0.8777 -0.043,0.9287 z"
       id="path4263"
       inkscape:connector-curvature="0" />
    <text
       xml:space="preserve"
       style="font-style:normal;font-weight:normal;font-size:4.5494051px;line-height:125%;font-family:sans-serif;letter-spacing:0px;word-spacing:0px;fill:#000000;fill-opacity:1;stroke:none;stroke-width:1px;stroke-linecap:butt;stroke-linejoin:miter;stroke-opacity:1"
       x="57.344151"
       y="1045.2368"
       id="text4202"
       sodipodi:linespacing="125%"
       transform="scale(1.0239643,0.97659655)"><tspan
         sodipodi:role="line"
         id="tspan4204"
         x="57.344151"
         y="1045.2368">STM32F103C</tspan></text>
    <path
       style="fill:#000000"
       d="m 70.004984,1015.4881 c 0,-0.1275 0.216671,-0.3486 0.481493,-0.4904 0.664232,-0.3554 1.447627,-1.9772 1.447627,-2.9968 0,-1.3427 -0.641505,-2.3029 -2.81585,-4.2149 -1.506195,-1.3245 -2.012051,-1.916 -1.958534,-2.2907 0.07063,-0.4946 0.193243,-0.5067 5.799228,-0.5698 4.095699,-0.047 5.727071,0.015 5.727071,0.2045 0,0.1488 -0.154673,0.6114 -0.343712,1.0293 -1.255847,2.7764 -1.703177,3.8373 -2.216083,5.2562 -0.318641,0.8813 -0.848289,2.2106 -1.176995,2.9539 l -0.597646,1.3513 -2.1733,0 c -1.235269,0 -2.173299,-0.1012 -2.173299,-0.2326 z m 7.475334,0.015 c 0,-0.1502 0.663273,-1.7629 1.473934,-3.584 0.810665,-1.8211 1.666062,-3.8538 1.900887,-4.517 0.946252,-2.6721 0.770442,-2.5319 3.174663,-2.5319 1.61111,0 2.131552,0.079 2.131552,0.3202 0,0.3078 -0.563921,1.7556 -2.595539,6.6639 -1.250013,3.0199 -2.024957,3.6922 -4.41111,3.8271 -1.140955,0.063 -1.674387,0 -1.674387,-0.1783 z m -19.532324,-2.9152 c 0,-0.1358 0.585717,-1.5766 1.301595,-3.1997 0.715878,-1.6228 1.746255,-4.0824 2.289724,-5.4659 0.543472,-1.3834 1.232781,-2.781 1.531796,-3.1055 1.145242,-1.2436 1.23318,-1.2517 13.70617,-1.2517 l 11.610582,0 -0.145401,0.5427 c -0.07997,0.2982 -0.146888,0.6704 -0.148692,0.8266 -0.0019,0.1563 -0.173811,0.4546 -0.382226,0.6632 -0.332751,0.3326 -1.644416,0.3789 -10.762544,0.3789 -10.219232,0 -10.396953,0.015 -11.226411,0.5207 -1.130015,0.6986 -1.848816,2.3079 -1.637488,3.666 0.177608,1.1418 0.520788,1.5684 3.108519,3.8641 1.384523,1.2282 1.852812,1.793 1.798995,2.1702 -0.0713,0.4996 -0.181698,0.511 -5.558685,0.5745 -3.653042,0.043 -5.485931,-0.019 -5.485931,-0.1841 z"
       id="path4217"
       inkscape:connector-curvature="0" />
    <text
       xml:space="preserve"
       style="font-style:normal;font-weight:normal;font-size:20px;line-height:125%;font-family:sans-serif;letter-spacing:0px;word-spacing:0px;fill:#000000;fill-opacity:1;stroke:none;stroke-width:1px;stroke-linecap:butt;stroke-linejoin:miter;stroke-opacity:1"
       x="59.573746"
       y="1031.3258"
       id="text4184"
       sodipodi:linespacing="125%"><tspan
         sodipodi:role="line"
         id="tspan4186"
         x="59.573746"
         y="1031.3258" /></text>
    <g
       id="g4215"
       transform="translate(12.868801,993.28629)">
      <g
         style="display:inline"
         transform="translate(0,-35.433071)"
         inkscape:label="background"
         id="layer4" />
      <g
         transform="translate(0,-35.433071)"
         style="display:inline"
         inkscape:label="pins"
         id="layer3">
        <path
           inkscape:connector-curvature="0"
           id="rect4163-72-0"
           d="m 9.3316242,35.432617 0,7.620215 2.1904588,0 0,-7.620215 -2.1904588,0 z m 3.0391018,0 0,7.620215 2.190457,0 0,-7.620215 -2.190457,0 z m 3.039101,0 0,7.620215 2.190459,0 0,-7.620215 -2.190459,0 z m 3.039101,0 0,7.620215 2.190459,0 0,-7.620215 -2.190459,0 z m 3.039102,0 0,7.620215 2.190458,0 0,-7.620215 -2.190458,0 z m 3.039102,0 0,7.620215 2.190458,0 0,-7.620215 -2.190458,0 z m -24.5266818559,8.508898 0,2.191435 7.9376017559,0 0,-2.191435 -7.9376017559,0 z m 27.8128568559,0 0,2.191435 7.620214,0 0,-2.191435 -7.620214,0 z m -27.8128568559,3.039101 0,2.191434 7.9376017559,0 0,-2.191434 -7.9376017559,0 z m 27.8128568559,0 0,2.191434 7.620214,0 0,-2.191434 -7.620214,0 z m -27.8128568559,3.039102 0,2.191434 7.9376017559,0 0,-2.191434 -7.9376017559,0 z m 27.8128568559,0 0,2.191434 7.620214,0 0,-2.191434 -7.620214,0 z m -27.8128568559,3.039101 0,2.191435 7.9376017559,0 0,-2.191435 -7.9376017559,0 z m 27.8128568559,0 0,2.191435 7.620214,0 0,-2.191435 -7.620214,0 z m -27.8128568559,3.039102 0,2.191434 7.9376017559,0 0,-2.191434 -7.9376017559,0 z m 27.8128568559,0 0,2.191434 7.620214,0 0,-2.191434 -7.620214,0 z m -27.8128568559,3.039102 0,2.191435 7.9376017559,0 0,-2.191435 -7.9376017559,0 z m 27.8128568559,0 0,2.191435 7.620214,0 0,-2.191435 -7.620214,0 z m -18.4816828,2.978553 0,8.750112 2.1904588,0 0,-8.750112 -2.1904588,0 z m 3.0391018,0 0,8.750112 2.190457,0 0,-8.750112 -2.190457,0 z m 3.039101,0 0,8.750112 2.190459,0 0,-8.750112 -2.190459,0 z m 3.039101,0 0,8.750112 2.190459,0 0,-8.750112 -2.190459,0 z m 3.039102,0 0,8.750112 2.190458,0 0,-8.750112 -2.190458,0 z m 3.039102,0 0,8.750112 2.190458,0 0,-8.750112 -2.190458,0 z"
           style="fill:#000000;fill-opacity:1;stroke:none;stroke-width:2;stroke-linejoin:miter;stroke-miterlimit:4;stroke-dasharray:none;stroke-dashoffset:0;stroke-opacity:1" />
      </g>
      <rect
         ry="0"
         y="4.4291344"
         x="4.4291325"
         height="26.574802"
         width="26.574802"
         id="rect4141"
         style="opacity:1;fill:#ffffff;fill-opacity:1;stroke:none;stroke-width:3.54330707;stroke-linecap:round;stroke-linejoin:round;stroke-miterlimit:4;stroke-dasharray:none;stroke-dashoffset:0;stroke-opacity:1" />
      <g
         style="display:inline"
         transform="translate(0,-35.433071)"
         inkscape:label="chip"
         id="layer5">
        <rect
           ry="2.8608782"
           y="41.566044"
           x="6.1329727"
           height="23.167122"
           width="23.167122"
           id="rect4150"
           style="fill:#000000;fill-opacity:1;stroke:#000000;stroke-width:1.63602734;stroke-linecap:round;stroke-linejoin:round;stroke-miterlimit:4;stroke-dasharray:none;stroke-dashoffset:0;stroke-opacity:1" />
        <path
           d="M 8.347158,61.402018 A 1.1515895,1.1515895 0 0 1 9.1646714,59.994439 1.1515895,1.1515895 0 0 1 10.573085,60.810515 1.1515895,1.1515895 0 0 1 9.7584477,62.219761 1.1515895,1.1515895 0 0 1 8.3483705,61.406563"
           sodipodi:open="true"
           sodipodi:end="2.8787984"
           sodipodi:start="2.8828825"
           sodipodi:ry="1.1515895"
           sodipodi:rx="1.1515895"
           sodipodi:cy="61.107403"
           sodipodi:cx="9.4604235"
           sodipodi:type="arc"
           id="path4152"
           style="fill:#ffffff;fill-opacity:1;stroke:none;stroke-width:0.35433072;stroke-linecap:round;stroke-linejoin:round;stroke-miterlimit:4;stroke-dasharray:none;stroke-dashoffset:0;stroke-opacity:1" />
      </g>
      <g
         transform="translate(0,-35.433071)"
         style="display:inline"
         inkscape:label="prompt"
         id="layer2-3">
        <g
           id="text4149"
           style="font-style:normal;font-weight:normal;font-size:14.10797596px;line-height:125%;font-family:sans-serif;letter-spacing:0px;word-spacing:0px;display:inline;fill:#000000;fill-opacity:1;stroke:none;stroke-width:1px;stroke-linecap:butt;stroke-linejoin:miter;stroke-opacity:1"
           transform="matrix(0.88039615,0,0,1.1358523,-45.370179,-355.99526)" />
        <path
           inkscape:connector-curvature="0"
           id="path4162"
           d="m 18.31322,48.739394 0,1.601583 5.799879,2.817418 -5.799879,2.790075 0,1.611349 7.212007,-3.679735 0,-1.461932 -7.212007,-3.678758 z m -8.40538,1.875024 0,1.496112 7.212006,0 0,-1.496112 -7.212006,0 z m 0,3.573288 0,1.514667 7.212006,0 0,-1.514667 -7.212006,0 z"
           style="font-style:normal;font-variant:normal;font-weight:500;font-stretch:normal;font-size:31.74294662px;line-height:125%;font-family:monospace;-inkscape-font-specification:'monospace Medium';letter-spacing:0px;word-spacing:0px;display:inline;fill:#ffffff;fill-opacity:1;stroke:none;stroke-width:1px;stroke-linecap:butt;stroke-linejoin:miter;stroke-opacity:1" />
      </g>
      <rect
         y="2.6205726"
         x="2.6249979"
         height="1.4999999"
         width="1.5624999"
         id="rect4143"
         style="opacity:1;fill:#ffffff;fill-opacity:1;stroke:none;stroke-width:3.54330707;stroke-linecap:round;stroke-linejoin:round;stroke-miterlimit:4;stroke-dasharray:none;stroke-dashoffset:0;stroke-opacity:1" />
    </g>
  </g>
</svg>
