%FSLAX45Y45*%
G04 Gerber Fmt 4.5, Leading zero omitted, Abs format (unit mm)*
G04 Created by KiCad (PCBNEW 4.0.2+dfsg1-stable) date 2017年08月28日 星期一 15时15分45秒*
%MOMM*%
G01*
G04 APERTURE LIST*
%ADD10C,0.127000*%
%ADD11C,0.150000*%
%ADD12C,0.200000*%
%ADD13C,0.300000*%
G04 APERTURE END LIST*
D10*
D11*
X9017000Y-10146000D02*
X13517000Y-10146000D01*
X9017000Y-12446000D02*
X9017000Y-10146000D01*
X13517000Y-12446000D02*
X9017000Y-12446000D01*
X13517000Y-10146000D02*
X13517000Y-12446000D01*
D12*
X9552600Y-12235500D02*
X9592600Y-12275500D01*
X9592600Y-12235500D02*
X9552600Y-12275500D01*
X9873300Y-11473500D02*
X9913300Y-11513500D01*
X9913300Y-11473500D02*
X9873300Y-11513500D01*
X9936800Y-11473500D02*
X9976800Y-11513500D01*
X9976800Y-11473500D02*
X9936800Y-11513500D01*
X9941500Y-10533700D02*
X9981500Y-10573700D01*
X9981500Y-10533700D02*
X9941500Y-10573700D01*
X10038400Y-10775000D02*
X10078400Y-10815000D01*
X10078400Y-10775000D02*
X10038400Y-10815000D01*
X10038400Y-12222800D02*
X10078400Y-12262800D01*
X10078400Y-12222800D02*
X10038400Y-12262800D01*
X10432100Y-10673400D02*
X10472100Y-10713400D01*
X10472100Y-10673400D02*
X10432100Y-10713400D01*
X10439592Y-11326688D02*
X10479592Y-11366688D01*
X10479592Y-11326688D02*
X10439592Y-11366688D01*
X10440100Y-10952800D02*
X10480100Y-10992800D01*
X10480100Y-10952800D02*
X10440100Y-10992800D01*
X10440100Y-11143300D02*
X10480100Y-11183300D01*
X10480100Y-11143300D02*
X10440100Y-11183300D01*
X10495600Y-12299000D02*
X10535600Y-12339000D01*
X10535600Y-12299000D02*
X10495600Y-12339000D01*
X10521000Y-12019600D02*
X10561000Y-12059600D01*
X10561000Y-12019600D02*
X10521000Y-12059600D01*
X10559100Y-10254300D02*
X10599100Y-10294300D01*
X10599100Y-10254300D02*
X10559100Y-10294300D01*
X10609900Y-11295700D02*
X10649900Y-11335700D01*
X10649900Y-11295700D02*
X10609900Y-11335700D01*
X10635300Y-10724200D02*
X10675300Y-10764200D01*
X10675300Y-10724200D02*
X10635300Y-10764200D01*
X10635300Y-11067100D02*
X10675300Y-11107100D01*
X10675300Y-11067100D02*
X10635300Y-11107100D01*
X10698800Y-11537000D02*
X10738800Y-11577000D01*
X10738800Y-11537000D02*
X10698800Y-11577000D01*
X10863900Y-10635300D02*
X10903900Y-10675300D01*
X10903900Y-10635300D02*
X10863900Y-10675300D01*
X10921050Y-11314750D02*
X10961050Y-11354750D01*
X10961050Y-11314750D02*
X10921050Y-11354750D01*
X10952800Y-10482900D02*
X10992800Y-10522900D01*
X10992800Y-10482900D02*
X10952800Y-10522900D01*
X10965500Y-10813100D02*
X11005500Y-10853100D01*
X11005500Y-10813100D02*
X10965500Y-10853100D01*
X10978200Y-10902000D02*
X11018200Y-10942000D01*
X11018200Y-10902000D02*
X10978200Y-10942000D01*
X10978200Y-10990900D02*
X11018200Y-11030900D01*
X11018200Y-10990900D02*
X10978200Y-11030900D01*
X11067100Y-11359200D02*
X11107100Y-11399200D01*
X11107100Y-11359200D02*
X11067100Y-11399200D01*
X11340150Y-10990900D02*
X11380150Y-11030900D01*
X11380150Y-10990900D02*
X11340150Y-11030900D01*
X11346500Y-10787700D02*
X11386500Y-10827700D01*
X11386500Y-10787700D02*
X11346500Y-10827700D01*
X11357200Y-11331800D02*
X11397200Y-11371800D01*
X11397200Y-11331800D02*
X11357200Y-11371800D01*
X11371900Y-11854500D02*
X11411900Y-11894500D01*
X11411900Y-11854500D02*
X11371900Y-11894500D01*
X11517950Y-11111550D02*
X11557950Y-11151550D01*
X11557950Y-11111550D02*
X11517950Y-11151550D01*
X11702100Y-10673400D02*
X11742100Y-10713400D01*
X11742100Y-10673400D02*
X11702100Y-10713400D01*
X11829100Y-10940100D02*
X11869100Y-10980100D01*
X11869100Y-10940100D02*
X11829100Y-10980100D01*
X11892600Y-11346500D02*
X11932600Y-11386500D01*
X11932600Y-11346500D02*
X11892600Y-11386500D01*
X11905300Y-11016300D02*
X11945300Y-11056300D01*
X11945300Y-11016300D02*
X11905300Y-11056300D01*
X12006900Y-11346500D02*
X12046900Y-11386500D01*
X12046900Y-11346500D02*
X12006900Y-11386500D01*
X12121200Y-11333800D02*
X12161200Y-11373800D01*
X12161200Y-11333800D02*
X12121200Y-11373800D01*
X12210100Y-12019600D02*
X12250100Y-12059600D01*
X12250100Y-12019600D02*
X12210100Y-12059600D01*
X12345100Y-11676700D02*
X12385100Y-11716700D01*
X12385100Y-11676700D02*
X12345100Y-11716700D01*
X12400600Y-12019600D02*
X12440600Y-12059600D01*
X12440600Y-12019600D02*
X12400600Y-12059600D01*
X12540300Y-11486200D02*
X12580300Y-11526200D01*
X12580300Y-11486200D02*
X12540300Y-11526200D01*
X12540300Y-11676700D02*
X12580300Y-11716700D01*
X12580300Y-11676700D02*
X12540300Y-11716700D01*
X12540300Y-11867200D02*
X12580300Y-11907200D01*
X12580300Y-11867200D02*
X12540300Y-11907200D01*
X12807000Y-12032300D02*
X12847000Y-12072300D01*
X12847000Y-12032300D02*
X12807000Y-12072300D01*
X12815000Y-11486200D02*
X12855000Y-11526200D01*
X12855000Y-11486200D02*
X12815000Y-11526200D01*
X12845100Y-11130600D02*
X12885100Y-11170600D01*
X12885100Y-11130600D02*
X12845100Y-11170600D01*
X13378500Y-12057700D02*
X13418500Y-12097700D01*
X13418500Y-12057700D02*
X13378500Y-12097700D01*
X12689200Y-10363200D02*
G75*
G03X12689200Y-10363200I-40000J0D01*
G01*
X12689200Y-12217400D02*
G75*
G03X12689200Y-12217400I-40000J0D01*
G01*
X12943200Y-10363200D02*
G75*
G03X12943200Y-10363200I-40000J0D01*
G01*
X12943200Y-12217400D02*
G75*
G03X12943200Y-12217400I-40000J0D01*
G01*
X13197200Y-10363200D02*
G75*
G03X13197200Y-10363200I-40000J0D01*
G01*
X13197200Y-12217400D02*
G75*
G03X13197200Y-12217400I-40000J0D01*
G01*
X11300206Y-12164695D02*
X11300206Y-12244705D01*
X11260201Y-12204700D02*
X11340211Y-12204700D01*
X11788394Y-12164695D02*
X11788394Y-12244705D01*
X11748389Y-12204700D02*
X11828399Y-12204700D01*
X12344882Y-10982783D02*
X12344882Y-10912018D01*
X12274117Y-10912018D01*
X12274117Y-10982783D01*
X12344882Y-10982783D01*
X12744882Y-10982783D02*
X12744882Y-10912018D01*
X12674117Y-10912018D01*
X12674117Y-10982783D01*
X12744882Y-10982783D01*
X9194800Y-10363200D02*
X9245600Y-10312400D01*
X9194800Y-10261600D01*
X9144000Y-10312400D01*
X9194800Y-10363200D01*
X9448800Y-10363200D02*
X9499600Y-10312400D01*
X9448800Y-10261600D01*
X9398000Y-10312400D01*
X9448800Y-10363200D01*
X9702800Y-10363200D02*
X9753600Y-10312400D01*
X9702800Y-10261600D01*
X9652000Y-10312400D01*
X9702800Y-10363200D01*
X9956800Y-10363200D02*
X10007600Y-10312400D01*
X9956800Y-10261600D01*
X9906000Y-10312400D01*
X9956800Y-10363200D01*
X10210800Y-10363200D02*
X10261600Y-10312400D01*
X10210800Y-10261600D01*
X10160000Y-10312400D01*
X10210800Y-10363200D01*
X10858500Y-10375900D02*
X10909300Y-10325100D01*
X10858500Y-10274300D01*
X10807700Y-10325100D01*
X10858500Y-10375900D01*
X11112500Y-10375900D02*
X11163300Y-10325100D01*
X11112500Y-10274300D01*
X11061700Y-10325100D01*
X11112500Y-10375900D01*
X11366500Y-10375900D02*
X11417300Y-10325100D01*
X11366500Y-10274300D01*
X11315700Y-10325100D01*
X11366500Y-10375900D01*
X11620500Y-10375900D02*
X11671300Y-10325100D01*
X11620500Y-10274300D01*
X11569700Y-10325100D01*
X11620500Y-10375900D01*
X11874500Y-10375900D02*
X11925300Y-10325100D01*
X11874500Y-10274300D01*
X11823700Y-10325100D01*
X11874500Y-10375900D01*
X9438132Y-11038078D02*
X9528048Y-11127994D01*
X9528048Y-11038078D02*
X9438132Y-11127994D01*
X9528048Y-11083036D02*
G75*
G03X9528048Y-11083036I-44958J0D01*
G01*
X9438132Y-11478006D02*
X9528048Y-11567922D01*
X9528048Y-11478006D02*
X9438132Y-11567922D01*
X9528048Y-11522964D02*
G75*
G03X9528048Y-11522964I-44958J0D01*
G01*
D13*
X9280929Y-12919214D02*
X9280929Y-12619214D01*
X9352357Y-12619214D01*
X9395214Y-12633500D01*
X9423786Y-12662071D01*
X9438071Y-12690643D01*
X9452357Y-12747786D01*
X9452357Y-12790643D01*
X9438071Y-12847786D01*
X9423786Y-12876357D01*
X9395214Y-12904929D01*
X9352357Y-12919214D01*
X9280929Y-12919214D01*
X9580929Y-12919214D02*
X9580929Y-12719214D01*
X9580929Y-12776357D02*
X9595214Y-12747786D01*
X9609500Y-12733500D01*
X9638071Y-12719214D01*
X9666643Y-12719214D01*
X9766643Y-12919214D02*
X9766643Y-12719214D01*
X9766643Y-12619214D02*
X9752357Y-12633500D01*
X9766643Y-12647786D01*
X9780929Y-12633500D01*
X9766643Y-12619214D01*
X9766643Y-12647786D01*
X9952357Y-12919214D02*
X9923786Y-12904929D01*
X9909500Y-12876357D01*
X9909500Y-12619214D01*
X10109500Y-12919214D02*
X10080929Y-12904929D01*
X10066643Y-12876357D01*
X10066643Y-12619214D01*
X10452357Y-12919214D02*
X10452357Y-12619214D01*
X10552357Y-12833500D01*
X10652357Y-12619214D01*
X10652357Y-12919214D01*
X10923786Y-12919214D02*
X10923786Y-12762071D01*
X10909500Y-12733500D01*
X10880929Y-12719214D01*
X10823786Y-12719214D01*
X10795214Y-12733500D01*
X10923786Y-12904929D02*
X10895214Y-12919214D01*
X10823786Y-12919214D01*
X10795214Y-12904929D01*
X10780929Y-12876357D01*
X10780929Y-12847786D01*
X10795214Y-12819214D01*
X10823786Y-12804929D01*
X10895214Y-12804929D01*
X10923786Y-12790643D01*
X11066643Y-12719214D02*
X11066643Y-13019214D01*
X11066643Y-12733500D02*
X11095214Y-12719214D01*
X11152357Y-12719214D01*
X11180929Y-12733500D01*
X11195214Y-12747786D01*
X11209500Y-12776357D01*
X11209500Y-12862071D01*
X11195214Y-12890643D01*
X11180929Y-12904929D01*
X11152357Y-12919214D01*
X11095214Y-12919214D01*
X11066643Y-12904929D01*
X11338071Y-12890643D02*
X11352357Y-12904929D01*
X11338071Y-12919214D01*
X11323786Y-12904929D01*
X11338071Y-12890643D01*
X11338071Y-12919214D01*
X11338071Y-12733500D02*
X11352357Y-12747786D01*
X11338071Y-12762071D01*
X11323786Y-12747786D01*
X11338071Y-12733500D01*
X11338071Y-12762071D01*
X8969500Y-13393500D02*
X9009500Y-13433500D01*
X9009500Y-13393500D02*
X8969500Y-13433500D01*
X9338071Y-13249214D02*
X9366643Y-13249214D01*
X9395214Y-13263500D01*
X9409500Y-13277786D01*
X9423786Y-13306357D01*
X9438071Y-13363500D01*
X9438071Y-13434929D01*
X9423786Y-13492071D01*
X9409500Y-13520643D01*
X9395214Y-13534929D01*
X9366643Y-13549214D01*
X9338071Y-13549214D01*
X9309500Y-13534929D01*
X9295214Y-13520643D01*
X9280929Y-13492071D01*
X9266643Y-13434929D01*
X9266643Y-13363500D01*
X9280929Y-13306357D01*
X9295214Y-13277786D01*
X9309500Y-13263500D01*
X9338071Y-13249214D01*
X9566643Y-13520643D02*
X9580929Y-13534929D01*
X9566643Y-13549214D01*
X9552357Y-13534929D01*
X9566643Y-13520643D01*
X9566643Y-13549214D01*
X9838071Y-13349214D02*
X9838071Y-13549214D01*
X9766643Y-13234929D02*
X9695214Y-13449214D01*
X9880928Y-13449214D01*
X10052357Y-13249214D02*
X10080929Y-13249214D01*
X10109500Y-13263500D01*
X10123786Y-13277786D01*
X10138071Y-13306357D01*
X10152357Y-13363500D01*
X10152357Y-13434929D01*
X10138071Y-13492071D01*
X10123786Y-13520643D01*
X10109500Y-13534929D01*
X10080929Y-13549214D01*
X10052357Y-13549214D01*
X10023786Y-13534929D01*
X10009500Y-13520643D01*
X9995214Y-13492071D01*
X9980929Y-13434929D01*
X9980929Y-13363500D01*
X9995214Y-13306357D01*
X10009500Y-13277786D01*
X10023786Y-13263500D01*
X10052357Y-13249214D01*
X10280929Y-13549214D02*
X10280929Y-13349214D01*
X10280929Y-13377786D02*
X10295214Y-13363500D01*
X10323786Y-13349214D01*
X10366643Y-13349214D01*
X10395214Y-13363500D01*
X10409500Y-13392071D01*
X10409500Y-13549214D01*
X10409500Y-13392071D02*
X10423786Y-13363500D01*
X10452357Y-13349214D01*
X10495214Y-13349214D01*
X10523786Y-13363500D01*
X10538071Y-13392071D01*
X10538071Y-13549214D01*
X10680929Y-13549214D02*
X10680929Y-13349214D01*
X10680929Y-13377786D02*
X10695214Y-13363500D01*
X10723786Y-13349214D01*
X10766643Y-13349214D01*
X10795214Y-13363500D01*
X10809500Y-13392071D01*
X10809500Y-13549214D01*
X10809500Y-13392071D02*
X10823786Y-13363500D01*
X10852357Y-13349214D01*
X10895214Y-13349214D01*
X10923786Y-13363500D01*
X10938071Y-13392071D01*
X10938071Y-13549214D01*
X11523786Y-13234929D02*
X11266643Y-13620643D01*
X11909500Y-13249214D02*
X11938071Y-13249214D01*
X11966643Y-13263500D01*
X11980928Y-13277786D01*
X11995214Y-13306357D01*
X12009500Y-13363500D01*
X12009500Y-13434929D01*
X11995214Y-13492071D01*
X11980928Y-13520643D01*
X11966643Y-13534929D01*
X11938071Y-13549214D01*
X11909500Y-13549214D01*
X11880928Y-13534929D01*
X11866643Y-13520643D01*
X11852357Y-13492071D01*
X11838071Y-13434929D01*
X11838071Y-13363500D01*
X11852357Y-13306357D01*
X11866643Y-13277786D01*
X11880928Y-13263500D01*
X11909500Y-13249214D01*
X12138071Y-13520643D02*
X12152357Y-13534929D01*
X12138071Y-13549214D01*
X12123786Y-13534929D01*
X12138071Y-13520643D01*
X12138071Y-13549214D01*
X12338071Y-13249214D02*
X12366643Y-13249214D01*
X12395214Y-13263500D01*
X12409500Y-13277786D01*
X12423785Y-13306357D01*
X12438071Y-13363500D01*
X12438071Y-13434929D01*
X12423785Y-13492071D01*
X12409500Y-13520643D01*
X12395214Y-13534929D01*
X12366643Y-13549214D01*
X12338071Y-13549214D01*
X12309500Y-13534929D01*
X12295214Y-13520643D01*
X12280928Y-13492071D01*
X12266643Y-13434929D01*
X12266643Y-13363500D01*
X12280928Y-13306357D01*
X12295214Y-13277786D01*
X12309500Y-13263500D01*
X12338071Y-13249214D01*
X12723785Y-13549214D02*
X12552357Y-13549214D01*
X12638071Y-13549214D02*
X12638071Y-13249214D01*
X12609500Y-13292071D01*
X12580928Y-13320643D01*
X12552357Y-13334929D01*
X12980928Y-13249214D02*
X12923785Y-13249214D01*
X12895214Y-13263500D01*
X12880928Y-13277786D01*
X12852357Y-13320643D01*
X12838071Y-13377786D01*
X12838071Y-13492071D01*
X12852357Y-13520643D01*
X12866643Y-13534929D01*
X12895214Y-13549214D01*
X12952357Y-13549214D01*
X12980928Y-13534929D01*
X12995214Y-13520643D01*
X13009500Y-13492071D01*
X13009500Y-13420643D01*
X12995214Y-13392071D01*
X12980928Y-13377786D01*
X12952357Y-13363500D01*
X12895214Y-13363500D01*
X12866643Y-13377786D01*
X12852357Y-13392071D01*
X12838071Y-13420643D01*
X13123786Y-13249214D02*
X13123786Y-13306357D01*
X13238071Y-13249214D02*
X13238071Y-13306357D01*
X13680928Y-13663500D02*
X13666643Y-13649214D01*
X13638071Y-13606357D01*
X13623785Y-13577786D01*
X13609500Y-13534929D01*
X13595214Y-13463500D01*
X13595214Y-13406357D01*
X13609500Y-13334929D01*
X13623785Y-13292071D01*
X13638071Y-13263500D01*
X13666643Y-13220643D01*
X13680928Y-13206357D01*
X13923785Y-13349214D02*
X13923785Y-13549214D01*
X13852357Y-13234929D02*
X13780928Y-13449214D01*
X13966643Y-13449214D01*
X14223785Y-13249214D02*
X14080928Y-13249214D01*
X14066643Y-13392071D01*
X14080928Y-13377786D01*
X14109500Y-13363500D01*
X14180928Y-13363500D01*
X14209500Y-13377786D01*
X14223785Y-13392071D01*
X14238071Y-13420643D01*
X14238071Y-13492071D01*
X14223785Y-13520643D01*
X14209500Y-13534929D01*
X14180928Y-13549214D01*
X14109500Y-13549214D01*
X14080928Y-13534929D01*
X14066643Y-13520643D01*
X14595214Y-13549214D02*
X14595214Y-13249214D01*
X14723785Y-13549214D02*
X14723785Y-13392071D01*
X14709500Y-13363500D01*
X14680928Y-13349214D01*
X14638071Y-13349214D01*
X14609500Y-13363500D01*
X14595214Y-13377786D01*
X14909500Y-13549214D02*
X14880928Y-13534929D01*
X14866643Y-13520643D01*
X14852357Y-13492071D01*
X14852357Y-13406357D01*
X14866643Y-13377786D01*
X14880928Y-13363500D01*
X14909500Y-13349214D01*
X14952357Y-13349214D01*
X14980928Y-13363500D01*
X14995214Y-13377786D01*
X15009500Y-13406357D01*
X15009500Y-13492071D01*
X14995214Y-13520643D01*
X14980928Y-13534929D01*
X14952357Y-13549214D01*
X14909500Y-13549214D01*
X15180928Y-13549214D02*
X15152357Y-13534929D01*
X15138071Y-13506357D01*
X15138071Y-13249214D01*
X15409500Y-13534929D02*
X15380928Y-13549214D01*
X15323786Y-13549214D01*
X15295214Y-13534929D01*
X15280928Y-13506357D01*
X15280928Y-13392071D01*
X15295214Y-13363500D01*
X15323786Y-13349214D01*
X15380928Y-13349214D01*
X15409500Y-13363500D01*
X15423786Y-13392071D01*
X15423786Y-13420643D01*
X15280928Y-13449214D01*
X15538071Y-13534929D02*
X15566643Y-13549214D01*
X15623786Y-13549214D01*
X15652357Y-13534929D01*
X15666643Y-13506357D01*
X15666643Y-13492071D01*
X15652357Y-13463500D01*
X15623786Y-13449214D01*
X15580928Y-13449214D01*
X15552357Y-13434929D01*
X15538071Y-13406357D01*
X15538071Y-13392071D01*
X15552357Y-13363500D01*
X15580928Y-13349214D01*
X15623786Y-13349214D01*
X15652357Y-13363500D01*
X15766643Y-13663500D02*
X15780928Y-13649214D01*
X15809500Y-13606357D01*
X15823786Y-13577786D01*
X15838071Y-13534929D01*
X15852357Y-13463500D01*
X15852357Y-13406357D01*
X15838071Y-13334929D01*
X15823786Y-13292071D01*
X15809500Y-13263500D01*
X15780928Y-13220643D01*
X15766643Y-13206357D01*
X9009500Y-13809500D02*
G75*
G03X9009500Y-13809500I-40000J0D01*
G01*
X9338071Y-13645214D02*
X9366643Y-13645214D01*
X9395214Y-13659500D01*
X9409500Y-13673786D01*
X9423786Y-13702357D01*
X9438071Y-13759500D01*
X9438071Y-13830929D01*
X9423786Y-13888071D01*
X9409500Y-13916643D01*
X9395214Y-13930929D01*
X9366643Y-13945214D01*
X9338071Y-13945214D01*
X9309500Y-13930929D01*
X9295214Y-13916643D01*
X9280929Y-13888071D01*
X9266643Y-13830929D01*
X9266643Y-13759500D01*
X9280929Y-13702357D01*
X9295214Y-13673786D01*
X9309500Y-13659500D01*
X9338071Y-13645214D01*
X9566643Y-13916643D02*
X9580929Y-13930929D01*
X9566643Y-13945214D01*
X9552357Y-13930929D01*
X9566643Y-13916643D01*
X9566643Y-13945214D01*
X9752357Y-13773786D02*
X9723786Y-13759500D01*
X9709500Y-13745214D01*
X9695214Y-13716643D01*
X9695214Y-13702357D01*
X9709500Y-13673786D01*
X9723786Y-13659500D01*
X9752357Y-13645214D01*
X9809500Y-13645214D01*
X9838071Y-13659500D01*
X9852357Y-13673786D01*
X9866643Y-13702357D01*
X9866643Y-13716643D01*
X9852357Y-13745214D01*
X9838071Y-13759500D01*
X9809500Y-13773786D01*
X9752357Y-13773786D01*
X9723786Y-13788071D01*
X9709500Y-13802357D01*
X9695214Y-13830929D01*
X9695214Y-13888071D01*
X9709500Y-13916643D01*
X9723786Y-13930929D01*
X9752357Y-13945214D01*
X9809500Y-13945214D01*
X9838071Y-13930929D01*
X9852357Y-13916643D01*
X9866643Y-13888071D01*
X9866643Y-13830929D01*
X9852357Y-13802357D01*
X9838071Y-13788071D01*
X9809500Y-13773786D01*
X10052357Y-13645214D02*
X10080929Y-13645214D01*
X10109500Y-13659500D01*
X10123786Y-13673786D01*
X10138071Y-13702357D01*
X10152357Y-13759500D01*
X10152357Y-13830929D01*
X10138071Y-13888071D01*
X10123786Y-13916643D01*
X10109500Y-13930929D01*
X10080929Y-13945214D01*
X10052357Y-13945214D01*
X10023786Y-13930929D01*
X10009500Y-13916643D01*
X9995214Y-13888071D01*
X9980929Y-13830929D01*
X9980929Y-13759500D01*
X9995214Y-13702357D01*
X10009500Y-13673786D01*
X10023786Y-13659500D01*
X10052357Y-13645214D01*
X10280929Y-13945214D02*
X10280929Y-13745214D01*
X10280929Y-13773786D02*
X10295214Y-13759500D01*
X10323786Y-13745214D01*
X10366643Y-13745214D01*
X10395214Y-13759500D01*
X10409500Y-13788071D01*
X10409500Y-13945214D01*
X10409500Y-13788071D02*
X10423786Y-13759500D01*
X10452357Y-13745214D01*
X10495214Y-13745214D01*
X10523786Y-13759500D01*
X10538071Y-13788071D01*
X10538071Y-13945214D01*
X10680929Y-13945214D02*
X10680929Y-13745214D01*
X10680929Y-13773786D02*
X10695214Y-13759500D01*
X10723786Y-13745214D01*
X10766643Y-13745214D01*
X10795214Y-13759500D01*
X10809500Y-13788071D01*
X10809500Y-13945214D01*
X10809500Y-13788071D02*
X10823786Y-13759500D01*
X10852357Y-13745214D01*
X10895214Y-13745214D01*
X10923786Y-13759500D01*
X10938071Y-13788071D01*
X10938071Y-13945214D01*
X11523786Y-13630929D02*
X11266643Y-14016643D01*
X11909500Y-13645214D02*
X11938071Y-13645214D01*
X11966643Y-13659500D01*
X11980928Y-13673786D01*
X11995214Y-13702357D01*
X12009500Y-13759500D01*
X12009500Y-13830929D01*
X11995214Y-13888071D01*
X11980928Y-13916643D01*
X11966643Y-13930929D01*
X11938071Y-13945214D01*
X11909500Y-13945214D01*
X11880928Y-13930929D01*
X11866643Y-13916643D01*
X11852357Y-13888071D01*
X11838071Y-13830929D01*
X11838071Y-13759500D01*
X11852357Y-13702357D01*
X11866643Y-13673786D01*
X11880928Y-13659500D01*
X11909500Y-13645214D01*
X12138071Y-13916643D02*
X12152357Y-13930929D01*
X12138071Y-13945214D01*
X12123786Y-13930929D01*
X12138071Y-13916643D01*
X12138071Y-13945214D01*
X12338071Y-13645214D02*
X12366643Y-13645214D01*
X12395214Y-13659500D01*
X12409500Y-13673786D01*
X12423785Y-13702357D01*
X12438071Y-13759500D01*
X12438071Y-13830929D01*
X12423785Y-13888071D01*
X12409500Y-13916643D01*
X12395214Y-13930929D01*
X12366643Y-13945214D01*
X12338071Y-13945214D01*
X12309500Y-13930929D01*
X12295214Y-13916643D01*
X12280928Y-13888071D01*
X12266643Y-13830929D01*
X12266643Y-13759500D01*
X12280928Y-13702357D01*
X12295214Y-13673786D01*
X12309500Y-13659500D01*
X12338071Y-13645214D01*
X12538071Y-13645214D02*
X12723785Y-13645214D01*
X12623785Y-13759500D01*
X12666643Y-13759500D01*
X12695214Y-13773786D01*
X12709500Y-13788071D01*
X12723785Y-13816643D01*
X12723785Y-13888071D01*
X12709500Y-13916643D01*
X12695214Y-13930929D01*
X12666643Y-13945214D01*
X12580928Y-13945214D01*
X12552357Y-13930929D01*
X12538071Y-13916643D01*
X13009500Y-13945214D02*
X12838071Y-13945214D01*
X12923785Y-13945214D02*
X12923785Y-13645214D01*
X12895214Y-13688071D01*
X12866643Y-13716643D01*
X12838071Y-13730929D01*
X13123786Y-13645214D02*
X13123786Y-13702357D01*
X13238071Y-13645214D02*
X13238071Y-13702357D01*
X13680928Y-14059500D02*
X13666643Y-14045214D01*
X13638071Y-14002357D01*
X13623785Y-13973786D01*
X13609500Y-13930929D01*
X13595214Y-13859500D01*
X13595214Y-13802357D01*
X13609500Y-13730929D01*
X13623785Y-13688071D01*
X13638071Y-13659500D01*
X13666643Y-13616643D01*
X13680928Y-13602357D01*
X13923785Y-13645214D02*
X13866643Y-13645214D01*
X13838071Y-13659500D01*
X13823785Y-13673786D01*
X13795214Y-13716643D01*
X13780928Y-13773786D01*
X13780928Y-13888071D01*
X13795214Y-13916643D01*
X13809500Y-13930929D01*
X13838071Y-13945214D01*
X13895214Y-13945214D01*
X13923785Y-13930929D01*
X13938071Y-13916643D01*
X13952357Y-13888071D01*
X13952357Y-13816643D01*
X13938071Y-13788071D01*
X13923785Y-13773786D01*
X13895214Y-13759500D01*
X13838071Y-13759500D01*
X13809500Y-13773786D01*
X13795214Y-13788071D01*
X13780928Y-13816643D01*
X14309500Y-13945214D02*
X14309500Y-13645214D01*
X14438071Y-13945214D02*
X14438071Y-13788071D01*
X14423785Y-13759500D01*
X14395214Y-13745214D01*
X14352357Y-13745214D01*
X14323785Y-13759500D01*
X14309500Y-13773786D01*
X14623785Y-13945214D02*
X14595214Y-13930929D01*
X14580928Y-13916643D01*
X14566643Y-13888071D01*
X14566643Y-13802357D01*
X14580928Y-13773786D01*
X14595214Y-13759500D01*
X14623785Y-13745214D01*
X14666643Y-13745214D01*
X14695214Y-13759500D01*
X14709500Y-13773786D01*
X14723785Y-13802357D01*
X14723785Y-13888071D01*
X14709500Y-13916643D01*
X14695214Y-13930929D01*
X14666643Y-13945214D01*
X14623785Y-13945214D01*
X14895214Y-13945214D02*
X14866643Y-13930929D01*
X14852357Y-13902357D01*
X14852357Y-13645214D01*
X15123786Y-13930929D02*
X15095214Y-13945214D01*
X15038071Y-13945214D01*
X15009500Y-13930929D01*
X14995214Y-13902357D01*
X14995214Y-13788071D01*
X15009500Y-13759500D01*
X15038071Y-13745214D01*
X15095214Y-13745214D01*
X15123786Y-13759500D01*
X15138071Y-13788071D01*
X15138071Y-13816643D01*
X14995214Y-13845214D01*
X15252357Y-13930929D02*
X15280928Y-13945214D01*
X15338071Y-13945214D01*
X15366643Y-13930929D01*
X15380928Y-13902357D01*
X15380928Y-13888071D01*
X15366643Y-13859500D01*
X15338071Y-13845214D01*
X15295214Y-13845214D01*
X15266643Y-13830929D01*
X15252357Y-13802357D01*
X15252357Y-13788071D01*
X15266643Y-13759500D01*
X15295214Y-13745214D01*
X15338071Y-13745214D01*
X15366643Y-13759500D01*
X15480928Y-14059500D02*
X15495214Y-14045214D01*
X15523786Y-14002357D01*
X15538071Y-13973786D01*
X15552357Y-13930929D01*
X15566643Y-13859500D01*
X15566643Y-13802357D01*
X15552357Y-13730929D01*
X15538071Y-13688071D01*
X15523786Y-13659500D01*
X15495214Y-13616643D01*
X15480928Y-13602357D01*
X8969495Y-14165495D02*
X8969495Y-14245505D01*
X8929490Y-14205500D02*
X9009500Y-14205500D01*
X9338071Y-14041214D02*
X9366643Y-14041214D01*
X9395214Y-14055500D01*
X9409500Y-14069786D01*
X9423786Y-14098357D01*
X9438071Y-14155500D01*
X9438071Y-14226929D01*
X9423786Y-14284071D01*
X9409500Y-14312643D01*
X9395214Y-14326929D01*
X9366643Y-14341214D01*
X9338071Y-14341214D01*
X9309500Y-14326929D01*
X9295214Y-14312643D01*
X9280929Y-14284071D01*
X9266643Y-14226929D01*
X9266643Y-14155500D01*
X9280929Y-14098357D01*
X9295214Y-14069786D01*
X9309500Y-14055500D01*
X9338071Y-14041214D01*
X9566643Y-14312643D02*
X9580929Y-14326929D01*
X9566643Y-14341214D01*
X9552357Y-14326929D01*
X9566643Y-14312643D01*
X9566643Y-14341214D01*
X9752357Y-14169786D02*
X9723786Y-14155500D01*
X9709500Y-14141214D01*
X9695214Y-14112643D01*
X9695214Y-14098357D01*
X9709500Y-14069786D01*
X9723786Y-14055500D01*
X9752357Y-14041214D01*
X9809500Y-14041214D01*
X9838071Y-14055500D01*
X9852357Y-14069786D01*
X9866643Y-14098357D01*
X9866643Y-14112643D01*
X9852357Y-14141214D01*
X9838071Y-14155500D01*
X9809500Y-14169786D01*
X9752357Y-14169786D01*
X9723786Y-14184071D01*
X9709500Y-14198357D01*
X9695214Y-14226929D01*
X9695214Y-14284071D01*
X9709500Y-14312643D01*
X9723786Y-14326929D01*
X9752357Y-14341214D01*
X9809500Y-14341214D01*
X9838071Y-14326929D01*
X9852357Y-14312643D01*
X9866643Y-14284071D01*
X9866643Y-14226929D01*
X9852357Y-14198357D01*
X9838071Y-14184071D01*
X9809500Y-14169786D01*
X10052357Y-14041214D02*
X10080929Y-14041214D01*
X10109500Y-14055500D01*
X10123786Y-14069786D01*
X10138071Y-14098357D01*
X10152357Y-14155500D01*
X10152357Y-14226929D01*
X10138071Y-14284071D01*
X10123786Y-14312643D01*
X10109500Y-14326929D01*
X10080929Y-14341214D01*
X10052357Y-14341214D01*
X10023786Y-14326929D01*
X10009500Y-14312643D01*
X9995214Y-14284071D01*
X9980929Y-14226929D01*
X9980929Y-14155500D01*
X9995214Y-14098357D01*
X10009500Y-14069786D01*
X10023786Y-14055500D01*
X10052357Y-14041214D01*
X10280929Y-14341214D02*
X10280929Y-14141214D01*
X10280929Y-14169786D02*
X10295214Y-14155500D01*
X10323786Y-14141214D01*
X10366643Y-14141214D01*
X10395214Y-14155500D01*
X10409500Y-14184071D01*
X10409500Y-14341214D01*
X10409500Y-14184071D02*
X10423786Y-14155500D01*
X10452357Y-14141214D01*
X10495214Y-14141214D01*
X10523786Y-14155500D01*
X10538071Y-14184071D01*
X10538071Y-14341214D01*
X10680929Y-14341214D02*
X10680929Y-14141214D01*
X10680929Y-14169786D02*
X10695214Y-14155500D01*
X10723786Y-14141214D01*
X10766643Y-14141214D01*
X10795214Y-14155500D01*
X10809500Y-14184071D01*
X10809500Y-14341214D01*
X10809500Y-14184071D02*
X10823786Y-14155500D01*
X10852357Y-14141214D01*
X10895214Y-14141214D01*
X10923786Y-14155500D01*
X10938071Y-14184071D01*
X10938071Y-14341214D01*
X11523786Y-14026929D02*
X11266643Y-14412643D01*
X11909500Y-14041214D02*
X11938071Y-14041214D01*
X11966643Y-14055500D01*
X11980928Y-14069786D01*
X11995214Y-14098357D01*
X12009500Y-14155500D01*
X12009500Y-14226929D01*
X11995214Y-14284071D01*
X11980928Y-14312643D01*
X11966643Y-14326929D01*
X11938071Y-14341214D01*
X11909500Y-14341214D01*
X11880928Y-14326929D01*
X11866643Y-14312643D01*
X11852357Y-14284071D01*
X11838071Y-14226929D01*
X11838071Y-14155500D01*
X11852357Y-14098357D01*
X11866643Y-14069786D01*
X11880928Y-14055500D01*
X11909500Y-14041214D01*
X12138071Y-14312643D02*
X12152357Y-14326929D01*
X12138071Y-14341214D01*
X12123786Y-14326929D01*
X12138071Y-14312643D01*
X12138071Y-14341214D01*
X12338071Y-14041214D02*
X12366643Y-14041214D01*
X12395214Y-14055500D01*
X12409500Y-14069786D01*
X12423785Y-14098357D01*
X12438071Y-14155500D01*
X12438071Y-14226929D01*
X12423785Y-14284071D01*
X12409500Y-14312643D01*
X12395214Y-14326929D01*
X12366643Y-14341214D01*
X12338071Y-14341214D01*
X12309500Y-14326929D01*
X12295214Y-14312643D01*
X12280928Y-14284071D01*
X12266643Y-14226929D01*
X12266643Y-14155500D01*
X12280928Y-14098357D01*
X12295214Y-14069786D01*
X12309500Y-14055500D01*
X12338071Y-14041214D01*
X12538071Y-14041214D02*
X12723785Y-14041214D01*
X12623785Y-14155500D01*
X12666643Y-14155500D01*
X12695214Y-14169786D01*
X12709500Y-14184071D01*
X12723785Y-14212643D01*
X12723785Y-14284071D01*
X12709500Y-14312643D01*
X12695214Y-14326929D01*
X12666643Y-14341214D01*
X12580928Y-14341214D01*
X12552357Y-14326929D01*
X12538071Y-14312643D01*
X12838071Y-14069786D02*
X12852357Y-14055500D01*
X12880928Y-14041214D01*
X12952357Y-14041214D01*
X12980928Y-14055500D01*
X12995214Y-14069786D01*
X13009500Y-14098357D01*
X13009500Y-14126929D01*
X12995214Y-14169786D01*
X12823785Y-14341214D01*
X13009500Y-14341214D01*
X13123786Y-14041214D02*
X13123786Y-14098357D01*
X13238071Y-14041214D02*
X13238071Y-14098357D01*
X13680928Y-14455500D02*
X13666643Y-14441214D01*
X13638071Y-14398357D01*
X13623785Y-14369786D01*
X13609500Y-14326929D01*
X13595214Y-14255500D01*
X13595214Y-14198357D01*
X13609500Y-14126929D01*
X13623785Y-14084071D01*
X13638071Y-14055500D01*
X13666643Y-14012643D01*
X13680928Y-13998357D01*
X13780928Y-14069786D02*
X13795214Y-14055500D01*
X13823785Y-14041214D01*
X13895214Y-14041214D01*
X13923785Y-14055500D01*
X13938071Y-14069786D01*
X13952357Y-14098357D01*
X13952357Y-14126929D01*
X13938071Y-14169786D01*
X13766643Y-14341214D01*
X13952357Y-14341214D01*
X14309500Y-14341214D02*
X14309500Y-14041214D01*
X14438071Y-14341214D02*
X14438071Y-14184071D01*
X14423785Y-14155500D01*
X14395214Y-14141214D01*
X14352357Y-14141214D01*
X14323785Y-14155500D01*
X14309500Y-14169786D01*
X14623785Y-14341214D02*
X14595214Y-14326929D01*
X14580928Y-14312643D01*
X14566643Y-14284071D01*
X14566643Y-14198357D01*
X14580928Y-14169786D01*
X14595214Y-14155500D01*
X14623785Y-14141214D01*
X14666643Y-14141214D01*
X14695214Y-14155500D01*
X14709500Y-14169786D01*
X14723785Y-14198357D01*
X14723785Y-14284071D01*
X14709500Y-14312643D01*
X14695214Y-14326929D01*
X14666643Y-14341214D01*
X14623785Y-14341214D01*
X14895214Y-14341214D02*
X14866643Y-14326929D01*
X14852357Y-14298357D01*
X14852357Y-14041214D01*
X15123786Y-14326929D02*
X15095214Y-14341214D01*
X15038071Y-14341214D01*
X15009500Y-14326929D01*
X14995214Y-14298357D01*
X14995214Y-14184071D01*
X15009500Y-14155500D01*
X15038071Y-14141214D01*
X15095214Y-14141214D01*
X15123786Y-14155500D01*
X15138071Y-14184071D01*
X15138071Y-14212643D01*
X14995214Y-14241214D01*
X15252357Y-14326929D02*
X15280928Y-14341214D01*
X15338071Y-14341214D01*
X15366643Y-14326929D01*
X15380928Y-14298357D01*
X15380928Y-14284071D01*
X15366643Y-14255500D01*
X15338071Y-14241214D01*
X15295214Y-14241214D01*
X15266643Y-14226929D01*
X15252357Y-14198357D01*
X15252357Y-14184071D01*
X15266643Y-14155500D01*
X15295214Y-14141214D01*
X15338071Y-14141214D01*
X15366643Y-14155500D01*
X15480928Y-14455500D02*
X15495214Y-14441214D01*
X15523786Y-14398357D01*
X15538071Y-14369786D01*
X15552357Y-14326929D01*
X15566643Y-14255500D01*
X15566643Y-14198357D01*
X15552357Y-14126929D01*
X15538071Y-14084071D01*
X15523786Y-14055500D01*
X15495214Y-14012643D01*
X15480928Y-13998357D01*
X8994844Y-14636883D02*
X8994844Y-14566118D01*
X8924079Y-14566118D01*
X8924079Y-14636883D01*
X8994844Y-14636883D01*
X9438071Y-14737214D02*
X9266643Y-14737214D01*
X9352357Y-14737214D02*
X9352357Y-14437214D01*
X9323786Y-14480071D01*
X9295214Y-14508643D01*
X9266643Y-14522929D01*
X9566643Y-14708643D02*
X9580929Y-14722929D01*
X9566643Y-14737214D01*
X9552357Y-14722929D01*
X9566643Y-14708643D01*
X9566643Y-14737214D01*
X9766643Y-14437214D02*
X9795214Y-14437214D01*
X9823786Y-14451500D01*
X9838071Y-14465786D01*
X9852357Y-14494357D01*
X9866643Y-14551500D01*
X9866643Y-14622929D01*
X9852357Y-14680071D01*
X9838071Y-14708643D01*
X9823786Y-14722929D01*
X9795214Y-14737214D01*
X9766643Y-14737214D01*
X9738071Y-14722929D01*
X9723786Y-14708643D01*
X9709500Y-14680071D01*
X9695214Y-14622929D01*
X9695214Y-14551500D01*
X9709500Y-14494357D01*
X9723786Y-14465786D01*
X9738071Y-14451500D01*
X9766643Y-14437214D01*
X10052357Y-14437214D02*
X10080929Y-14437214D01*
X10109500Y-14451500D01*
X10123786Y-14465786D01*
X10138071Y-14494357D01*
X10152357Y-14551500D01*
X10152357Y-14622929D01*
X10138071Y-14680071D01*
X10123786Y-14708643D01*
X10109500Y-14722929D01*
X10080929Y-14737214D01*
X10052357Y-14737214D01*
X10023786Y-14722929D01*
X10009500Y-14708643D01*
X9995214Y-14680071D01*
X9980929Y-14622929D01*
X9980929Y-14551500D01*
X9995214Y-14494357D01*
X10009500Y-14465786D01*
X10023786Y-14451500D01*
X10052357Y-14437214D01*
X10280929Y-14737214D02*
X10280929Y-14537214D01*
X10280929Y-14565786D02*
X10295214Y-14551500D01*
X10323786Y-14537214D01*
X10366643Y-14537214D01*
X10395214Y-14551500D01*
X10409500Y-14580071D01*
X10409500Y-14737214D01*
X10409500Y-14580071D02*
X10423786Y-14551500D01*
X10452357Y-14537214D01*
X10495214Y-14537214D01*
X10523786Y-14551500D01*
X10538071Y-14580071D01*
X10538071Y-14737214D01*
X10680929Y-14737214D02*
X10680929Y-14537214D01*
X10680929Y-14565786D02*
X10695214Y-14551500D01*
X10723786Y-14537214D01*
X10766643Y-14537214D01*
X10795214Y-14551500D01*
X10809500Y-14580071D01*
X10809500Y-14737214D01*
X10809500Y-14580071D02*
X10823786Y-14551500D01*
X10852357Y-14537214D01*
X10895214Y-14537214D01*
X10923786Y-14551500D01*
X10938071Y-14580071D01*
X10938071Y-14737214D01*
X11523786Y-14422929D02*
X11266643Y-14808643D01*
X11909500Y-14437214D02*
X11938071Y-14437214D01*
X11966643Y-14451500D01*
X11980928Y-14465786D01*
X11995214Y-14494357D01*
X12009500Y-14551500D01*
X12009500Y-14622929D01*
X11995214Y-14680071D01*
X11980928Y-14708643D01*
X11966643Y-14722929D01*
X11938071Y-14737214D01*
X11909500Y-14737214D01*
X11880928Y-14722929D01*
X11866643Y-14708643D01*
X11852357Y-14680071D01*
X11838071Y-14622929D01*
X11838071Y-14551500D01*
X11852357Y-14494357D01*
X11866643Y-14465786D01*
X11880928Y-14451500D01*
X11909500Y-14437214D01*
X12138071Y-14708643D02*
X12152357Y-14722929D01*
X12138071Y-14737214D01*
X12123786Y-14722929D01*
X12138071Y-14708643D01*
X12138071Y-14737214D01*
X12338071Y-14437214D02*
X12366643Y-14437214D01*
X12395214Y-14451500D01*
X12409500Y-14465786D01*
X12423785Y-14494357D01*
X12438071Y-14551500D01*
X12438071Y-14622929D01*
X12423785Y-14680071D01*
X12409500Y-14708643D01*
X12395214Y-14722929D01*
X12366643Y-14737214D01*
X12338071Y-14737214D01*
X12309500Y-14722929D01*
X12295214Y-14708643D01*
X12280928Y-14680071D01*
X12266643Y-14622929D01*
X12266643Y-14551500D01*
X12280928Y-14494357D01*
X12295214Y-14465786D01*
X12309500Y-14451500D01*
X12338071Y-14437214D01*
X12538071Y-14437214D02*
X12723785Y-14437214D01*
X12623785Y-14551500D01*
X12666643Y-14551500D01*
X12695214Y-14565786D01*
X12709500Y-14580071D01*
X12723785Y-14608643D01*
X12723785Y-14680071D01*
X12709500Y-14708643D01*
X12695214Y-14722929D01*
X12666643Y-14737214D01*
X12580928Y-14737214D01*
X12552357Y-14722929D01*
X12538071Y-14708643D01*
X12866643Y-14737214D02*
X12923785Y-14737214D01*
X12952357Y-14722929D01*
X12966643Y-14708643D01*
X12995214Y-14665786D01*
X13009500Y-14608643D01*
X13009500Y-14494357D01*
X12995214Y-14465786D01*
X12980928Y-14451500D01*
X12952357Y-14437214D01*
X12895214Y-14437214D01*
X12866643Y-14451500D01*
X12852357Y-14465786D01*
X12838071Y-14494357D01*
X12838071Y-14565786D01*
X12852357Y-14594357D01*
X12866643Y-14608643D01*
X12895214Y-14622929D01*
X12952357Y-14622929D01*
X12980928Y-14608643D01*
X12995214Y-14594357D01*
X13009500Y-14565786D01*
X13123786Y-14437214D02*
X13123786Y-14494357D01*
X13238071Y-14437214D02*
X13238071Y-14494357D01*
X13680928Y-14851500D02*
X13666643Y-14837214D01*
X13638071Y-14794357D01*
X13623785Y-14765786D01*
X13609500Y-14722929D01*
X13595214Y-14651500D01*
X13595214Y-14594357D01*
X13609500Y-14522929D01*
X13623785Y-14480071D01*
X13638071Y-14451500D01*
X13666643Y-14408643D01*
X13680928Y-14394357D01*
X13780928Y-14465786D02*
X13795214Y-14451500D01*
X13823785Y-14437214D01*
X13895214Y-14437214D01*
X13923785Y-14451500D01*
X13938071Y-14465786D01*
X13952357Y-14494357D01*
X13952357Y-14522929D01*
X13938071Y-14565786D01*
X13766643Y-14737214D01*
X13952357Y-14737214D01*
X14309500Y-14737214D02*
X14309500Y-14437214D01*
X14438071Y-14737214D02*
X14438071Y-14580071D01*
X14423785Y-14551500D01*
X14395214Y-14537214D01*
X14352357Y-14537214D01*
X14323785Y-14551500D01*
X14309500Y-14565786D01*
X14623785Y-14737214D02*
X14595214Y-14722929D01*
X14580928Y-14708643D01*
X14566643Y-14680071D01*
X14566643Y-14594357D01*
X14580928Y-14565786D01*
X14595214Y-14551500D01*
X14623785Y-14537214D01*
X14666643Y-14537214D01*
X14695214Y-14551500D01*
X14709500Y-14565786D01*
X14723785Y-14594357D01*
X14723785Y-14680071D01*
X14709500Y-14708643D01*
X14695214Y-14722929D01*
X14666643Y-14737214D01*
X14623785Y-14737214D01*
X14895214Y-14737214D02*
X14866643Y-14722929D01*
X14852357Y-14694357D01*
X14852357Y-14437214D01*
X15123786Y-14722929D02*
X15095214Y-14737214D01*
X15038071Y-14737214D01*
X15009500Y-14722929D01*
X14995214Y-14694357D01*
X14995214Y-14580071D01*
X15009500Y-14551500D01*
X15038071Y-14537214D01*
X15095214Y-14537214D01*
X15123786Y-14551500D01*
X15138071Y-14580071D01*
X15138071Y-14608643D01*
X14995214Y-14637214D01*
X15252357Y-14722929D02*
X15280928Y-14737214D01*
X15338071Y-14737214D01*
X15366643Y-14722929D01*
X15380928Y-14694357D01*
X15380928Y-14680071D01*
X15366643Y-14651500D01*
X15338071Y-14637214D01*
X15295214Y-14637214D01*
X15266643Y-14622929D01*
X15252357Y-14594357D01*
X15252357Y-14580071D01*
X15266643Y-14551500D01*
X15295214Y-14537214D01*
X15338071Y-14537214D01*
X15366643Y-14551500D01*
X15480928Y-14851500D02*
X15495214Y-14837214D01*
X15523786Y-14794357D01*
X15538071Y-14765786D01*
X15552357Y-14722929D01*
X15566643Y-14651500D01*
X15566643Y-14594357D01*
X15552357Y-14522929D01*
X15538071Y-14480071D01*
X15523786Y-14451500D01*
X15495214Y-14408643D01*
X15480928Y-14394357D01*
X8958700Y-15048300D02*
X9009500Y-14997500D01*
X8958700Y-14946700D01*
X8907900Y-14997500D01*
X8958700Y-15048300D01*
X9438071Y-15133214D02*
X9266643Y-15133214D01*
X9352357Y-15133214D02*
X9352357Y-14833214D01*
X9323786Y-14876071D01*
X9295214Y-14904643D01*
X9266643Y-14918929D01*
X9566643Y-15104643D02*
X9580929Y-15118929D01*
X9566643Y-15133214D01*
X9552357Y-15118929D01*
X9566643Y-15104643D01*
X9566643Y-15133214D01*
X9766643Y-14833214D02*
X9795214Y-14833214D01*
X9823786Y-14847500D01*
X9838071Y-14861786D01*
X9852357Y-14890357D01*
X9866643Y-14947500D01*
X9866643Y-15018929D01*
X9852357Y-15076071D01*
X9838071Y-15104643D01*
X9823786Y-15118929D01*
X9795214Y-15133214D01*
X9766643Y-15133214D01*
X9738071Y-15118929D01*
X9723786Y-15104643D01*
X9709500Y-15076071D01*
X9695214Y-15018929D01*
X9695214Y-14947500D01*
X9709500Y-14890357D01*
X9723786Y-14861786D01*
X9738071Y-14847500D01*
X9766643Y-14833214D01*
X9980929Y-14861786D02*
X9995214Y-14847500D01*
X10023786Y-14833214D01*
X10095214Y-14833214D01*
X10123786Y-14847500D01*
X10138071Y-14861786D01*
X10152357Y-14890357D01*
X10152357Y-14918929D01*
X10138071Y-14961786D01*
X9966643Y-15133214D01*
X10152357Y-15133214D01*
X10280929Y-15133214D02*
X10280929Y-14933214D01*
X10280929Y-14961786D02*
X10295214Y-14947500D01*
X10323786Y-14933214D01*
X10366643Y-14933214D01*
X10395214Y-14947500D01*
X10409500Y-14976071D01*
X10409500Y-15133214D01*
X10409500Y-14976071D02*
X10423786Y-14947500D01*
X10452357Y-14933214D01*
X10495214Y-14933214D01*
X10523786Y-14947500D01*
X10538071Y-14976071D01*
X10538071Y-15133214D01*
X10680929Y-15133214D02*
X10680929Y-14933214D01*
X10680929Y-14961786D02*
X10695214Y-14947500D01*
X10723786Y-14933214D01*
X10766643Y-14933214D01*
X10795214Y-14947500D01*
X10809500Y-14976071D01*
X10809500Y-15133214D01*
X10809500Y-14976071D02*
X10823786Y-14947500D01*
X10852357Y-14933214D01*
X10895214Y-14933214D01*
X10923786Y-14947500D01*
X10938071Y-14976071D01*
X10938071Y-15133214D01*
X11523786Y-14818929D02*
X11266643Y-15204643D01*
X11909500Y-14833214D02*
X11938071Y-14833214D01*
X11966643Y-14847500D01*
X11980928Y-14861786D01*
X11995214Y-14890357D01*
X12009500Y-14947500D01*
X12009500Y-15018929D01*
X11995214Y-15076071D01*
X11980928Y-15104643D01*
X11966643Y-15118929D01*
X11938071Y-15133214D01*
X11909500Y-15133214D01*
X11880928Y-15118929D01*
X11866643Y-15104643D01*
X11852357Y-15076071D01*
X11838071Y-15018929D01*
X11838071Y-14947500D01*
X11852357Y-14890357D01*
X11866643Y-14861786D01*
X11880928Y-14847500D01*
X11909500Y-14833214D01*
X12138071Y-15104643D02*
X12152357Y-15118929D01*
X12138071Y-15133214D01*
X12123786Y-15118929D01*
X12138071Y-15104643D01*
X12138071Y-15133214D01*
X12338071Y-14833214D02*
X12366643Y-14833214D01*
X12395214Y-14847500D01*
X12409500Y-14861786D01*
X12423785Y-14890357D01*
X12438071Y-14947500D01*
X12438071Y-15018929D01*
X12423785Y-15076071D01*
X12409500Y-15104643D01*
X12395214Y-15118929D01*
X12366643Y-15133214D01*
X12338071Y-15133214D01*
X12309500Y-15118929D01*
X12295214Y-15104643D01*
X12280928Y-15076071D01*
X12266643Y-15018929D01*
X12266643Y-14947500D01*
X12280928Y-14890357D01*
X12295214Y-14861786D01*
X12309500Y-14847500D01*
X12338071Y-14833214D01*
X12695214Y-14933214D02*
X12695214Y-15133214D01*
X12623785Y-14818929D02*
X12552357Y-15033214D01*
X12738071Y-15033214D01*
X12909500Y-14833214D02*
X12938071Y-14833214D01*
X12966643Y-14847500D01*
X12980928Y-14861786D01*
X12995214Y-14890357D01*
X13009500Y-14947500D01*
X13009500Y-15018929D01*
X12995214Y-15076071D01*
X12980928Y-15104643D01*
X12966643Y-15118929D01*
X12938071Y-15133214D01*
X12909500Y-15133214D01*
X12880928Y-15118929D01*
X12866643Y-15104643D01*
X12852357Y-15076071D01*
X12838071Y-15018929D01*
X12838071Y-14947500D01*
X12852357Y-14890357D01*
X12866643Y-14861786D01*
X12880928Y-14847500D01*
X12909500Y-14833214D01*
X13123786Y-14833214D02*
X13123786Y-14890357D01*
X13238071Y-14833214D02*
X13238071Y-14890357D01*
X13680928Y-15247500D02*
X13666643Y-15233214D01*
X13638071Y-15190357D01*
X13623785Y-15161786D01*
X13609500Y-15118929D01*
X13595214Y-15047500D01*
X13595214Y-14990357D01*
X13609500Y-14918929D01*
X13623785Y-14876071D01*
X13638071Y-14847500D01*
X13666643Y-14804643D01*
X13680928Y-14790357D01*
X13952357Y-15133214D02*
X13780928Y-15133214D01*
X13866643Y-15133214D02*
X13866643Y-14833214D01*
X13838071Y-14876071D01*
X13809500Y-14904643D01*
X13780928Y-14918929D01*
X14138071Y-14833214D02*
X14166643Y-14833214D01*
X14195214Y-14847500D01*
X14209500Y-14861786D01*
X14223785Y-14890357D01*
X14238071Y-14947500D01*
X14238071Y-15018929D01*
X14223785Y-15076071D01*
X14209500Y-15104643D01*
X14195214Y-15118929D01*
X14166643Y-15133214D01*
X14138071Y-15133214D01*
X14109500Y-15118929D01*
X14095214Y-15104643D01*
X14080928Y-15076071D01*
X14066643Y-15018929D01*
X14066643Y-14947500D01*
X14080928Y-14890357D01*
X14095214Y-14861786D01*
X14109500Y-14847500D01*
X14138071Y-14833214D01*
X14595214Y-15133214D02*
X14595214Y-14833214D01*
X14723785Y-15133214D02*
X14723785Y-14976071D01*
X14709500Y-14947500D01*
X14680928Y-14933214D01*
X14638071Y-14933214D01*
X14609500Y-14947500D01*
X14595214Y-14961786D01*
X14909500Y-15133214D02*
X14880928Y-15118929D01*
X14866643Y-15104643D01*
X14852357Y-15076071D01*
X14852357Y-14990357D01*
X14866643Y-14961786D01*
X14880928Y-14947500D01*
X14909500Y-14933214D01*
X14952357Y-14933214D01*
X14980928Y-14947500D01*
X14995214Y-14961786D01*
X15009500Y-14990357D01*
X15009500Y-15076071D01*
X14995214Y-15104643D01*
X14980928Y-15118929D01*
X14952357Y-15133214D01*
X14909500Y-15133214D01*
X15180928Y-15133214D02*
X15152357Y-15118929D01*
X15138071Y-15090357D01*
X15138071Y-14833214D01*
X15409500Y-15118929D02*
X15380928Y-15133214D01*
X15323786Y-15133214D01*
X15295214Y-15118929D01*
X15280928Y-15090357D01*
X15280928Y-14976071D01*
X15295214Y-14947500D01*
X15323786Y-14933214D01*
X15380928Y-14933214D01*
X15409500Y-14947500D01*
X15423786Y-14976071D01*
X15423786Y-15004643D01*
X15280928Y-15033214D01*
X15538071Y-15118929D02*
X15566643Y-15133214D01*
X15623786Y-15133214D01*
X15652357Y-15118929D01*
X15666643Y-15090357D01*
X15666643Y-15076071D01*
X15652357Y-15047500D01*
X15623786Y-15033214D01*
X15580928Y-15033214D01*
X15552357Y-15018929D01*
X15538071Y-14990357D01*
X15538071Y-14976071D01*
X15552357Y-14947500D01*
X15580928Y-14933214D01*
X15623786Y-14933214D01*
X15652357Y-14947500D01*
X15766643Y-15247500D02*
X15780928Y-15233214D01*
X15809500Y-15190357D01*
X15823786Y-15161786D01*
X15838071Y-15118929D01*
X15852357Y-15047500D01*
X15852357Y-14990357D01*
X15838071Y-14918929D01*
X15823786Y-14876071D01*
X15809500Y-14847500D01*
X15780928Y-14804643D01*
X15766643Y-14790357D01*
X8919584Y-15348542D02*
X9009500Y-15438458D01*
X9009500Y-15348542D02*
X8919584Y-15438458D01*
X9009500Y-15393500D02*
G75*
G03X9009500Y-15393500I-44958J0D01*
G01*
X9338071Y-15229214D02*
X9366643Y-15229214D01*
X9395214Y-15243500D01*
X9409500Y-15257786D01*
X9423786Y-15286357D01*
X9438071Y-15343500D01*
X9438071Y-15414929D01*
X9423786Y-15472071D01*
X9409500Y-15500643D01*
X9395214Y-15514929D01*
X9366643Y-15529214D01*
X9338071Y-15529214D01*
X9309500Y-15514929D01*
X9295214Y-15500643D01*
X9280929Y-15472071D01*
X9266643Y-15414929D01*
X9266643Y-15343500D01*
X9280929Y-15286357D01*
X9295214Y-15257786D01*
X9309500Y-15243500D01*
X9338071Y-15229214D01*
X9566643Y-15500643D02*
X9580929Y-15514929D01*
X9566643Y-15529214D01*
X9552357Y-15514929D01*
X9566643Y-15500643D01*
X9566643Y-15529214D01*
X9723786Y-15529214D02*
X9780928Y-15529214D01*
X9809500Y-15514929D01*
X9823786Y-15500643D01*
X9852357Y-15457786D01*
X9866643Y-15400643D01*
X9866643Y-15286357D01*
X9852357Y-15257786D01*
X9838071Y-15243500D01*
X9809500Y-15229214D01*
X9752357Y-15229214D01*
X9723786Y-15243500D01*
X9709500Y-15257786D01*
X9695214Y-15286357D01*
X9695214Y-15357786D01*
X9709500Y-15386357D01*
X9723786Y-15400643D01*
X9752357Y-15414929D01*
X9809500Y-15414929D01*
X9838071Y-15400643D01*
X9852357Y-15386357D01*
X9866643Y-15357786D01*
X10052357Y-15229214D02*
X10080929Y-15229214D01*
X10109500Y-15243500D01*
X10123786Y-15257786D01*
X10138071Y-15286357D01*
X10152357Y-15343500D01*
X10152357Y-15414929D01*
X10138071Y-15472071D01*
X10123786Y-15500643D01*
X10109500Y-15514929D01*
X10080929Y-15529214D01*
X10052357Y-15529214D01*
X10023786Y-15514929D01*
X10009500Y-15500643D01*
X9995214Y-15472071D01*
X9980929Y-15414929D01*
X9980929Y-15343500D01*
X9995214Y-15286357D01*
X10009500Y-15257786D01*
X10023786Y-15243500D01*
X10052357Y-15229214D01*
X10280929Y-15529214D02*
X10280929Y-15329214D01*
X10280929Y-15357786D02*
X10295214Y-15343500D01*
X10323786Y-15329214D01*
X10366643Y-15329214D01*
X10395214Y-15343500D01*
X10409500Y-15372071D01*
X10409500Y-15529214D01*
X10409500Y-15372071D02*
X10423786Y-15343500D01*
X10452357Y-15329214D01*
X10495214Y-15329214D01*
X10523786Y-15343500D01*
X10538071Y-15372071D01*
X10538071Y-15529214D01*
X10680929Y-15529214D02*
X10680929Y-15329214D01*
X10680929Y-15357786D02*
X10695214Y-15343500D01*
X10723786Y-15329214D01*
X10766643Y-15329214D01*
X10795214Y-15343500D01*
X10809500Y-15372071D01*
X10809500Y-15529214D01*
X10809500Y-15372071D02*
X10823786Y-15343500D01*
X10852357Y-15329214D01*
X10895214Y-15329214D01*
X10923786Y-15343500D01*
X10938071Y-15372071D01*
X10938071Y-15529214D01*
X11523786Y-15214929D02*
X11266643Y-15600643D01*
X11909500Y-15229214D02*
X11938071Y-15229214D01*
X11966643Y-15243500D01*
X11980928Y-15257786D01*
X11995214Y-15286357D01*
X12009500Y-15343500D01*
X12009500Y-15414929D01*
X11995214Y-15472071D01*
X11980928Y-15500643D01*
X11966643Y-15514929D01*
X11938071Y-15529214D01*
X11909500Y-15529214D01*
X11880928Y-15514929D01*
X11866643Y-15500643D01*
X11852357Y-15472071D01*
X11838071Y-15414929D01*
X11838071Y-15343500D01*
X11852357Y-15286357D01*
X11866643Y-15257786D01*
X11880928Y-15243500D01*
X11909500Y-15229214D01*
X12138071Y-15500643D02*
X12152357Y-15514929D01*
X12138071Y-15529214D01*
X12123786Y-15514929D01*
X12138071Y-15500643D01*
X12138071Y-15529214D01*
X12338071Y-15229214D02*
X12366643Y-15229214D01*
X12395214Y-15243500D01*
X12409500Y-15257786D01*
X12423785Y-15286357D01*
X12438071Y-15343500D01*
X12438071Y-15414929D01*
X12423785Y-15472071D01*
X12409500Y-15500643D01*
X12395214Y-15514929D01*
X12366643Y-15529214D01*
X12338071Y-15529214D01*
X12309500Y-15514929D01*
X12295214Y-15500643D01*
X12280928Y-15472071D01*
X12266643Y-15414929D01*
X12266643Y-15343500D01*
X12280928Y-15286357D01*
X12295214Y-15257786D01*
X12309500Y-15243500D01*
X12338071Y-15229214D01*
X12538071Y-15229214D02*
X12723785Y-15229214D01*
X12623785Y-15343500D01*
X12666643Y-15343500D01*
X12695214Y-15357786D01*
X12709500Y-15372071D01*
X12723785Y-15400643D01*
X12723785Y-15472071D01*
X12709500Y-15500643D01*
X12695214Y-15514929D01*
X12666643Y-15529214D01*
X12580928Y-15529214D01*
X12552357Y-15514929D01*
X12538071Y-15500643D01*
X12995214Y-15229214D02*
X12852357Y-15229214D01*
X12838071Y-15372071D01*
X12852357Y-15357786D01*
X12880928Y-15343500D01*
X12952357Y-15343500D01*
X12980928Y-15357786D01*
X12995214Y-15372071D01*
X13009500Y-15400643D01*
X13009500Y-15472071D01*
X12995214Y-15500643D01*
X12980928Y-15514929D01*
X12952357Y-15529214D01*
X12880928Y-15529214D01*
X12852357Y-15514929D01*
X12838071Y-15500643D01*
X13123786Y-15229214D02*
X13123786Y-15286357D01*
X13238071Y-15229214D02*
X13238071Y-15286357D01*
X13680928Y-15643500D02*
X13666643Y-15629214D01*
X13638071Y-15586357D01*
X13623785Y-15557786D01*
X13609500Y-15514929D01*
X13595214Y-15443500D01*
X13595214Y-15386357D01*
X13609500Y-15314929D01*
X13623785Y-15272071D01*
X13638071Y-15243500D01*
X13666643Y-15200643D01*
X13680928Y-15186357D01*
X13780928Y-15257786D02*
X13795214Y-15243500D01*
X13823785Y-15229214D01*
X13895214Y-15229214D01*
X13923785Y-15243500D01*
X13938071Y-15257786D01*
X13952357Y-15286357D01*
X13952357Y-15314929D01*
X13938071Y-15357786D01*
X13766643Y-15529214D01*
X13952357Y-15529214D01*
X14309500Y-15529214D02*
X14309500Y-15229214D01*
X14438071Y-15529214D02*
X14438071Y-15372071D01*
X14423785Y-15343500D01*
X14395214Y-15329214D01*
X14352357Y-15329214D01*
X14323785Y-15343500D01*
X14309500Y-15357786D01*
X14623785Y-15529214D02*
X14595214Y-15514929D01*
X14580928Y-15500643D01*
X14566643Y-15472071D01*
X14566643Y-15386357D01*
X14580928Y-15357786D01*
X14595214Y-15343500D01*
X14623785Y-15329214D01*
X14666643Y-15329214D01*
X14695214Y-15343500D01*
X14709500Y-15357786D01*
X14723785Y-15386357D01*
X14723785Y-15472071D01*
X14709500Y-15500643D01*
X14695214Y-15514929D01*
X14666643Y-15529214D01*
X14623785Y-15529214D01*
X14895214Y-15529214D02*
X14866643Y-15514929D01*
X14852357Y-15486357D01*
X14852357Y-15229214D01*
X15123786Y-15514929D02*
X15095214Y-15529214D01*
X15038071Y-15529214D01*
X15009500Y-15514929D01*
X14995214Y-15486357D01*
X14995214Y-15372071D01*
X15009500Y-15343500D01*
X15038071Y-15329214D01*
X15095214Y-15329214D01*
X15123786Y-15343500D01*
X15138071Y-15372071D01*
X15138071Y-15400643D01*
X14995214Y-15429214D01*
X15252357Y-15514929D02*
X15280928Y-15529214D01*
X15338071Y-15529214D01*
X15366643Y-15514929D01*
X15380928Y-15486357D01*
X15380928Y-15472071D01*
X15366643Y-15443500D01*
X15338071Y-15429214D01*
X15295214Y-15429214D01*
X15266643Y-15414929D01*
X15252357Y-15386357D01*
X15252357Y-15372071D01*
X15266643Y-15343500D01*
X15295214Y-15329214D01*
X15338071Y-15329214D01*
X15366643Y-15343500D01*
X15480928Y-15643500D02*
X15495214Y-15629214D01*
X15523786Y-15586357D01*
X15538071Y-15557786D01*
X15552357Y-15514929D01*
X15566643Y-15443500D01*
X15566643Y-15386357D01*
X15552357Y-15314929D01*
X15538071Y-15272071D01*
X15523786Y-15243500D01*
X15495214Y-15200643D01*
X15480928Y-15186357D01*
X16023786Y-15643500D02*
X16009500Y-15629214D01*
X15980928Y-15586357D01*
X15966643Y-15557786D01*
X15952357Y-15514929D01*
X15938071Y-15443500D01*
X15938071Y-15386357D01*
X15952357Y-15314929D01*
X15966643Y-15272071D01*
X15980928Y-15243500D01*
X16009500Y-15200643D01*
X16023786Y-15186357D01*
X16138071Y-15329214D02*
X16138071Y-15529214D01*
X16138071Y-15357786D02*
X16152357Y-15343500D01*
X16180928Y-15329214D01*
X16223786Y-15329214D01*
X16252357Y-15343500D01*
X16266643Y-15372071D01*
X16266643Y-15529214D01*
X16452357Y-15529214D02*
X16423786Y-15514929D01*
X16409500Y-15500643D01*
X16395214Y-15472071D01*
X16395214Y-15386357D01*
X16409500Y-15357786D01*
X16423786Y-15343500D01*
X16452357Y-15329214D01*
X16495214Y-15329214D01*
X16523786Y-15343500D01*
X16538071Y-15357786D01*
X16552357Y-15386357D01*
X16552357Y-15472071D01*
X16538071Y-15500643D01*
X16523786Y-15514929D01*
X16495214Y-15529214D01*
X16452357Y-15529214D01*
X16638071Y-15329214D02*
X16752357Y-15329214D01*
X16680928Y-15229214D02*
X16680928Y-15486357D01*
X16695214Y-15514929D01*
X16723786Y-15529214D01*
X16752357Y-15529214D01*
X17080929Y-15329214D02*
X17080929Y-15629214D01*
X17080929Y-15343500D02*
X17109500Y-15329214D01*
X17166643Y-15329214D01*
X17195214Y-15343500D01*
X17209500Y-15357786D01*
X17223786Y-15386357D01*
X17223786Y-15472071D01*
X17209500Y-15500643D01*
X17195214Y-15514929D01*
X17166643Y-15529214D01*
X17109500Y-15529214D01*
X17080929Y-15514929D01*
X17395214Y-15529214D02*
X17366643Y-15514929D01*
X17352357Y-15486357D01*
X17352357Y-15229214D01*
X17638071Y-15529214D02*
X17638071Y-15372071D01*
X17623786Y-15343500D01*
X17595214Y-15329214D01*
X17538071Y-15329214D01*
X17509500Y-15343500D01*
X17638071Y-15514929D02*
X17609500Y-15529214D01*
X17538071Y-15529214D01*
X17509500Y-15514929D01*
X17495214Y-15486357D01*
X17495214Y-15457786D01*
X17509500Y-15429214D01*
X17538071Y-15414929D01*
X17609500Y-15414929D01*
X17638071Y-15400643D01*
X17738071Y-15329214D02*
X17852357Y-15329214D01*
X17780929Y-15229214D02*
X17780929Y-15486357D01*
X17795214Y-15514929D01*
X17823786Y-15529214D01*
X17852357Y-15529214D01*
X18066643Y-15514929D02*
X18038072Y-15529214D01*
X17980929Y-15529214D01*
X17952357Y-15514929D01*
X17938072Y-15486357D01*
X17938072Y-15372071D01*
X17952357Y-15343500D01*
X17980929Y-15329214D01*
X18038072Y-15329214D01*
X18066643Y-15343500D01*
X18080929Y-15372071D01*
X18080929Y-15400643D01*
X17938072Y-15429214D01*
X18338072Y-15529214D02*
X18338072Y-15229214D01*
X18338072Y-15514929D02*
X18309500Y-15529214D01*
X18252357Y-15529214D01*
X18223786Y-15514929D01*
X18209500Y-15500643D01*
X18195214Y-15472071D01*
X18195214Y-15386357D01*
X18209500Y-15357786D01*
X18223786Y-15343500D01*
X18252357Y-15329214D01*
X18309500Y-15329214D01*
X18338072Y-15343500D01*
X18452357Y-15643500D02*
X18466643Y-15629214D01*
X18495214Y-15586357D01*
X18509500Y-15557786D01*
X18523786Y-15514929D01*
X18538072Y-15443500D01*
X18538072Y-15386357D01*
X18523786Y-15314929D01*
X18509500Y-15272071D01*
X18495214Y-15243500D01*
X18466643Y-15200643D01*
X18452357Y-15186357D01*
M02*
