G04 #@! TF.FileFunction,Copper,L2,Bot,Signal*
%FSLAX46Y46*%
G04 Gerber Fmt 4.6, Leading zero omitted, Abs format (unit mm)*
G04 Created by KiCad (PCBNEW 4.0.2+dfsg1-stable) date 2017年08月28日 星期一 15时15分42秒*
%MOMM*%
G01*
G04 APERTURE LIST*
%ADD10C,0.100000*%
%ADD11C,0.150000*%
%ADD12C,1.501140*%
%ADD13C,2.000000*%
%ADD14R,1.727200X2.032000*%
%ADD15O,1.727200X2.032000*%
%ADD16R,1.500000X1.500000*%
%ADD17C,1.500000*%
%ADD18R,5.080000X1.778000*%
%ADD19R,2.000000X2.500000*%
%ADD20C,0.600000*%
%ADD21C,0.250000*%
%ADD22C,0.500000*%
%ADD23C,0.254000*%
G04 APERTURE END LIST*
D10*
D11*
X90170000Y-101460000D02*
X135170000Y-101460000D01*
X90170000Y-124460000D02*
X90170000Y-101460000D01*
X135170000Y-124460000D02*
X90170000Y-124460000D01*
X135170000Y-101460000D02*
X135170000Y-124460000D01*
D12*
X113002060Y-122047000D03*
X117883940Y-122047000D03*
D13*
X123095000Y-109474000D03*
X127095000Y-109474000D03*
D14*
X91948000Y-103124000D03*
D15*
X94488000Y-103124000D03*
X97028000Y-103124000D03*
X99568000Y-103124000D03*
X102108000Y-103124000D03*
D16*
X126492000Y-103632000D03*
D17*
X129032000Y-103632000D03*
X131572000Y-103632000D03*
D16*
X126492000Y-122174000D03*
D17*
X129032000Y-122174000D03*
X131572000Y-122174000D03*
D18*
X132588000Y-107950000D03*
X132588000Y-110490000D03*
X132588000Y-115570000D03*
X132588000Y-113030000D03*
X132588000Y-118110000D03*
D14*
X108585000Y-103251000D03*
D15*
X111125000Y-103251000D03*
X113665000Y-103251000D03*
X116205000Y-103251000D03*
X118745000Y-103251000D03*
D19*
X108553000Y-123063000D03*
X104553000Y-123063000D03*
D20*
X104601000Y-109728000D03*
X109982000Y-109220000D03*
X104601000Y-111633000D03*
X109982000Y-110109000D03*
X109728000Y-105029000D03*
X113601500Y-110109000D03*
X99615000Y-105537000D03*
X104595920Y-113466880D03*
X128270000Y-120523000D03*
X113772000Y-113518000D03*
X107188000Y-115570000D03*
X110871000Y-113792000D03*
X106553000Y-110871000D03*
X123651000Y-116967000D03*
X128651000Y-111506000D03*
X125603000Y-118872000D03*
X119126000Y-113665000D03*
X125603000Y-116967000D03*
X120269000Y-113665000D03*
X128350000Y-115062000D03*
X125603000Y-115062000D03*
X121412000Y-113538000D03*
X95726000Y-122555000D03*
X105156000Y-123190000D03*
X106299000Y-113157000D03*
X100584000Y-122428000D03*
X98933000Y-114935000D03*
X99568000Y-114935000D03*
X100584000Y-107950000D03*
X108839000Y-106553000D03*
X105791000Y-102743000D03*
X113919000Y-118745000D03*
X105410000Y-120396000D03*
X115379500Y-111315500D03*
X109410500Y-113347500D03*
X133985000Y-120777000D03*
X109855000Y-108331000D03*
X106553000Y-107442000D03*
X117221000Y-106934000D03*
X113665000Y-108077000D03*
X118491000Y-109601000D03*
X122301000Y-120396000D03*
X124206000Y-120396000D03*
X119253000Y-110363000D03*
X104521000Y-106934000D03*
D21*
X109474000Y-109220000D02*
X105109000Y-109220000D01*
X105109000Y-109220000D02*
X104601000Y-109728000D01*
X109982000Y-109220000D02*
X109474000Y-109220000D01*
X109474000Y-109220000D02*
X109220000Y-109220000D01*
X109982000Y-110109000D02*
X109855000Y-109982000D01*
X106299000Y-109982000D02*
X109855000Y-109982000D01*
X104648000Y-111633000D02*
X106299000Y-109982000D01*
X104648000Y-111633000D02*
X104601000Y-111633000D01*
X123444000Y-121158000D02*
X124587000Y-121158000D01*
X125222000Y-120523000D02*
X128270000Y-120523000D01*
X124587000Y-121158000D02*
X125222000Y-120523000D01*
X114280000Y-113518000D02*
X113772000Y-113518000D01*
X121920000Y-121158000D02*
X114280000Y-113518000D01*
X123444000Y-121158000D02*
X121920000Y-121158000D01*
X104595920Y-113466880D02*
X104576880Y-113466880D01*
X103632000Y-109554000D02*
X102743000Y-108665000D01*
X103632000Y-112522000D02*
X103632000Y-109554000D01*
X104576880Y-113466880D02*
X103632000Y-112522000D01*
X113601500Y-110109000D02*
X113601500Y-109283500D01*
X109728000Y-105410000D02*
X109728000Y-105029000D01*
X113601500Y-109283500D02*
X109728000Y-105410000D01*
X99615000Y-105537000D02*
X94361000Y-105537000D01*
X94361000Y-105537000D02*
X91948000Y-103124000D01*
X99615000Y-105537000D02*
X102743000Y-108665000D01*
X107188000Y-115570000D02*
X107188000Y-115445000D01*
X106553000Y-110871000D02*
X106553000Y-111633000D01*
X109093000Y-114173000D02*
X110490000Y-114173000D01*
X106553000Y-111633000D02*
X109093000Y-114173000D01*
X110490000Y-114173000D02*
X110871000Y-113792000D01*
X110490000Y-114173000D02*
X110871000Y-113792000D01*
X110490000Y-114173000D02*
X110871000Y-113792000D01*
X130937000Y-107950000D02*
X127000000Y-111887000D01*
X127000000Y-117094000D02*
X127000000Y-111887000D01*
X126238000Y-117856000D02*
X127000000Y-117094000D01*
X124540000Y-117856000D02*
X126238000Y-117856000D01*
X124540000Y-117856000D02*
X123651000Y-116967000D01*
X130937000Y-107950000D02*
X132588000Y-107950000D01*
X132196800Y-107558800D02*
X132588000Y-107950000D01*
X132588000Y-110490000D02*
X129667000Y-110490000D01*
X129667000Y-110490000D02*
X128651000Y-111506000D01*
X131963200Y-111114800D02*
X132588000Y-110490000D01*
X125603000Y-118872000D02*
X124206000Y-118872000D01*
X119126000Y-113792000D02*
X119126000Y-113665000D01*
X124206000Y-118872000D02*
X119126000Y-113792000D01*
X124587000Y-115951000D02*
X125603000Y-116967000D01*
X122555000Y-115951000D02*
X124587000Y-115951000D01*
X120269000Y-113665000D02*
X122555000Y-115951000D01*
X128350000Y-115062000D02*
X130382000Y-113030000D01*
X130382000Y-113030000D02*
X132588000Y-113030000D01*
X122936000Y-115062000D02*
X125603000Y-115062000D01*
X121412000Y-113538000D02*
X122936000Y-115062000D01*
D22*
X103791000Y-123825000D02*
X96996000Y-123825000D01*
X96996000Y-123825000D02*
X95726000Y-122555000D01*
X103791000Y-123825000D02*
X104553000Y-123063000D01*
X103791000Y-123825000D02*
X104553000Y-123063000D01*
D21*
X127127000Y-123376998D02*
X127829002Y-123376998D01*
X127829002Y-123376998D02*
X130048000Y-121158000D01*
X130048000Y-121158000D02*
X132588000Y-118618000D01*
X132588000Y-118618000D02*
X132588000Y-118110000D01*
X129032000Y-122174000D02*
X129032000Y-122487998D01*
X129032000Y-122487998D02*
X128016000Y-123503998D01*
X122233998Y-123503998D02*
X120904000Y-122174000D01*
X128016000Y-123503998D02*
X122233998Y-123503998D01*
X129032000Y-122174000D02*
X129032000Y-122555000D01*
X129032000Y-122555000D02*
X128210002Y-123376998D01*
X128210002Y-123376998D02*
X127127000Y-123376998D01*
X127127000Y-123376998D02*
X122106998Y-123376998D01*
X122106998Y-123376998D02*
X120904000Y-122174000D01*
X120904000Y-122174000D02*
X117475000Y-118745000D01*
X117475000Y-118745000D02*
X116840000Y-118745000D01*
X99568000Y-114935000D02*
X99568000Y-115062000D01*
X99568000Y-115062000D02*
X99568000Y-108966000D01*
X99568000Y-108966000D02*
X100584000Y-107950000D01*
X99568000Y-115062000D02*
X99568000Y-121412000D01*
X102235000Y-120777000D02*
X100584000Y-122428000D01*
X99568000Y-121412000D02*
X100584000Y-122428000D01*
X104140000Y-120777000D02*
X102235000Y-120777000D01*
X129032000Y-122555000D02*
X128210002Y-123376998D01*
X116840000Y-118745000D02*
X113919000Y-118745000D01*
X111633000Y-109347000D02*
X111633000Y-108585000D01*
X111633000Y-108585000D02*
X109601000Y-106553000D01*
X109601000Y-106553000D02*
X108839000Y-106553000D01*
X108839000Y-106553000D02*
X108458000Y-106553000D01*
X108458000Y-106553000D02*
X105791000Y-103886000D01*
X105791000Y-103886000D02*
X105791000Y-102743000D01*
X109601000Y-106553000D02*
X111633000Y-108585000D01*
X105791000Y-103886000D02*
X105791000Y-102743000D01*
X111633000Y-109347000D02*
X111633000Y-111633000D01*
X111633000Y-111315500D02*
X111633000Y-111633000D01*
X111633000Y-111633000D02*
X111633000Y-118999000D01*
X111633000Y-118999000D02*
X110871000Y-119761000D01*
X118745000Y-103251000D02*
X118745000Y-106934000D01*
X118745000Y-106934000D02*
X115379500Y-110299500D01*
X115379500Y-111315500D02*
X115379500Y-110299500D01*
X125190000Y-107569000D02*
X127095000Y-109474000D01*
X115379500Y-110299500D02*
X118110000Y-107569000D01*
X118110000Y-107569000D02*
X125190000Y-107569000D01*
X129032000Y-103632000D02*
X129032000Y-107537000D01*
X129032000Y-107537000D02*
X127095000Y-109474000D01*
X104140000Y-120777000D02*
X109855000Y-120777000D01*
X109855000Y-120777000D02*
X110871000Y-119761000D01*
X110871000Y-119761000D02*
X111887000Y-118745000D01*
X111887000Y-118745000D02*
X113919000Y-118745000D01*
X105410000Y-120396000D02*
X105029000Y-120777000D01*
X105029000Y-120777000D02*
X102235000Y-120777000D01*
X115379500Y-111315500D02*
X111633000Y-111315500D01*
X111633000Y-111315500D02*
X111442500Y-111315500D01*
X111442500Y-111315500D02*
X111125000Y-111633000D01*
X132588000Y-115570000D02*
X132588000Y-118110000D01*
X118745000Y-103251000D02*
X118745000Y-103759000D01*
X129032000Y-122174000D02*
X129032000Y-121666000D01*
X109410500Y-113347500D02*
X111125000Y-111633000D01*
D22*
X133985000Y-122301000D02*
X132207000Y-124079000D01*
X132207000Y-124079000D02*
X109569000Y-124079000D01*
X109569000Y-124079000D02*
X108553000Y-123063000D01*
X133985000Y-120777000D02*
X133985000Y-122301000D01*
X108553000Y-123063000D02*
X108712000Y-123063000D01*
D21*
X103060500Y-106743500D02*
X104013000Y-107696000D01*
X106172000Y-106680000D02*
X107188000Y-106680000D01*
X105156000Y-107696000D02*
X106172000Y-106680000D01*
X104013000Y-107696000D02*
X105156000Y-107696000D01*
X100584000Y-104140000D02*
X100584000Y-104267000D01*
X100584000Y-104267000D02*
X103060500Y-106743500D01*
X100584000Y-104140000D02*
X99568000Y-103124000D01*
X109728000Y-108458000D02*
X109855000Y-108331000D01*
X107188000Y-106680000D02*
X107315000Y-106680000D01*
X107315000Y-106680000D02*
X109093000Y-108458000D01*
X109093000Y-108458000D02*
X109728000Y-108458000D01*
X99568000Y-103124000D02*
X99822000Y-103124000D01*
X103378000Y-108204000D02*
X103759000Y-108585000D01*
X105410000Y-108585000D02*
X106553000Y-107442000D01*
X103759000Y-108585000D02*
X105410000Y-108585000D01*
X99822000Y-104902000D02*
X100076000Y-104902000D01*
X100076000Y-104902000D02*
X103378000Y-108204000D01*
X96266000Y-104902000D02*
X94488000Y-103124000D01*
X99822000Y-104902000D02*
X96266000Y-104902000D01*
X94488000Y-103124000D02*
X94488000Y-103378000D01*
X116078000Y-108077000D02*
X113665000Y-108077000D01*
X117221000Y-106934000D02*
X116078000Y-108077000D01*
X118491000Y-109601000D02*
X117475000Y-110617000D01*
X117475000Y-110617000D02*
X117475000Y-112395000D01*
X117475000Y-114808000D02*
X117475000Y-112395000D01*
X122301000Y-119634000D02*
X117475000Y-114808000D01*
X122301000Y-119634000D02*
X122301000Y-120396000D01*
X124206000Y-120396000D02*
X124206000Y-120396000D01*
X118110000Y-114300000D02*
X124206000Y-120396000D01*
X118110000Y-111506000D02*
X118110000Y-114300000D01*
X119253000Y-110363000D02*
X118110000Y-111506000D01*
X104521000Y-103886000D02*
X104521000Y-102870000D01*
X104521000Y-102870000D02*
X105537000Y-101854000D01*
X107188000Y-101854000D02*
X108585000Y-103251000D01*
X105537000Y-101854000D02*
X107188000Y-101854000D01*
X104521000Y-106934000D02*
X104521000Y-103886000D01*
X108585000Y-103251000D02*
X108458000Y-103251000D01*
D23*
G36*
X134568000Y-106523676D02*
X130048000Y-106523676D01*
X129852706Y-106560423D01*
X129673340Y-106675842D01*
X129553010Y-106851951D01*
X129510676Y-107061000D01*
X129510676Y-108454257D01*
X126538966Y-111425966D01*
X126397631Y-111637490D01*
X126397631Y-111637491D01*
X126347999Y-111887000D01*
X126348000Y-111887005D01*
X126348000Y-114699420D01*
X126304505Y-114594154D01*
X126072070Y-114361312D01*
X125768222Y-114235144D01*
X125439221Y-114234857D01*
X125135154Y-114360495D01*
X125085562Y-114410000D01*
X123206067Y-114410000D01*
X122239083Y-113443015D01*
X122239143Y-113374221D01*
X122113505Y-113070154D01*
X121881070Y-112837312D01*
X121577222Y-112711144D01*
X121248221Y-112710857D01*
X120944154Y-112836495D01*
X120777023Y-113003334D01*
X120738070Y-112964312D01*
X120434222Y-112838144D01*
X120105221Y-112837857D01*
X119801154Y-112963495D01*
X119697523Y-113066945D01*
X119595070Y-112964312D01*
X119291222Y-112838144D01*
X118962221Y-112837857D01*
X118762000Y-112920587D01*
X118762000Y-111776068D01*
X119347985Y-111190083D01*
X119416779Y-111190143D01*
X119720846Y-111064505D01*
X119953688Y-110832070D01*
X120079856Y-110528222D01*
X120080143Y-110199221D01*
X119954505Y-109895154D01*
X119835966Y-109776407D01*
X121567735Y-109776407D01*
X121799717Y-110337846D01*
X122228894Y-110767773D01*
X122789928Y-111000735D01*
X123397407Y-111001265D01*
X123958846Y-110769283D01*
X124388773Y-110340106D01*
X124621735Y-109779072D01*
X124622265Y-109171593D01*
X124390283Y-108610154D01*
X123961106Y-108180227D01*
X123400072Y-107947265D01*
X122792593Y-107946735D01*
X122231154Y-108178717D01*
X121801227Y-108607894D01*
X121568265Y-109168928D01*
X121567735Y-109776407D01*
X119835966Y-109776407D01*
X119722070Y-109662312D01*
X119418222Y-109536144D01*
X119318057Y-109536057D01*
X119318143Y-109437221D01*
X119192505Y-109133154D01*
X118960070Y-108900312D01*
X118656222Y-108774144D01*
X118327221Y-108773857D01*
X118023154Y-108899495D01*
X117790312Y-109131930D01*
X117664144Y-109435778D01*
X117664083Y-109505849D01*
X117013966Y-110155966D01*
X116872631Y-110367490D01*
X116865780Y-110401930D01*
X116822999Y-110617000D01*
X116823000Y-110617005D01*
X116823000Y-114807995D01*
X116822999Y-114808000D01*
X116858002Y-114983966D01*
X116872631Y-115057510D01*
X116964826Y-115195490D01*
X117013966Y-115269034D01*
X121636119Y-119891186D01*
X121605659Y-119921592D01*
X114741034Y-113056966D01*
X114630386Y-112983034D01*
X114529510Y-112915631D01*
X114488113Y-112907396D01*
X114292068Y-112868400D01*
X114241070Y-112817312D01*
X113937222Y-112691144D01*
X113608221Y-112690857D01*
X113304154Y-112816495D01*
X113071312Y-113048930D01*
X112945144Y-113352778D01*
X112944857Y-113681779D01*
X113070495Y-113985846D01*
X113302930Y-114218688D01*
X113606778Y-114344856D01*
X113935779Y-114345143D01*
X114112185Y-114272253D01*
X121458964Y-121619031D01*
X121458966Y-121619034D01*
X121600302Y-121713471D01*
X121670491Y-121760370D01*
X121920000Y-121810001D01*
X121920005Y-121810000D01*
X124586995Y-121810000D01*
X124587000Y-121810001D01*
X124795113Y-121768604D01*
X124836510Y-121760369D01*
X125048034Y-121619034D01*
X125204676Y-121462392D01*
X125204676Y-122924000D01*
X125241423Y-123119294D01*
X125356842Y-123298660D01*
X125361730Y-123302000D01*
X118192108Y-123302000D01*
X118606680Y-123130703D01*
X118966380Y-122771630D01*
X119161288Y-122302239D01*
X119161731Y-121793991D01*
X118967643Y-121324260D01*
X118608570Y-120964560D01*
X118139179Y-120769652D01*
X117630931Y-120769209D01*
X117161200Y-120963297D01*
X116801500Y-121322370D01*
X116606592Y-121791761D01*
X116606149Y-122300009D01*
X116800237Y-122769740D01*
X117159310Y-123129440D01*
X117574881Y-123302000D01*
X113310228Y-123302000D01*
X113724800Y-123130703D01*
X114084500Y-122771630D01*
X114279408Y-122302239D01*
X114279851Y-121793991D01*
X114085763Y-121324260D01*
X113726690Y-120964560D01*
X113257299Y-120769652D01*
X112749051Y-120769209D01*
X112279320Y-120963297D01*
X111919620Y-121322370D01*
X111724712Y-121791761D01*
X111724269Y-122300009D01*
X111918357Y-122769740D01*
X112277430Y-123129440D01*
X112693001Y-123302000D01*
X110090324Y-123302000D01*
X110090324Y-121813000D01*
X110053577Y-121617706D01*
X109938158Y-121438340D01*
X109762049Y-121318010D01*
X109553000Y-121275676D01*
X107553000Y-121275676D01*
X107357706Y-121312423D01*
X107178340Y-121427842D01*
X107058010Y-121603951D01*
X107015676Y-121813000D01*
X107015676Y-123858000D01*
X106090324Y-123858000D01*
X106090324Y-121813000D01*
X106053577Y-121617706D01*
X105938158Y-121438340D01*
X105762049Y-121318010D01*
X105553000Y-121275676D01*
X103553000Y-121275676D01*
X103357706Y-121312423D01*
X103178340Y-121427842D01*
X103058010Y-121603951D01*
X103015676Y-121813000D01*
X103015676Y-123048000D01*
X97317844Y-123048000D01*
X96477151Y-122207307D01*
X96427505Y-122087154D01*
X96195070Y-121854312D01*
X95891222Y-121728144D01*
X95562221Y-121727857D01*
X95258154Y-121853495D01*
X95025312Y-122085930D01*
X94899144Y-122389778D01*
X94898857Y-122718779D01*
X95024495Y-123022846D01*
X95256930Y-123255688D01*
X95378199Y-123306043D01*
X95930156Y-123858000D01*
X90772000Y-123858000D01*
X90772000Y-115423041D01*
X93854151Y-115423041D01*
X94002513Y-115782105D01*
X94276990Y-116057061D01*
X94635794Y-116206050D01*
X95024301Y-116206389D01*
X95383365Y-116058027D01*
X95658321Y-115783550D01*
X95678987Y-115733779D01*
X106360857Y-115733779D01*
X106486495Y-116037846D01*
X106718930Y-116270688D01*
X107022778Y-116396856D01*
X107351779Y-116397143D01*
X107655846Y-116271505D01*
X107888688Y-116039070D01*
X108014856Y-115735222D01*
X108015143Y-115406221D01*
X107889505Y-115102154D01*
X107657070Y-114869312D01*
X107353222Y-114743144D01*
X107024221Y-114742857D01*
X106720154Y-114868495D01*
X106487312Y-115100930D01*
X106361144Y-115404778D01*
X106360857Y-115733779D01*
X95678987Y-115733779D01*
X95807310Y-115424746D01*
X95807649Y-115036239D01*
X95659287Y-114677175D01*
X95384810Y-114402219D01*
X95026006Y-114253230D01*
X94637499Y-114252891D01*
X94278435Y-114401253D01*
X94003479Y-114675730D01*
X93854490Y-115034534D01*
X93854151Y-115423041D01*
X90772000Y-115423041D01*
X90772000Y-111023761D01*
X93854151Y-111023761D01*
X94002513Y-111382825D01*
X94276990Y-111657781D01*
X94635794Y-111806770D01*
X95024301Y-111807109D01*
X95383365Y-111658747D01*
X95658321Y-111384270D01*
X95807310Y-111025466D01*
X95807649Y-110636959D01*
X95659287Y-110277895D01*
X95384810Y-110002939D01*
X95026006Y-109853950D01*
X94637499Y-109853611D01*
X94278435Y-110001973D01*
X94003479Y-110276450D01*
X93854490Y-110635254D01*
X93854151Y-111023761D01*
X90772000Y-111023761D01*
X90772000Y-104564373D01*
X90875351Y-104634990D01*
X91084400Y-104677324D01*
X92579256Y-104677324D01*
X93899964Y-105998031D01*
X93899966Y-105998034D01*
X94111490Y-106139369D01*
X94361000Y-106189000D01*
X99097327Y-106189000D01*
X99145930Y-106237688D01*
X99449778Y-106363856D01*
X99519849Y-106363917D01*
X102980000Y-109824068D01*
X102980000Y-112521995D01*
X102979999Y-112522000D01*
X103004369Y-112644510D01*
X103029631Y-112771510D01*
X103092767Y-112866000D01*
X103170966Y-112983034D01*
X103768820Y-113580888D01*
X103768777Y-113630659D01*
X103894415Y-113934726D01*
X104126850Y-114167568D01*
X104430698Y-114293736D01*
X104759699Y-114294023D01*
X105063766Y-114168385D01*
X105296608Y-113935950D01*
X105422776Y-113632102D01*
X105423063Y-113303101D01*
X105297425Y-112999034D01*
X105064990Y-112766192D01*
X104761142Y-112640024D01*
X104672014Y-112639946D01*
X104491973Y-112459905D01*
X104764779Y-112460143D01*
X105068846Y-112334505D01*
X105301688Y-112102070D01*
X105427856Y-111798222D01*
X105427876Y-111775192D01*
X105857853Y-111345215D01*
X105901000Y-111388438D01*
X105901000Y-111632995D01*
X105900999Y-111633000D01*
X105925435Y-111755842D01*
X105950631Y-111882510D01*
X106069871Y-112060966D01*
X106091966Y-112094034D01*
X108631964Y-114634031D01*
X108631966Y-114634034D01*
X108843490Y-114775369D01*
X109093000Y-114825000D01*
X110489995Y-114825000D01*
X110490000Y-114825001D01*
X110698113Y-114783604D01*
X110739510Y-114775369D01*
X110951034Y-114634034D01*
X110965985Y-114619083D01*
X111034779Y-114619143D01*
X111338846Y-114493505D01*
X111571688Y-114261070D01*
X111697856Y-113957222D01*
X111698143Y-113628221D01*
X111572505Y-113324154D01*
X111340070Y-113091312D01*
X111036222Y-112965144D01*
X110707221Y-112964857D01*
X110403154Y-113090495D01*
X110170312Y-113322930D01*
X110088067Y-113521000D01*
X109363067Y-113521000D01*
X107217882Y-111375814D01*
X107253688Y-111340070D01*
X107379856Y-111036222D01*
X107380143Y-110707221D01*
X107349889Y-110634000D01*
X109337549Y-110634000D01*
X109512930Y-110809688D01*
X109816778Y-110935856D01*
X110145779Y-110936143D01*
X110449846Y-110810505D01*
X110682688Y-110578070D01*
X110808856Y-110274222D01*
X110809143Y-109945221D01*
X110693021Y-109664185D01*
X110808856Y-109385222D01*
X110809143Y-109056221D01*
X110683505Y-108752154D01*
X110607288Y-108675803D01*
X110681856Y-108496222D01*
X110682143Y-108167221D01*
X110556505Y-107863154D01*
X110324070Y-107630312D01*
X110020222Y-107504144D01*
X109691221Y-107503857D01*
X109387154Y-107629495D01*
X109286770Y-107729703D01*
X107776034Y-106218966D01*
X107731186Y-106189000D01*
X107564510Y-106077631D01*
X107523113Y-106069396D01*
X107315000Y-106027999D01*
X107314995Y-106028000D01*
X106172005Y-106028000D01*
X106172000Y-106027999D01*
X105963887Y-106069396D01*
X105922490Y-106077631D01*
X105755814Y-106189000D01*
X105710966Y-106218966D01*
X105293049Y-106636883D01*
X105222505Y-106466154D01*
X105173000Y-106416562D01*
X105173000Y-103140068D01*
X105807068Y-102506000D01*
X106917932Y-102506000D01*
X107184076Y-102772144D01*
X107184076Y-104267000D01*
X107220823Y-104462294D01*
X107336242Y-104641660D01*
X107512351Y-104761990D01*
X107721400Y-104804324D01*
X108925831Y-104804324D01*
X108901144Y-104863778D01*
X108900857Y-105192779D01*
X109026495Y-105496846D01*
X109109893Y-105580390D01*
X109117396Y-105618113D01*
X109125631Y-105659510D01*
X109210489Y-105786509D01*
X109266966Y-105871034D01*
X112949500Y-109553567D01*
X112949500Y-109591327D01*
X112900812Y-109639930D01*
X112774644Y-109943778D01*
X112774357Y-110272779D01*
X112899995Y-110576846D01*
X113132430Y-110809688D01*
X113436278Y-110935856D01*
X113765279Y-110936143D01*
X114069346Y-110810505D01*
X114302188Y-110578070D01*
X114428356Y-110274222D01*
X114428643Y-109945221D01*
X114303005Y-109641154D01*
X114253500Y-109591562D01*
X114253500Y-109283500D01*
X114203869Y-109033990D01*
X114062534Y-108822466D01*
X114062531Y-108822464D01*
X114051984Y-108811917D01*
X114132846Y-108778505D01*
X114182438Y-108729000D01*
X116077995Y-108729000D01*
X116078000Y-108729001D01*
X116286113Y-108687604D01*
X116327510Y-108679369D01*
X116539034Y-108538034D01*
X117315985Y-107761083D01*
X117384779Y-107761143D01*
X117688846Y-107635505D01*
X117921688Y-107403070D01*
X118047856Y-107099222D01*
X118048143Y-106770221D01*
X117922505Y-106466154D01*
X117690070Y-106233312D01*
X117386222Y-106107144D01*
X117057221Y-106106857D01*
X116753154Y-106232495D01*
X116520312Y-106464930D01*
X116394144Y-106768778D01*
X116394083Y-106838849D01*
X115807932Y-107425000D01*
X114182673Y-107425000D01*
X114134070Y-107376312D01*
X113830222Y-107250144D01*
X113501221Y-107249857D01*
X113197154Y-107375495D01*
X112964312Y-107607930D01*
X112930185Y-107690118D01*
X110519482Y-105279414D01*
X110554856Y-105194222D01*
X110555143Y-104865221D01*
X110456951Y-104627578D01*
X110592840Y-104718376D01*
X111125000Y-104824229D01*
X111657160Y-104718376D01*
X112108303Y-104416932D01*
X112395000Y-103987859D01*
X112681697Y-104416932D01*
X113132840Y-104718376D01*
X113665000Y-104824229D01*
X114197160Y-104718376D01*
X114648303Y-104416932D01*
X114935000Y-103987859D01*
X115221697Y-104416932D01*
X115672840Y-104718376D01*
X116205000Y-104824229D01*
X116737160Y-104718376D01*
X117188303Y-104416932D01*
X117489747Y-103965789D01*
X117595600Y-103433629D01*
X117595600Y-103068371D01*
X117558529Y-102882000D01*
X125204676Y-102882000D01*
X125204676Y-104382000D01*
X125241423Y-104577294D01*
X125356842Y-104756660D01*
X125532951Y-104876990D01*
X125742000Y-104919324D01*
X127242000Y-104919324D01*
X127437294Y-104882577D01*
X127616660Y-104767158D01*
X127736990Y-104591049D01*
X127779324Y-104382000D01*
X127779324Y-103884897D01*
X130294779Y-103884897D01*
X130488781Y-104354417D01*
X130847693Y-104713957D01*
X131316875Y-104908778D01*
X131824897Y-104909221D01*
X132294417Y-104715219D01*
X132653957Y-104356307D01*
X132848778Y-103887125D01*
X132849221Y-103379103D01*
X132655219Y-102909583D01*
X132296307Y-102550043D01*
X131827125Y-102355222D01*
X131319103Y-102354779D01*
X130849583Y-102548781D01*
X130490043Y-102907693D01*
X130295222Y-103376875D01*
X130294779Y-103884897D01*
X127779324Y-103884897D01*
X127779324Y-102882000D01*
X127742577Y-102686706D01*
X127627158Y-102507340D01*
X127451049Y-102387010D01*
X127242000Y-102344676D01*
X125742000Y-102344676D01*
X125546706Y-102381423D01*
X125367340Y-102496842D01*
X125247010Y-102672951D01*
X125204676Y-102882000D01*
X117558529Y-102882000D01*
X117489747Y-102536211D01*
X117188303Y-102085068D01*
X117153779Y-102062000D01*
X134568000Y-102062000D01*
X134568000Y-106523676D01*
X134568000Y-106523676D01*
G37*
X134568000Y-106523676D02*
X130048000Y-106523676D01*
X129852706Y-106560423D01*
X129673340Y-106675842D01*
X129553010Y-106851951D01*
X129510676Y-107061000D01*
X129510676Y-108454257D01*
X126538966Y-111425966D01*
X126397631Y-111637490D01*
X126397631Y-111637491D01*
X126347999Y-111887000D01*
X126348000Y-111887005D01*
X126348000Y-114699420D01*
X126304505Y-114594154D01*
X126072070Y-114361312D01*
X125768222Y-114235144D01*
X125439221Y-114234857D01*
X125135154Y-114360495D01*
X125085562Y-114410000D01*
X123206067Y-114410000D01*
X122239083Y-113443015D01*
X122239143Y-113374221D01*
X122113505Y-113070154D01*
X121881070Y-112837312D01*
X121577222Y-112711144D01*
X121248221Y-112710857D01*
X120944154Y-112836495D01*
X120777023Y-113003334D01*
X120738070Y-112964312D01*
X120434222Y-112838144D01*
X120105221Y-112837857D01*
X119801154Y-112963495D01*
X119697523Y-113066945D01*
X119595070Y-112964312D01*
X119291222Y-112838144D01*
X118962221Y-112837857D01*
X118762000Y-112920587D01*
X118762000Y-111776068D01*
X119347985Y-111190083D01*
X119416779Y-111190143D01*
X119720846Y-111064505D01*
X119953688Y-110832070D01*
X120079856Y-110528222D01*
X120080143Y-110199221D01*
X119954505Y-109895154D01*
X119835966Y-109776407D01*
X121567735Y-109776407D01*
X121799717Y-110337846D01*
X122228894Y-110767773D01*
X122789928Y-111000735D01*
X123397407Y-111001265D01*
X123958846Y-110769283D01*
X124388773Y-110340106D01*
X124621735Y-109779072D01*
X124622265Y-109171593D01*
X124390283Y-108610154D01*
X123961106Y-108180227D01*
X123400072Y-107947265D01*
X122792593Y-107946735D01*
X122231154Y-108178717D01*
X121801227Y-108607894D01*
X121568265Y-109168928D01*
X121567735Y-109776407D01*
X119835966Y-109776407D01*
X119722070Y-109662312D01*
X119418222Y-109536144D01*
X119318057Y-109536057D01*
X119318143Y-109437221D01*
X119192505Y-109133154D01*
X118960070Y-108900312D01*
X118656222Y-108774144D01*
X118327221Y-108773857D01*
X118023154Y-108899495D01*
X117790312Y-109131930D01*
X117664144Y-109435778D01*
X117664083Y-109505849D01*
X117013966Y-110155966D01*
X116872631Y-110367490D01*
X116865780Y-110401930D01*
X116822999Y-110617000D01*
X116823000Y-110617005D01*
X116823000Y-114807995D01*
X116822999Y-114808000D01*
X116858002Y-114983966D01*
X116872631Y-115057510D01*
X116964826Y-115195490D01*
X117013966Y-115269034D01*
X121636119Y-119891186D01*
X121605659Y-119921592D01*
X114741034Y-113056966D01*
X114630386Y-112983034D01*
X114529510Y-112915631D01*
X114488113Y-112907396D01*
X114292068Y-112868400D01*
X114241070Y-112817312D01*
X113937222Y-112691144D01*
X113608221Y-112690857D01*
X113304154Y-112816495D01*
X113071312Y-113048930D01*
X112945144Y-113352778D01*
X112944857Y-113681779D01*
X113070495Y-113985846D01*
X113302930Y-114218688D01*
X113606778Y-114344856D01*
X113935779Y-114345143D01*
X114112185Y-114272253D01*
X121458964Y-121619031D01*
X121458966Y-121619034D01*
X121600302Y-121713471D01*
X121670491Y-121760370D01*
X121920000Y-121810001D01*
X121920005Y-121810000D01*
X124586995Y-121810000D01*
X124587000Y-121810001D01*
X124795113Y-121768604D01*
X124836510Y-121760369D01*
X125048034Y-121619034D01*
X125204676Y-121462392D01*
X125204676Y-122924000D01*
X125241423Y-123119294D01*
X125356842Y-123298660D01*
X125361730Y-123302000D01*
X118192108Y-123302000D01*
X118606680Y-123130703D01*
X118966380Y-122771630D01*
X119161288Y-122302239D01*
X119161731Y-121793991D01*
X118967643Y-121324260D01*
X118608570Y-120964560D01*
X118139179Y-120769652D01*
X117630931Y-120769209D01*
X117161200Y-120963297D01*
X116801500Y-121322370D01*
X116606592Y-121791761D01*
X116606149Y-122300009D01*
X116800237Y-122769740D01*
X117159310Y-123129440D01*
X117574881Y-123302000D01*
X113310228Y-123302000D01*
X113724800Y-123130703D01*
X114084500Y-122771630D01*
X114279408Y-122302239D01*
X114279851Y-121793991D01*
X114085763Y-121324260D01*
X113726690Y-120964560D01*
X113257299Y-120769652D01*
X112749051Y-120769209D01*
X112279320Y-120963297D01*
X111919620Y-121322370D01*
X111724712Y-121791761D01*
X111724269Y-122300009D01*
X111918357Y-122769740D01*
X112277430Y-123129440D01*
X112693001Y-123302000D01*
X110090324Y-123302000D01*
X110090324Y-121813000D01*
X110053577Y-121617706D01*
X109938158Y-121438340D01*
X109762049Y-121318010D01*
X109553000Y-121275676D01*
X107553000Y-121275676D01*
X107357706Y-121312423D01*
X107178340Y-121427842D01*
X107058010Y-121603951D01*
X107015676Y-121813000D01*
X107015676Y-123858000D01*
X106090324Y-123858000D01*
X106090324Y-121813000D01*
X106053577Y-121617706D01*
X105938158Y-121438340D01*
X105762049Y-121318010D01*
X105553000Y-121275676D01*
X103553000Y-121275676D01*
X103357706Y-121312423D01*
X103178340Y-121427842D01*
X103058010Y-121603951D01*
X103015676Y-121813000D01*
X103015676Y-123048000D01*
X97317844Y-123048000D01*
X96477151Y-122207307D01*
X96427505Y-122087154D01*
X96195070Y-121854312D01*
X95891222Y-121728144D01*
X95562221Y-121727857D01*
X95258154Y-121853495D01*
X95025312Y-122085930D01*
X94899144Y-122389778D01*
X94898857Y-122718779D01*
X95024495Y-123022846D01*
X95256930Y-123255688D01*
X95378199Y-123306043D01*
X95930156Y-123858000D01*
X90772000Y-123858000D01*
X90772000Y-115423041D01*
X93854151Y-115423041D01*
X94002513Y-115782105D01*
X94276990Y-116057061D01*
X94635794Y-116206050D01*
X95024301Y-116206389D01*
X95383365Y-116058027D01*
X95658321Y-115783550D01*
X95678987Y-115733779D01*
X106360857Y-115733779D01*
X106486495Y-116037846D01*
X106718930Y-116270688D01*
X107022778Y-116396856D01*
X107351779Y-116397143D01*
X107655846Y-116271505D01*
X107888688Y-116039070D01*
X108014856Y-115735222D01*
X108015143Y-115406221D01*
X107889505Y-115102154D01*
X107657070Y-114869312D01*
X107353222Y-114743144D01*
X107024221Y-114742857D01*
X106720154Y-114868495D01*
X106487312Y-115100930D01*
X106361144Y-115404778D01*
X106360857Y-115733779D01*
X95678987Y-115733779D01*
X95807310Y-115424746D01*
X95807649Y-115036239D01*
X95659287Y-114677175D01*
X95384810Y-114402219D01*
X95026006Y-114253230D01*
X94637499Y-114252891D01*
X94278435Y-114401253D01*
X94003479Y-114675730D01*
X93854490Y-115034534D01*
X93854151Y-115423041D01*
X90772000Y-115423041D01*
X90772000Y-111023761D01*
X93854151Y-111023761D01*
X94002513Y-111382825D01*
X94276990Y-111657781D01*
X94635794Y-111806770D01*
X95024301Y-111807109D01*
X95383365Y-111658747D01*
X95658321Y-111384270D01*
X95807310Y-111025466D01*
X95807649Y-110636959D01*
X95659287Y-110277895D01*
X95384810Y-110002939D01*
X95026006Y-109853950D01*
X94637499Y-109853611D01*
X94278435Y-110001973D01*
X94003479Y-110276450D01*
X93854490Y-110635254D01*
X93854151Y-111023761D01*
X90772000Y-111023761D01*
X90772000Y-104564373D01*
X90875351Y-104634990D01*
X91084400Y-104677324D01*
X92579256Y-104677324D01*
X93899964Y-105998031D01*
X93899966Y-105998034D01*
X94111490Y-106139369D01*
X94361000Y-106189000D01*
X99097327Y-106189000D01*
X99145930Y-106237688D01*
X99449778Y-106363856D01*
X99519849Y-106363917D01*
X102980000Y-109824068D01*
X102980000Y-112521995D01*
X102979999Y-112522000D01*
X103004369Y-112644510D01*
X103029631Y-112771510D01*
X103092767Y-112866000D01*
X103170966Y-112983034D01*
X103768820Y-113580888D01*
X103768777Y-113630659D01*
X103894415Y-113934726D01*
X104126850Y-114167568D01*
X104430698Y-114293736D01*
X104759699Y-114294023D01*
X105063766Y-114168385D01*
X105296608Y-113935950D01*
X105422776Y-113632102D01*
X105423063Y-113303101D01*
X105297425Y-112999034D01*
X105064990Y-112766192D01*
X104761142Y-112640024D01*
X104672014Y-112639946D01*
X104491973Y-112459905D01*
X104764779Y-112460143D01*
X105068846Y-112334505D01*
X105301688Y-112102070D01*
X105427856Y-111798222D01*
X105427876Y-111775192D01*
X105857853Y-111345215D01*
X105901000Y-111388438D01*
X105901000Y-111632995D01*
X105900999Y-111633000D01*
X105925435Y-111755842D01*
X105950631Y-111882510D01*
X106069871Y-112060966D01*
X106091966Y-112094034D01*
X108631964Y-114634031D01*
X108631966Y-114634034D01*
X108843490Y-114775369D01*
X109093000Y-114825000D01*
X110489995Y-114825000D01*
X110490000Y-114825001D01*
X110698113Y-114783604D01*
X110739510Y-114775369D01*
X110951034Y-114634034D01*
X110965985Y-114619083D01*
X111034779Y-114619143D01*
X111338846Y-114493505D01*
X111571688Y-114261070D01*
X111697856Y-113957222D01*
X111698143Y-113628221D01*
X111572505Y-113324154D01*
X111340070Y-113091312D01*
X111036222Y-112965144D01*
X110707221Y-112964857D01*
X110403154Y-113090495D01*
X110170312Y-113322930D01*
X110088067Y-113521000D01*
X109363067Y-113521000D01*
X107217882Y-111375814D01*
X107253688Y-111340070D01*
X107379856Y-111036222D01*
X107380143Y-110707221D01*
X107349889Y-110634000D01*
X109337549Y-110634000D01*
X109512930Y-110809688D01*
X109816778Y-110935856D01*
X110145779Y-110936143D01*
X110449846Y-110810505D01*
X110682688Y-110578070D01*
X110808856Y-110274222D01*
X110809143Y-109945221D01*
X110693021Y-109664185D01*
X110808856Y-109385222D01*
X110809143Y-109056221D01*
X110683505Y-108752154D01*
X110607288Y-108675803D01*
X110681856Y-108496222D01*
X110682143Y-108167221D01*
X110556505Y-107863154D01*
X110324070Y-107630312D01*
X110020222Y-107504144D01*
X109691221Y-107503857D01*
X109387154Y-107629495D01*
X109286770Y-107729703D01*
X107776034Y-106218966D01*
X107731186Y-106189000D01*
X107564510Y-106077631D01*
X107523113Y-106069396D01*
X107315000Y-106027999D01*
X107314995Y-106028000D01*
X106172005Y-106028000D01*
X106172000Y-106027999D01*
X105963887Y-106069396D01*
X105922490Y-106077631D01*
X105755814Y-106189000D01*
X105710966Y-106218966D01*
X105293049Y-106636883D01*
X105222505Y-106466154D01*
X105173000Y-106416562D01*
X105173000Y-103140068D01*
X105807068Y-102506000D01*
X106917932Y-102506000D01*
X107184076Y-102772144D01*
X107184076Y-104267000D01*
X107220823Y-104462294D01*
X107336242Y-104641660D01*
X107512351Y-104761990D01*
X107721400Y-104804324D01*
X108925831Y-104804324D01*
X108901144Y-104863778D01*
X108900857Y-105192779D01*
X109026495Y-105496846D01*
X109109893Y-105580390D01*
X109117396Y-105618113D01*
X109125631Y-105659510D01*
X109210489Y-105786509D01*
X109266966Y-105871034D01*
X112949500Y-109553567D01*
X112949500Y-109591327D01*
X112900812Y-109639930D01*
X112774644Y-109943778D01*
X112774357Y-110272779D01*
X112899995Y-110576846D01*
X113132430Y-110809688D01*
X113436278Y-110935856D01*
X113765279Y-110936143D01*
X114069346Y-110810505D01*
X114302188Y-110578070D01*
X114428356Y-110274222D01*
X114428643Y-109945221D01*
X114303005Y-109641154D01*
X114253500Y-109591562D01*
X114253500Y-109283500D01*
X114203869Y-109033990D01*
X114062534Y-108822466D01*
X114062531Y-108822464D01*
X114051984Y-108811917D01*
X114132846Y-108778505D01*
X114182438Y-108729000D01*
X116077995Y-108729000D01*
X116078000Y-108729001D01*
X116286113Y-108687604D01*
X116327510Y-108679369D01*
X116539034Y-108538034D01*
X117315985Y-107761083D01*
X117384779Y-107761143D01*
X117688846Y-107635505D01*
X117921688Y-107403070D01*
X118047856Y-107099222D01*
X118048143Y-106770221D01*
X117922505Y-106466154D01*
X117690070Y-106233312D01*
X117386222Y-106107144D01*
X117057221Y-106106857D01*
X116753154Y-106232495D01*
X116520312Y-106464930D01*
X116394144Y-106768778D01*
X116394083Y-106838849D01*
X115807932Y-107425000D01*
X114182673Y-107425000D01*
X114134070Y-107376312D01*
X113830222Y-107250144D01*
X113501221Y-107249857D01*
X113197154Y-107375495D01*
X112964312Y-107607930D01*
X112930185Y-107690118D01*
X110519482Y-105279414D01*
X110554856Y-105194222D01*
X110555143Y-104865221D01*
X110456951Y-104627578D01*
X110592840Y-104718376D01*
X111125000Y-104824229D01*
X111657160Y-104718376D01*
X112108303Y-104416932D01*
X112395000Y-103987859D01*
X112681697Y-104416932D01*
X113132840Y-104718376D01*
X113665000Y-104824229D01*
X114197160Y-104718376D01*
X114648303Y-104416932D01*
X114935000Y-103987859D01*
X115221697Y-104416932D01*
X115672840Y-104718376D01*
X116205000Y-104824229D01*
X116737160Y-104718376D01*
X117188303Y-104416932D01*
X117489747Y-103965789D01*
X117595600Y-103433629D01*
X117595600Y-103068371D01*
X117558529Y-102882000D01*
X125204676Y-102882000D01*
X125204676Y-104382000D01*
X125241423Y-104577294D01*
X125356842Y-104756660D01*
X125532951Y-104876990D01*
X125742000Y-104919324D01*
X127242000Y-104919324D01*
X127437294Y-104882577D01*
X127616660Y-104767158D01*
X127736990Y-104591049D01*
X127779324Y-104382000D01*
X127779324Y-103884897D01*
X130294779Y-103884897D01*
X130488781Y-104354417D01*
X130847693Y-104713957D01*
X131316875Y-104908778D01*
X131824897Y-104909221D01*
X132294417Y-104715219D01*
X132653957Y-104356307D01*
X132848778Y-103887125D01*
X132849221Y-103379103D01*
X132655219Y-102909583D01*
X132296307Y-102550043D01*
X131827125Y-102355222D01*
X131319103Y-102354779D01*
X130849583Y-102548781D01*
X130490043Y-102907693D01*
X130295222Y-103376875D01*
X130294779Y-103884897D01*
X127779324Y-103884897D01*
X127779324Y-102882000D01*
X127742577Y-102686706D01*
X127627158Y-102507340D01*
X127451049Y-102387010D01*
X127242000Y-102344676D01*
X125742000Y-102344676D01*
X125546706Y-102381423D01*
X125367340Y-102496842D01*
X125247010Y-102672951D01*
X125204676Y-102882000D01*
X117558529Y-102882000D01*
X117489747Y-102536211D01*
X117188303Y-102085068D01*
X117153779Y-102062000D01*
X134568000Y-102062000D01*
X134568000Y-106523676D01*
G36*
X130048000Y-114456324D02*
X134568000Y-114456324D01*
X134568000Y-120190441D01*
X134454070Y-120076312D01*
X134150222Y-119950144D01*
X133821221Y-119949857D01*
X133517154Y-120075495D01*
X133284312Y-120307930D01*
X133158144Y-120611778D01*
X133157857Y-120940779D01*
X133208000Y-121062134D01*
X133208000Y-121979156D01*
X132848857Y-122338299D01*
X132849221Y-121921103D01*
X132655219Y-121451583D01*
X132296307Y-121092043D01*
X131827125Y-120897222D01*
X131319103Y-120896779D01*
X130849583Y-121090781D01*
X130490043Y-121449693D01*
X130295222Y-121918875D01*
X130294779Y-122426897D01*
X130488781Y-122896417D01*
X130847693Y-123255957D01*
X130958577Y-123302000D01*
X127621551Y-123302000D01*
X127736990Y-123133049D01*
X127779324Y-122924000D01*
X127779324Y-121424000D01*
X127742577Y-121228706D01*
X127708018Y-121175000D01*
X127752327Y-121175000D01*
X127800930Y-121223688D01*
X128104778Y-121349856D01*
X128433779Y-121350143D01*
X128737846Y-121224505D01*
X128970688Y-120992070D01*
X129096856Y-120688222D01*
X129097143Y-120359221D01*
X128971505Y-120055154D01*
X128739070Y-119822312D01*
X128435222Y-119696144D01*
X128106221Y-119695857D01*
X127802154Y-119821495D01*
X127752562Y-119871000D01*
X125222005Y-119871000D01*
X125222000Y-119870999D01*
X124972491Y-119920630D01*
X124961231Y-119928154D01*
X124919129Y-119956286D01*
X124907505Y-119928154D01*
X124675070Y-119695312D01*
X124371222Y-119569144D01*
X124301151Y-119569083D01*
X124256068Y-119524000D01*
X125085327Y-119524000D01*
X125133930Y-119572688D01*
X125437778Y-119698856D01*
X125766779Y-119699143D01*
X126070846Y-119573505D01*
X126303688Y-119341070D01*
X126429856Y-119037222D01*
X126430143Y-118708221D01*
X126339104Y-118487890D01*
X126446113Y-118466604D01*
X126487510Y-118458369D01*
X126699034Y-118317034D01*
X127461031Y-117555036D01*
X127461034Y-117555034D01*
X127602369Y-117343510D01*
X127602370Y-117343509D01*
X127652001Y-117094000D01*
X127652000Y-117093995D01*
X127652000Y-115533357D01*
X127880930Y-115762688D01*
X128184778Y-115888856D01*
X128513779Y-115889143D01*
X128817846Y-115763505D01*
X129050688Y-115531070D01*
X129176856Y-115227222D01*
X129176917Y-115157151D01*
X129906416Y-114427652D01*
X130048000Y-114456324D01*
X130048000Y-114456324D01*
G37*
X130048000Y-114456324D02*
X134568000Y-114456324D01*
X134568000Y-120190441D01*
X134454070Y-120076312D01*
X134150222Y-119950144D01*
X133821221Y-119949857D01*
X133517154Y-120075495D01*
X133284312Y-120307930D01*
X133158144Y-120611778D01*
X133157857Y-120940779D01*
X133208000Y-121062134D01*
X133208000Y-121979156D01*
X132848857Y-122338299D01*
X132849221Y-121921103D01*
X132655219Y-121451583D01*
X132296307Y-121092043D01*
X131827125Y-120897222D01*
X131319103Y-120896779D01*
X130849583Y-121090781D01*
X130490043Y-121449693D01*
X130295222Y-121918875D01*
X130294779Y-122426897D01*
X130488781Y-122896417D01*
X130847693Y-123255957D01*
X130958577Y-123302000D01*
X127621551Y-123302000D01*
X127736990Y-123133049D01*
X127779324Y-122924000D01*
X127779324Y-121424000D01*
X127742577Y-121228706D01*
X127708018Y-121175000D01*
X127752327Y-121175000D01*
X127800930Y-121223688D01*
X128104778Y-121349856D01*
X128433779Y-121350143D01*
X128737846Y-121224505D01*
X128970688Y-120992070D01*
X129096856Y-120688222D01*
X129097143Y-120359221D01*
X128971505Y-120055154D01*
X128739070Y-119822312D01*
X128435222Y-119696144D01*
X128106221Y-119695857D01*
X127802154Y-119821495D01*
X127752562Y-119871000D01*
X125222005Y-119871000D01*
X125222000Y-119870999D01*
X124972491Y-119920630D01*
X124961231Y-119928154D01*
X124919129Y-119956286D01*
X124907505Y-119928154D01*
X124675070Y-119695312D01*
X124371222Y-119569144D01*
X124301151Y-119569083D01*
X124256068Y-119524000D01*
X125085327Y-119524000D01*
X125133930Y-119572688D01*
X125437778Y-119698856D01*
X125766779Y-119699143D01*
X126070846Y-119573505D01*
X126303688Y-119341070D01*
X126429856Y-119037222D01*
X126430143Y-118708221D01*
X126339104Y-118487890D01*
X126446113Y-118466604D01*
X126487510Y-118458369D01*
X126699034Y-118317034D01*
X127461031Y-117555036D01*
X127461034Y-117555034D01*
X127602369Y-117343510D01*
X127602370Y-117343509D01*
X127652001Y-117094000D01*
X127652000Y-117093995D01*
X127652000Y-115533357D01*
X127880930Y-115762688D01*
X128184778Y-115888856D01*
X128513779Y-115889143D01*
X128817846Y-115763505D01*
X129050688Y-115531070D01*
X129176856Y-115227222D01*
X129176917Y-115157151D01*
X129906416Y-114427652D01*
X130048000Y-114456324D01*
G36*
X98283253Y-102409211D02*
X98177400Y-102941371D01*
X98177400Y-103306629D01*
X98283253Y-103838789D01*
X98558015Y-104250000D01*
X96536067Y-104250000D01*
X95831166Y-103545098D01*
X95878600Y-103306629D01*
X95878600Y-102941371D01*
X95772747Y-102409211D01*
X95540748Y-102062000D01*
X98515252Y-102062000D01*
X98283253Y-102409211D01*
X98283253Y-102409211D01*
G37*
X98283253Y-102409211D02*
X98177400Y-102941371D01*
X98177400Y-103306629D01*
X98283253Y-103838789D01*
X98558015Y-104250000D01*
X96536067Y-104250000D01*
X95831166Y-103545098D01*
X95878600Y-103306629D01*
X95878600Y-102941371D01*
X95772747Y-102409211D01*
X95540748Y-102062000D01*
X98515252Y-102062000D01*
X98283253Y-102409211D01*
M02*
