G04 #@! TF.GenerationSoftware,KiCad,Pcbnew,5.0.0-fee4fd1~66~ubuntu16.04.1*
G04 #@! TF.CreationDate,2018-10-12T16:17:25+08:00*
G04 #@! TF.ProjectId,tiny,74696E792E6B696361645F7063620000,rev?*
G04 #@! TF.SameCoordinates,Original*
G04 #@! TF.FileFunction,Paste,Bot*
G04 #@! TF.FilePolarity,Positive*
%FSLAX46Y46*%
G04 Gerber Fmt 4.6, Leading zero omitted, Abs format (unit mm)*
G04 Created by KiCad (PCBNEW 5.0.0-fee4fd1~66~ubuntu16.04.1) date Fri Oct 12 16:17:25 2018*
%MOMM*%
%LPD*%
G01*
G04 APERTURE LIST*
%ADD10C,0.150000*%
%ADD11C,0.100000*%
%ADD12C,1.425000*%
G04 APERTURE END LIST*
D10*
X90170000Y-101460000D02*
X135170000Y-101460000D01*
X90170000Y-124460000D02*
X90170000Y-101460000D01*
X135170000Y-124460000D02*
X90170000Y-124460000D01*
X135170000Y-101460000D02*
X135170000Y-124460000D01*
D11*
G04 #@! TO.C,F2*
G36*
X107381304Y-116481404D02*
X107405573Y-116485004D01*
X107429371Y-116490965D01*
X107452471Y-116499230D01*
X107474649Y-116509720D01*
X107495693Y-116522333D01*
X107515398Y-116536947D01*
X107533577Y-116553423D01*
X107550053Y-116571602D01*
X107564667Y-116591307D01*
X107577280Y-116612351D01*
X107587770Y-116634529D01*
X107596035Y-116657629D01*
X107601996Y-116681427D01*
X107605596Y-116705696D01*
X107606800Y-116730200D01*
X107606800Y-118880200D01*
X107605596Y-118904704D01*
X107601996Y-118928973D01*
X107596035Y-118952771D01*
X107587770Y-118975871D01*
X107577280Y-118998049D01*
X107564667Y-119019093D01*
X107550053Y-119038798D01*
X107533577Y-119056977D01*
X107515398Y-119073453D01*
X107495693Y-119088067D01*
X107474649Y-119100680D01*
X107452471Y-119111170D01*
X107429371Y-119119435D01*
X107405573Y-119125396D01*
X107381304Y-119128996D01*
X107356800Y-119130200D01*
X106431800Y-119130200D01*
X106407296Y-119128996D01*
X106383027Y-119125396D01*
X106359229Y-119119435D01*
X106336129Y-119111170D01*
X106313951Y-119100680D01*
X106292907Y-119088067D01*
X106273202Y-119073453D01*
X106255023Y-119056977D01*
X106238547Y-119038798D01*
X106223933Y-119019093D01*
X106211320Y-118998049D01*
X106200830Y-118975871D01*
X106192565Y-118952771D01*
X106186604Y-118928973D01*
X106183004Y-118904704D01*
X106181800Y-118880200D01*
X106181800Y-116730200D01*
X106183004Y-116705696D01*
X106186604Y-116681427D01*
X106192565Y-116657629D01*
X106200830Y-116634529D01*
X106211320Y-116612351D01*
X106223933Y-116591307D01*
X106238547Y-116571602D01*
X106255023Y-116553423D01*
X106273202Y-116536947D01*
X106292907Y-116522333D01*
X106313951Y-116509720D01*
X106336129Y-116499230D01*
X106359229Y-116490965D01*
X106383027Y-116485004D01*
X106407296Y-116481404D01*
X106431800Y-116480200D01*
X107356800Y-116480200D01*
X107381304Y-116481404D01*
X107381304Y-116481404D01*
G37*
D12*
X106894300Y-117805200D03*
D11*
G36*
X110356304Y-116481404D02*
X110380573Y-116485004D01*
X110404371Y-116490965D01*
X110427471Y-116499230D01*
X110449649Y-116509720D01*
X110470693Y-116522333D01*
X110490398Y-116536947D01*
X110508577Y-116553423D01*
X110525053Y-116571602D01*
X110539667Y-116591307D01*
X110552280Y-116612351D01*
X110562770Y-116634529D01*
X110571035Y-116657629D01*
X110576996Y-116681427D01*
X110580596Y-116705696D01*
X110581800Y-116730200D01*
X110581800Y-118880200D01*
X110580596Y-118904704D01*
X110576996Y-118928973D01*
X110571035Y-118952771D01*
X110562770Y-118975871D01*
X110552280Y-118998049D01*
X110539667Y-119019093D01*
X110525053Y-119038798D01*
X110508577Y-119056977D01*
X110490398Y-119073453D01*
X110470693Y-119088067D01*
X110449649Y-119100680D01*
X110427471Y-119111170D01*
X110404371Y-119119435D01*
X110380573Y-119125396D01*
X110356304Y-119128996D01*
X110331800Y-119130200D01*
X109406800Y-119130200D01*
X109382296Y-119128996D01*
X109358027Y-119125396D01*
X109334229Y-119119435D01*
X109311129Y-119111170D01*
X109288951Y-119100680D01*
X109267907Y-119088067D01*
X109248202Y-119073453D01*
X109230023Y-119056977D01*
X109213547Y-119038798D01*
X109198933Y-119019093D01*
X109186320Y-118998049D01*
X109175830Y-118975871D01*
X109167565Y-118952771D01*
X109161604Y-118928973D01*
X109158004Y-118904704D01*
X109156800Y-118880200D01*
X109156800Y-116730200D01*
X109158004Y-116705696D01*
X109161604Y-116681427D01*
X109167565Y-116657629D01*
X109175830Y-116634529D01*
X109186320Y-116612351D01*
X109198933Y-116591307D01*
X109213547Y-116571602D01*
X109230023Y-116553423D01*
X109248202Y-116536947D01*
X109267907Y-116522333D01*
X109288951Y-116509720D01*
X109311129Y-116499230D01*
X109334229Y-116490965D01*
X109358027Y-116485004D01*
X109382296Y-116481404D01*
X109406800Y-116480200D01*
X110331800Y-116480200D01*
X110356304Y-116481404D01*
X110356304Y-116481404D01*
G37*
D12*
X109869300Y-117805200D03*
G04 #@! TD*
D11*
G04 #@! TO.C,F1*
G36*
X108527504Y-121739204D02*
X108551773Y-121742804D01*
X108575571Y-121748765D01*
X108598671Y-121757030D01*
X108620849Y-121767520D01*
X108641893Y-121780133D01*
X108661598Y-121794747D01*
X108679777Y-121811223D01*
X108696253Y-121829402D01*
X108710867Y-121849107D01*
X108723480Y-121870151D01*
X108733970Y-121892329D01*
X108742235Y-121915429D01*
X108748196Y-121939227D01*
X108751796Y-121963496D01*
X108753000Y-121988000D01*
X108753000Y-124138000D01*
X108751796Y-124162504D01*
X108748196Y-124186773D01*
X108742235Y-124210571D01*
X108733970Y-124233671D01*
X108723480Y-124255849D01*
X108710867Y-124276893D01*
X108696253Y-124296598D01*
X108679777Y-124314777D01*
X108661598Y-124331253D01*
X108641893Y-124345867D01*
X108620849Y-124358480D01*
X108598671Y-124368970D01*
X108575571Y-124377235D01*
X108551773Y-124383196D01*
X108527504Y-124386796D01*
X108503000Y-124388000D01*
X107578000Y-124388000D01*
X107553496Y-124386796D01*
X107529227Y-124383196D01*
X107505429Y-124377235D01*
X107482329Y-124368970D01*
X107460151Y-124358480D01*
X107439107Y-124345867D01*
X107419402Y-124331253D01*
X107401223Y-124314777D01*
X107384747Y-124296598D01*
X107370133Y-124276893D01*
X107357520Y-124255849D01*
X107347030Y-124233671D01*
X107338765Y-124210571D01*
X107332804Y-124186773D01*
X107329204Y-124162504D01*
X107328000Y-124138000D01*
X107328000Y-121988000D01*
X107329204Y-121963496D01*
X107332804Y-121939227D01*
X107338765Y-121915429D01*
X107347030Y-121892329D01*
X107357520Y-121870151D01*
X107370133Y-121849107D01*
X107384747Y-121829402D01*
X107401223Y-121811223D01*
X107419402Y-121794747D01*
X107439107Y-121780133D01*
X107460151Y-121767520D01*
X107482329Y-121757030D01*
X107505429Y-121748765D01*
X107529227Y-121742804D01*
X107553496Y-121739204D01*
X107578000Y-121738000D01*
X108503000Y-121738000D01*
X108527504Y-121739204D01*
X108527504Y-121739204D01*
G37*
D12*
X108040500Y-123063000D03*
D11*
G36*
X105552504Y-121739204D02*
X105576773Y-121742804D01*
X105600571Y-121748765D01*
X105623671Y-121757030D01*
X105645849Y-121767520D01*
X105666893Y-121780133D01*
X105686598Y-121794747D01*
X105704777Y-121811223D01*
X105721253Y-121829402D01*
X105735867Y-121849107D01*
X105748480Y-121870151D01*
X105758970Y-121892329D01*
X105767235Y-121915429D01*
X105773196Y-121939227D01*
X105776796Y-121963496D01*
X105778000Y-121988000D01*
X105778000Y-124138000D01*
X105776796Y-124162504D01*
X105773196Y-124186773D01*
X105767235Y-124210571D01*
X105758970Y-124233671D01*
X105748480Y-124255849D01*
X105735867Y-124276893D01*
X105721253Y-124296598D01*
X105704777Y-124314777D01*
X105686598Y-124331253D01*
X105666893Y-124345867D01*
X105645849Y-124358480D01*
X105623671Y-124368970D01*
X105600571Y-124377235D01*
X105576773Y-124383196D01*
X105552504Y-124386796D01*
X105528000Y-124388000D01*
X104603000Y-124388000D01*
X104578496Y-124386796D01*
X104554227Y-124383196D01*
X104530429Y-124377235D01*
X104507329Y-124368970D01*
X104485151Y-124358480D01*
X104464107Y-124345867D01*
X104444402Y-124331253D01*
X104426223Y-124314777D01*
X104409747Y-124296598D01*
X104395133Y-124276893D01*
X104382520Y-124255849D01*
X104372030Y-124233671D01*
X104363765Y-124210571D01*
X104357804Y-124186773D01*
X104354204Y-124162504D01*
X104353000Y-124138000D01*
X104353000Y-121988000D01*
X104354204Y-121963496D01*
X104357804Y-121939227D01*
X104363765Y-121915429D01*
X104372030Y-121892329D01*
X104382520Y-121870151D01*
X104395133Y-121849107D01*
X104409747Y-121829402D01*
X104426223Y-121811223D01*
X104444402Y-121794747D01*
X104464107Y-121780133D01*
X104485151Y-121767520D01*
X104507329Y-121757030D01*
X104530429Y-121748765D01*
X104554227Y-121742804D01*
X104578496Y-121739204D01*
X104603000Y-121738000D01*
X105528000Y-121738000D01*
X105552504Y-121739204D01*
X105552504Y-121739204D01*
G37*
D12*
X105065500Y-123063000D03*
G04 #@! TD*
M02*
