G04 #@! TF.GenerationSoftware,KiCad,Pcbnew,5.0.0-fee4fd1~66~ubuntu16.04.1*
G04 #@! TF.CreationDate,2018-10-04T09:57:08+08:00*
G04 #@! TF.ProjectId,tiny,74696E792E6B696361645F7063620000,rev?*
G04 #@! TF.SameCoordinates,Original*
G04 #@! TF.FileFunction,Copper,L2,Bot,Signal*
G04 #@! TF.FilePolarity,Positive*
%FSLAX46Y46*%
G04 Gerber Fmt 4.6, Leading zero omitted, Abs format (unit mm)*
G04 Created by KiCad (PCBNEW 5.0.0-fee4fd1~66~ubuntu16.04.1) date Thu Oct  4 09:57:08 2018*
%MOMM*%
%LPD*%
G01*
G04 APERTURE LIST*
G04 #@! TA.AperFunction,NonConductor*
%ADD10C,0.150000*%
G04 #@! TD*
G04 #@! TA.AperFunction,EtchedComponent*
%ADD11C,0.010000*%
G04 #@! TD*
G04 #@! TA.AperFunction,BGAPad,CuDef*
%ADD12C,1.000000*%
G04 #@! TD*
G04 #@! TA.AperFunction,ComponentPad*
%ADD13R,1.727200X2.032000*%
G04 #@! TD*
G04 #@! TA.AperFunction,ComponentPad*
%ADD14O,1.727200X2.032000*%
G04 #@! TD*
G04 #@! TA.AperFunction,Conductor*
%ADD15C,0.100000*%
G04 #@! TD*
G04 #@! TA.AperFunction,SMDPad,CuDef*
%ADD16C,1.425000*%
G04 #@! TD*
G04 #@! TA.AperFunction,ComponentPad*
%ADD17C,1.501140*%
G04 #@! TD*
G04 #@! TA.AperFunction,ComponentPad*
%ADD18C,2.000000*%
G04 #@! TD*
G04 #@! TA.AperFunction,ComponentPad*
%ADD19R,1.500000X1.500000*%
G04 #@! TD*
G04 #@! TA.AperFunction,ComponentPad*
%ADD20C,1.500000*%
G04 #@! TD*
G04 #@! TA.AperFunction,ConnectorPad*
%ADD21R,5.080000X1.778000*%
G04 #@! TD*
G04 #@! TA.AperFunction,ViaPad*
%ADD22C,0.600000*%
G04 #@! TD*
G04 #@! TA.AperFunction,Conductor*
%ADD23C,0.250000*%
G04 #@! TD*
G04 #@! TA.AperFunction,Conductor*
%ADD24C,0.500000*%
G04 #@! TD*
G04 #@! TA.AperFunction,Conductor*
%ADD25C,0.254000*%
G04 #@! TD*
G04 APERTURE END LIST*
D10*
X90170000Y-101460000D02*
X135170000Y-101460000D01*
X90170000Y-124460000D02*
X90170000Y-101460000D01*
X135170000Y-124460000D02*
X90170000Y-124460000D01*
X135170000Y-101460000D02*
X135170000Y-124460000D01*
D11*
G04 #@! TO.C,LOGO1*
G36*
X91835709Y-116872916D02*
X91764710Y-116951452D01*
X91713521Y-117041285D01*
X91678909Y-117169696D01*
X91657641Y-117363968D01*
X91646484Y-117651383D01*
X91642206Y-118059223D01*
X91641563Y-118511320D01*
X91642577Y-119040504D01*
X91647774Y-119426503D01*
X91660385Y-119696600D01*
X91683644Y-119878077D01*
X91720781Y-119998216D01*
X91775030Y-120084299D01*
X91835661Y-120149724D01*
X92029759Y-120343871D01*
X96608815Y-120365097D01*
X97664591Y-120369126D01*
X98561575Y-120370509D01*
X99311432Y-120369036D01*
X99925822Y-120364495D01*
X100416408Y-120356674D01*
X100794852Y-120345362D01*
X101072816Y-120330347D01*
X101261961Y-120311418D01*
X101373951Y-120288363D01*
X101399279Y-120278183D01*
X101552363Y-120182229D01*
X101664391Y-120057006D01*
X101740883Y-119877220D01*
X101787357Y-119617582D01*
X101809334Y-119252797D01*
X101812334Y-118757576D01*
X101808856Y-118496510D01*
X101400959Y-118496510D01*
X101397023Y-118963370D01*
X101382876Y-119290299D01*
X101355009Y-119507706D01*
X101309915Y-119646000D01*
X101259896Y-119719206D01*
X101211773Y-119761646D01*
X101140543Y-119795630D01*
X101028376Y-119822092D01*
X100857439Y-119841962D01*
X100609903Y-119856172D01*
X100267935Y-119865654D01*
X99813705Y-119871340D01*
X99229381Y-119874161D01*
X98497132Y-119875049D01*
X98276675Y-119875079D01*
X95434516Y-119875079D01*
X95434516Y-118924284D01*
X95093576Y-118924284D01*
X95020144Y-119117530D01*
X94834185Y-119300698D01*
X94667402Y-119391598D01*
X94426741Y-119417159D01*
X94141921Y-119359506D01*
X93904542Y-119238534D01*
X93884572Y-119221594D01*
X93751643Y-118998518D01*
X93749482Y-118736396D01*
X93802088Y-118614614D01*
X93918022Y-118524534D01*
X93932014Y-118517570D01*
X93474113Y-118517570D01*
X93471370Y-118907731D01*
X93459651Y-119156586D01*
X93433726Y-119293259D01*
X93388361Y-119346873D01*
X93324952Y-119347875D01*
X93217807Y-119271421D01*
X93161002Y-119072295D01*
X93149582Y-118958068D01*
X93125360Y-118731473D01*
X93064916Y-118627336D01*
X92920528Y-118598031D01*
X92787333Y-118596555D01*
X92451295Y-118596555D01*
X92451295Y-118980112D01*
X92440141Y-119219805D01*
X92393826Y-119333149D01*
X92293071Y-119363523D01*
X92280825Y-119363669D01*
X92203238Y-119351971D01*
X92153569Y-119296307D01*
X92125649Y-119165821D01*
X92113306Y-118929660D01*
X92110369Y-118556969D01*
X92110355Y-118511320D01*
X92112695Y-118123384D01*
X92123828Y-117875043D01*
X92149925Y-117735442D01*
X92197157Y-117673726D01*
X92271695Y-117659041D01*
X92280825Y-117658971D01*
X92392352Y-117687562D01*
X92441643Y-117803121D01*
X92451295Y-117999911D01*
X92451295Y-118340850D01*
X93133174Y-118340850D01*
X93133174Y-117999911D01*
X93147469Y-117776856D01*
X93205249Y-117678274D01*
X93303644Y-117658971D01*
X93380999Y-117670597D01*
X93430617Y-117725970D01*
X93458602Y-117855838D01*
X93471059Y-118090948D01*
X93474093Y-118462046D01*
X93474113Y-118517570D01*
X93932014Y-118517570D01*
X94137484Y-118415307D01*
X94290884Y-118354865D01*
X94564195Y-118228896D01*
X94695012Y-118106965D01*
X94677701Y-118005226D01*
X94506630Y-117939832D01*
X94438669Y-117931007D01*
X94214672Y-117945588D01*
X94083927Y-118061516D01*
X94073422Y-118080168D01*
X93952387Y-118232360D01*
X93859480Y-118228742D01*
X93826474Y-118076948D01*
X93830700Y-118021849D01*
X93929269Y-117798004D01*
X94132726Y-117656738D01*
X94393803Y-117603759D01*
X94665234Y-117644776D01*
X94899751Y-117785497D01*
X94980703Y-117882957D01*
X95071168Y-118133585D01*
X94997931Y-118349866D01*
X94765611Y-118524418D01*
X94522929Y-118614438D01*
X94261888Y-118706488D01*
X94137296Y-118805725D01*
X94113375Y-118897729D01*
X94181528Y-119034092D01*
X94344469Y-119099811D01*
X94539926Y-119090512D01*
X94705624Y-119001816D01*
X94749973Y-118942473D01*
X94874995Y-118802729D01*
X95005124Y-118776034D01*
X95086545Y-118865234D01*
X95093576Y-118924284D01*
X95434516Y-118924284D01*
X95434516Y-117147562D01*
X98261865Y-117147562D01*
X99040088Y-117148319D01*
X99665573Y-117151148D01*
X100156044Y-117156889D01*
X100529230Y-117166378D01*
X100802856Y-117180455D01*
X100994648Y-117199956D01*
X101122334Y-117225722D01*
X101203638Y-117258589D01*
X101245086Y-117288625D01*
X101311150Y-117368770D01*
X101355733Y-117488569D01*
X101382863Y-117679228D01*
X101396566Y-117971953D01*
X101400871Y-118397951D01*
X101400959Y-118496510D01*
X101808856Y-118496510D01*
X101807662Y-118406912D01*
X101797514Y-117898241D01*
X101784714Y-117531398D01*
X101765207Y-117277744D01*
X101734936Y-117108644D01*
X101689845Y-116995461D01*
X101625879Y-116909557D01*
X101590370Y-116872684D01*
X101396224Y-116678770D01*
X92029855Y-116678770D01*
X91835709Y-116872916D01*
X91835709Y-116872916D01*
G37*
X91835709Y-116872916D02*
X91764710Y-116951452D01*
X91713521Y-117041285D01*
X91678909Y-117169696D01*
X91657641Y-117363968D01*
X91646484Y-117651383D01*
X91642206Y-118059223D01*
X91641563Y-118511320D01*
X91642577Y-119040504D01*
X91647774Y-119426503D01*
X91660385Y-119696600D01*
X91683644Y-119878077D01*
X91720781Y-119998216D01*
X91775030Y-120084299D01*
X91835661Y-120149724D01*
X92029759Y-120343871D01*
X96608815Y-120365097D01*
X97664591Y-120369126D01*
X98561575Y-120370509D01*
X99311432Y-120369036D01*
X99925822Y-120364495D01*
X100416408Y-120356674D01*
X100794852Y-120345362D01*
X101072816Y-120330347D01*
X101261961Y-120311418D01*
X101373951Y-120288363D01*
X101399279Y-120278183D01*
X101552363Y-120182229D01*
X101664391Y-120057006D01*
X101740883Y-119877220D01*
X101787357Y-119617582D01*
X101809334Y-119252797D01*
X101812334Y-118757576D01*
X101808856Y-118496510D01*
X101400959Y-118496510D01*
X101397023Y-118963370D01*
X101382876Y-119290299D01*
X101355009Y-119507706D01*
X101309915Y-119646000D01*
X101259896Y-119719206D01*
X101211773Y-119761646D01*
X101140543Y-119795630D01*
X101028376Y-119822092D01*
X100857439Y-119841962D01*
X100609903Y-119856172D01*
X100267935Y-119865654D01*
X99813705Y-119871340D01*
X99229381Y-119874161D01*
X98497132Y-119875049D01*
X98276675Y-119875079D01*
X95434516Y-119875079D01*
X95434516Y-118924284D01*
X95093576Y-118924284D01*
X95020144Y-119117530D01*
X94834185Y-119300698D01*
X94667402Y-119391598D01*
X94426741Y-119417159D01*
X94141921Y-119359506D01*
X93904542Y-119238534D01*
X93884572Y-119221594D01*
X93751643Y-118998518D01*
X93749482Y-118736396D01*
X93802088Y-118614614D01*
X93918022Y-118524534D01*
X93932014Y-118517570D01*
X93474113Y-118517570D01*
X93471370Y-118907731D01*
X93459651Y-119156586D01*
X93433726Y-119293259D01*
X93388361Y-119346873D01*
X93324952Y-119347875D01*
X93217807Y-119271421D01*
X93161002Y-119072295D01*
X93149582Y-118958068D01*
X93125360Y-118731473D01*
X93064916Y-118627336D01*
X92920528Y-118598031D01*
X92787333Y-118596555D01*
X92451295Y-118596555D01*
X92451295Y-118980112D01*
X92440141Y-119219805D01*
X92393826Y-119333149D01*
X92293071Y-119363523D01*
X92280825Y-119363669D01*
X92203238Y-119351971D01*
X92153569Y-119296307D01*
X92125649Y-119165821D01*
X92113306Y-118929660D01*
X92110369Y-118556969D01*
X92110355Y-118511320D01*
X92112695Y-118123384D01*
X92123828Y-117875043D01*
X92149925Y-117735442D01*
X92197157Y-117673726D01*
X92271695Y-117659041D01*
X92280825Y-117658971D01*
X92392352Y-117687562D01*
X92441643Y-117803121D01*
X92451295Y-117999911D01*
X92451295Y-118340850D01*
X93133174Y-118340850D01*
X93133174Y-117999911D01*
X93147469Y-117776856D01*
X93205249Y-117678274D01*
X93303644Y-117658971D01*
X93380999Y-117670597D01*
X93430617Y-117725970D01*
X93458602Y-117855838D01*
X93471059Y-118090948D01*
X93474093Y-118462046D01*
X93474113Y-118517570D01*
X93932014Y-118517570D01*
X94137484Y-118415307D01*
X94290884Y-118354865D01*
X94564195Y-118228896D01*
X94695012Y-118106965D01*
X94677701Y-118005226D01*
X94506630Y-117939832D01*
X94438669Y-117931007D01*
X94214672Y-117945588D01*
X94083927Y-118061516D01*
X94073422Y-118080168D01*
X93952387Y-118232360D01*
X93859480Y-118228742D01*
X93826474Y-118076948D01*
X93830700Y-118021849D01*
X93929269Y-117798004D01*
X94132726Y-117656738D01*
X94393803Y-117603759D01*
X94665234Y-117644776D01*
X94899751Y-117785497D01*
X94980703Y-117882957D01*
X95071168Y-118133585D01*
X94997931Y-118349866D01*
X94765611Y-118524418D01*
X94522929Y-118614438D01*
X94261888Y-118706488D01*
X94137296Y-118805725D01*
X94113375Y-118897729D01*
X94181528Y-119034092D01*
X94344469Y-119099811D01*
X94539926Y-119090512D01*
X94705624Y-119001816D01*
X94749973Y-118942473D01*
X94874995Y-118802729D01*
X95005124Y-118776034D01*
X95086545Y-118865234D01*
X95093576Y-118924284D01*
X95434516Y-118924284D01*
X95434516Y-117147562D01*
X98261865Y-117147562D01*
X99040088Y-117148319D01*
X99665573Y-117151148D01*
X100156044Y-117156889D01*
X100529230Y-117166378D01*
X100802856Y-117180455D01*
X100994648Y-117199956D01*
X101122334Y-117225722D01*
X101203638Y-117258589D01*
X101245086Y-117288625D01*
X101311150Y-117368770D01*
X101355733Y-117488569D01*
X101382863Y-117679228D01*
X101396566Y-117971953D01*
X101400871Y-118397951D01*
X101400959Y-118496510D01*
X101808856Y-118496510D01*
X101807662Y-118406912D01*
X101797514Y-117898241D01*
X101784714Y-117531398D01*
X101765207Y-117277744D01*
X101734936Y-117108644D01*
X101689845Y-116995461D01*
X101625879Y-116909557D01*
X101590370Y-116872684D01*
X101396224Y-116678770D01*
X92029855Y-116678770D01*
X91835709Y-116872916D01*
G36*
X97971621Y-117633640D02*
X97761671Y-117779572D01*
X97607858Y-117960862D01*
X97565389Y-118091332D01*
X97613300Y-118229141D01*
X97727530Y-118238061D01*
X97863820Y-118118944D01*
X97886547Y-118085146D01*
X98053657Y-117950420D01*
X98277597Y-117913827D01*
X98486264Y-117975944D01*
X98585208Y-118079542D01*
X98660170Y-118334110D01*
X98663445Y-118627000D01*
X98599344Y-118881178D01*
X98534874Y-118978652D01*
X98328622Y-119084576D01*
X98096548Y-119070162D01*
X97909318Y-118946492D01*
X97864808Y-118873569D01*
X97754476Y-118737842D01*
X97615086Y-118683879D01*
X97506268Y-118722329D01*
X97480154Y-118804889D01*
X97550824Y-118994118D01*
X97726603Y-119192451D01*
X97953142Y-119348713D01*
X98119415Y-119406826D01*
X98376778Y-119400126D01*
X98578825Y-119333426D01*
X98833748Y-119105611D01*
X98972384Y-118807922D01*
X99003221Y-118477598D01*
X98934747Y-118151881D01*
X98775450Y-117868011D01*
X98533817Y-117663226D01*
X98218336Y-117574768D01*
X98177760Y-117573736D01*
X97971621Y-117633640D01*
X97971621Y-117633640D01*
G37*
X97971621Y-117633640D02*
X97761671Y-117779572D01*
X97607858Y-117960862D01*
X97565389Y-118091332D01*
X97613300Y-118229141D01*
X97727530Y-118238061D01*
X97863820Y-118118944D01*
X97886547Y-118085146D01*
X98053657Y-117950420D01*
X98277597Y-117913827D01*
X98486264Y-117975944D01*
X98585208Y-118079542D01*
X98660170Y-118334110D01*
X98663445Y-118627000D01*
X98599344Y-118881178D01*
X98534874Y-118978652D01*
X98328622Y-119084576D01*
X98096548Y-119070162D01*
X97909318Y-118946492D01*
X97864808Y-118873569D01*
X97754476Y-118737842D01*
X97615086Y-118683879D01*
X97506268Y-118722329D01*
X97480154Y-118804889D01*
X97550824Y-118994118D01*
X97726603Y-119192451D01*
X97953142Y-119348713D01*
X98119415Y-119406826D01*
X98376778Y-119400126D01*
X98578825Y-119333426D01*
X98833748Y-119105611D01*
X98972384Y-118807922D01*
X99003221Y-118477598D01*
X98934747Y-118151881D01*
X98775450Y-117868011D01*
X98533817Y-117663226D01*
X98218336Y-117574768D01*
X98177760Y-117573736D01*
X97971621Y-117633640D01*
G36*
X96009623Y-117690065D02*
X95970465Y-117803199D01*
X95951002Y-118028156D01*
X95945925Y-118377282D01*
X95949609Y-118732386D01*
X95967858Y-118960093D01*
X96011472Y-119103435D01*
X96091247Y-119205442D01*
X96170507Y-119272248D01*
X96465359Y-119424409D01*
X96769660Y-119411452D01*
X96964389Y-119327268D01*
X97119721Y-119215767D01*
X97219356Y-119063737D01*
X97275342Y-118833884D01*
X97299727Y-118488914D01*
X97303693Y-118276924D01*
X97302611Y-117956856D01*
X97285249Y-117771211D01*
X97242050Y-117684076D01*
X97163454Y-117659537D01*
X97139214Y-117658971D01*
X97049208Y-117675247D01*
X96997861Y-117748502D01*
X96974580Y-117915379D01*
X96968772Y-118212520D01*
X96968744Y-118248644D01*
X96960596Y-118642729D01*
X96928562Y-118896182D01*
X96861257Y-119038384D01*
X96747295Y-119098713D01*
X96635732Y-119107965D01*
X96431746Y-119080510D01*
X96301569Y-118979337D01*
X96230387Y-118776233D01*
X96203388Y-118442985D01*
X96201630Y-118281186D01*
X96194624Y-117949160D01*
X96169353Y-117756144D01*
X96119439Y-117671096D01*
X96073778Y-117658971D01*
X96009623Y-117690065D01*
X96009623Y-117690065D01*
G37*
X96009623Y-117690065D02*
X95970465Y-117803199D01*
X95951002Y-118028156D01*
X95945925Y-118377282D01*
X95949609Y-118732386D01*
X95967858Y-118960093D01*
X96011472Y-119103435D01*
X96091247Y-119205442D01*
X96170507Y-119272248D01*
X96465359Y-119424409D01*
X96769660Y-119411452D01*
X96964389Y-119327268D01*
X97119721Y-119215767D01*
X97219356Y-119063737D01*
X97275342Y-118833884D01*
X97299727Y-118488914D01*
X97303693Y-118276924D01*
X97302611Y-117956856D01*
X97285249Y-117771211D01*
X97242050Y-117684076D01*
X97163454Y-117659537D01*
X97139214Y-117658971D01*
X97049208Y-117675247D01*
X96997861Y-117748502D01*
X96974580Y-117915379D01*
X96968772Y-118212520D01*
X96968744Y-118248644D01*
X96960596Y-118642729D01*
X96928562Y-118896182D01*
X96861257Y-119038384D01*
X96747295Y-119098713D01*
X96635732Y-119107965D01*
X96431746Y-119080510D01*
X96301569Y-118979337D01*
X96230387Y-118776233D01*
X96203388Y-118442985D01*
X96201630Y-118281186D01*
X96194624Y-117949160D01*
X96169353Y-117756144D01*
X96119439Y-117671096D01*
X96073778Y-117658971D01*
X96009623Y-117690065D01*
G36*
X99184852Y-118505659D02*
X99187163Y-118895114D01*
X99198170Y-119144876D01*
X99223983Y-119285701D01*
X99270715Y-119348346D01*
X99344474Y-119363569D01*
X99355321Y-119363669D01*
X99452523Y-119343549D01*
X99505164Y-119256802D01*
X99527554Y-119063847D01*
X99532520Y-118873569D01*
X99539249Y-118383468D01*
X99710093Y-118873569D01*
X99831879Y-119172986D01*
X99943163Y-119327838D01*
X100037201Y-119363669D01*
X100151704Y-119309059D01*
X100263728Y-119129330D01*
X100364308Y-118873569D01*
X100535152Y-118383468D01*
X100541881Y-118873569D01*
X100552705Y-119152229D01*
X100584909Y-119300146D01*
X100652803Y-119356902D01*
X100719080Y-119363669D01*
X100796667Y-119351971D01*
X100846335Y-119296307D01*
X100874256Y-119165821D01*
X100886599Y-118929660D01*
X100889536Y-118556969D01*
X100889550Y-118511320D01*
X100888150Y-118124508D01*
X100878884Y-117877044D01*
X100854151Y-117737807D01*
X100806350Y-117675676D01*
X100727879Y-117659528D01*
X100681378Y-117658971D01*
X100566513Y-117678113D01*
X100477726Y-117758291D01*
X100392082Y-117933630D01*
X100286642Y-118238258D01*
X100281670Y-118253671D01*
X100183689Y-118533732D01*
X100100186Y-118729147D01*
X100047049Y-118803535D01*
X100042359Y-118801710D01*
X99992425Y-118702295D01*
X99908907Y-118488443D01*
X99817388Y-118228320D01*
X99710014Y-117936581D01*
X99616803Y-117771757D01*
X99509774Y-117695582D01*
X99412522Y-117674619D01*
X99184852Y-117647648D01*
X99184852Y-118505659D01*
X99184852Y-118505659D01*
G37*
X99184852Y-118505659D02*
X99187163Y-118895114D01*
X99198170Y-119144876D01*
X99223983Y-119285701D01*
X99270715Y-119348346D01*
X99344474Y-119363569D01*
X99355321Y-119363669D01*
X99452523Y-119343549D01*
X99505164Y-119256802D01*
X99527554Y-119063847D01*
X99532520Y-118873569D01*
X99539249Y-118383468D01*
X99710093Y-118873569D01*
X99831879Y-119172986D01*
X99943163Y-119327838D01*
X100037201Y-119363669D01*
X100151704Y-119309059D01*
X100263728Y-119129330D01*
X100364308Y-118873569D01*
X100535152Y-118383468D01*
X100541881Y-118873569D01*
X100552705Y-119152229D01*
X100584909Y-119300146D01*
X100652803Y-119356902D01*
X100719080Y-119363669D01*
X100796667Y-119351971D01*
X100846335Y-119296307D01*
X100874256Y-119165821D01*
X100886599Y-118929660D01*
X100889536Y-118556969D01*
X100889550Y-118511320D01*
X100888150Y-118124508D01*
X100878884Y-117877044D01*
X100854151Y-117737807D01*
X100806350Y-117675676D01*
X100727879Y-117659528D01*
X100681378Y-117658971D01*
X100566513Y-117678113D01*
X100477726Y-117758291D01*
X100392082Y-117933630D01*
X100286642Y-118238258D01*
X100281670Y-118253671D01*
X100183689Y-118533732D01*
X100100186Y-118729147D01*
X100047049Y-118803535D01*
X100042359Y-118801710D01*
X99992425Y-118702295D01*
X99908907Y-118488443D01*
X99817388Y-118228320D01*
X99710014Y-117936581D01*
X99616803Y-117771757D01*
X99509774Y-117695582D01*
X99412522Y-117674619D01*
X99184852Y-117647648D01*
X99184852Y-118505659D01*
G04 #@! TD*
D12*
G04 #@! TO.P,TP10,1*
G04 #@! TO.N,/D8*
X113182400Y-106680000D03*
G04 #@! TD*
G04 #@! TO.P,TP12,1*
G04 #@! TO.N,/PB1*
X115834160Y-111368840D03*
G04 #@! TD*
D13*
G04 #@! TO.P,P3,1*
G04 #@! TO.N,/BOOT0*
X108712000Y-103251000D03*
D14*
G04 #@! TO.P,P3,2*
G04 #@! TO.N,+3V3*
X111252000Y-103251000D03*
G04 #@! TO.P,P3,3*
G04 #@! TO.N,/RXD*
X113792000Y-103251000D03*
G04 #@! TO.P,P3,4*
G04 #@! TO.N,/TXD*
X116332000Y-103251000D03*
G04 #@! TO.P,P3,5*
G04 #@! TO.N,GND*
X118872000Y-103251000D03*
G04 #@! TD*
D15*
G04 #@! TO.N,+3V3*
G04 #@! TO.C,F2*
G36*
X107381304Y-116481404D02*
X107405573Y-116485004D01*
X107429371Y-116490965D01*
X107452471Y-116499230D01*
X107474649Y-116509720D01*
X107495693Y-116522333D01*
X107515398Y-116536947D01*
X107533577Y-116553423D01*
X107550053Y-116571602D01*
X107564667Y-116591307D01*
X107577280Y-116612351D01*
X107587770Y-116634529D01*
X107596035Y-116657629D01*
X107601996Y-116681427D01*
X107605596Y-116705696D01*
X107606800Y-116730200D01*
X107606800Y-118880200D01*
X107605596Y-118904704D01*
X107601996Y-118928973D01*
X107596035Y-118952771D01*
X107587770Y-118975871D01*
X107577280Y-118998049D01*
X107564667Y-119019093D01*
X107550053Y-119038798D01*
X107533577Y-119056977D01*
X107515398Y-119073453D01*
X107495693Y-119088067D01*
X107474649Y-119100680D01*
X107452471Y-119111170D01*
X107429371Y-119119435D01*
X107405573Y-119125396D01*
X107381304Y-119128996D01*
X107356800Y-119130200D01*
X106431800Y-119130200D01*
X106407296Y-119128996D01*
X106383027Y-119125396D01*
X106359229Y-119119435D01*
X106336129Y-119111170D01*
X106313951Y-119100680D01*
X106292907Y-119088067D01*
X106273202Y-119073453D01*
X106255023Y-119056977D01*
X106238547Y-119038798D01*
X106223933Y-119019093D01*
X106211320Y-118998049D01*
X106200830Y-118975871D01*
X106192565Y-118952771D01*
X106186604Y-118928973D01*
X106183004Y-118904704D01*
X106181800Y-118880200D01*
X106181800Y-116730200D01*
X106183004Y-116705696D01*
X106186604Y-116681427D01*
X106192565Y-116657629D01*
X106200830Y-116634529D01*
X106211320Y-116612351D01*
X106223933Y-116591307D01*
X106238547Y-116571602D01*
X106255023Y-116553423D01*
X106273202Y-116536947D01*
X106292907Y-116522333D01*
X106313951Y-116509720D01*
X106336129Y-116499230D01*
X106359229Y-116490965D01*
X106383027Y-116485004D01*
X106407296Y-116481404D01*
X106431800Y-116480200D01*
X107356800Y-116480200D01*
X107381304Y-116481404D01*
X107381304Y-116481404D01*
G37*
D16*
G04 #@! TD*
G04 #@! TO.P,F2,2*
G04 #@! TO.N,+3V3*
X106894300Y-117805200D03*
D15*
G04 #@! TO.N,/3.3V_OUT*
G04 #@! TO.C,F2*
G36*
X110356304Y-116481404D02*
X110380573Y-116485004D01*
X110404371Y-116490965D01*
X110427471Y-116499230D01*
X110449649Y-116509720D01*
X110470693Y-116522333D01*
X110490398Y-116536947D01*
X110508577Y-116553423D01*
X110525053Y-116571602D01*
X110539667Y-116591307D01*
X110552280Y-116612351D01*
X110562770Y-116634529D01*
X110571035Y-116657629D01*
X110576996Y-116681427D01*
X110580596Y-116705696D01*
X110581800Y-116730200D01*
X110581800Y-118880200D01*
X110580596Y-118904704D01*
X110576996Y-118928973D01*
X110571035Y-118952771D01*
X110562770Y-118975871D01*
X110552280Y-118998049D01*
X110539667Y-119019093D01*
X110525053Y-119038798D01*
X110508577Y-119056977D01*
X110490398Y-119073453D01*
X110470693Y-119088067D01*
X110449649Y-119100680D01*
X110427471Y-119111170D01*
X110404371Y-119119435D01*
X110380573Y-119125396D01*
X110356304Y-119128996D01*
X110331800Y-119130200D01*
X109406800Y-119130200D01*
X109382296Y-119128996D01*
X109358027Y-119125396D01*
X109334229Y-119119435D01*
X109311129Y-119111170D01*
X109288951Y-119100680D01*
X109267907Y-119088067D01*
X109248202Y-119073453D01*
X109230023Y-119056977D01*
X109213547Y-119038798D01*
X109198933Y-119019093D01*
X109186320Y-118998049D01*
X109175830Y-118975871D01*
X109167565Y-118952771D01*
X109161604Y-118928973D01*
X109158004Y-118904704D01*
X109156800Y-118880200D01*
X109156800Y-116730200D01*
X109158004Y-116705696D01*
X109161604Y-116681427D01*
X109167565Y-116657629D01*
X109175830Y-116634529D01*
X109186320Y-116612351D01*
X109198933Y-116591307D01*
X109213547Y-116571602D01*
X109230023Y-116553423D01*
X109248202Y-116536947D01*
X109267907Y-116522333D01*
X109288951Y-116509720D01*
X109311129Y-116499230D01*
X109334229Y-116490965D01*
X109358027Y-116485004D01*
X109382296Y-116481404D01*
X109406800Y-116480200D01*
X110331800Y-116480200D01*
X110356304Y-116481404D01*
X110356304Y-116481404D01*
G37*
D16*
G04 #@! TD*
G04 #@! TO.P,F2,1*
G04 #@! TO.N,/3.3V_OUT*
X109869300Y-117805200D03*
D15*
G04 #@! TO.N,/5V_OUT*
G04 #@! TO.C,F1*
G36*
X108527504Y-121739204D02*
X108551773Y-121742804D01*
X108575571Y-121748765D01*
X108598671Y-121757030D01*
X108620849Y-121767520D01*
X108641893Y-121780133D01*
X108661598Y-121794747D01*
X108679777Y-121811223D01*
X108696253Y-121829402D01*
X108710867Y-121849107D01*
X108723480Y-121870151D01*
X108733970Y-121892329D01*
X108742235Y-121915429D01*
X108748196Y-121939227D01*
X108751796Y-121963496D01*
X108753000Y-121988000D01*
X108753000Y-124138000D01*
X108751796Y-124162504D01*
X108748196Y-124186773D01*
X108742235Y-124210571D01*
X108733970Y-124233671D01*
X108723480Y-124255849D01*
X108710867Y-124276893D01*
X108696253Y-124296598D01*
X108679777Y-124314777D01*
X108661598Y-124331253D01*
X108641893Y-124345867D01*
X108620849Y-124358480D01*
X108598671Y-124368970D01*
X108575571Y-124377235D01*
X108551773Y-124383196D01*
X108527504Y-124386796D01*
X108503000Y-124388000D01*
X107578000Y-124388000D01*
X107553496Y-124386796D01*
X107529227Y-124383196D01*
X107505429Y-124377235D01*
X107482329Y-124368970D01*
X107460151Y-124358480D01*
X107439107Y-124345867D01*
X107419402Y-124331253D01*
X107401223Y-124314777D01*
X107384747Y-124296598D01*
X107370133Y-124276893D01*
X107357520Y-124255849D01*
X107347030Y-124233671D01*
X107338765Y-124210571D01*
X107332804Y-124186773D01*
X107329204Y-124162504D01*
X107328000Y-124138000D01*
X107328000Y-121988000D01*
X107329204Y-121963496D01*
X107332804Y-121939227D01*
X107338765Y-121915429D01*
X107347030Y-121892329D01*
X107357520Y-121870151D01*
X107370133Y-121849107D01*
X107384747Y-121829402D01*
X107401223Y-121811223D01*
X107419402Y-121794747D01*
X107439107Y-121780133D01*
X107460151Y-121767520D01*
X107482329Y-121757030D01*
X107505429Y-121748765D01*
X107529227Y-121742804D01*
X107553496Y-121739204D01*
X107578000Y-121738000D01*
X108503000Y-121738000D01*
X108527504Y-121739204D01*
X108527504Y-121739204D01*
G37*
D16*
G04 #@! TD*
G04 #@! TO.P,F1,1*
G04 #@! TO.N,/5V_OUT*
X108040500Y-123063000D03*
D15*
G04 #@! TO.N,+5V*
G04 #@! TO.C,F1*
G36*
X105552504Y-121739204D02*
X105576773Y-121742804D01*
X105600571Y-121748765D01*
X105623671Y-121757030D01*
X105645849Y-121767520D01*
X105666893Y-121780133D01*
X105686598Y-121794747D01*
X105704777Y-121811223D01*
X105721253Y-121829402D01*
X105735867Y-121849107D01*
X105748480Y-121870151D01*
X105758970Y-121892329D01*
X105767235Y-121915429D01*
X105773196Y-121939227D01*
X105776796Y-121963496D01*
X105778000Y-121988000D01*
X105778000Y-124138000D01*
X105776796Y-124162504D01*
X105773196Y-124186773D01*
X105767235Y-124210571D01*
X105758970Y-124233671D01*
X105748480Y-124255849D01*
X105735867Y-124276893D01*
X105721253Y-124296598D01*
X105704777Y-124314777D01*
X105686598Y-124331253D01*
X105666893Y-124345867D01*
X105645849Y-124358480D01*
X105623671Y-124368970D01*
X105600571Y-124377235D01*
X105576773Y-124383196D01*
X105552504Y-124386796D01*
X105528000Y-124388000D01*
X104603000Y-124388000D01*
X104578496Y-124386796D01*
X104554227Y-124383196D01*
X104530429Y-124377235D01*
X104507329Y-124368970D01*
X104485151Y-124358480D01*
X104464107Y-124345867D01*
X104444402Y-124331253D01*
X104426223Y-124314777D01*
X104409747Y-124296598D01*
X104395133Y-124276893D01*
X104382520Y-124255849D01*
X104372030Y-124233671D01*
X104363765Y-124210571D01*
X104357804Y-124186773D01*
X104354204Y-124162504D01*
X104353000Y-124138000D01*
X104353000Y-121988000D01*
X104354204Y-121963496D01*
X104357804Y-121939227D01*
X104363765Y-121915429D01*
X104372030Y-121892329D01*
X104382520Y-121870151D01*
X104395133Y-121849107D01*
X104409747Y-121829402D01*
X104426223Y-121811223D01*
X104444402Y-121794747D01*
X104464107Y-121780133D01*
X104485151Y-121767520D01*
X104507329Y-121757030D01*
X104530429Y-121748765D01*
X104554227Y-121742804D01*
X104578496Y-121739204D01*
X104603000Y-121738000D01*
X105528000Y-121738000D01*
X105552504Y-121739204D01*
X105552504Y-121739204D01*
G37*
D16*
G04 #@! TD*
G04 #@! TO.P,F1,2*
G04 #@! TO.N,+5V*
X105065500Y-123063000D03*
D17*
G04 #@! TO.P,Y1,1*
G04 #@! TO.N,/OSC_IN*
X113154460Y-121589800D03*
G04 #@! TO.P,Y1,2*
G04 #@! TO.N,/OSC_OUT*
X118036340Y-121589800D03*
G04 #@! TD*
D18*
G04 #@! TO.P,SP1,1*
G04 #@! TO.N,/BEEP*
X123095000Y-109474000D03*
G04 #@! TO.P,SP1,2*
G04 #@! TO.N,GND*
X127095000Y-109474000D03*
G04 #@! TD*
D13*
G04 #@! TO.P,P4,1*
G04 #@! TO.N,+3V3*
X91948000Y-103124000D03*
D14*
G04 #@! TO.P,P4,2*
G04 #@! TO.N,/SWCLK*
X94488000Y-103124000D03*
G04 #@! TO.P,P4,3*
G04 #@! TO.N,GND*
X97028000Y-103124000D03*
G04 #@! TO.P,P4,4*
G04 #@! TO.N,/SWDIO*
X99568000Y-103124000D03*
G04 #@! TO.P,P4,5*
G04 #@! TO.N,/RST*
X102108000Y-103124000D03*
G04 #@! TD*
D19*
G04 #@! TO.P,D1,1*
G04 #@! TO.N,Net-(D1-Pad1)*
X126492000Y-103632000D03*
D20*
G04 #@! TO.P,D1,2*
G04 #@! TO.N,GND*
X129032000Y-103632000D03*
G04 #@! TO.P,D1,3*
G04 #@! TO.N,Net-(D1-Pad3)*
X131572000Y-103632000D03*
G04 #@! TD*
D19*
G04 #@! TO.P,D2,1*
G04 #@! TO.N,Net-(D2-Pad1)*
X126492000Y-122174000D03*
D20*
G04 #@! TO.P,D2,2*
G04 #@! TO.N,GND*
X129032000Y-122174000D03*
G04 #@! TO.P,D2,3*
G04 #@! TO.N,Net-(D2-Pad3)*
X131572000Y-122174000D03*
G04 #@! TD*
D21*
G04 #@! TO.P,P2,2*
G04 #@! TO.N,/D1_OUT*
X132588000Y-107950000D03*
G04 #@! TO.P,P2,4*
G04 #@! TO.N,/D3_OUT*
X132588000Y-110490000D03*
G04 #@! TO.P,P2,8*
G04 #@! TO.N,GND*
X132588000Y-115570000D03*
G04 #@! TO.P,P2,6*
G04 #@! TO.N,/D5_OUT*
X132588000Y-113030000D03*
G04 #@! TO.P,P2,10*
G04 #@! TO.N,GND*
X132588000Y-118110000D03*
G04 #@! TD*
D22*
G04 #@! TO.N,/DP*
X109982000Y-109220000D03*
X104348280Y-109428280D03*
G04 #@! TO.N,/DM*
X109982000Y-110109000D03*
X103698040Y-110835440D03*
G04 #@! TO.N,+3V3*
X109728000Y-105029000D03*
X113601500Y-110109000D03*
X98933000Y-105537000D03*
X105918000Y-117805200D03*
X104274620Y-114795300D03*
X105473500Y-118237000D03*
G04 #@! TO.N,/RST*
X104533700Y-110766860D03*
X112268000Y-113030000D03*
G04 #@! TO.N,/D1_OUT*
X124650500Y-117856000D03*
G04 #@! TO.N,/D3_OUT*
X128054100Y-112727740D03*
G04 #@! TO.N,/D3*
X125603000Y-118872000D03*
X119697500Y-114427000D03*
G04 #@! TO.N,/D4*
X124714000Y-116586000D03*
X118872000Y-113665000D03*
G04 #@! TO.N,/D5_OUT*
X128079500Y-113792000D03*
G04 #@! TO.N,/D5*
X124968000Y-115062000D03*
X121051320Y-113553240D03*
G04 #@! TO.N,+5V*
X96774000Y-123596400D03*
X105435400Y-121412000D03*
X104825800Y-121412000D03*
X96329500Y-123190000D03*
G04 #@! TO.N,GND*
X100274120Y-115470940D03*
X97002600Y-106314240D03*
X105791000Y-120396000D03*
X100253800Y-121437400D03*
X100888800Y-121437400D03*
X92252800Y-123571000D03*
X115646200Y-118287800D03*
X115575080Y-110101380D03*
X105359200Y-103733600D03*
X108267500Y-105768140D03*
X108846620Y-105757980D03*
X100418900Y-107558840D03*
X99677220Y-115476020D03*
X99077780Y-115481100D03*
X91262200Y-121920000D03*
X109347000Y-113284000D03*
G04 #@! TO.N,/5V_OUT*
X134366000Y-120777000D03*
X134366000Y-121412000D03*
G04 #@! TO.N,/SWDIO*
X109855000Y-108331000D03*
G04 #@! TO.N,/SWCLK*
X107782360Y-107393740D03*
G04 #@! TO.N,/SPI_MOSI*
X113969800Y-107873800D03*
X117957600Y-106756200D03*
G04 #@! TO.N,/LED_G0*
X113073180Y-108800900D03*
X121869200Y-106680000D03*
G04 #@! TO.N,/LED_G1*
X122275600Y-119888000D03*
X118237000Y-110119160D03*
G04 #@! TO.N,/LED_R1*
X124587000Y-119862600D03*
X119024400Y-109684820D03*
G04 #@! TO.N,/BOOT0*
X104421940Y-106022140D03*
G04 #@! TO.N,/3.3V_OUT*
X110185200Y-119507000D03*
X110185200Y-120015000D03*
G04 #@! TO.N,/D8*
X112928400Y-107924600D03*
G04 #@! TO.N,/PB1*
X115519200Y-112080040D03*
G04 #@! TD*
D23*
G04 #@! TO.N,/DP*
X109773720Y-109428280D02*
X109982000Y-109220000D01*
X104348280Y-109428280D02*
X109773720Y-109428280D01*
G04 #@! TO.N,/DM*
X109557736Y-110109000D02*
X109982000Y-110109000D01*
X104000216Y-110109000D02*
X109557736Y-110109000D01*
X103698040Y-110411176D02*
X104000216Y-110109000D01*
X103698040Y-110835440D02*
X103698040Y-110411176D01*
G04 #@! TO.N,+3V3*
X98933000Y-105537000D02*
X94361000Y-105537000D01*
X94361000Y-105537000D02*
X91948000Y-103124000D01*
D24*
X107199100Y-118745000D02*
X106386600Y-118745000D01*
X106894300Y-117805200D02*
X105904000Y-117805200D01*
D23*
X105904000Y-117805200D02*
X105918000Y-117805200D01*
X99695000Y-105537000D02*
X98933000Y-105537000D01*
X103063040Y-109077760D02*
X99695000Y-105537000D01*
X104180640Y-114368496D02*
X103063040Y-113250896D01*
X104274620Y-114795300D02*
X104180640Y-114368496D01*
X103063040Y-113250896D02*
X103063040Y-109077760D01*
X109728000Y-105029000D02*
X112083010Y-107384010D01*
X113301501Y-109809001D02*
X113601500Y-110109000D01*
X113156279Y-109809001D02*
X113301501Y-109809001D01*
X112083010Y-108735732D02*
X113156279Y-109809001D01*
X112083010Y-107384010D02*
X112083010Y-108735732D01*
X106462500Y-118237000D02*
X106894300Y-117805200D01*
D24*
X105473500Y-118237000D02*
X106462500Y-118237000D01*
D23*
G04 #@! TO.N,/RST*
X110030260Y-110766860D02*
X104533700Y-110766860D01*
X112268000Y-113030000D02*
X110030260Y-110766860D01*
G04 #@! TO.N,/D1_OUT*
X132196800Y-107558800D02*
X132588000Y-107950000D01*
X130937000Y-107950000D02*
X132588000Y-107950000D01*
X124650500Y-117856000D02*
X126952576Y-115553924D01*
X129230120Y-109656880D02*
X130937000Y-107950000D01*
X129230120Y-110540800D02*
X129230120Y-109656880D01*
X126952576Y-115553924D02*
X126952576Y-112818344D01*
X126952576Y-112818344D02*
X129230120Y-110540800D01*
G04 #@! TO.N,/D3_OUT*
X131963200Y-111114800D02*
X132588000Y-110490000D01*
X130291840Y-110490000D02*
X132588000Y-110490000D01*
X128054100Y-112727740D02*
X130291840Y-110490000D01*
G04 #@! TO.N,/D3*
X119997499Y-114726999D02*
X119697500Y-114427000D01*
X124142500Y-118872000D02*
X119997499Y-114726999D01*
X125603000Y-118872000D02*
X124142500Y-118872000D01*
G04 #@! TO.N,/D4*
X120100396Y-113665000D02*
X118872000Y-113665000D01*
X123021396Y-116586000D02*
X120100396Y-113665000D01*
X124714000Y-116586000D02*
X123021396Y-116586000D01*
G04 #@! TO.N,/D5_OUT*
X128841500Y-113030000D02*
X128079500Y-113792000D01*
X132588000Y-113030000D02*
X128841500Y-113030000D01*
G04 #@! TO.N,/D5*
X122936000Y-115062000D02*
X124968000Y-115062000D01*
X122560080Y-115062000D02*
X122936000Y-115062000D01*
X121051320Y-113553240D02*
X122560080Y-115062000D01*
D24*
G04 #@! TO.N,+5V*
X103791000Y-123825000D02*
X104553000Y-123063000D01*
X103791000Y-123825000D02*
X104553000Y-123063000D01*
X96996000Y-123825000D02*
X103791000Y-123825000D01*
X96329500Y-123190000D02*
X96996000Y-123825000D01*
X105065500Y-121651700D02*
X104825800Y-121412000D01*
X105065500Y-123063000D02*
X105065500Y-121651700D01*
X105065500Y-121781900D02*
X105435400Y-121412000D01*
X105065500Y-123063000D02*
X105065500Y-121781900D01*
D23*
G04 #@! TO.N,GND*
X130048000Y-121158000D02*
X132588000Y-118618000D01*
X132588000Y-118618000D02*
X132588000Y-118110000D01*
X129032000Y-122174000D02*
X129032000Y-122487998D01*
X129032000Y-122174000D02*
X129032000Y-122555000D01*
X102235000Y-120777000D02*
X100584000Y-122428000D01*
X99568000Y-121412000D02*
X100584000Y-122428000D01*
X104140000Y-120777000D02*
X102235000Y-120777000D01*
X125190000Y-107569000D02*
X127095000Y-109474000D01*
X129032000Y-103632000D02*
X129032000Y-107537000D01*
X129032000Y-107537000D02*
X127095000Y-109474000D01*
X104140000Y-120777000D02*
X109855000Y-120777000D01*
X105410000Y-120396000D02*
X105029000Y-120777000D01*
X105029000Y-120777000D02*
X102235000Y-120777000D01*
X132588000Y-115570000D02*
X132588000Y-118110000D01*
X118745000Y-103251000D02*
X118745000Y-103759000D01*
X129032000Y-122174000D02*
X129032000Y-121666000D01*
X99568000Y-108966000D02*
X99568000Y-115062000D01*
X99677220Y-115476020D02*
X99568000Y-115062000D01*
D24*
G04 #@! TO.N,/5V_OUT*
X134366000Y-121412000D02*
X134366000Y-120777000D01*
X134366000Y-121412000D02*
X134366000Y-121920000D01*
X134366000Y-121920000D02*
X132207000Y-124079000D01*
X132207000Y-124079000D02*
X109569000Y-124079000D01*
X109569000Y-124079000D02*
X108553000Y-123063000D01*
D23*
G04 #@! TO.N,/SWDIO*
X99568000Y-103124000D02*
X99822000Y-103124000D01*
X99568000Y-103276400D02*
X99568000Y-103124000D01*
X109855000Y-108331000D02*
X108292739Y-106768739D01*
X102395020Y-106076851D02*
X99568000Y-103276400D01*
X108292739Y-106768739D02*
X103086908Y-106768739D01*
X103086908Y-106768739D02*
X102395020Y-106076851D01*
G04 #@! TO.N,/SWCLK*
X94488000Y-103124000D02*
X94488000Y-103378000D01*
X96266000Y-104902000D02*
X94488000Y-103124000D01*
X100076000Y-104902000D02*
X96266000Y-104902000D01*
X102567740Y-107393740D02*
X100076000Y-104902000D01*
X107782360Y-107393740D02*
X102567740Y-107393740D01*
G04 #@! TO.N,/SPI_MOSI*
X115087400Y-106756200D02*
X113969800Y-107873800D01*
X117957600Y-106756200D02*
X115087400Y-106756200D01*
G04 #@! TO.N,/LED_G0*
X113967702Y-108800900D02*
X115123402Y-107645200D01*
X113073180Y-108800900D02*
X113967702Y-108800900D01*
X115123402Y-107645200D02*
X118440200Y-107645200D01*
X119405400Y-106680000D02*
X121869200Y-106680000D01*
X118440200Y-107645200D02*
X119405400Y-106680000D01*
G04 #@! TO.N,/LED_G1*
X117475000Y-113944400D02*
X117475000Y-110881160D01*
X122275600Y-118745000D02*
X117475000Y-113944400D01*
X117475000Y-110881160D02*
X118237000Y-110119160D01*
X122275600Y-119888000D02*
X122275600Y-118745000D01*
G04 #@! TO.N,/LED_R1*
X124144598Y-119862600D02*
X124587000Y-119862600D01*
X119024400Y-109684820D02*
X119024400Y-110230920D01*
X118110000Y-111145320D02*
X118110000Y-113828002D01*
X119024400Y-110230920D02*
X118110000Y-111145320D01*
X118110000Y-113828002D02*
X124144598Y-119862600D01*
G04 #@! TO.N,/BOOT0*
X108585000Y-103251000D02*
X108458000Y-103251000D01*
X107193080Y-103251000D02*
X108585000Y-103251000D01*
X104421940Y-106022140D02*
X107193080Y-103251000D01*
G04 #@! TO.N,/3.3V_OUT*
X110174100Y-118767750D02*
X110174100Y-118745000D01*
X110210600Y-118804250D02*
X110174100Y-118767750D01*
D24*
X110210600Y-119481600D02*
X110210600Y-118804250D01*
D23*
X110185200Y-119507000D02*
X110210600Y-119481600D01*
D24*
X110185200Y-120015000D02*
X110185200Y-119507000D01*
D23*
G04 #@! TO.N,/D8*
X112928400Y-106934000D02*
X113182400Y-106680000D01*
X112928400Y-107924600D02*
X112928400Y-106934000D01*
G04 #@! TO.N,/PB1*
X115834160Y-111765080D02*
X115834160Y-111368840D01*
X115519200Y-112080040D02*
X115834160Y-111765080D01*
G04 #@! TD*
D25*
G04 #@! TO.N,GND*
G36*
X134568000Y-106523676D02*
X130048000Y-106523676D01*
X129842375Y-106564577D01*
X129668055Y-106681055D01*
X129551577Y-106855375D01*
X129510676Y-107061000D01*
X129510676Y-108454258D01*
X128814492Y-109150441D01*
X128760056Y-109186815D01*
X128723682Y-109241252D01*
X128723681Y-109241253D01*
X128615950Y-109402483D01*
X128607647Y-109444228D01*
X128578120Y-109592666D01*
X128578120Y-109592670D01*
X128565348Y-109656880D01*
X128578120Y-109721090D01*
X128578120Y-110270732D01*
X126536948Y-112311906D01*
X126482512Y-112348279D01*
X126446138Y-112402716D01*
X126446137Y-112402717D01*
X126338406Y-112563947D01*
X126287804Y-112818344D01*
X126300577Y-112882559D01*
X126300576Y-115283857D01*
X125430267Y-116154166D01*
X125415097Y-116117542D01*
X125182458Y-115884903D01*
X125162425Y-115876605D01*
X125436458Y-115763097D01*
X125669097Y-115530458D01*
X125795000Y-115226501D01*
X125795000Y-114897499D01*
X125669097Y-114593542D01*
X125436458Y-114360903D01*
X125132501Y-114235000D01*
X124803499Y-114235000D01*
X124499542Y-114360903D01*
X124450445Y-114410000D01*
X122830147Y-114410000D01*
X121878320Y-113458174D01*
X121878320Y-113388739D01*
X121752417Y-113084782D01*
X121519778Y-112852143D01*
X121215821Y-112726240D01*
X120886819Y-112726240D01*
X120582862Y-112852143D01*
X120372407Y-113062598D01*
X120354794Y-113050830D01*
X120164610Y-113013000D01*
X120164606Y-113013000D01*
X120100396Y-113000228D01*
X120036186Y-113013000D01*
X119389555Y-113013000D01*
X119340458Y-112963903D01*
X119036501Y-112838000D01*
X118762000Y-112838000D01*
X118762000Y-111415386D01*
X119440028Y-110737359D01*
X119494465Y-110700985D01*
X119638570Y-110485318D01*
X119676400Y-110295134D01*
X119676400Y-110295130D01*
X119689172Y-110230920D01*
X119682317Y-110196458D01*
X119725497Y-110153278D01*
X119851400Y-109849321D01*
X119851400Y-109520319D01*
X119725497Y-109216362D01*
X119679396Y-109170261D01*
X121568000Y-109170261D01*
X121568000Y-109777739D01*
X121800472Y-110338976D01*
X122230024Y-110768528D01*
X122791261Y-111001000D01*
X123398739Y-111001000D01*
X123959976Y-110768528D01*
X124389528Y-110338976D01*
X124622000Y-109777739D01*
X124622000Y-109170261D01*
X124389528Y-108609024D01*
X123959976Y-108179472D01*
X123398739Y-107947000D01*
X122791261Y-107947000D01*
X122230024Y-108179472D01*
X121800472Y-108609024D01*
X121568000Y-109170261D01*
X119679396Y-109170261D01*
X119492858Y-108983723D01*
X119188901Y-108857820D01*
X118859899Y-108857820D01*
X118555942Y-108983723D01*
X118323303Y-109216362D01*
X118291906Y-109292160D01*
X118072499Y-109292160D01*
X117768542Y-109418063D01*
X117535903Y-109650702D01*
X117410000Y-109954659D01*
X117410000Y-110024093D01*
X117059372Y-110374722D01*
X117004936Y-110411095D01*
X116968562Y-110465532D01*
X116968561Y-110465533D01*
X116860830Y-110626763D01*
X116810228Y-110881160D01*
X116823001Y-110945375D01*
X116823001Y-111072433D01*
X116704808Y-110787091D01*
X116415909Y-110498192D01*
X116038443Y-110341840D01*
X115629877Y-110341840D01*
X115252411Y-110498192D01*
X114963512Y-110787091D01*
X114807160Y-111164557D01*
X114807160Y-111573123D01*
X114821630Y-111608055D01*
X114818103Y-111611582D01*
X114692200Y-111915539D01*
X114692200Y-112244541D01*
X114818103Y-112548498D01*
X115050742Y-112781137D01*
X115354699Y-112907040D01*
X115683701Y-112907040D01*
X115987658Y-112781137D01*
X116220297Y-112548498D01*
X116334289Y-112273296D01*
X116415909Y-112239488D01*
X116704808Y-111950589D01*
X116823001Y-111665247D01*
X116823000Y-113880190D01*
X116810228Y-113944400D01*
X116823000Y-114008610D01*
X116823000Y-114008613D01*
X116860830Y-114198797D01*
X117004935Y-114414465D01*
X117059375Y-114450841D01*
X121623601Y-119015069D01*
X121623600Y-119370445D01*
X121574503Y-119419542D01*
X121448600Y-119723499D01*
X121448600Y-120052501D01*
X121574503Y-120356458D01*
X121807142Y-120589097D01*
X122111099Y-120715000D01*
X122440101Y-120715000D01*
X122744058Y-120589097D01*
X122976697Y-120356458D01*
X123102600Y-120052501D01*
X123102600Y-119742669D01*
X123638159Y-120278228D01*
X123674533Y-120332665D01*
X123728970Y-120369039D01*
X123757299Y-120387968D01*
X123890200Y-120476770D01*
X124066729Y-120511884D01*
X124118542Y-120563697D01*
X124422499Y-120689600D01*
X124751501Y-120689600D01*
X125055458Y-120563697D01*
X125288097Y-120331058D01*
X125414000Y-120027101D01*
X125414000Y-119698099D01*
X125409377Y-119686937D01*
X125438499Y-119699000D01*
X125767501Y-119699000D01*
X126071458Y-119573097D01*
X126304097Y-119340458D01*
X126430000Y-119036501D01*
X126430000Y-118707499D01*
X126304097Y-118403542D01*
X126071458Y-118170903D01*
X125767501Y-118045000D01*
X125467352Y-118045000D01*
X125477500Y-118020501D01*
X125477500Y-117951066D01*
X127368205Y-116060362D01*
X127422641Y-116023989D01*
X127566746Y-115808322D01*
X127604576Y-115618138D01*
X127604576Y-115618135D01*
X127617348Y-115553925D01*
X127604576Y-115489715D01*
X127604576Y-114486631D01*
X127611042Y-114493097D01*
X127914999Y-114619000D01*
X128244001Y-114619000D01*
X128547958Y-114493097D01*
X128780597Y-114260458D01*
X128906500Y-113956501D01*
X128906500Y-113887066D01*
X129111567Y-113682000D01*
X129510676Y-113682000D01*
X129510676Y-113919000D01*
X129551577Y-114124625D01*
X129668055Y-114298945D01*
X129842375Y-114415423D01*
X130048000Y-114456324D01*
X134568001Y-114456324D01*
X134568001Y-119965533D01*
X134530501Y-119950000D01*
X134201499Y-119950000D01*
X133897542Y-120075903D01*
X133664903Y-120308542D01*
X133539000Y-120612499D01*
X133539000Y-120941501D01*
X133589000Y-121062212D01*
X133589000Y-121126788D01*
X133539000Y-121247499D01*
X133539000Y-121576501D01*
X133559988Y-121627169D01*
X132849000Y-122338157D01*
X132849000Y-121919989D01*
X132654588Y-121450638D01*
X132295362Y-121091412D01*
X131826011Y-120897000D01*
X131317989Y-120897000D01*
X130848638Y-121091412D01*
X130489412Y-121450638D01*
X130295000Y-121919989D01*
X130295000Y-122428011D01*
X130489412Y-122897362D01*
X130848638Y-123256588D01*
X130958272Y-123302000D01*
X127623245Y-123302000D01*
X127738423Y-123129625D01*
X127779324Y-122924000D01*
X127779324Y-121424000D01*
X127738423Y-121218375D01*
X127621945Y-121044055D01*
X127447625Y-120927577D01*
X127242000Y-120886676D01*
X125742000Y-120886676D01*
X125536375Y-120927577D01*
X125362055Y-121044055D01*
X125245577Y-121218375D01*
X125204676Y-121424000D01*
X125204676Y-122924000D01*
X125245577Y-123129625D01*
X125360755Y-123302000D01*
X109890844Y-123302000D01*
X109290324Y-122701481D01*
X109290324Y-121988000D01*
X109230393Y-121686704D01*
X109059722Y-121431278D01*
X108916645Y-121335676D01*
X111876890Y-121335676D01*
X111876890Y-121843924D01*
X112071389Y-122313485D01*
X112430775Y-122672871D01*
X112900336Y-122867370D01*
X113408584Y-122867370D01*
X113878145Y-122672871D01*
X114237531Y-122313485D01*
X114432030Y-121843924D01*
X114432030Y-121335676D01*
X116758770Y-121335676D01*
X116758770Y-121843924D01*
X116953269Y-122313485D01*
X117312655Y-122672871D01*
X117782216Y-122867370D01*
X118290464Y-122867370D01*
X118760025Y-122672871D01*
X119119411Y-122313485D01*
X119313910Y-121843924D01*
X119313910Y-121335676D01*
X119119411Y-120866115D01*
X118760025Y-120506729D01*
X118290464Y-120312230D01*
X117782216Y-120312230D01*
X117312655Y-120506729D01*
X116953269Y-120866115D01*
X116758770Y-121335676D01*
X114432030Y-121335676D01*
X114237531Y-120866115D01*
X113878145Y-120506729D01*
X113408584Y-120312230D01*
X112900336Y-120312230D01*
X112430775Y-120506729D01*
X112071389Y-120866115D01*
X111876890Y-121335676D01*
X108916645Y-121335676D01*
X108804296Y-121260607D01*
X108503000Y-121200676D01*
X107578000Y-121200676D01*
X107276704Y-121260607D01*
X107021278Y-121431278D01*
X106850607Y-121686704D01*
X106790676Y-121988000D01*
X106790676Y-123858000D01*
X106315324Y-123858000D01*
X106315324Y-121988000D01*
X106255393Y-121686704D01*
X106231540Y-121651005D01*
X106262400Y-121576501D01*
X106262400Y-121247499D01*
X106136497Y-120943542D01*
X105903858Y-120710903D01*
X105599901Y-120585000D01*
X105270899Y-120585000D01*
X105130600Y-120643114D01*
X104990301Y-120585000D01*
X104661299Y-120585000D01*
X104357342Y-120710903D01*
X104124703Y-120943542D01*
X103998800Y-121247499D01*
X103998800Y-121502334D01*
X103875607Y-121686704D01*
X103815676Y-121988000D01*
X103815676Y-122701480D01*
X103469157Y-123048000D01*
X97395155Y-123048000D01*
X97242458Y-122895303D01*
X97073600Y-122825360D01*
X97030597Y-122721542D01*
X96797958Y-122488903D01*
X96494001Y-122363000D01*
X96164999Y-122363000D01*
X95861042Y-122488903D01*
X95628403Y-122721542D01*
X95502500Y-123025499D01*
X95502500Y-123354501D01*
X95628403Y-123658458D01*
X95827945Y-123858000D01*
X90772000Y-123858000D01*
X90772000Y-118510563D01*
X91109564Y-118510563D01*
X91109739Y-118511450D01*
X91109564Y-118512339D01*
X91110578Y-119041523D01*
X91111194Y-119044589D01*
X91110625Y-119047666D01*
X91115822Y-119433665D01*
X91117691Y-119442443D01*
X91116353Y-119451315D01*
X91128964Y-119721412D01*
X91134198Y-119742527D01*
X91132701Y-119764231D01*
X91155960Y-119945707D01*
X91170617Y-119989378D01*
X91175374Y-120035192D01*
X91212511Y-120155331D01*
X91245728Y-120216695D01*
X91270700Y-120281855D01*
X91324949Y-120367938D01*
X91358949Y-120403806D01*
X91384825Y-120445912D01*
X91445456Y-120511337D01*
X91453747Y-120517345D01*
X91459433Y-120525857D01*
X91653531Y-120720005D01*
X91738863Y-120777038D01*
X91823895Y-120834426D01*
X91825093Y-120834670D01*
X91826110Y-120835350D01*
X91926833Y-120855398D01*
X92027293Y-120875865D01*
X96606349Y-120897091D01*
X96606567Y-120897049D01*
X96606785Y-120897093D01*
X97662561Y-120901122D01*
X97663167Y-120901004D01*
X97663771Y-120901125D01*
X98560755Y-120902508D01*
X98561686Y-120902324D01*
X98562620Y-120902508D01*
X99312477Y-120901035D01*
X99313920Y-120900745D01*
X99315364Y-120901021D01*
X99929754Y-120896480D01*
X99932023Y-120896011D01*
X99934302Y-120896427D01*
X100424888Y-120888606D01*
X100428579Y-120887810D01*
X100432303Y-120888436D01*
X100810747Y-120877124D01*
X100817095Y-120875663D01*
X100823548Y-120876588D01*
X101101511Y-120861573D01*
X101113488Y-120858511D01*
X101125792Y-120859703D01*
X101314937Y-120840774D01*
X101341481Y-120832676D01*
X101369232Y-120832491D01*
X101481223Y-120809436D01*
X101525317Y-120790826D01*
X101572350Y-120781984D01*
X101597678Y-120771804D01*
X101637437Y-120745839D01*
X101681824Y-120728952D01*
X101834908Y-120632998D01*
X101889198Y-120581785D01*
X101948853Y-120536940D01*
X102060881Y-120411717D01*
X102105020Y-120336983D01*
X102153926Y-120265284D01*
X102230418Y-120085498D01*
X102242680Y-120026792D01*
X102264560Y-119970956D01*
X102311034Y-119711317D01*
X102310431Y-119679935D01*
X102318394Y-119649575D01*
X102340371Y-119284791D01*
X102338389Y-119270324D01*
X102341324Y-119256020D01*
X102344324Y-118760799D01*
X102343332Y-118755649D01*
X102344287Y-118750489D01*
X102340809Y-118489423D01*
X102340809Y-118489421D01*
X102339615Y-118399823D01*
X102339241Y-118398066D01*
X102339556Y-118396300D01*
X102333097Y-118072499D01*
X104646500Y-118072499D01*
X104646500Y-118401501D01*
X104772403Y-118705458D01*
X105005042Y-118938097D01*
X105308999Y-119064000D01*
X105638001Y-119064000D01*
X105659350Y-119055157D01*
X105687723Y-119097620D01*
X105704407Y-119181496D01*
X105875078Y-119436922D01*
X106130504Y-119607593D01*
X106431800Y-119667524D01*
X107356800Y-119667524D01*
X107658096Y-119607593D01*
X107913522Y-119436922D01*
X108084193Y-119181496D01*
X108144124Y-118880200D01*
X108144124Y-116730200D01*
X108619476Y-116730200D01*
X108619476Y-118880200D01*
X108679407Y-119181496D01*
X108850078Y-119436922D01*
X109105504Y-119607593D01*
X109358200Y-119657857D01*
X109358200Y-119671501D01*
X109395272Y-119761000D01*
X109358200Y-119850499D01*
X109358200Y-120179501D01*
X109484103Y-120483458D01*
X109716742Y-120716097D01*
X110020699Y-120842000D01*
X110349701Y-120842000D01*
X110653658Y-120716097D01*
X110886297Y-120483458D01*
X111012200Y-120179501D01*
X111012200Y-119850499D01*
X110975128Y-119761000D01*
X111012200Y-119671501D01*
X111012200Y-119342499D01*
X110989015Y-119286525D01*
X111059193Y-119181496D01*
X111119124Y-118880200D01*
X111119124Y-116730200D01*
X111059193Y-116428904D01*
X110888522Y-116173478D01*
X110633096Y-116002807D01*
X110331800Y-115942876D01*
X109406800Y-115942876D01*
X109105504Y-116002807D01*
X108850078Y-116173478D01*
X108679407Y-116428904D01*
X108619476Y-116730200D01*
X108144124Y-116730200D01*
X108084193Y-116428904D01*
X107913522Y-116173478D01*
X107658096Y-116002807D01*
X107356800Y-115942876D01*
X106431800Y-115942876D01*
X106130504Y-116002807D01*
X105875078Y-116173478D01*
X105704407Y-116428904D01*
X105644476Y-116730200D01*
X105644476Y-117023359D01*
X105449542Y-117104103D01*
X105216903Y-117336742D01*
X105161200Y-117471220D01*
X105005042Y-117535903D01*
X104772403Y-117768542D01*
X104646500Y-118072499D01*
X102333097Y-118072499D01*
X102329408Y-117887630D01*
X102328540Y-117883680D01*
X102329190Y-117879689D01*
X102316390Y-117512847D01*
X102313798Y-117501838D01*
X102315148Y-117490606D01*
X102295641Y-117236952D01*
X102288364Y-117210972D01*
X102288882Y-117184000D01*
X102258611Y-117014900D01*
X102238952Y-116964733D01*
X102229159Y-116911750D01*
X102184068Y-116798567D01*
X102146320Y-116740378D01*
X102116544Y-116677731D01*
X102052578Y-116591828D01*
X102027396Y-116569092D01*
X102009081Y-116540531D01*
X101973572Y-116503658D01*
X101969253Y-116500653D01*
X101966326Y-116496278D01*
X101772180Y-116302364D01*
X101686110Y-116244928D01*
X101599812Y-116187266D01*
X101599652Y-116187234D01*
X101599517Y-116187144D01*
X101497657Y-116166946D01*
X101396224Y-116146770D01*
X95168678Y-116146770D01*
X95384088Y-116057544D01*
X95658804Y-115782828D01*
X95807480Y-115423894D01*
X95807480Y-115035386D01*
X95658804Y-114676452D01*
X95384088Y-114401736D01*
X95025154Y-114253060D01*
X94636646Y-114253060D01*
X94277712Y-114401736D01*
X94002996Y-114676452D01*
X93854320Y-115035386D01*
X93854320Y-115423894D01*
X94002996Y-115782828D01*
X94277712Y-116057544D01*
X94493122Y-116146770D01*
X92029855Y-116146770D01*
X91826267Y-116187266D01*
X91654011Y-116302364D01*
X91653674Y-116302589D01*
X91459528Y-116496735D01*
X91451976Y-116508038D01*
X91441068Y-116516149D01*
X91370070Y-116594685D01*
X91340389Y-116644348D01*
X91302486Y-116688065D01*
X91251296Y-116777898D01*
X91229892Y-116842144D01*
X91199853Y-116902831D01*
X91165241Y-117031242D01*
X91162480Y-117072433D01*
X91150069Y-117111801D01*
X91128801Y-117306073D01*
X91130451Y-117324925D01*
X91126041Y-117343333D01*
X91114884Y-117630747D01*
X91116085Y-117638309D01*
X91114513Y-117645803D01*
X91110235Y-118053643D01*
X91110689Y-118056060D01*
X91110207Y-118058467D01*
X91109564Y-118510563D01*
X90772000Y-118510563D01*
X90772000Y-110636106D01*
X93854320Y-110636106D01*
X93854320Y-111024614D01*
X94002996Y-111383548D01*
X94277712Y-111658264D01*
X94636646Y-111806940D01*
X95025154Y-111806940D01*
X95384088Y-111658264D01*
X95658804Y-111383548D01*
X95807480Y-111024614D01*
X95807480Y-110636106D01*
X95658804Y-110277172D01*
X95384088Y-110002456D01*
X95025154Y-109853780D01*
X94636646Y-109853780D01*
X94277712Y-110002456D01*
X94002996Y-110277172D01*
X93854320Y-110636106D01*
X90772000Y-110636106D01*
X90772000Y-104565078D01*
X90878775Y-104636423D01*
X91084400Y-104677324D01*
X92579258Y-104677324D01*
X93854561Y-105952628D01*
X93890935Y-106007065D01*
X94106602Y-106151170D01*
X94296786Y-106189000D01*
X94296789Y-106189000D01*
X94360999Y-106201772D01*
X94425209Y-106189000D01*
X98415445Y-106189000D01*
X98464542Y-106238097D01*
X98768499Y-106364000D01*
X99097501Y-106364000D01*
X99401458Y-106238097D01*
X99432506Y-106207049D01*
X102411041Y-109338331D01*
X102411040Y-113186686D01*
X102398268Y-113250896D01*
X102411040Y-113315106D01*
X102411040Y-113315109D01*
X102448870Y-113505293D01*
X102592975Y-113720961D01*
X102647414Y-113757336D01*
X103469076Y-114578999D01*
X103447620Y-114630799D01*
X103447620Y-114959801D01*
X103573523Y-115263758D01*
X103806162Y-115496397D01*
X104110119Y-115622300D01*
X104439121Y-115622300D01*
X104743078Y-115496397D01*
X104975717Y-115263758D01*
X105101620Y-114959801D01*
X105101620Y-114630799D01*
X104975717Y-114326842D01*
X104802715Y-114153840D01*
X104794810Y-114114098D01*
X104754708Y-114054081D01*
X104725734Y-113987977D01*
X104637018Y-113902808D01*
X103715040Y-112980830D01*
X103715040Y-111662440D01*
X103862541Y-111662440D01*
X104166498Y-111536537D01*
X104185334Y-111517701D01*
X104369199Y-111593860D01*
X104698201Y-111593860D01*
X105002158Y-111467957D01*
X105051255Y-111418860D01*
X109758036Y-111418860D01*
X111441000Y-113120928D01*
X111441000Y-113194501D01*
X111566903Y-113498458D01*
X111799542Y-113731097D01*
X112103499Y-113857000D01*
X112432501Y-113857000D01*
X112736458Y-113731097D01*
X112969097Y-113498458D01*
X113095000Y-113194501D01*
X113095000Y-112865499D01*
X112969097Y-112561542D01*
X112736458Y-112328903D01*
X112432501Y-112203000D01*
X112367189Y-112203000D01*
X110705769Y-110522723D01*
X110809000Y-110273501D01*
X110809000Y-109944499D01*
X110693021Y-109664500D01*
X110809000Y-109384501D01*
X110809000Y-109055499D01*
X110683097Y-108751542D01*
X110607329Y-108675774D01*
X110682000Y-108495501D01*
X110682000Y-108166499D01*
X110556097Y-107862542D01*
X110323458Y-107629903D01*
X110019501Y-107504000D01*
X109950067Y-107504000D01*
X108799180Y-106353113D01*
X108762804Y-106298674D01*
X108547137Y-106154569D01*
X108356953Y-106116739D01*
X108356949Y-106116739D01*
X108292739Y-106103967D01*
X108228529Y-106116739D01*
X105249407Y-106116739D01*
X107311076Y-104055071D01*
X107311076Y-104267000D01*
X107351977Y-104472625D01*
X107468455Y-104646945D01*
X107642775Y-104763423D01*
X107848400Y-104804324D01*
X108925925Y-104804324D01*
X108901000Y-104864499D01*
X108901000Y-105193501D01*
X109026903Y-105497458D01*
X109259542Y-105730097D01*
X109563499Y-105856000D01*
X109632934Y-105856000D01*
X111431010Y-107654077D01*
X111431011Y-108671517D01*
X111418238Y-108735732D01*
X111468840Y-108990129D01*
X111545313Y-109104577D01*
X111612946Y-109205797D01*
X111667382Y-109242170D01*
X112649842Y-110224632D01*
X112686214Y-110279066D01*
X112740648Y-110315438D01*
X112740651Y-110315441D01*
X112811473Y-110362762D01*
X112900403Y-110577458D01*
X113133042Y-110810097D01*
X113436999Y-110936000D01*
X113766001Y-110936000D01*
X114069958Y-110810097D01*
X114302597Y-110577458D01*
X114428500Y-110273501D01*
X114428500Y-109944499D01*
X114302597Y-109640542D01*
X114101178Y-109439123D01*
X114222100Y-109415070D01*
X114437767Y-109270965D01*
X114474142Y-109216526D01*
X115393470Y-108297200D01*
X118375990Y-108297200D01*
X118440200Y-108309972D01*
X118504410Y-108297200D01*
X118504414Y-108297200D01*
X118694598Y-108259370D01*
X118910265Y-108115265D01*
X118946640Y-108060826D01*
X119675467Y-107332000D01*
X121351645Y-107332000D01*
X121400742Y-107381097D01*
X121704699Y-107507000D01*
X122033701Y-107507000D01*
X122337658Y-107381097D01*
X122570297Y-107148458D01*
X122696200Y-106844501D01*
X122696200Y-106515499D01*
X122570297Y-106211542D01*
X122337658Y-105978903D01*
X122033701Y-105853000D01*
X121704699Y-105853000D01*
X121400742Y-105978903D01*
X121351645Y-106028000D01*
X119469610Y-106028000D01*
X119405400Y-106015228D01*
X119341190Y-106028000D01*
X119341186Y-106028000D01*
X119151002Y-106065830D01*
X119018196Y-106154569D01*
X118935335Y-106209935D01*
X118898961Y-106264372D01*
X118722224Y-106441109D01*
X118658697Y-106287742D01*
X118426058Y-106055103D01*
X118122101Y-105929200D01*
X117793099Y-105929200D01*
X117489142Y-106055103D01*
X117440045Y-106104200D01*
X115151609Y-106104200D01*
X115087399Y-106091428D01*
X115023189Y-106104200D01*
X115023186Y-106104200D01*
X114833002Y-106142030D01*
X114728971Y-106211542D01*
X114617335Y-106286135D01*
X114580961Y-106340572D01*
X114209400Y-106712133D01*
X114209400Y-106475717D01*
X114053048Y-106098251D01*
X113764149Y-105809352D01*
X113386683Y-105653000D01*
X112978117Y-105653000D01*
X112600651Y-105809352D01*
X112311752Y-106098251D01*
X112155400Y-106475717D01*
X112155400Y-106534333D01*
X110555000Y-104933934D01*
X110555000Y-104864499D01*
X110429097Y-104560542D01*
X110325036Y-104456481D01*
X110709416Y-104713316D01*
X111252000Y-104821243D01*
X111794585Y-104713316D01*
X112254566Y-104405966D01*
X112522000Y-104005723D01*
X112789435Y-104405966D01*
X113249416Y-104713316D01*
X113792000Y-104821243D01*
X114334585Y-104713316D01*
X114794566Y-104405966D01*
X115062000Y-104005723D01*
X115329435Y-104405966D01*
X115789416Y-104713316D01*
X116332000Y-104821243D01*
X116874585Y-104713316D01*
X117334566Y-104405966D01*
X117641916Y-103945984D01*
X117722600Y-103540359D01*
X117722600Y-102961640D01*
X117706759Y-102882000D01*
X125204676Y-102882000D01*
X125204676Y-104382000D01*
X125245577Y-104587625D01*
X125362055Y-104761945D01*
X125536375Y-104878423D01*
X125742000Y-104919324D01*
X127242000Y-104919324D01*
X127447625Y-104878423D01*
X127621945Y-104761945D01*
X127738423Y-104587625D01*
X127779324Y-104382000D01*
X127779324Y-103377989D01*
X130295000Y-103377989D01*
X130295000Y-103886011D01*
X130489412Y-104355362D01*
X130848638Y-104714588D01*
X131317989Y-104909000D01*
X131826011Y-104909000D01*
X132295362Y-104714588D01*
X132654588Y-104355362D01*
X132849000Y-103886011D01*
X132849000Y-103377989D01*
X132654588Y-102908638D01*
X132295362Y-102549412D01*
X131826011Y-102355000D01*
X131317989Y-102355000D01*
X130848638Y-102549412D01*
X130489412Y-102908638D01*
X130295000Y-103377989D01*
X127779324Y-103377989D01*
X127779324Y-102882000D01*
X127738423Y-102676375D01*
X127621945Y-102502055D01*
X127447625Y-102385577D01*
X127242000Y-102344676D01*
X125742000Y-102344676D01*
X125536375Y-102385577D01*
X125362055Y-102502055D01*
X125245577Y-102676375D01*
X125204676Y-102882000D01*
X117706759Y-102882000D01*
X117641916Y-102556015D01*
X117334565Y-102096034D01*
X117283630Y-102062000D01*
X134568000Y-102062000D01*
X134568000Y-106523676D01*
X134568000Y-106523676D01*
G37*
X134568000Y-106523676D02*
X130048000Y-106523676D01*
X129842375Y-106564577D01*
X129668055Y-106681055D01*
X129551577Y-106855375D01*
X129510676Y-107061000D01*
X129510676Y-108454258D01*
X128814492Y-109150441D01*
X128760056Y-109186815D01*
X128723682Y-109241252D01*
X128723681Y-109241253D01*
X128615950Y-109402483D01*
X128607647Y-109444228D01*
X128578120Y-109592666D01*
X128578120Y-109592670D01*
X128565348Y-109656880D01*
X128578120Y-109721090D01*
X128578120Y-110270732D01*
X126536948Y-112311906D01*
X126482512Y-112348279D01*
X126446138Y-112402716D01*
X126446137Y-112402717D01*
X126338406Y-112563947D01*
X126287804Y-112818344D01*
X126300577Y-112882559D01*
X126300576Y-115283857D01*
X125430267Y-116154166D01*
X125415097Y-116117542D01*
X125182458Y-115884903D01*
X125162425Y-115876605D01*
X125436458Y-115763097D01*
X125669097Y-115530458D01*
X125795000Y-115226501D01*
X125795000Y-114897499D01*
X125669097Y-114593542D01*
X125436458Y-114360903D01*
X125132501Y-114235000D01*
X124803499Y-114235000D01*
X124499542Y-114360903D01*
X124450445Y-114410000D01*
X122830147Y-114410000D01*
X121878320Y-113458174D01*
X121878320Y-113388739D01*
X121752417Y-113084782D01*
X121519778Y-112852143D01*
X121215821Y-112726240D01*
X120886819Y-112726240D01*
X120582862Y-112852143D01*
X120372407Y-113062598D01*
X120354794Y-113050830D01*
X120164610Y-113013000D01*
X120164606Y-113013000D01*
X120100396Y-113000228D01*
X120036186Y-113013000D01*
X119389555Y-113013000D01*
X119340458Y-112963903D01*
X119036501Y-112838000D01*
X118762000Y-112838000D01*
X118762000Y-111415386D01*
X119440028Y-110737359D01*
X119494465Y-110700985D01*
X119638570Y-110485318D01*
X119676400Y-110295134D01*
X119676400Y-110295130D01*
X119689172Y-110230920D01*
X119682317Y-110196458D01*
X119725497Y-110153278D01*
X119851400Y-109849321D01*
X119851400Y-109520319D01*
X119725497Y-109216362D01*
X119679396Y-109170261D01*
X121568000Y-109170261D01*
X121568000Y-109777739D01*
X121800472Y-110338976D01*
X122230024Y-110768528D01*
X122791261Y-111001000D01*
X123398739Y-111001000D01*
X123959976Y-110768528D01*
X124389528Y-110338976D01*
X124622000Y-109777739D01*
X124622000Y-109170261D01*
X124389528Y-108609024D01*
X123959976Y-108179472D01*
X123398739Y-107947000D01*
X122791261Y-107947000D01*
X122230024Y-108179472D01*
X121800472Y-108609024D01*
X121568000Y-109170261D01*
X119679396Y-109170261D01*
X119492858Y-108983723D01*
X119188901Y-108857820D01*
X118859899Y-108857820D01*
X118555942Y-108983723D01*
X118323303Y-109216362D01*
X118291906Y-109292160D01*
X118072499Y-109292160D01*
X117768542Y-109418063D01*
X117535903Y-109650702D01*
X117410000Y-109954659D01*
X117410000Y-110024093D01*
X117059372Y-110374722D01*
X117004936Y-110411095D01*
X116968562Y-110465532D01*
X116968561Y-110465533D01*
X116860830Y-110626763D01*
X116810228Y-110881160D01*
X116823001Y-110945375D01*
X116823001Y-111072433D01*
X116704808Y-110787091D01*
X116415909Y-110498192D01*
X116038443Y-110341840D01*
X115629877Y-110341840D01*
X115252411Y-110498192D01*
X114963512Y-110787091D01*
X114807160Y-111164557D01*
X114807160Y-111573123D01*
X114821630Y-111608055D01*
X114818103Y-111611582D01*
X114692200Y-111915539D01*
X114692200Y-112244541D01*
X114818103Y-112548498D01*
X115050742Y-112781137D01*
X115354699Y-112907040D01*
X115683701Y-112907040D01*
X115987658Y-112781137D01*
X116220297Y-112548498D01*
X116334289Y-112273296D01*
X116415909Y-112239488D01*
X116704808Y-111950589D01*
X116823001Y-111665247D01*
X116823000Y-113880190D01*
X116810228Y-113944400D01*
X116823000Y-114008610D01*
X116823000Y-114008613D01*
X116860830Y-114198797D01*
X117004935Y-114414465D01*
X117059375Y-114450841D01*
X121623601Y-119015069D01*
X121623600Y-119370445D01*
X121574503Y-119419542D01*
X121448600Y-119723499D01*
X121448600Y-120052501D01*
X121574503Y-120356458D01*
X121807142Y-120589097D01*
X122111099Y-120715000D01*
X122440101Y-120715000D01*
X122744058Y-120589097D01*
X122976697Y-120356458D01*
X123102600Y-120052501D01*
X123102600Y-119742669D01*
X123638159Y-120278228D01*
X123674533Y-120332665D01*
X123728970Y-120369039D01*
X123757299Y-120387968D01*
X123890200Y-120476770D01*
X124066729Y-120511884D01*
X124118542Y-120563697D01*
X124422499Y-120689600D01*
X124751501Y-120689600D01*
X125055458Y-120563697D01*
X125288097Y-120331058D01*
X125414000Y-120027101D01*
X125414000Y-119698099D01*
X125409377Y-119686937D01*
X125438499Y-119699000D01*
X125767501Y-119699000D01*
X126071458Y-119573097D01*
X126304097Y-119340458D01*
X126430000Y-119036501D01*
X126430000Y-118707499D01*
X126304097Y-118403542D01*
X126071458Y-118170903D01*
X125767501Y-118045000D01*
X125467352Y-118045000D01*
X125477500Y-118020501D01*
X125477500Y-117951066D01*
X127368205Y-116060362D01*
X127422641Y-116023989D01*
X127566746Y-115808322D01*
X127604576Y-115618138D01*
X127604576Y-115618135D01*
X127617348Y-115553925D01*
X127604576Y-115489715D01*
X127604576Y-114486631D01*
X127611042Y-114493097D01*
X127914999Y-114619000D01*
X128244001Y-114619000D01*
X128547958Y-114493097D01*
X128780597Y-114260458D01*
X128906500Y-113956501D01*
X128906500Y-113887066D01*
X129111567Y-113682000D01*
X129510676Y-113682000D01*
X129510676Y-113919000D01*
X129551577Y-114124625D01*
X129668055Y-114298945D01*
X129842375Y-114415423D01*
X130048000Y-114456324D01*
X134568001Y-114456324D01*
X134568001Y-119965533D01*
X134530501Y-119950000D01*
X134201499Y-119950000D01*
X133897542Y-120075903D01*
X133664903Y-120308542D01*
X133539000Y-120612499D01*
X133539000Y-120941501D01*
X133589000Y-121062212D01*
X133589000Y-121126788D01*
X133539000Y-121247499D01*
X133539000Y-121576501D01*
X133559988Y-121627169D01*
X132849000Y-122338157D01*
X132849000Y-121919989D01*
X132654588Y-121450638D01*
X132295362Y-121091412D01*
X131826011Y-120897000D01*
X131317989Y-120897000D01*
X130848638Y-121091412D01*
X130489412Y-121450638D01*
X130295000Y-121919989D01*
X130295000Y-122428011D01*
X130489412Y-122897362D01*
X130848638Y-123256588D01*
X130958272Y-123302000D01*
X127623245Y-123302000D01*
X127738423Y-123129625D01*
X127779324Y-122924000D01*
X127779324Y-121424000D01*
X127738423Y-121218375D01*
X127621945Y-121044055D01*
X127447625Y-120927577D01*
X127242000Y-120886676D01*
X125742000Y-120886676D01*
X125536375Y-120927577D01*
X125362055Y-121044055D01*
X125245577Y-121218375D01*
X125204676Y-121424000D01*
X125204676Y-122924000D01*
X125245577Y-123129625D01*
X125360755Y-123302000D01*
X109890844Y-123302000D01*
X109290324Y-122701481D01*
X109290324Y-121988000D01*
X109230393Y-121686704D01*
X109059722Y-121431278D01*
X108916645Y-121335676D01*
X111876890Y-121335676D01*
X111876890Y-121843924D01*
X112071389Y-122313485D01*
X112430775Y-122672871D01*
X112900336Y-122867370D01*
X113408584Y-122867370D01*
X113878145Y-122672871D01*
X114237531Y-122313485D01*
X114432030Y-121843924D01*
X114432030Y-121335676D01*
X116758770Y-121335676D01*
X116758770Y-121843924D01*
X116953269Y-122313485D01*
X117312655Y-122672871D01*
X117782216Y-122867370D01*
X118290464Y-122867370D01*
X118760025Y-122672871D01*
X119119411Y-122313485D01*
X119313910Y-121843924D01*
X119313910Y-121335676D01*
X119119411Y-120866115D01*
X118760025Y-120506729D01*
X118290464Y-120312230D01*
X117782216Y-120312230D01*
X117312655Y-120506729D01*
X116953269Y-120866115D01*
X116758770Y-121335676D01*
X114432030Y-121335676D01*
X114237531Y-120866115D01*
X113878145Y-120506729D01*
X113408584Y-120312230D01*
X112900336Y-120312230D01*
X112430775Y-120506729D01*
X112071389Y-120866115D01*
X111876890Y-121335676D01*
X108916645Y-121335676D01*
X108804296Y-121260607D01*
X108503000Y-121200676D01*
X107578000Y-121200676D01*
X107276704Y-121260607D01*
X107021278Y-121431278D01*
X106850607Y-121686704D01*
X106790676Y-121988000D01*
X106790676Y-123858000D01*
X106315324Y-123858000D01*
X106315324Y-121988000D01*
X106255393Y-121686704D01*
X106231540Y-121651005D01*
X106262400Y-121576501D01*
X106262400Y-121247499D01*
X106136497Y-120943542D01*
X105903858Y-120710903D01*
X105599901Y-120585000D01*
X105270899Y-120585000D01*
X105130600Y-120643114D01*
X104990301Y-120585000D01*
X104661299Y-120585000D01*
X104357342Y-120710903D01*
X104124703Y-120943542D01*
X103998800Y-121247499D01*
X103998800Y-121502334D01*
X103875607Y-121686704D01*
X103815676Y-121988000D01*
X103815676Y-122701480D01*
X103469157Y-123048000D01*
X97395155Y-123048000D01*
X97242458Y-122895303D01*
X97073600Y-122825360D01*
X97030597Y-122721542D01*
X96797958Y-122488903D01*
X96494001Y-122363000D01*
X96164999Y-122363000D01*
X95861042Y-122488903D01*
X95628403Y-122721542D01*
X95502500Y-123025499D01*
X95502500Y-123354501D01*
X95628403Y-123658458D01*
X95827945Y-123858000D01*
X90772000Y-123858000D01*
X90772000Y-118510563D01*
X91109564Y-118510563D01*
X91109739Y-118511450D01*
X91109564Y-118512339D01*
X91110578Y-119041523D01*
X91111194Y-119044589D01*
X91110625Y-119047666D01*
X91115822Y-119433665D01*
X91117691Y-119442443D01*
X91116353Y-119451315D01*
X91128964Y-119721412D01*
X91134198Y-119742527D01*
X91132701Y-119764231D01*
X91155960Y-119945707D01*
X91170617Y-119989378D01*
X91175374Y-120035192D01*
X91212511Y-120155331D01*
X91245728Y-120216695D01*
X91270700Y-120281855D01*
X91324949Y-120367938D01*
X91358949Y-120403806D01*
X91384825Y-120445912D01*
X91445456Y-120511337D01*
X91453747Y-120517345D01*
X91459433Y-120525857D01*
X91653531Y-120720005D01*
X91738863Y-120777038D01*
X91823895Y-120834426D01*
X91825093Y-120834670D01*
X91826110Y-120835350D01*
X91926833Y-120855398D01*
X92027293Y-120875865D01*
X96606349Y-120897091D01*
X96606567Y-120897049D01*
X96606785Y-120897093D01*
X97662561Y-120901122D01*
X97663167Y-120901004D01*
X97663771Y-120901125D01*
X98560755Y-120902508D01*
X98561686Y-120902324D01*
X98562620Y-120902508D01*
X99312477Y-120901035D01*
X99313920Y-120900745D01*
X99315364Y-120901021D01*
X99929754Y-120896480D01*
X99932023Y-120896011D01*
X99934302Y-120896427D01*
X100424888Y-120888606D01*
X100428579Y-120887810D01*
X100432303Y-120888436D01*
X100810747Y-120877124D01*
X100817095Y-120875663D01*
X100823548Y-120876588D01*
X101101511Y-120861573D01*
X101113488Y-120858511D01*
X101125792Y-120859703D01*
X101314937Y-120840774D01*
X101341481Y-120832676D01*
X101369232Y-120832491D01*
X101481223Y-120809436D01*
X101525317Y-120790826D01*
X101572350Y-120781984D01*
X101597678Y-120771804D01*
X101637437Y-120745839D01*
X101681824Y-120728952D01*
X101834908Y-120632998D01*
X101889198Y-120581785D01*
X101948853Y-120536940D01*
X102060881Y-120411717D01*
X102105020Y-120336983D01*
X102153926Y-120265284D01*
X102230418Y-120085498D01*
X102242680Y-120026792D01*
X102264560Y-119970956D01*
X102311034Y-119711317D01*
X102310431Y-119679935D01*
X102318394Y-119649575D01*
X102340371Y-119284791D01*
X102338389Y-119270324D01*
X102341324Y-119256020D01*
X102344324Y-118760799D01*
X102343332Y-118755649D01*
X102344287Y-118750489D01*
X102340809Y-118489423D01*
X102340809Y-118489421D01*
X102339615Y-118399823D01*
X102339241Y-118398066D01*
X102339556Y-118396300D01*
X102333097Y-118072499D01*
X104646500Y-118072499D01*
X104646500Y-118401501D01*
X104772403Y-118705458D01*
X105005042Y-118938097D01*
X105308999Y-119064000D01*
X105638001Y-119064000D01*
X105659350Y-119055157D01*
X105687723Y-119097620D01*
X105704407Y-119181496D01*
X105875078Y-119436922D01*
X106130504Y-119607593D01*
X106431800Y-119667524D01*
X107356800Y-119667524D01*
X107658096Y-119607593D01*
X107913522Y-119436922D01*
X108084193Y-119181496D01*
X108144124Y-118880200D01*
X108144124Y-116730200D01*
X108619476Y-116730200D01*
X108619476Y-118880200D01*
X108679407Y-119181496D01*
X108850078Y-119436922D01*
X109105504Y-119607593D01*
X109358200Y-119657857D01*
X109358200Y-119671501D01*
X109395272Y-119761000D01*
X109358200Y-119850499D01*
X109358200Y-120179501D01*
X109484103Y-120483458D01*
X109716742Y-120716097D01*
X110020699Y-120842000D01*
X110349701Y-120842000D01*
X110653658Y-120716097D01*
X110886297Y-120483458D01*
X111012200Y-120179501D01*
X111012200Y-119850499D01*
X110975128Y-119761000D01*
X111012200Y-119671501D01*
X111012200Y-119342499D01*
X110989015Y-119286525D01*
X111059193Y-119181496D01*
X111119124Y-118880200D01*
X111119124Y-116730200D01*
X111059193Y-116428904D01*
X110888522Y-116173478D01*
X110633096Y-116002807D01*
X110331800Y-115942876D01*
X109406800Y-115942876D01*
X109105504Y-116002807D01*
X108850078Y-116173478D01*
X108679407Y-116428904D01*
X108619476Y-116730200D01*
X108144124Y-116730200D01*
X108084193Y-116428904D01*
X107913522Y-116173478D01*
X107658096Y-116002807D01*
X107356800Y-115942876D01*
X106431800Y-115942876D01*
X106130504Y-116002807D01*
X105875078Y-116173478D01*
X105704407Y-116428904D01*
X105644476Y-116730200D01*
X105644476Y-117023359D01*
X105449542Y-117104103D01*
X105216903Y-117336742D01*
X105161200Y-117471220D01*
X105005042Y-117535903D01*
X104772403Y-117768542D01*
X104646500Y-118072499D01*
X102333097Y-118072499D01*
X102329408Y-117887630D01*
X102328540Y-117883680D01*
X102329190Y-117879689D01*
X102316390Y-117512847D01*
X102313798Y-117501838D01*
X102315148Y-117490606D01*
X102295641Y-117236952D01*
X102288364Y-117210972D01*
X102288882Y-117184000D01*
X102258611Y-117014900D01*
X102238952Y-116964733D01*
X102229159Y-116911750D01*
X102184068Y-116798567D01*
X102146320Y-116740378D01*
X102116544Y-116677731D01*
X102052578Y-116591828D01*
X102027396Y-116569092D01*
X102009081Y-116540531D01*
X101973572Y-116503658D01*
X101969253Y-116500653D01*
X101966326Y-116496278D01*
X101772180Y-116302364D01*
X101686110Y-116244928D01*
X101599812Y-116187266D01*
X101599652Y-116187234D01*
X101599517Y-116187144D01*
X101497657Y-116166946D01*
X101396224Y-116146770D01*
X95168678Y-116146770D01*
X95384088Y-116057544D01*
X95658804Y-115782828D01*
X95807480Y-115423894D01*
X95807480Y-115035386D01*
X95658804Y-114676452D01*
X95384088Y-114401736D01*
X95025154Y-114253060D01*
X94636646Y-114253060D01*
X94277712Y-114401736D01*
X94002996Y-114676452D01*
X93854320Y-115035386D01*
X93854320Y-115423894D01*
X94002996Y-115782828D01*
X94277712Y-116057544D01*
X94493122Y-116146770D01*
X92029855Y-116146770D01*
X91826267Y-116187266D01*
X91654011Y-116302364D01*
X91653674Y-116302589D01*
X91459528Y-116496735D01*
X91451976Y-116508038D01*
X91441068Y-116516149D01*
X91370070Y-116594685D01*
X91340389Y-116644348D01*
X91302486Y-116688065D01*
X91251296Y-116777898D01*
X91229892Y-116842144D01*
X91199853Y-116902831D01*
X91165241Y-117031242D01*
X91162480Y-117072433D01*
X91150069Y-117111801D01*
X91128801Y-117306073D01*
X91130451Y-117324925D01*
X91126041Y-117343333D01*
X91114884Y-117630747D01*
X91116085Y-117638309D01*
X91114513Y-117645803D01*
X91110235Y-118053643D01*
X91110689Y-118056060D01*
X91110207Y-118058467D01*
X91109564Y-118510563D01*
X90772000Y-118510563D01*
X90772000Y-110636106D01*
X93854320Y-110636106D01*
X93854320Y-111024614D01*
X94002996Y-111383548D01*
X94277712Y-111658264D01*
X94636646Y-111806940D01*
X95025154Y-111806940D01*
X95384088Y-111658264D01*
X95658804Y-111383548D01*
X95807480Y-111024614D01*
X95807480Y-110636106D01*
X95658804Y-110277172D01*
X95384088Y-110002456D01*
X95025154Y-109853780D01*
X94636646Y-109853780D01*
X94277712Y-110002456D01*
X94002996Y-110277172D01*
X93854320Y-110636106D01*
X90772000Y-110636106D01*
X90772000Y-104565078D01*
X90878775Y-104636423D01*
X91084400Y-104677324D01*
X92579258Y-104677324D01*
X93854561Y-105952628D01*
X93890935Y-106007065D01*
X94106602Y-106151170D01*
X94296786Y-106189000D01*
X94296789Y-106189000D01*
X94360999Y-106201772D01*
X94425209Y-106189000D01*
X98415445Y-106189000D01*
X98464542Y-106238097D01*
X98768499Y-106364000D01*
X99097501Y-106364000D01*
X99401458Y-106238097D01*
X99432506Y-106207049D01*
X102411041Y-109338331D01*
X102411040Y-113186686D01*
X102398268Y-113250896D01*
X102411040Y-113315106D01*
X102411040Y-113315109D01*
X102448870Y-113505293D01*
X102592975Y-113720961D01*
X102647414Y-113757336D01*
X103469076Y-114578999D01*
X103447620Y-114630799D01*
X103447620Y-114959801D01*
X103573523Y-115263758D01*
X103806162Y-115496397D01*
X104110119Y-115622300D01*
X104439121Y-115622300D01*
X104743078Y-115496397D01*
X104975717Y-115263758D01*
X105101620Y-114959801D01*
X105101620Y-114630799D01*
X104975717Y-114326842D01*
X104802715Y-114153840D01*
X104794810Y-114114098D01*
X104754708Y-114054081D01*
X104725734Y-113987977D01*
X104637018Y-113902808D01*
X103715040Y-112980830D01*
X103715040Y-111662440D01*
X103862541Y-111662440D01*
X104166498Y-111536537D01*
X104185334Y-111517701D01*
X104369199Y-111593860D01*
X104698201Y-111593860D01*
X105002158Y-111467957D01*
X105051255Y-111418860D01*
X109758036Y-111418860D01*
X111441000Y-113120928D01*
X111441000Y-113194501D01*
X111566903Y-113498458D01*
X111799542Y-113731097D01*
X112103499Y-113857000D01*
X112432501Y-113857000D01*
X112736458Y-113731097D01*
X112969097Y-113498458D01*
X113095000Y-113194501D01*
X113095000Y-112865499D01*
X112969097Y-112561542D01*
X112736458Y-112328903D01*
X112432501Y-112203000D01*
X112367189Y-112203000D01*
X110705769Y-110522723D01*
X110809000Y-110273501D01*
X110809000Y-109944499D01*
X110693021Y-109664500D01*
X110809000Y-109384501D01*
X110809000Y-109055499D01*
X110683097Y-108751542D01*
X110607329Y-108675774D01*
X110682000Y-108495501D01*
X110682000Y-108166499D01*
X110556097Y-107862542D01*
X110323458Y-107629903D01*
X110019501Y-107504000D01*
X109950067Y-107504000D01*
X108799180Y-106353113D01*
X108762804Y-106298674D01*
X108547137Y-106154569D01*
X108356953Y-106116739D01*
X108356949Y-106116739D01*
X108292739Y-106103967D01*
X108228529Y-106116739D01*
X105249407Y-106116739D01*
X107311076Y-104055071D01*
X107311076Y-104267000D01*
X107351977Y-104472625D01*
X107468455Y-104646945D01*
X107642775Y-104763423D01*
X107848400Y-104804324D01*
X108925925Y-104804324D01*
X108901000Y-104864499D01*
X108901000Y-105193501D01*
X109026903Y-105497458D01*
X109259542Y-105730097D01*
X109563499Y-105856000D01*
X109632934Y-105856000D01*
X111431010Y-107654077D01*
X111431011Y-108671517D01*
X111418238Y-108735732D01*
X111468840Y-108990129D01*
X111545313Y-109104577D01*
X111612946Y-109205797D01*
X111667382Y-109242170D01*
X112649842Y-110224632D01*
X112686214Y-110279066D01*
X112740648Y-110315438D01*
X112740651Y-110315441D01*
X112811473Y-110362762D01*
X112900403Y-110577458D01*
X113133042Y-110810097D01*
X113436999Y-110936000D01*
X113766001Y-110936000D01*
X114069958Y-110810097D01*
X114302597Y-110577458D01*
X114428500Y-110273501D01*
X114428500Y-109944499D01*
X114302597Y-109640542D01*
X114101178Y-109439123D01*
X114222100Y-109415070D01*
X114437767Y-109270965D01*
X114474142Y-109216526D01*
X115393470Y-108297200D01*
X118375990Y-108297200D01*
X118440200Y-108309972D01*
X118504410Y-108297200D01*
X118504414Y-108297200D01*
X118694598Y-108259370D01*
X118910265Y-108115265D01*
X118946640Y-108060826D01*
X119675467Y-107332000D01*
X121351645Y-107332000D01*
X121400742Y-107381097D01*
X121704699Y-107507000D01*
X122033701Y-107507000D01*
X122337658Y-107381097D01*
X122570297Y-107148458D01*
X122696200Y-106844501D01*
X122696200Y-106515499D01*
X122570297Y-106211542D01*
X122337658Y-105978903D01*
X122033701Y-105853000D01*
X121704699Y-105853000D01*
X121400742Y-105978903D01*
X121351645Y-106028000D01*
X119469610Y-106028000D01*
X119405400Y-106015228D01*
X119341190Y-106028000D01*
X119341186Y-106028000D01*
X119151002Y-106065830D01*
X119018196Y-106154569D01*
X118935335Y-106209935D01*
X118898961Y-106264372D01*
X118722224Y-106441109D01*
X118658697Y-106287742D01*
X118426058Y-106055103D01*
X118122101Y-105929200D01*
X117793099Y-105929200D01*
X117489142Y-106055103D01*
X117440045Y-106104200D01*
X115151609Y-106104200D01*
X115087399Y-106091428D01*
X115023189Y-106104200D01*
X115023186Y-106104200D01*
X114833002Y-106142030D01*
X114728971Y-106211542D01*
X114617335Y-106286135D01*
X114580961Y-106340572D01*
X114209400Y-106712133D01*
X114209400Y-106475717D01*
X114053048Y-106098251D01*
X113764149Y-105809352D01*
X113386683Y-105653000D01*
X112978117Y-105653000D01*
X112600651Y-105809352D01*
X112311752Y-106098251D01*
X112155400Y-106475717D01*
X112155400Y-106534333D01*
X110555000Y-104933934D01*
X110555000Y-104864499D01*
X110429097Y-104560542D01*
X110325036Y-104456481D01*
X110709416Y-104713316D01*
X111252000Y-104821243D01*
X111794585Y-104713316D01*
X112254566Y-104405966D01*
X112522000Y-104005723D01*
X112789435Y-104405966D01*
X113249416Y-104713316D01*
X113792000Y-104821243D01*
X114334585Y-104713316D01*
X114794566Y-104405966D01*
X115062000Y-104005723D01*
X115329435Y-104405966D01*
X115789416Y-104713316D01*
X116332000Y-104821243D01*
X116874585Y-104713316D01*
X117334566Y-104405966D01*
X117641916Y-103945984D01*
X117722600Y-103540359D01*
X117722600Y-102961640D01*
X117706759Y-102882000D01*
X125204676Y-102882000D01*
X125204676Y-104382000D01*
X125245577Y-104587625D01*
X125362055Y-104761945D01*
X125536375Y-104878423D01*
X125742000Y-104919324D01*
X127242000Y-104919324D01*
X127447625Y-104878423D01*
X127621945Y-104761945D01*
X127738423Y-104587625D01*
X127779324Y-104382000D01*
X127779324Y-103377989D01*
X130295000Y-103377989D01*
X130295000Y-103886011D01*
X130489412Y-104355362D01*
X130848638Y-104714588D01*
X131317989Y-104909000D01*
X131826011Y-104909000D01*
X132295362Y-104714588D01*
X132654588Y-104355362D01*
X132849000Y-103886011D01*
X132849000Y-103377989D01*
X132654588Y-102908638D01*
X132295362Y-102549412D01*
X131826011Y-102355000D01*
X131317989Y-102355000D01*
X130848638Y-102549412D01*
X130489412Y-102908638D01*
X130295000Y-103377989D01*
X127779324Y-103377989D01*
X127779324Y-102882000D01*
X127738423Y-102676375D01*
X127621945Y-102502055D01*
X127447625Y-102385577D01*
X127242000Y-102344676D01*
X125742000Y-102344676D01*
X125536375Y-102385577D01*
X125362055Y-102502055D01*
X125245577Y-102676375D01*
X125204676Y-102882000D01*
X117706759Y-102882000D01*
X117641916Y-102556015D01*
X117334565Y-102096034D01*
X117283630Y-102062000D01*
X134568000Y-102062000D01*
X134568000Y-106523676D01*
G36*
X107311076Y-102235000D02*
X107311076Y-102599000D01*
X107257290Y-102599000D01*
X107193080Y-102586228D01*
X107128870Y-102599000D01*
X107128866Y-102599000D01*
X106938682Y-102636830D01*
X106723015Y-102780935D01*
X106686641Y-102835372D01*
X104326874Y-105195140D01*
X104257439Y-105195140D01*
X103953482Y-105321043D01*
X103720843Y-105553682D01*
X103594940Y-105857639D01*
X103594940Y-106116739D01*
X103356975Y-106116739D01*
X102900363Y-105660128D01*
X102899491Y-105658836D01*
X102854810Y-105614575D01*
X102810647Y-105570412D01*
X102809360Y-105569552D01*
X101879954Y-104648882D01*
X102108000Y-104694243D01*
X102650585Y-104586316D01*
X103110566Y-104278966D01*
X103417916Y-103818984D01*
X103498600Y-103413359D01*
X103498600Y-102834640D01*
X103417916Y-102429015D01*
X103172683Y-102062000D01*
X107345488Y-102062000D01*
X107311076Y-102235000D01*
X107311076Y-102235000D01*
G37*
X107311076Y-102235000D02*
X107311076Y-102599000D01*
X107257290Y-102599000D01*
X107193080Y-102586228D01*
X107128870Y-102599000D01*
X107128866Y-102599000D01*
X106938682Y-102636830D01*
X106723015Y-102780935D01*
X106686641Y-102835372D01*
X104326874Y-105195140D01*
X104257439Y-105195140D01*
X103953482Y-105321043D01*
X103720843Y-105553682D01*
X103594940Y-105857639D01*
X103594940Y-106116739D01*
X103356975Y-106116739D01*
X102900363Y-105660128D01*
X102899491Y-105658836D01*
X102854810Y-105614575D01*
X102810647Y-105570412D01*
X102809360Y-105569552D01*
X101879954Y-104648882D01*
X102108000Y-104694243D01*
X102650585Y-104586316D01*
X103110566Y-104278966D01*
X103417916Y-103818984D01*
X103498600Y-103413359D01*
X103498600Y-102834640D01*
X103417916Y-102429015D01*
X103172683Y-102062000D01*
X107345488Y-102062000D01*
X107311076Y-102235000D01*
G36*
X98258084Y-102429016D02*
X98177400Y-102834641D01*
X98177400Y-103413360D01*
X98258084Y-103818985D01*
X98546080Y-104250000D01*
X96536067Y-104250000D01*
X95848873Y-103562806D01*
X95878600Y-103413359D01*
X95878600Y-102834640D01*
X95797916Y-102429015D01*
X95552683Y-102062000D01*
X98503317Y-102062000D01*
X98258084Y-102429016D01*
X98258084Y-102429016D01*
G37*
X98258084Y-102429016D02*
X98177400Y-102834641D01*
X98177400Y-103413360D01*
X98258084Y-103818985D01*
X98546080Y-104250000D01*
X96536067Y-104250000D01*
X95848873Y-103562806D01*
X95878600Y-103413359D01*
X95878600Y-102834640D01*
X95797916Y-102429015D01*
X95552683Y-102062000D01*
X98503317Y-102062000D01*
X98258084Y-102429016D01*
G04 #@! TD*
M02*
