G04 #@! TF.GenerationSoftware,KiCad,Pcbnew,5.0.0-fee4fd1~66~ubuntu16.04.1*
G04 #@! TF.CreationDate,2018-10-12T16:17:25+08:00*
G04 #@! TF.ProjectId,tiny,74696E792E6B696361645F7063620000,rev?*
G04 #@! TF.SameCoordinates,Original*
G04 #@! TF.FileFunction,Copper,L1,Top,Signal*
G04 #@! TF.FilePolarity,Positive*
%FSLAX46Y46*%
G04 Gerber Fmt 4.6, Leading zero omitted, Abs format (unit mm)*
G04 Created by KiCad (PCBNEW 5.0.0-fee4fd1~66~ubuntu16.04.1) date Fri Oct 12 16:17:25 2018*
%MOMM*%
%LPD*%
G01*
G04 APERTURE LIST*
G04 #@! TA.AperFunction,NonConductor*
%ADD10C,0.150000*%
G04 #@! TD*
G04 #@! TA.AperFunction,Conductor*
%ADD11C,0.100000*%
G04 #@! TD*
G04 #@! TA.AperFunction,SMDPad,CuDef*
%ADD12C,1.150000*%
G04 #@! TD*
G04 #@! TA.AperFunction,BGAPad,CuDef*
%ADD13C,1.000000*%
G04 #@! TD*
G04 #@! TA.AperFunction,SMDPad,CuDef*
%ADD14R,0.250000X1.300000*%
G04 #@! TD*
G04 #@! TA.AperFunction,SMDPad,CuDef*
%ADD15R,1.300000X0.250000*%
G04 #@! TD*
G04 #@! TA.AperFunction,ComponentPad*
%ADD16R,1.727200X2.032000*%
G04 #@! TD*
G04 #@! TA.AperFunction,ComponentPad*
%ADD17O,1.727200X2.032000*%
G04 #@! TD*
G04 #@! TA.AperFunction,SMDPad,CuDef*
%ADD18R,3.800000X2.000000*%
G04 #@! TD*
G04 #@! TA.AperFunction,SMDPad,CuDef*
%ADD19R,1.500000X2.000000*%
G04 #@! TD*
G04 #@! TA.AperFunction,SMDPad,CuDef*
%ADD20C,1.425000*%
G04 #@! TD*
G04 #@! TA.AperFunction,ComponentPad*
%ADD21C,1.501140*%
G04 #@! TD*
G04 #@! TA.AperFunction,ComponentPad*
%ADD22C,2.000000*%
G04 #@! TD*
G04 #@! TA.AperFunction,ComponentPad*
%ADD23R,1.500000X1.500000*%
G04 #@! TD*
G04 #@! TA.AperFunction,ComponentPad*
%ADD24C,1.500000*%
G04 #@! TD*
G04 #@! TA.AperFunction,ConnectorPad*
%ADD25R,5.080000X1.778000*%
G04 #@! TD*
G04 #@! TA.AperFunction,SMDPad,CuDef*
%ADD26R,4.301240X0.500380*%
G04 #@! TD*
G04 #@! TA.AperFunction,SMDPad,CuDef*
%ADD27R,2.499360X2.998980*%
G04 #@! TD*
G04 #@! TA.AperFunction,ViaPad*
%ADD28C,0.600000*%
G04 #@! TD*
G04 #@! TA.AperFunction,Conductor*
%ADD29C,0.250000*%
G04 #@! TD*
G04 #@! TA.AperFunction,Conductor*
%ADD30C,0.500000*%
G04 #@! TD*
G04 APERTURE END LIST*
D10*
X90170000Y-101460000D02*
X135170000Y-101460000D01*
X90170000Y-124460000D02*
X90170000Y-101460000D01*
X135170000Y-124460000D02*
X90170000Y-124460000D01*
X135170000Y-101460000D02*
X135170000Y-124460000D01*
D11*
G04 #@! TO.N,GND*
G04 #@! TO.C,C4*
G36*
X115086605Y-117538204D02*
X115110873Y-117541804D01*
X115134672Y-117547765D01*
X115157771Y-117556030D01*
X115179950Y-117566520D01*
X115200993Y-117579132D01*
X115220699Y-117593747D01*
X115238877Y-117610223D01*
X115255353Y-117628401D01*
X115269968Y-117648107D01*
X115282580Y-117669150D01*
X115293070Y-117691329D01*
X115301335Y-117714428D01*
X115307296Y-117738227D01*
X115310896Y-117762495D01*
X115312100Y-117786999D01*
X115312100Y-118687001D01*
X115310896Y-118711505D01*
X115307296Y-118735773D01*
X115301335Y-118759572D01*
X115293070Y-118782671D01*
X115282580Y-118804850D01*
X115269968Y-118825893D01*
X115255353Y-118845599D01*
X115238877Y-118863777D01*
X115220699Y-118880253D01*
X115200993Y-118894868D01*
X115179950Y-118907480D01*
X115157771Y-118917970D01*
X115134672Y-118926235D01*
X115110873Y-118932196D01*
X115086605Y-118935796D01*
X115062101Y-118937000D01*
X114412099Y-118937000D01*
X114387595Y-118935796D01*
X114363327Y-118932196D01*
X114339528Y-118926235D01*
X114316429Y-118917970D01*
X114294250Y-118907480D01*
X114273207Y-118894868D01*
X114253501Y-118880253D01*
X114235323Y-118863777D01*
X114218847Y-118845599D01*
X114204232Y-118825893D01*
X114191620Y-118804850D01*
X114181130Y-118782671D01*
X114172865Y-118759572D01*
X114166904Y-118735773D01*
X114163304Y-118711505D01*
X114162100Y-118687001D01*
X114162100Y-117786999D01*
X114163304Y-117762495D01*
X114166904Y-117738227D01*
X114172865Y-117714428D01*
X114181130Y-117691329D01*
X114191620Y-117669150D01*
X114204232Y-117648107D01*
X114218847Y-117628401D01*
X114235323Y-117610223D01*
X114253501Y-117593747D01*
X114273207Y-117579132D01*
X114294250Y-117566520D01*
X114316429Y-117556030D01*
X114339528Y-117547765D01*
X114363327Y-117541804D01*
X114387595Y-117538204D01*
X114412099Y-117537000D01*
X115062101Y-117537000D01*
X115086605Y-117538204D01*
X115086605Y-117538204D01*
G37*
D12*
G04 #@! TD*
G04 #@! TO.P,C4,2*
G04 #@! TO.N,GND*
X114737100Y-118237000D03*
D11*
G04 #@! TO.N,/OSC_IN*
G04 #@! TO.C,C4*
G36*
X113036605Y-117538204D02*
X113060873Y-117541804D01*
X113084672Y-117547765D01*
X113107771Y-117556030D01*
X113129950Y-117566520D01*
X113150993Y-117579132D01*
X113170699Y-117593747D01*
X113188877Y-117610223D01*
X113205353Y-117628401D01*
X113219968Y-117648107D01*
X113232580Y-117669150D01*
X113243070Y-117691329D01*
X113251335Y-117714428D01*
X113257296Y-117738227D01*
X113260896Y-117762495D01*
X113262100Y-117786999D01*
X113262100Y-118687001D01*
X113260896Y-118711505D01*
X113257296Y-118735773D01*
X113251335Y-118759572D01*
X113243070Y-118782671D01*
X113232580Y-118804850D01*
X113219968Y-118825893D01*
X113205353Y-118845599D01*
X113188877Y-118863777D01*
X113170699Y-118880253D01*
X113150993Y-118894868D01*
X113129950Y-118907480D01*
X113107771Y-118917970D01*
X113084672Y-118926235D01*
X113060873Y-118932196D01*
X113036605Y-118935796D01*
X113012101Y-118937000D01*
X112362099Y-118937000D01*
X112337595Y-118935796D01*
X112313327Y-118932196D01*
X112289528Y-118926235D01*
X112266429Y-118917970D01*
X112244250Y-118907480D01*
X112223207Y-118894868D01*
X112203501Y-118880253D01*
X112185323Y-118863777D01*
X112168847Y-118845599D01*
X112154232Y-118825893D01*
X112141620Y-118804850D01*
X112131130Y-118782671D01*
X112122865Y-118759572D01*
X112116904Y-118735773D01*
X112113304Y-118711505D01*
X112112100Y-118687001D01*
X112112100Y-117786999D01*
X112113304Y-117762495D01*
X112116904Y-117738227D01*
X112122865Y-117714428D01*
X112131130Y-117691329D01*
X112141620Y-117669150D01*
X112154232Y-117648107D01*
X112168847Y-117628401D01*
X112185323Y-117610223D01*
X112203501Y-117593747D01*
X112223207Y-117579132D01*
X112244250Y-117566520D01*
X112266429Y-117556030D01*
X112289528Y-117547765D01*
X112313327Y-117541804D01*
X112337595Y-117538204D01*
X112362099Y-117537000D01*
X113012101Y-117537000D01*
X113036605Y-117538204D01*
X113036605Y-117538204D01*
G37*
D12*
G04 #@! TD*
G04 #@! TO.P,C4,1*
G04 #@! TO.N,/OSC_IN*
X112687100Y-118237000D03*
D13*
G04 #@! TO.P,TP7,1*
G04 #@! TO.N,/SPI_SCK*
X116563140Y-105864660D03*
G04 #@! TD*
D14*
G04 #@! TO.P,U2,1*
G04 #@! TO.N,+3V3*
X109772000Y-115221000D03*
G04 #@! TO.P,U2,2*
G04 #@! TO.N,/C13*
X110272000Y-115221000D03*
G04 #@! TO.P,U2,3*
G04 #@! TO.N,/C14*
X110772000Y-115221000D03*
G04 #@! TO.P,U2,4*
G04 #@! TO.N,/C15*
X111272000Y-115221000D03*
G04 #@! TO.P,U2,5*
G04 #@! TO.N,/OSC_IN*
X111772000Y-115221000D03*
G04 #@! TO.P,U2,6*
G04 #@! TO.N,/OSC_OUT*
X112272000Y-115221000D03*
G04 #@! TO.P,U2,7*
G04 #@! TO.N,/RST*
X112772000Y-115221000D03*
G04 #@! TO.P,U2,8*
G04 #@! TO.N,GND*
X113272000Y-115221000D03*
G04 #@! TO.P,U2,9*
G04 #@! TO.N,+3V3*
X113772000Y-115221000D03*
G04 #@! TO.P,U2,10*
G04 #@! TO.N,/D0*
X114272000Y-115221000D03*
G04 #@! TO.P,U2,11*
G04 #@! TO.N,/D1*
X114772000Y-115221000D03*
G04 #@! TO.P,U2,12*
G04 #@! TO.N,/D2*
X115272000Y-115221000D03*
D15*
G04 #@! TO.P,U2,13*
G04 #@! TO.N,/D3*
X116872000Y-113621000D03*
G04 #@! TO.P,U2,14*
G04 #@! TO.N,/D4*
X116872000Y-113121000D03*
G04 #@! TO.P,U2,15*
G04 #@! TO.N,/D5*
X116872000Y-112621000D03*
G04 #@! TO.P,U2,16*
G04 #@! TO.N,/D6*
X116872000Y-112121000D03*
G04 #@! TO.P,U2,17*
G04 #@! TO.N,/D7*
X116872000Y-111621000D03*
G04 #@! TO.P,U2,18*
G04 #@! TO.N,/BEEP*
X116872000Y-111121000D03*
G04 #@! TO.P,U2,19*
G04 #@! TO.N,/PB1*
X116872000Y-110621000D03*
G04 #@! TO.P,U2,20*
G04 #@! TO.N,GND*
X116872000Y-110121000D03*
G04 #@! TO.P,U2,21*
G04 #@! TO.N,/LED_G1*
X116872000Y-109621000D03*
G04 #@! TO.P,U2,22*
G04 #@! TO.N,/LED_R1*
X116872000Y-109121000D03*
G04 #@! TO.P,U2,23*
G04 #@! TO.N,GND*
X116872000Y-108621000D03*
G04 #@! TO.P,U2,24*
G04 #@! TO.N,+3V3*
X116872000Y-108121000D03*
D14*
G04 #@! TO.P,U2,25*
G04 #@! TO.N,/SPI_CS*
X115272000Y-106521000D03*
G04 #@! TO.P,U2,26*
G04 #@! TO.N,/SPI_SCK*
X114772000Y-106521000D03*
G04 #@! TO.P,U2,27*
G04 #@! TO.N,/SPI_MISO*
X114272000Y-106521000D03*
G04 #@! TO.P,U2,28*
G04 #@! TO.N,/SPI_MOSI*
X113772000Y-106521000D03*
G04 #@! TO.P,U2,29*
G04 #@! TO.N,/D8*
X113272000Y-106521000D03*
G04 #@! TO.P,U2,30*
G04 #@! TO.N,/TXD*
X112772000Y-106521000D03*
G04 #@! TO.P,U2,31*
G04 #@! TO.N,/RXD*
X112272000Y-106521000D03*
G04 #@! TO.P,U2,32*
G04 #@! TO.N,/DM*
X111772000Y-106521000D03*
G04 #@! TO.P,U2,33*
G04 #@! TO.N,/DP*
X111272000Y-106521000D03*
G04 #@! TO.P,U2,34*
G04 #@! TO.N,/SWDIO*
X110772000Y-106521000D03*
G04 #@! TO.P,U2,35*
G04 #@! TO.N,GND*
X110272000Y-106521000D03*
G04 #@! TO.P,U2,36*
G04 #@! TO.N,+3V3*
X109772000Y-106521000D03*
D15*
G04 #@! TO.P,U2,37*
G04 #@! TO.N,/SWCLK*
X108172000Y-108121000D03*
G04 #@! TO.P,U2,38*
G04 #@! TO.N,/PA15*
X108172000Y-108621000D03*
G04 #@! TO.P,U2,39*
G04 #@! TO.N,/PB3*
X108172000Y-109121000D03*
G04 #@! TO.P,U2,40*
G04 #@! TO.N,/PB4*
X108172000Y-109621000D03*
G04 #@! TO.P,U2,41*
G04 #@! TO.N,/PB5*
X108172000Y-110121000D03*
G04 #@! TO.P,U2,42*
G04 #@! TO.N,/PB6*
X108172000Y-110621000D03*
G04 #@! TO.P,U2,43*
G04 #@! TO.N,/PB7*
X108172000Y-111121000D03*
G04 #@! TO.P,U2,44*
G04 #@! TO.N,/BOOT0*
X108172000Y-111621000D03*
G04 #@! TO.P,U2,45*
G04 #@! TO.N,/LED_G0*
X108172000Y-112121000D03*
G04 #@! TO.P,U2,46*
G04 #@! TO.N,/LED_R0*
X108172000Y-112621000D03*
G04 #@! TO.P,U2,47*
G04 #@! TO.N,GND*
X108172000Y-113121000D03*
G04 #@! TO.P,U2,48*
G04 #@! TO.N,+3V3*
X108172000Y-113621000D03*
G04 #@! TD*
D11*
G04 #@! TO.N,+3V3*
G04 #@! TO.C,R7*
G36*
X100281885Y-104825504D02*
X100306153Y-104829104D01*
X100329952Y-104835065D01*
X100353051Y-104843330D01*
X100375230Y-104853820D01*
X100396273Y-104866432D01*
X100415979Y-104881047D01*
X100434157Y-104897523D01*
X100450633Y-104915701D01*
X100465248Y-104935407D01*
X100477860Y-104956450D01*
X100488350Y-104978629D01*
X100496615Y-105001728D01*
X100502576Y-105025527D01*
X100506176Y-105049795D01*
X100507380Y-105074299D01*
X100507380Y-105974301D01*
X100506176Y-105998805D01*
X100502576Y-106023073D01*
X100496615Y-106046872D01*
X100488350Y-106069971D01*
X100477860Y-106092150D01*
X100465248Y-106113193D01*
X100450633Y-106132899D01*
X100434157Y-106151077D01*
X100415979Y-106167553D01*
X100396273Y-106182168D01*
X100375230Y-106194780D01*
X100353051Y-106205270D01*
X100329952Y-106213535D01*
X100306153Y-106219496D01*
X100281885Y-106223096D01*
X100257381Y-106224300D01*
X99607379Y-106224300D01*
X99582875Y-106223096D01*
X99558607Y-106219496D01*
X99534808Y-106213535D01*
X99511709Y-106205270D01*
X99489530Y-106194780D01*
X99468487Y-106182168D01*
X99448781Y-106167553D01*
X99430603Y-106151077D01*
X99414127Y-106132899D01*
X99399512Y-106113193D01*
X99386900Y-106092150D01*
X99376410Y-106069971D01*
X99368145Y-106046872D01*
X99362184Y-106023073D01*
X99358584Y-105998805D01*
X99357380Y-105974301D01*
X99357380Y-105074299D01*
X99358584Y-105049795D01*
X99362184Y-105025527D01*
X99368145Y-105001728D01*
X99376410Y-104978629D01*
X99386900Y-104956450D01*
X99399512Y-104935407D01*
X99414127Y-104915701D01*
X99430603Y-104897523D01*
X99448781Y-104881047D01*
X99468487Y-104866432D01*
X99489530Y-104853820D01*
X99511709Y-104843330D01*
X99534808Y-104835065D01*
X99558607Y-104829104D01*
X99582875Y-104825504D01*
X99607379Y-104824300D01*
X100257381Y-104824300D01*
X100281885Y-104825504D01*
X100281885Y-104825504D01*
G37*
D12*
G04 #@! TD*
G04 #@! TO.P,R7,1*
G04 #@! TO.N,+3V3*
X99932380Y-105524300D03*
D11*
G04 #@! TO.N,/RST*
G04 #@! TO.C,R7*
G36*
X102331885Y-104825504D02*
X102356153Y-104829104D01*
X102379952Y-104835065D01*
X102403051Y-104843330D01*
X102425230Y-104853820D01*
X102446273Y-104866432D01*
X102465979Y-104881047D01*
X102484157Y-104897523D01*
X102500633Y-104915701D01*
X102515248Y-104935407D01*
X102527860Y-104956450D01*
X102538350Y-104978629D01*
X102546615Y-105001728D01*
X102552576Y-105025527D01*
X102556176Y-105049795D01*
X102557380Y-105074299D01*
X102557380Y-105974301D01*
X102556176Y-105998805D01*
X102552576Y-106023073D01*
X102546615Y-106046872D01*
X102538350Y-106069971D01*
X102527860Y-106092150D01*
X102515248Y-106113193D01*
X102500633Y-106132899D01*
X102484157Y-106151077D01*
X102465979Y-106167553D01*
X102446273Y-106182168D01*
X102425230Y-106194780D01*
X102403051Y-106205270D01*
X102379952Y-106213535D01*
X102356153Y-106219496D01*
X102331885Y-106223096D01*
X102307381Y-106224300D01*
X101657379Y-106224300D01*
X101632875Y-106223096D01*
X101608607Y-106219496D01*
X101584808Y-106213535D01*
X101561709Y-106205270D01*
X101539530Y-106194780D01*
X101518487Y-106182168D01*
X101498781Y-106167553D01*
X101480603Y-106151077D01*
X101464127Y-106132899D01*
X101449512Y-106113193D01*
X101436900Y-106092150D01*
X101426410Y-106069971D01*
X101418145Y-106046872D01*
X101412184Y-106023073D01*
X101408584Y-105998805D01*
X101407380Y-105974301D01*
X101407380Y-105074299D01*
X101408584Y-105049795D01*
X101412184Y-105025527D01*
X101418145Y-105001728D01*
X101426410Y-104978629D01*
X101436900Y-104956450D01*
X101449512Y-104935407D01*
X101464127Y-104915701D01*
X101480603Y-104897523D01*
X101498781Y-104881047D01*
X101518487Y-104866432D01*
X101539530Y-104853820D01*
X101561709Y-104843330D01*
X101584808Y-104835065D01*
X101608607Y-104829104D01*
X101632875Y-104825504D01*
X101657379Y-104824300D01*
X102307381Y-104824300D01*
X102331885Y-104825504D01*
X102331885Y-104825504D01*
G37*
D12*
G04 #@! TD*
G04 #@! TO.P,R7,2*
G04 #@! TO.N,/RST*
X101982380Y-105524300D03*
D13*
G04 #@! TO.P,TP15,1*
G04 #@! TO.N,/PB5*
X105750360Y-110162340D03*
G04 #@! TD*
G04 #@! TO.P,TP16,1*
G04 #@! TO.N,/PB6*
X105831640Y-111818420D03*
G04 #@! TD*
G04 #@! TO.P,TP11,1*
G04 #@! TO.N,/PA15*
X106720640Y-107274360D03*
G04 #@! TD*
G04 #@! TO.P,TP13,1*
G04 #@! TO.N,/PB3*
X105084880Y-107271820D03*
G04 #@! TD*
G04 #@! TO.P,TP17,1*
G04 #@! TO.N,/PB7*
X106357420Y-113217960D03*
G04 #@! TD*
G04 #@! TO.P,TP14,1*
G04 #@! TO.N,/PB4*
X105211880Y-108719620D03*
G04 #@! TD*
G04 #@! TO.P,TP9,1*
G04 #@! TO.N,/SPI_MOSI*
X120751600Y-105613200D03*
G04 #@! TD*
G04 #@! TO.P,TP6,1*
G04 #@! TO.N,/SPI_CS*
X119354600Y-105359200D03*
G04 #@! TD*
G04 #@! TO.P,TP8,1*
G04 #@! TO.N,/SPI_MISO*
X117932200Y-105283000D03*
G04 #@! TD*
D16*
G04 #@! TO.P,P3,1*
G04 #@! TO.N,/BOOT0*
X108712000Y-103251000D03*
D17*
G04 #@! TO.P,P3,2*
G04 #@! TO.N,+3V3*
X111252000Y-103251000D03*
G04 #@! TO.P,P3,3*
G04 #@! TO.N,/RXD*
X113792000Y-103251000D03*
G04 #@! TO.P,P3,4*
G04 #@! TO.N,/TXD*
X116332000Y-103251000D03*
G04 #@! TO.P,P3,5*
G04 #@! TO.N,GND*
X118872000Y-103251000D03*
G04 #@! TD*
D18*
G04 #@! TO.P,U1,2*
G04 #@! TO.N,+3V3*
X102870000Y-116611000D03*
D19*
X102870000Y-122911000D03*
G04 #@! TO.P,U1,3*
G04 #@! TO.N,+5V*
X105170000Y-122911000D03*
G04 #@! TO.P,U1,1*
G04 #@! TO.N,GND*
X100570000Y-122911000D03*
G04 #@! TD*
D13*
G04 #@! TO.P,TP5,1*
G04 #@! TO.N,/C15*
X110642400Y-117932200D03*
G04 #@! TD*
G04 #@! TO.P,TP4,1*
G04 #@! TO.N,/C14*
X109143800Y-117957600D03*
G04 #@! TD*
G04 #@! TO.P,TP3,1*
G04 #@! TO.N,/C13*
X107645200Y-117957600D03*
G04 #@! TD*
G04 #@! TO.P,TP1,1*
G04 #@! TO.N,/D6*
X120337580Y-112382300D03*
G04 #@! TD*
G04 #@! TO.P,TP2,1*
G04 #@! TO.N,/D7*
X119253000Y-111252000D03*
G04 #@! TD*
D11*
G04 #@! TO.N,GND*
G04 #@! TO.C,C1*
G36*
X92725504Y-120596204D02*
X92749773Y-120599804D01*
X92773571Y-120605765D01*
X92796671Y-120614030D01*
X92818849Y-120624520D01*
X92839893Y-120637133D01*
X92859598Y-120651747D01*
X92877777Y-120668223D01*
X92894253Y-120686402D01*
X92908867Y-120706107D01*
X92921480Y-120727151D01*
X92931970Y-120749329D01*
X92940235Y-120772429D01*
X92946196Y-120796227D01*
X92949796Y-120820496D01*
X92951000Y-120845000D01*
X92951000Y-122995000D01*
X92949796Y-123019504D01*
X92946196Y-123043773D01*
X92940235Y-123067571D01*
X92931970Y-123090671D01*
X92921480Y-123112849D01*
X92908867Y-123133893D01*
X92894253Y-123153598D01*
X92877777Y-123171777D01*
X92859598Y-123188253D01*
X92839893Y-123202867D01*
X92818849Y-123215480D01*
X92796671Y-123225970D01*
X92773571Y-123234235D01*
X92749773Y-123240196D01*
X92725504Y-123243796D01*
X92701000Y-123245000D01*
X91776000Y-123245000D01*
X91751496Y-123243796D01*
X91727227Y-123240196D01*
X91703429Y-123234235D01*
X91680329Y-123225970D01*
X91658151Y-123215480D01*
X91637107Y-123202867D01*
X91617402Y-123188253D01*
X91599223Y-123171777D01*
X91582747Y-123153598D01*
X91568133Y-123133893D01*
X91555520Y-123112849D01*
X91545030Y-123090671D01*
X91536765Y-123067571D01*
X91530804Y-123043773D01*
X91527204Y-123019504D01*
X91526000Y-122995000D01*
X91526000Y-120845000D01*
X91527204Y-120820496D01*
X91530804Y-120796227D01*
X91536765Y-120772429D01*
X91545030Y-120749329D01*
X91555520Y-120727151D01*
X91568133Y-120706107D01*
X91582747Y-120686402D01*
X91599223Y-120668223D01*
X91617402Y-120651747D01*
X91637107Y-120637133D01*
X91658151Y-120624520D01*
X91680329Y-120614030D01*
X91703429Y-120605765D01*
X91727227Y-120599804D01*
X91751496Y-120596204D01*
X91776000Y-120595000D01*
X92701000Y-120595000D01*
X92725504Y-120596204D01*
X92725504Y-120596204D01*
G37*
D20*
G04 #@! TD*
G04 #@! TO.P,C1,2*
G04 #@! TO.N,GND*
X92238500Y-121920000D03*
D11*
G04 #@! TO.N,+5V*
G04 #@! TO.C,C1*
G36*
X95700504Y-120596204D02*
X95724773Y-120599804D01*
X95748571Y-120605765D01*
X95771671Y-120614030D01*
X95793849Y-120624520D01*
X95814893Y-120637133D01*
X95834598Y-120651747D01*
X95852777Y-120668223D01*
X95869253Y-120686402D01*
X95883867Y-120706107D01*
X95896480Y-120727151D01*
X95906970Y-120749329D01*
X95915235Y-120772429D01*
X95921196Y-120796227D01*
X95924796Y-120820496D01*
X95926000Y-120845000D01*
X95926000Y-122995000D01*
X95924796Y-123019504D01*
X95921196Y-123043773D01*
X95915235Y-123067571D01*
X95906970Y-123090671D01*
X95896480Y-123112849D01*
X95883867Y-123133893D01*
X95869253Y-123153598D01*
X95852777Y-123171777D01*
X95834598Y-123188253D01*
X95814893Y-123202867D01*
X95793849Y-123215480D01*
X95771671Y-123225970D01*
X95748571Y-123234235D01*
X95724773Y-123240196D01*
X95700504Y-123243796D01*
X95676000Y-123245000D01*
X94751000Y-123245000D01*
X94726496Y-123243796D01*
X94702227Y-123240196D01*
X94678429Y-123234235D01*
X94655329Y-123225970D01*
X94633151Y-123215480D01*
X94612107Y-123202867D01*
X94592402Y-123188253D01*
X94574223Y-123171777D01*
X94557747Y-123153598D01*
X94543133Y-123133893D01*
X94530520Y-123112849D01*
X94520030Y-123090671D01*
X94511765Y-123067571D01*
X94505804Y-123043773D01*
X94502204Y-123019504D01*
X94501000Y-122995000D01*
X94501000Y-120845000D01*
X94502204Y-120820496D01*
X94505804Y-120796227D01*
X94511765Y-120772429D01*
X94520030Y-120749329D01*
X94530520Y-120727151D01*
X94543133Y-120706107D01*
X94557747Y-120686402D01*
X94574223Y-120668223D01*
X94592402Y-120651747D01*
X94612107Y-120637133D01*
X94633151Y-120624520D01*
X94655329Y-120614030D01*
X94678429Y-120605765D01*
X94702227Y-120599804D01*
X94726496Y-120596204D01*
X94751000Y-120595000D01*
X95676000Y-120595000D01*
X95700504Y-120596204D01*
X95700504Y-120596204D01*
G37*
D20*
G04 #@! TD*
G04 #@! TO.P,C1,1*
G04 #@! TO.N,+5V*
X95213500Y-121920000D03*
D11*
G04 #@! TO.N,+3V3*
G04 #@! TO.C,C7*
G36*
X109303504Y-119086204D02*
X109327773Y-119089804D01*
X109351571Y-119095765D01*
X109374671Y-119104030D01*
X109396849Y-119114520D01*
X109417893Y-119127133D01*
X109437598Y-119141747D01*
X109455777Y-119158223D01*
X109472253Y-119176402D01*
X109486867Y-119196107D01*
X109499480Y-119217151D01*
X109509970Y-119239329D01*
X109518235Y-119262429D01*
X109524196Y-119286227D01*
X109527796Y-119310496D01*
X109529000Y-119335000D01*
X109529000Y-120260000D01*
X109527796Y-120284504D01*
X109524196Y-120308773D01*
X109518235Y-120332571D01*
X109509970Y-120355671D01*
X109499480Y-120377849D01*
X109486867Y-120398893D01*
X109472253Y-120418598D01*
X109455777Y-120436777D01*
X109437598Y-120453253D01*
X109417893Y-120467867D01*
X109396849Y-120480480D01*
X109374671Y-120490970D01*
X109351571Y-120499235D01*
X109327773Y-120505196D01*
X109303504Y-120508796D01*
X109279000Y-120510000D01*
X107129000Y-120510000D01*
X107104496Y-120508796D01*
X107080227Y-120505196D01*
X107056429Y-120499235D01*
X107033329Y-120490970D01*
X107011151Y-120480480D01*
X106990107Y-120467867D01*
X106970402Y-120453253D01*
X106952223Y-120436777D01*
X106935747Y-120418598D01*
X106921133Y-120398893D01*
X106908520Y-120377849D01*
X106898030Y-120355671D01*
X106889765Y-120332571D01*
X106883804Y-120308773D01*
X106880204Y-120284504D01*
X106879000Y-120260000D01*
X106879000Y-119335000D01*
X106880204Y-119310496D01*
X106883804Y-119286227D01*
X106889765Y-119262429D01*
X106898030Y-119239329D01*
X106908520Y-119217151D01*
X106921133Y-119196107D01*
X106935747Y-119176402D01*
X106952223Y-119158223D01*
X106970402Y-119141747D01*
X106990107Y-119127133D01*
X107011151Y-119114520D01*
X107033329Y-119104030D01*
X107056429Y-119095765D01*
X107080227Y-119089804D01*
X107104496Y-119086204D01*
X107129000Y-119085000D01*
X109279000Y-119085000D01*
X109303504Y-119086204D01*
X109303504Y-119086204D01*
G37*
D20*
G04 #@! TD*
G04 #@! TO.P,C7,1*
G04 #@! TO.N,+3V3*
X108204000Y-119797500D03*
D11*
G04 #@! TO.N,GND*
G04 #@! TO.C,C7*
G36*
X109303504Y-122061204D02*
X109327773Y-122064804D01*
X109351571Y-122070765D01*
X109374671Y-122079030D01*
X109396849Y-122089520D01*
X109417893Y-122102133D01*
X109437598Y-122116747D01*
X109455777Y-122133223D01*
X109472253Y-122151402D01*
X109486867Y-122171107D01*
X109499480Y-122192151D01*
X109509970Y-122214329D01*
X109518235Y-122237429D01*
X109524196Y-122261227D01*
X109527796Y-122285496D01*
X109529000Y-122310000D01*
X109529000Y-123235000D01*
X109527796Y-123259504D01*
X109524196Y-123283773D01*
X109518235Y-123307571D01*
X109509970Y-123330671D01*
X109499480Y-123352849D01*
X109486867Y-123373893D01*
X109472253Y-123393598D01*
X109455777Y-123411777D01*
X109437598Y-123428253D01*
X109417893Y-123442867D01*
X109396849Y-123455480D01*
X109374671Y-123465970D01*
X109351571Y-123474235D01*
X109327773Y-123480196D01*
X109303504Y-123483796D01*
X109279000Y-123485000D01*
X107129000Y-123485000D01*
X107104496Y-123483796D01*
X107080227Y-123480196D01*
X107056429Y-123474235D01*
X107033329Y-123465970D01*
X107011151Y-123455480D01*
X106990107Y-123442867D01*
X106970402Y-123428253D01*
X106952223Y-123411777D01*
X106935747Y-123393598D01*
X106921133Y-123373893D01*
X106908520Y-123352849D01*
X106898030Y-123330671D01*
X106889765Y-123307571D01*
X106883804Y-123283773D01*
X106880204Y-123259504D01*
X106879000Y-123235000D01*
X106879000Y-122310000D01*
X106880204Y-122285496D01*
X106883804Y-122261227D01*
X106889765Y-122237429D01*
X106898030Y-122214329D01*
X106908520Y-122192151D01*
X106921133Y-122171107D01*
X106935747Y-122151402D01*
X106952223Y-122133223D01*
X106970402Y-122116747D01*
X106990107Y-122102133D01*
X107011151Y-122089520D01*
X107033329Y-122079030D01*
X107056429Y-122070765D01*
X107080227Y-122064804D01*
X107104496Y-122061204D01*
X107129000Y-122060000D01*
X109279000Y-122060000D01*
X109303504Y-122061204D01*
X109303504Y-122061204D01*
G37*
D20*
G04 #@! TD*
G04 #@! TO.P,C7,2*
G04 #@! TO.N,GND*
X108204000Y-122772500D03*
D11*
G04 #@! TO.N,GND*
G04 #@! TO.C,C9*
G36*
X104944705Y-104210204D02*
X104968973Y-104213804D01*
X104992772Y-104219765D01*
X105015871Y-104228030D01*
X105038050Y-104238520D01*
X105059093Y-104251132D01*
X105078799Y-104265747D01*
X105096977Y-104282223D01*
X105113453Y-104300401D01*
X105128068Y-104320107D01*
X105140680Y-104341150D01*
X105151170Y-104363329D01*
X105159435Y-104386428D01*
X105165396Y-104410227D01*
X105168996Y-104434495D01*
X105170200Y-104458999D01*
X105170200Y-105109001D01*
X105168996Y-105133505D01*
X105165396Y-105157773D01*
X105159435Y-105181572D01*
X105151170Y-105204671D01*
X105140680Y-105226850D01*
X105128068Y-105247893D01*
X105113453Y-105267599D01*
X105096977Y-105285777D01*
X105078799Y-105302253D01*
X105059093Y-105316868D01*
X105038050Y-105329480D01*
X105015871Y-105339970D01*
X104992772Y-105348235D01*
X104968973Y-105354196D01*
X104944705Y-105357796D01*
X104920201Y-105359000D01*
X104020199Y-105359000D01*
X103995695Y-105357796D01*
X103971427Y-105354196D01*
X103947628Y-105348235D01*
X103924529Y-105339970D01*
X103902350Y-105329480D01*
X103881307Y-105316868D01*
X103861601Y-105302253D01*
X103843423Y-105285777D01*
X103826947Y-105267599D01*
X103812332Y-105247893D01*
X103799720Y-105226850D01*
X103789230Y-105204671D01*
X103780965Y-105181572D01*
X103775004Y-105157773D01*
X103771404Y-105133505D01*
X103770200Y-105109001D01*
X103770200Y-104458999D01*
X103771404Y-104434495D01*
X103775004Y-104410227D01*
X103780965Y-104386428D01*
X103789230Y-104363329D01*
X103799720Y-104341150D01*
X103812332Y-104320107D01*
X103826947Y-104300401D01*
X103843423Y-104282223D01*
X103861601Y-104265747D01*
X103881307Y-104251132D01*
X103902350Y-104238520D01*
X103924529Y-104228030D01*
X103947628Y-104219765D01*
X103971427Y-104213804D01*
X103995695Y-104210204D01*
X104020199Y-104209000D01*
X104920201Y-104209000D01*
X104944705Y-104210204D01*
X104944705Y-104210204D01*
G37*
D12*
G04 #@! TD*
G04 #@! TO.P,C9,1*
G04 #@! TO.N,GND*
X104470200Y-104784000D03*
D11*
G04 #@! TO.N,/RST*
G04 #@! TO.C,C9*
G36*
X104944705Y-102160204D02*
X104968973Y-102163804D01*
X104992772Y-102169765D01*
X105015871Y-102178030D01*
X105038050Y-102188520D01*
X105059093Y-102201132D01*
X105078799Y-102215747D01*
X105096977Y-102232223D01*
X105113453Y-102250401D01*
X105128068Y-102270107D01*
X105140680Y-102291150D01*
X105151170Y-102313329D01*
X105159435Y-102336428D01*
X105165396Y-102360227D01*
X105168996Y-102384495D01*
X105170200Y-102408999D01*
X105170200Y-103059001D01*
X105168996Y-103083505D01*
X105165396Y-103107773D01*
X105159435Y-103131572D01*
X105151170Y-103154671D01*
X105140680Y-103176850D01*
X105128068Y-103197893D01*
X105113453Y-103217599D01*
X105096977Y-103235777D01*
X105078799Y-103252253D01*
X105059093Y-103266868D01*
X105038050Y-103279480D01*
X105015871Y-103289970D01*
X104992772Y-103298235D01*
X104968973Y-103304196D01*
X104944705Y-103307796D01*
X104920201Y-103309000D01*
X104020199Y-103309000D01*
X103995695Y-103307796D01*
X103971427Y-103304196D01*
X103947628Y-103298235D01*
X103924529Y-103289970D01*
X103902350Y-103279480D01*
X103881307Y-103266868D01*
X103861601Y-103252253D01*
X103843423Y-103235777D01*
X103826947Y-103217599D01*
X103812332Y-103197893D01*
X103799720Y-103176850D01*
X103789230Y-103154671D01*
X103780965Y-103131572D01*
X103775004Y-103107773D01*
X103771404Y-103083505D01*
X103770200Y-103059001D01*
X103770200Y-102408999D01*
X103771404Y-102384495D01*
X103775004Y-102360227D01*
X103780965Y-102336428D01*
X103789230Y-102313329D01*
X103799720Y-102291150D01*
X103812332Y-102270107D01*
X103826947Y-102250401D01*
X103843423Y-102232223D01*
X103861601Y-102215747D01*
X103881307Y-102201132D01*
X103902350Y-102188520D01*
X103924529Y-102178030D01*
X103947628Y-102169765D01*
X103971427Y-102163804D01*
X103995695Y-102160204D01*
X104020199Y-102159000D01*
X104920201Y-102159000D01*
X104944705Y-102160204D01*
X104944705Y-102160204D01*
G37*
D12*
G04 #@! TD*
G04 #@! TO.P,C9,2*
G04 #@! TO.N,/RST*
X104470200Y-102734000D03*
D11*
G04 #@! TO.N,GND*
G04 #@! TO.C,C2*
G36*
X106722705Y-102160204D02*
X106746973Y-102163804D01*
X106770772Y-102169765D01*
X106793871Y-102178030D01*
X106816050Y-102188520D01*
X106837093Y-102201132D01*
X106856799Y-102215747D01*
X106874977Y-102232223D01*
X106891453Y-102250401D01*
X106906068Y-102270107D01*
X106918680Y-102291150D01*
X106929170Y-102313329D01*
X106937435Y-102336428D01*
X106943396Y-102360227D01*
X106946996Y-102384495D01*
X106948200Y-102408999D01*
X106948200Y-103059001D01*
X106946996Y-103083505D01*
X106943396Y-103107773D01*
X106937435Y-103131572D01*
X106929170Y-103154671D01*
X106918680Y-103176850D01*
X106906068Y-103197893D01*
X106891453Y-103217599D01*
X106874977Y-103235777D01*
X106856799Y-103252253D01*
X106837093Y-103266868D01*
X106816050Y-103279480D01*
X106793871Y-103289970D01*
X106770772Y-103298235D01*
X106746973Y-103304196D01*
X106722705Y-103307796D01*
X106698201Y-103309000D01*
X105798199Y-103309000D01*
X105773695Y-103307796D01*
X105749427Y-103304196D01*
X105725628Y-103298235D01*
X105702529Y-103289970D01*
X105680350Y-103279480D01*
X105659307Y-103266868D01*
X105639601Y-103252253D01*
X105621423Y-103235777D01*
X105604947Y-103217599D01*
X105590332Y-103197893D01*
X105577720Y-103176850D01*
X105567230Y-103154671D01*
X105558965Y-103131572D01*
X105553004Y-103107773D01*
X105549404Y-103083505D01*
X105548200Y-103059001D01*
X105548200Y-102408999D01*
X105549404Y-102384495D01*
X105553004Y-102360227D01*
X105558965Y-102336428D01*
X105567230Y-102313329D01*
X105577720Y-102291150D01*
X105590332Y-102270107D01*
X105604947Y-102250401D01*
X105621423Y-102232223D01*
X105639601Y-102215747D01*
X105659307Y-102201132D01*
X105680350Y-102188520D01*
X105702529Y-102178030D01*
X105725628Y-102169765D01*
X105749427Y-102163804D01*
X105773695Y-102160204D01*
X105798199Y-102159000D01*
X106698201Y-102159000D01*
X106722705Y-102160204D01*
X106722705Y-102160204D01*
G37*
D12*
G04 #@! TD*
G04 #@! TO.P,C2,2*
G04 #@! TO.N,GND*
X106248200Y-102734000D03*
D11*
G04 #@! TO.N,+3V3*
G04 #@! TO.C,C2*
G36*
X106722705Y-104210204D02*
X106746973Y-104213804D01*
X106770772Y-104219765D01*
X106793871Y-104228030D01*
X106816050Y-104238520D01*
X106837093Y-104251132D01*
X106856799Y-104265747D01*
X106874977Y-104282223D01*
X106891453Y-104300401D01*
X106906068Y-104320107D01*
X106918680Y-104341150D01*
X106929170Y-104363329D01*
X106937435Y-104386428D01*
X106943396Y-104410227D01*
X106946996Y-104434495D01*
X106948200Y-104458999D01*
X106948200Y-105109001D01*
X106946996Y-105133505D01*
X106943396Y-105157773D01*
X106937435Y-105181572D01*
X106929170Y-105204671D01*
X106918680Y-105226850D01*
X106906068Y-105247893D01*
X106891453Y-105267599D01*
X106874977Y-105285777D01*
X106856799Y-105302253D01*
X106837093Y-105316868D01*
X106816050Y-105329480D01*
X106793871Y-105339970D01*
X106770772Y-105348235D01*
X106746973Y-105354196D01*
X106722705Y-105357796D01*
X106698201Y-105359000D01*
X105798199Y-105359000D01*
X105773695Y-105357796D01*
X105749427Y-105354196D01*
X105725628Y-105348235D01*
X105702529Y-105339970D01*
X105680350Y-105329480D01*
X105659307Y-105316868D01*
X105639601Y-105302253D01*
X105621423Y-105285777D01*
X105604947Y-105267599D01*
X105590332Y-105247893D01*
X105577720Y-105226850D01*
X105567230Y-105204671D01*
X105558965Y-105181572D01*
X105553004Y-105157773D01*
X105549404Y-105133505D01*
X105548200Y-105109001D01*
X105548200Y-104458999D01*
X105549404Y-104434495D01*
X105553004Y-104410227D01*
X105558965Y-104386428D01*
X105567230Y-104363329D01*
X105577720Y-104341150D01*
X105590332Y-104320107D01*
X105604947Y-104300401D01*
X105621423Y-104282223D01*
X105639601Y-104265747D01*
X105659307Y-104251132D01*
X105680350Y-104238520D01*
X105702529Y-104228030D01*
X105725628Y-104219765D01*
X105749427Y-104213804D01*
X105773695Y-104210204D01*
X105798199Y-104209000D01*
X106698201Y-104209000D01*
X106722705Y-104210204D01*
X106722705Y-104210204D01*
G37*
D12*
G04 #@! TD*
G04 #@! TO.P,C2,1*
G04 #@! TO.N,+3V3*
X106248200Y-104784000D03*
D11*
G04 #@! TO.N,+3V3*
G04 #@! TO.C,C3*
G36*
X98645505Y-120321204D02*
X98669773Y-120324804D01*
X98693572Y-120330765D01*
X98716671Y-120339030D01*
X98738850Y-120349520D01*
X98759893Y-120362132D01*
X98779599Y-120376747D01*
X98797777Y-120393223D01*
X98814253Y-120411401D01*
X98828868Y-120431107D01*
X98841480Y-120452150D01*
X98851970Y-120474329D01*
X98860235Y-120497428D01*
X98866196Y-120521227D01*
X98869796Y-120545495D01*
X98871000Y-120569999D01*
X98871000Y-121220001D01*
X98869796Y-121244505D01*
X98866196Y-121268773D01*
X98860235Y-121292572D01*
X98851970Y-121315671D01*
X98841480Y-121337850D01*
X98828868Y-121358893D01*
X98814253Y-121378599D01*
X98797777Y-121396777D01*
X98779599Y-121413253D01*
X98759893Y-121427868D01*
X98738850Y-121440480D01*
X98716671Y-121450970D01*
X98693572Y-121459235D01*
X98669773Y-121465196D01*
X98645505Y-121468796D01*
X98621001Y-121470000D01*
X97720999Y-121470000D01*
X97696495Y-121468796D01*
X97672227Y-121465196D01*
X97648428Y-121459235D01*
X97625329Y-121450970D01*
X97603150Y-121440480D01*
X97582107Y-121427868D01*
X97562401Y-121413253D01*
X97544223Y-121396777D01*
X97527747Y-121378599D01*
X97513132Y-121358893D01*
X97500520Y-121337850D01*
X97490030Y-121315671D01*
X97481765Y-121292572D01*
X97475804Y-121268773D01*
X97472204Y-121244505D01*
X97471000Y-121220001D01*
X97471000Y-120569999D01*
X97472204Y-120545495D01*
X97475804Y-120521227D01*
X97481765Y-120497428D01*
X97490030Y-120474329D01*
X97500520Y-120452150D01*
X97513132Y-120431107D01*
X97527747Y-120411401D01*
X97544223Y-120393223D01*
X97562401Y-120376747D01*
X97582107Y-120362132D01*
X97603150Y-120349520D01*
X97625329Y-120339030D01*
X97648428Y-120330765D01*
X97672227Y-120324804D01*
X97696495Y-120321204D01*
X97720999Y-120320000D01*
X98621001Y-120320000D01*
X98645505Y-120321204D01*
X98645505Y-120321204D01*
G37*
D12*
G04 #@! TD*
G04 #@! TO.P,C3,1*
G04 #@! TO.N,+3V3*
X98171000Y-120895000D03*
D11*
G04 #@! TO.N,GND*
G04 #@! TO.C,C3*
G36*
X98645505Y-122371204D02*
X98669773Y-122374804D01*
X98693572Y-122380765D01*
X98716671Y-122389030D01*
X98738850Y-122399520D01*
X98759893Y-122412132D01*
X98779599Y-122426747D01*
X98797777Y-122443223D01*
X98814253Y-122461401D01*
X98828868Y-122481107D01*
X98841480Y-122502150D01*
X98851970Y-122524329D01*
X98860235Y-122547428D01*
X98866196Y-122571227D01*
X98869796Y-122595495D01*
X98871000Y-122619999D01*
X98871000Y-123270001D01*
X98869796Y-123294505D01*
X98866196Y-123318773D01*
X98860235Y-123342572D01*
X98851970Y-123365671D01*
X98841480Y-123387850D01*
X98828868Y-123408893D01*
X98814253Y-123428599D01*
X98797777Y-123446777D01*
X98779599Y-123463253D01*
X98759893Y-123477868D01*
X98738850Y-123490480D01*
X98716671Y-123500970D01*
X98693572Y-123509235D01*
X98669773Y-123515196D01*
X98645505Y-123518796D01*
X98621001Y-123520000D01*
X97720999Y-123520000D01*
X97696495Y-123518796D01*
X97672227Y-123515196D01*
X97648428Y-123509235D01*
X97625329Y-123500970D01*
X97603150Y-123490480D01*
X97582107Y-123477868D01*
X97562401Y-123463253D01*
X97544223Y-123446777D01*
X97527747Y-123428599D01*
X97513132Y-123408893D01*
X97500520Y-123387850D01*
X97490030Y-123365671D01*
X97481765Y-123342572D01*
X97475804Y-123318773D01*
X97472204Y-123294505D01*
X97471000Y-123270001D01*
X97471000Y-122619999D01*
X97472204Y-122595495D01*
X97475804Y-122571227D01*
X97481765Y-122547428D01*
X97490030Y-122524329D01*
X97500520Y-122502150D01*
X97513132Y-122481107D01*
X97527747Y-122461401D01*
X97544223Y-122443223D01*
X97562401Y-122426747D01*
X97582107Y-122412132D01*
X97603150Y-122399520D01*
X97625329Y-122389030D01*
X97648428Y-122380765D01*
X97672227Y-122374804D01*
X97696495Y-122371204D01*
X97720999Y-122370000D01*
X98621001Y-122370000D01*
X98645505Y-122371204D01*
X98645505Y-122371204D01*
G37*
D12*
G04 #@! TD*
G04 #@! TO.P,C3,2*
G04 #@! TO.N,GND*
X98171000Y-122945000D03*
D11*
G04 #@! TO.N,/OSC_OUT*
G04 #@! TO.C,C5*
G36*
X118951105Y-117538204D02*
X118975373Y-117541804D01*
X118999172Y-117547765D01*
X119022271Y-117556030D01*
X119044450Y-117566520D01*
X119065493Y-117579132D01*
X119085199Y-117593747D01*
X119103377Y-117610223D01*
X119119853Y-117628401D01*
X119134468Y-117648107D01*
X119147080Y-117669150D01*
X119157570Y-117691329D01*
X119165835Y-117714428D01*
X119171796Y-117738227D01*
X119175396Y-117762495D01*
X119176600Y-117786999D01*
X119176600Y-118687001D01*
X119175396Y-118711505D01*
X119171796Y-118735773D01*
X119165835Y-118759572D01*
X119157570Y-118782671D01*
X119147080Y-118804850D01*
X119134468Y-118825893D01*
X119119853Y-118845599D01*
X119103377Y-118863777D01*
X119085199Y-118880253D01*
X119065493Y-118894868D01*
X119044450Y-118907480D01*
X119022271Y-118917970D01*
X118999172Y-118926235D01*
X118975373Y-118932196D01*
X118951105Y-118935796D01*
X118926601Y-118937000D01*
X118276599Y-118937000D01*
X118252095Y-118935796D01*
X118227827Y-118932196D01*
X118204028Y-118926235D01*
X118180929Y-118917970D01*
X118158750Y-118907480D01*
X118137707Y-118894868D01*
X118118001Y-118880253D01*
X118099823Y-118863777D01*
X118083347Y-118845599D01*
X118068732Y-118825893D01*
X118056120Y-118804850D01*
X118045630Y-118782671D01*
X118037365Y-118759572D01*
X118031404Y-118735773D01*
X118027804Y-118711505D01*
X118026600Y-118687001D01*
X118026600Y-117786999D01*
X118027804Y-117762495D01*
X118031404Y-117738227D01*
X118037365Y-117714428D01*
X118045630Y-117691329D01*
X118056120Y-117669150D01*
X118068732Y-117648107D01*
X118083347Y-117628401D01*
X118099823Y-117610223D01*
X118118001Y-117593747D01*
X118137707Y-117579132D01*
X118158750Y-117566520D01*
X118180929Y-117556030D01*
X118204028Y-117547765D01*
X118227827Y-117541804D01*
X118252095Y-117538204D01*
X118276599Y-117537000D01*
X118926601Y-117537000D01*
X118951105Y-117538204D01*
X118951105Y-117538204D01*
G37*
D12*
G04 #@! TD*
G04 #@! TO.P,C5,1*
G04 #@! TO.N,/OSC_OUT*
X118601600Y-118237000D03*
D11*
G04 #@! TO.N,GND*
G04 #@! TO.C,C5*
G36*
X116901105Y-117538204D02*
X116925373Y-117541804D01*
X116949172Y-117547765D01*
X116972271Y-117556030D01*
X116994450Y-117566520D01*
X117015493Y-117579132D01*
X117035199Y-117593747D01*
X117053377Y-117610223D01*
X117069853Y-117628401D01*
X117084468Y-117648107D01*
X117097080Y-117669150D01*
X117107570Y-117691329D01*
X117115835Y-117714428D01*
X117121796Y-117738227D01*
X117125396Y-117762495D01*
X117126600Y-117786999D01*
X117126600Y-118687001D01*
X117125396Y-118711505D01*
X117121796Y-118735773D01*
X117115835Y-118759572D01*
X117107570Y-118782671D01*
X117097080Y-118804850D01*
X117084468Y-118825893D01*
X117069853Y-118845599D01*
X117053377Y-118863777D01*
X117035199Y-118880253D01*
X117015493Y-118894868D01*
X116994450Y-118907480D01*
X116972271Y-118917970D01*
X116949172Y-118926235D01*
X116925373Y-118932196D01*
X116901105Y-118935796D01*
X116876601Y-118937000D01*
X116226599Y-118937000D01*
X116202095Y-118935796D01*
X116177827Y-118932196D01*
X116154028Y-118926235D01*
X116130929Y-118917970D01*
X116108750Y-118907480D01*
X116087707Y-118894868D01*
X116068001Y-118880253D01*
X116049823Y-118863777D01*
X116033347Y-118845599D01*
X116018732Y-118825893D01*
X116006120Y-118804850D01*
X115995630Y-118782671D01*
X115987365Y-118759572D01*
X115981404Y-118735773D01*
X115977804Y-118711505D01*
X115976600Y-118687001D01*
X115976600Y-117786999D01*
X115977804Y-117762495D01*
X115981404Y-117738227D01*
X115987365Y-117714428D01*
X115995630Y-117691329D01*
X116006120Y-117669150D01*
X116018732Y-117648107D01*
X116033347Y-117628401D01*
X116049823Y-117610223D01*
X116068001Y-117593747D01*
X116087707Y-117579132D01*
X116108750Y-117566520D01*
X116130929Y-117556030D01*
X116154028Y-117547765D01*
X116177827Y-117541804D01*
X116202095Y-117538204D01*
X116226599Y-117537000D01*
X116876601Y-117537000D01*
X116901105Y-117538204D01*
X116901105Y-117538204D01*
G37*
D12*
G04 #@! TD*
G04 #@! TO.P,C5,2*
G04 #@! TO.N,GND*
X116551600Y-118237000D03*
D11*
G04 #@! TO.N,/D0_OUT*
G04 #@! TO.C,R18*
G36*
X134078505Y-104718204D02*
X134102773Y-104721804D01*
X134126572Y-104727765D01*
X134149671Y-104736030D01*
X134171850Y-104746520D01*
X134192893Y-104759132D01*
X134212599Y-104773747D01*
X134230777Y-104790223D01*
X134247253Y-104808401D01*
X134261868Y-104828107D01*
X134274480Y-104849150D01*
X134284970Y-104871329D01*
X134293235Y-104894428D01*
X134299196Y-104918227D01*
X134302796Y-104942495D01*
X134304000Y-104966999D01*
X134304000Y-105617001D01*
X134302796Y-105641505D01*
X134299196Y-105665773D01*
X134293235Y-105689572D01*
X134284970Y-105712671D01*
X134274480Y-105734850D01*
X134261868Y-105755893D01*
X134247253Y-105775599D01*
X134230777Y-105793777D01*
X134212599Y-105810253D01*
X134192893Y-105824868D01*
X134171850Y-105837480D01*
X134149671Y-105847970D01*
X134126572Y-105856235D01*
X134102773Y-105862196D01*
X134078505Y-105865796D01*
X134054001Y-105867000D01*
X133153999Y-105867000D01*
X133129495Y-105865796D01*
X133105227Y-105862196D01*
X133081428Y-105856235D01*
X133058329Y-105847970D01*
X133036150Y-105837480D01*
X133015107Y-105824868D01*
X132995401Y-105810253D01*
X132977223Y-105793777D01*
X132960747Y-105775599D01*
X132946132Y-105755893D01*
X132933520Y-105734850D01*
X132923030Y-105712671D01*
X132914765Y-105689572D01*
X132908804Y-105665773D01*
X132905204Y-105641505D01*
X132904000Y-105617001D01*
X132904000Y-104966999D01*
X132905204Y-104942495D01*
X132908804Y-104918227D01*
X132914765Y-104894428D01*
X132923030Y-104871329D01*
X132933520Y-104849150D01*
X132946132Y-104828107D01*
X132960747Y-104808401D01*
X132977223Y-104790223D01*
X132995401Y-104773747D01*
X133015107Y-104759132D01*
X133036150Y-104746520D01*
X133058329Y-104736030D01*
X133081428Y-104727765D01*
X133105227Y-104721804D01*
X133129495Y-104718204D01*
X133153999Y-104717000D01*
X134054001Y-104717000D01*
X134078505Y-104718204D01*
X134078505Y-104718204D01*
G37*
D12*
G04 #@! TD*
G04 #@! TO.P,R18,1*
G04 #@! TO.N,/D0_OUT*
X133604000Y-105292000D03*
D11*
G04 #@! TO.N,+3V3*
G04 #@! TO.C,R18*
G36*
X134078505Y-102668204D02*
X134102773Y-102671804D01*
X134126572Y-102677765D01*
X134149671Y-102686030D01*
X134171850Y-102696520D01*
X134192893Y-102709132D01*
X134212599Y-102723747D01*
X134230777Y-102740223D01*
X134247253Y-102758401D01*
X134261868Y-102778107D01*
X134274480Y-102799150D01*
X134284970Y-102821329D01*
X134293235Y-102844428D01*
X134299196Y-102868227D01*
X134302796Y-102892495D01*
X134304000Y-102916999D01*
X134304000Y-103567001D01*
X134302796Y-103591505D01*
X134299196Y-103615773D01*
X134293235Y-103639572D01*
X134284970Y-103662671D01*
X134274480Y-103684850D01*
X134261868Y-103705893D01*
X134247253Y-103725599D01*
X134230777Y-103743777D01*
X134212599Y-103760253D01*
X134192893Y-103774868D01*
X134171850Y-103787480D01*
X134149671Y-103797970D01*
X134126572Y-103806235D01*
X134102773Y-103812196D01*
X134078505Y-103815796D01*
X134054001Y-103817000D01*
X133153999Y-103817000D01*
X133129495Y-103815796D01*
X133105227Y-103812196D01*
X133081428Y-103806235D01*
X133058329Y-103797970D01*
X133036150Y-103787480D01*
X133015107Y-103774868D01*
X132995401Y-103760253D01*
X132977223Y-103743777D01*
X132960747Y-103725599D01*
X132946132Y-103705893D01*
X132933520Y-103684850D01*
X132923030Y-103662671D01*
X132914765Y-103639572D01*
X132908804Y-103615773D01*
X132905204Y-103591505D01*
X132904000Y-103567001D01*
X132904000Y-102916999D01*
X132905204Y-102892495D01*
X132908804Y-102868227D01*
X132914765Y-102844428D01*
X132923030Y-102821329D01*
X132933520Y-102799150D01*
X132946132Y-102778107D01*
X132960747Y-102758401D01*
X132977223Y-102740223D01*
X132995401Y-102723747D01*
X133015107Y-102709132D01*
X133036150Y-102696520D01*
X133058329Y-102686030D01*
X133081428Y-102677765D01*
X133105227Y-102671804D01*
X133129495Y-102668204D01*
X133153999Y-102667000D01*
X134054001Y-102667000D01*
X134078505Y-102668204D01*
X134078505Y-102668204D01*
G37*
D12*
G04 #@! TD*
G04 #@! TO.P,R18,2*
G04 #@! TO.N,+3V3*
X133604000Y-103242000D03*
D11*
G04 #@! TO.N,/D5*
G04 #@! TO.C,R13*
G36*
X126324505Y-114363204D02*
X126348773Y-114366804D01*
X126372572Y-114372765D01*
X126395671Y-114381030D01*
X126417850Y-114391520D01*
X126438893Y-114404132D01*
X126458599Y-114418747D01*
X126476777Y-114435223D01*
X126493253Y-114453401D01*
X126507868Y-114473107D01*
X126520480Y-114494150D01*
X126530970Y-114516329D01*
X126539235Y-114539428D01*
X126545196Y-114563227D01*
X126548796Y-114587495D01*
X126550000Y-114611999D01*
X126550000Y-115512001D01*
X126548796Y-115536505D01*
X126545196Y-115560773D01*
X126539235Y-115584572D01*
X126530970Y-115607671D01*
X126520480Y-115629850D01*
X126507868Y-115650893D01*
X126493253Y-115670599D01*
X126476777Y-115688777D01*
X126458599Y-115705253D01*
X126438893Y-115719868D01*
X126417850Y-115732480D01*
X126395671Y-115742970D01*
X126372572Y-115751235D01*
X126348773Y-115757196D01*
X126324505Y-115760796D01*
X126300001Y-115762000D01*
X125649999Y-115762000D01*
X125625495Y-115760796D01*
X125601227Y-115757196D01*
X125577428Y-115751235D01*
X125554329Y-115742970D01*
X125532150Y-115732480D01*
X125511107Y-115719868D01*
X125491401Y-115705253D01*
X125473223Y-115688777D01*
X125456747Y-115670599D01*
X125442132Y-115650893D01*
X125429520Y-115629850D01*
X125419030Y-115607671D01*
X125410765Y-115584572D01*
X125404804Y-115560773D01*
X125401204Y-115536505D01*
X125400000Y-115512001D01*
X125400000Y-114611999D01*
X125401204Y-114587495D01*
X125404804Y-114563227D01*
X125410765Y-114539428D01*
X125419030Y-114516329D01*
X125429520Y-114494150D01*
X125442132Y-114473107D01*
X125456747Y-114453401D01*
X125473223Y-114435223D01*
X125491401Y-114418747D01*
X125511107Y-114404132D01*
X125532150Y-114391520D01*
X125554329Y-114381030D01*
X125577428Y-114372765D01*
X125601227Y-114366804D01*
X125625495Y-114363204D01*
X125649999Y-114362000D01*
X126300001Y-114362000D01*
X126324505Y-114363204D01*
X126324505Y-114363204D01*
G37*
D12*
G04 #@! TD*
G04 #@! TO.P,R13,2*
G04 #@! TO.N,/D5*
X125975000Y-115062000D03*
D11*
G04 #@! TO.N,/D5_OUT*
G04 #@! TO.C,R13*
G36*
X128374505Y-114363204D02*
X128398773Y-114366804D01*
X128422572Y-114372765D01*
X128445671Y-114381030D01*
X128467850Y-114391520D01*
X128488893Y-114404132D01*
X128508599Y-114418747D01*
X128526777Y-114435223D01*
X128543253Y-114453401D01*
X128557868Y-114473107D01*
X128570480Y-114494150D01*
X128580970Y-114516329D01*
X128589235Y-114539428D01*
X128595196Y-114563227D01*
X128598796Y-114587495D01*
X128600000Y-114611999D01*
X128600000Y-115512001D01*
X128598796Y-115536505D01*
X128595196Y-115560773D01*
X128589235Y-115584572D01*
X128580970Y-115607671D01*
X128570480Y-115629850D01*
X128557868Y-115650893D01*
X128543253Y-115670599D01*
X128526777Y-115688777D01*
X128508599Y-115705253D01*
X128488893Y-115719868D01*
X128467850Y-115732480D01*
X128445671Y-115742970D01*
X128422572Y-115751235D01*
X128398773Y-115757196D01*
X128374505Y-115760796D01*
X128350001Y-115762000D01*
X127699999Y-115762000D01*
X127675495Y-115760796D01*
X127651227Y-115757196D01*
X127627428Y-115751235D01*
X127604329Y-115742970D01*
X127582150Y-115732480D01*
X127561107Y-115719868D01*
X127541401Y-115705253D01*
X127523223Y-115688777D01*
X127506747Y-115670599D01*
X127492132Y-115650893D01*
X127479520Y-115629850D01*
X127469030Y-115607671D01*
X127460765Y-115584572D01*
X127454804Y-115560773D01*
X127451204Y-115536505D01*
X127450000Y-115512001D01*
X127450000Y-114611999D01*
X127451204Y-114587495D01*
X127454804Y-114563227D01*
X127460765Y-114539428D01*
X127469030Y-114516329D01*
X127479520Y-114494150D01*
X127492132Y-114473107D01*
X127506747Y-114453401D01*
X127523223Y-114435223D01*
X127541401Y-114418747D01*
X127561107Y-114404132D01*
X127582150Y-114391520D01*
X127604329Y-114381030D01*
X127627428Y-114372765D01*
X127651227Y-114366804D01*
X127675495Y-114363204D01*
X127699999Y-114362000D01*
X128350001Y-114362000D01*
X128374505Y-114363204D01*
X128374505Y-114363204D01*
G37*
D12*
G04 #@! TD*
G04 #@! TO.P,R13,1*
G04 #@! TO.N,/D5_OUT*
X128025000Y-115062000D03*
D11*
G04 #@! TO.N,Net-(D2-Pad3)*
G04 #@! TO.C,R16*
G36*
X124756705Y-122218804D02*
X124780973Y-122222404D01*
X124804772Y-122228365D01*
X124827871Y-122236630D01*
X124850050Y-122247120D01*
X124871093Y-122259732D01*
X124890799Y-122274347D01*
X124908977Y-122290823D01*
X124925453Y-122309001D01*
X124940068Y-122328707D01*
X124952680Y-122349750D01*
X124963170Y-122371929D01*
X124971435Y-122395028D01*
X124977396Y-122418827D01*
X124980996Y-122443095D01*
X124982200Y-122467599D01*
X124982200Y-123117601D01*
X124980996Y-123142105D01*
X124977396Y-123166373D01*
X124971435Y-123190172D01*
X124963170Y-123213271D01*
X124952680Y-123235450D01*
X124940068Y-123256493D01*
X124925453Y-123276199D01*
X124908977Y-123294377D01*
X124890799Y-123310853D01*
X124871093Y-123325468D01*
X124850050Y-123338080D01*
X124827871Y-123348570D01*
X124804772Y-123356835D01*
X124780973Y-123362796D01*
X124756705Y-123366396D01*
X124732201Y-123367600D01*
X123832199Y-123367600D01*
X123807695Y-123366396D01*
X123783427Y-123362796D01*
X123759628Y-123356835D01*
X123736529Y-123348570D01*
X123714350Y-123338080D01*
X123693307Y-123325468D01*
X123673601Y-123310853D01*
X123655423Y-123294377D01*
X123638947Y-123276199D01*
X123624332Y-123256493D01*
X123611720Y-123235450D01*
X123601230Y-123213271D01*
X123592965Y-123190172D01*
X123587004Y-123166373D01*
X123583404Y-123142105D01*
X123582200Y-123117601D01*
X123582200Y-122467599D01*
X123583404Y-122443095D01*
X123587004Y-122418827D01*
X123592965Y-122395028D01*
X123601230Y-122371929D01*
X123611720Y-122349750D01*
X123624332Y-122328707D01*
X123638947Y-122309001D01*
X123655423Y-122290823D01*
X123673601Y-122274347D01*
X123693307Y-122259732D01*
X123714350Y-122247120D01*
X123736529Y-122236630D01*
X123759628Y-122228365D01*
X123783427Y-122222404D01*
X123807695Y-122218804D01*
X123832199Y-122217600D01*
X124732201Y-122217600D01*
X124756705Y-122218804D01*
X124756705Y-122218804D01*
G37*
D12*
G04 #@! TD*
G04 #@! TO.P,R16,1*
G04 #@! TO.N,Net-(D2-Pad3)*
X124282200Y-122792600D03*
D11*
G04 #@! TO.N,/LED_R1*
G04 #@! TO.C,R16*
G36*
X124756705Y-120168804D02*
X124780973Y-120172404D01*
X124804772Y-120178365D01*
X124827871Y-120186630D01*
X124850050Y-120197120D01*
X124871093Y-120209732D01*
X124890799Y-120224347D01*
X124908977Y-120240823D01*
X124925453Y-120259001D01*
X124940068Y-120278707D01*
X124952680Y-120299750D01*
X124963170Y-120321929D01*
X124971435Y-120345028D01*
X124977396Y-120368827D01*
X124980996Y-120393095D01*
X124982200Y-120417599D01*
X124982200Y-121067601D01*
X124980996Y-121092105D01*
X124977396Y-121116373D01*
X124971435Y-121140172D01*
X124963170Y-121163271D01*
X124952680Y-121185450D01*
X124940068Y-121206493D01*
X124925453Y-121226199D01*
X124908977Y-121244377D01*
X124890799Y-121260853D01*
X124871093Y-121275468D01*
X124850050Y-121288080D01*
X124827871Y-121298570D01*
X124804772Y-121306835D01*
X124780973Y-121312796D01*
X124756705Y-121316396D01*
X124732201Y-121317600D01*
X123832199Y-121317600D01*
X123807695Y-121316396D01*
X123783427Y-121312796D01*
X123759628Y-121306835D01*
X123736529Y-121298570D01*
X123714350Y-121288080D01*
X123693307Y-121275468D01*
X123673601Y-121260853D01*
X123655423Y-121244377D01*
X123638947Y-121226199D01*
X123624332Y-121206493D01*
X123611720Y-121185450D01*
X123601230Y-121163271D01*
X123592965Y-121140172D01*
X123587004Y-121116373D01*
X123583404Y-121092105D01*
X123582200Y-121067601D01*
X123582200Y-120417599D01*
X123583404Y-120393095D01*
X123587004Y-120368827D01*
X123592965Y-120345028D01*
X123601230Y-120321929D01*
X123611720Y-120299750D01*
X123624332Y-120278707D01*
X123638947Y-120259001D01*
X123655423Y-120240823D01*
X123673601Y-120224347D01*
X123693307Y-120209732D01*
X123714350Y-120197120D01*
X123736529Y-120186630D01*
X123759628Y-120178365D01*
X123783427Y-120172404D01*
X123807695Y-120168804D01*
X123832199Y-120167600D01*
X124732201Y-120167600D01*
X124756705Y-120168804D01*
X124756705Y-120168804D01*
G37*
D12*
G04 #@! TD*
G04 #@! TO.P,R16,2*
G04 #@! TO.N,/LED_R1*
X124282200Y-120742600D03*
D11*
G04 #@! TO.N,/LED_R0*
G04 #@! TO.C,R15*
G36*
X122006505Y-103568204D02*
X122030773Y-103571804D01*
X122054572Y-103577765D01*
X122077671Y-103586030D01*
X122099850Y-103596520D01*
X122120893Y-103609132D01*
X122140599Y-103623747D01*
X122158777Y-103640223D01*
X122175253Y-103658401D01*
X122189868Y-103678107D01*
X122202480Y-103699150D01*
X122212970Y-103721329D01*
X122221235Y-103744428D01*
X122227196Y-103768227D01*
X122230796Y-103792495D01*
X122232000Y-103816999D01*
X122232000Y-104717001D01*
X122230796Y-104741505D01*
X122227196Y-104765773D01*
X122221235Y-104789572D01*
X122212970Y-104812671D01*
X122202480Y-104834850D01*
X122189868Y-104855893D01*
X122175253Y-104875599D01*
X122158777Y-104893777D01*
X122140599Y-104910253D01*
X122120893Y-104924868D01*
X122099850Y-104937480D01*
X122077671Y-104947970D01*
X122054572Y-104956235D01*
X122030773Y-104962196D01*
X122006505Y-104965796D01*
X121982001Y-104967000D01*
X121331999Y-104967000D01*
X121307495Y-104965796D01*
X121283227Y-104962196D01*
X121259428Y-104956235D01*
X121236329Y-104947970D01*
X121214150Y-104937480D01*
X121193107Y-104924868D01*
X121173401Y-104910253D01*
X121155223Y-104893777D01*
X121138747Y-104875599D01*
X121124132Y-104855893D01*
X121111520Y-104834850D01*
X121101030Y-104812671D01*
X121092765Y-104789572D01*
X121086804Y-104765773D01*
X121083204Y-104741505D01*
X121082000Y-104717001D01*
X121082000Y-103816999D01*
X121083204Y-103792495D01*
X121086804Y-103768227D01*
X121092765Y-103744428D01*
X121101030Y-103721329D01*
X121111520Y-103699150D01*
X121124132Y-103678107D01*
X121138747Y-103658401D01*
X121155223Y-103640223D01*
X121173401Y-103623747D01*
X121193107Y-103609132D01*
X121214150Y-103596520D01*
X121236329Y-103586030D01*
X121259428Y-103577765D01*
X121283227Y-103571804D01*
X121307495Y-103568204D01*
X121331999Y-103567000D01*
X121982001Y-103567000D01*
X122006505Y-103568204D01*
X122006505Y-103568204D01*
G37*
D12*
G04 #@! TD*
G04 #@! TO.P,R15,2*
G04 #@! TO.N,/LED_R0*
X121657000Y-104267000D03*
D11*
G04 #@! TO.N,Net-(D1-Pad3)*
G04 #@! TO.C,R15*
G36*
X124056505Y-103568204D02*
X124080773Y-103571804D01*
X124104572Y-103577765D01*
X124127671Y-103586030D01*
X124149850Y-103596520D01*
X124170893Y-103609132D01*
X124190599Y-103623747D01*
X124208777Y-103640223D01*
X124225253Y-103658401D01*
X124239868Y-103678107D01*
X124252480Y-103699150D01*
X124262970Y-103721329D01*
X124271235Y-103744428D01*
X124277196Y-103768227D01*
X124280796Y-103792495D01*
X124282000Y-103816999D01*
X124282000Y-104717001D01*
X124280796Y-104741505D01*
X124277196Y-104765773D01*
X124271235Y-104789572D01*
X124262970Y-104812671D01*
X124252480Y-104834850D01*
X124239868Y-104855893D01*
X124225253Y-104875599D01*
X124208777Y-104893777D01*
X124190599Y-104910253D01*
X124170893Y-104924868D01*
X124149850Y-104937480D01*
X124127671Y-104947970D01*
X124104572Y-104956235D01*
X124080773Y-104962196D01*
X124056505Y-104965796D01*
X124032001Y-104967000D01*
X123381999Y-104967000D01*
X123357495Y-104965796D01*
X123333227Y-104962196D01*
X123309428Y-104956235D01*
X123286329Y-104947970D01*
X123264150Y-104937480D01*
X123243107Y-104924868D01*
X123223401Y-104910253D01*
X123205223Y-104893777D01*
X123188747Y-104875599D01*
X123174132Y-104855893D01*
X123161520Y-104834850D01*
X123151030Y-104812671D01*
X123142765Y-104789572D01*
X123136804Y-104765773D01*
X123133204Y-104741505D01*
X123132000Y-104717001D01*
X123132000Y-103816999D01*
X123133204Y-103792495D01*
X123136804Y-103768227D01*
X123142765Y-103744428D01*
X123151030Y-103721329D01*
X123161520Y-103699150D01*
X123174132Y-103678107D01*
X123188747Y-103658401D01*
X123205223Y-103640223D01*
X123223401Y-103623747D01*
X123243107Y-103609132D01*
X123264150Y-103596520D01*
X123286329Y-103586030D01*
X123309428Y-103577765D01*
X123333227Y-103571804D01*
X123357495Y-103568204D01*
X123381999Y-103567000D01*
X124032001Y-103567000D01*
X124056505Y-103568204D01*
X124056505Y-103568204D01*
G37*
D12*
G04 #@! TD*
G04 #@! TO.P,R15,1*
G04 #@! TO.N,Net-(D1-Pad3)*
X123707000Y-104267000D03*
D11*
G04 #@! TO.N,/LED_G0*
G04 #@! TO.C,R5*
G36*
X122006505Y-101790204D02*
X122030773Y-101793804D01*
X122054572Y-101799765D01*
X122077671Y-101808030D01*
X122099850Y-101818520D01*
X122120893Y-101831132D01*
X122140599Y-101845747D01*
X122158777Y-101862223D01*
X122175253Y-101880401D01*
X122189868Y-101900107D01*
X122202480Y-101921150D01*
X122212970Y-101943329D01*
X122221235Y-101966428D01*
X122227196Y-101990227D01*
X122230796Y-102014495D01*
X122232000Y-102038999D01*
X122232000Y-102939001D01*
X122230796Y-102963505D01*
X122227196Y-102987773D01*
X122221235Y-103011572D01*
X122212970Y-103034671D01*
X122202480Y-103056850D01*
X122189868Y-103077893D01*
X122175253Y-103097599D01*
X122158777Y-103115777D01*
X122140599Y-103132253D01*
X122120893Y-103146868D01*
X122099850Y-103159480D01*
X122077671Y-103169970D01*
X122054572Y-103178235D01*
X122030773Y-103184196D01*
X122006505Y-103187796D01*
X121982001Y-103189000D01*
X121331999Y-103189000D01*
X121307495Y-103187796D01*
X121283227Y-103184196D01*
X121259428Y-103178235D01*
X121236329Y-103169970D01*
X121214150Y-103159480D01*
X121193107Y-103146868D01*
X121173401Y-103132253D01*
X121155223Y-103115777D01*
X121138747Y-103097599D01*
X121124132Y-103077893D01*
X121111520Y-103056850D01*
X121101030Y-103034671D01*
X121092765Y-103011572D01*
X121086804Y-102987773D01*
X121083204Y-102963505D01*
X121082000Y-102939001D01*
X121082000Y-102038999D01*
X121083204Y-102014495D01*
X121086804Y-101990227D01*
X121092765Y-101966428D01*
X121101030Y-101943329D01*
X121111520Y-101921150D01*
X121124132Y-101900107D01*
X121138747Y-101880401D01*
X121155223Y-101862223D01*
X121173401Y-101845747D01*
X121193107Y-101831132D01*
X121214150Y-101818520D01*
X121236329Y-101808030D01*
X121259428Y-101799765D01*
X121283227Y-101793804D01*
X121307495Y-101790204D01*
X121331999Y-101789000D01*
X121982001Y-101789000D01*
X122006505Y-101790204D01*
X122006505Y-101790204D01*
G37*
D12*
G04 #@! TD*
G04 #@! TO.P,R5,2*
G04 #@! TO.N,/LED_G0*
X121657000Y-102489000D03*
D11*
G04 #@! TO.N,Net-(D1-Pad1)*
G04 #@! TO.C,R5*
G36*
X124056505Y-101790204D02*
X124080773Y-101793804D01*
X124104572Y-101799765D01*
X124127671Y-101808030D01*
X124149850Y-101818520D01*
X124170893Y-101831132D01*
X124190599Y-101845747D01*
X124208777Y-101862223D01*
X124225253Y-101880401D01*
X124239868Y-101900107D01*
X124252480Y-101921150D01*
X124262970Y-101943329D01*
X124271235Y-101966428D01*
X124277196Y-101990227D01*
X124280796Y-102014495D01*
X124282000Y-102038999D01*
X124282000Y-102939001D01*
X124280796Y-102963505D01*
X124277196Y-102987773D01*
X124271235Y-103011572D01*
X124262970Y-103034671D01*
X124252480Y-103056850D01*
X124239868Y-103077893D01*
X124225253Y-103097599D01*
X124208777Y-103115777D01*
X124190599Y-103132253D01*
X124170893Y-103146868D01*
X124149850Y-103159480D01*
X124127671Y-103169970D01*
X124104572Y-103178235D01*
X124080773Y-103184196D01*
X124056505Y-103187796D01*
X124032001Y-103189000D01*
X123381999Y-103189000D01*
X123357495Y-103187796D01*
X123333227Y-103184196D01*
X123309428Y-103178235D01*
X123286329Y-103169970D01*
X123264150Y-103159480D01*
X123243107Y-103146868D01*
X123223401Y-103132253D01*
X123205223Y-103115777D01*
X123188747Y-103097599D01*
X123174132Y-103077893D01*
X123161520Y-103056850D01*
X123151030Y-103034671D01*
X123142765Y-103011572D01*
X123136804Y-102987773D01*
X123133204Y-102963505D01*
X123132000Y-102939001D01*
X123132000Y-102038999D01*
X123133204Y-102014495D01*
X123136804Y-101990227D01*
X123142765Y-101966428D01*
X123151030Y-101943329D01*
X123161520Y-101921150D01*
X123174132Y-101900107D01*
X123188747Y-101880401D01*
X123205223Y-101862223D01*
X123223401Y-101845747D01*
X123243107Y-101831132D01*
X123264150Y-101818520D01*
X123286329Y-101808030D01*
X123309428Y-101799765D01*
X123333227Y-101793804D01*
X123357495Y-101790204D01*
X123381999Y-101789000D01*
X124032001Y-101789000D01*
X124056505Y-101790204D01*
X124056505Y-101790204D01*
G37*
D12*
G04 #@! TD*
G04 #@! TO.P,R5,1*
G04 #@! TO.N,Net-(D1-Pad1)*
X123707000Y-102489000D03*
D11*
G04 #@! TO.N,/DM*
G04 #@! TO.C,R4*
G36*
X104635665Y-111305044D02*
X104659933Y-111308644D01*
X104683732Y-111314605D01*
X104706831Y-111322870D01*
X104729010Y-111333360D01*
X104750053Y-111345972D01*
X104769759Y-111360587D01*
X104787937Y-111377063D01*
X104804413Y-111395241D01*
X104819028Y-111414947D01*
X104831640Y-111435990D01*
X104842130Y-111458169D01*
X104850395Y-111481268D01*
X104856356Y-111505067D01*
X104859956Y-111529335D01*
X104861160Y-111553839D01*
X104861160Y-112453841D01*
X104859956Y-112478345D01*
X104856356Y-112502613D01*
X104850395Y-112526412D01*
X104842130Y-112549511D01*
X104831640Y-112571690D01*
X104819028Y-112592733D01*
X104804413Y-112612439D01*
X104787937Y-112630617D01*
X104769759Y-112647093D01*
X104750053Y-112661708D01*
X104729010Y-112674320D01*
X104706831Y-112684810D01*
X104683732Y-112693075D01*
X104659933Y-112699036D01*
X104635665Y-112702636D01*
X104611161Y-112703840D01*
X103961159Y-112703840D01*
X103936655Y-112702636D01*
X103912387Y-112699036D01*
X103888588Y-112693075D01*
X103865489Y-112684810D01*
X103843310Y-112674320D01*
X103822267Y-112661708D01*
X103802561Y-112647093D01*
X103784383Y-112630617D01*
X103767907Y-112612439D01*
X103753292Y-112592733D01*
X103740680Y-112571690D01*
X103730190Y-112549511D01*
X103721925Y-112526412D01*
X103715964Y-112502613D01*
X103712364Y-112478345D01*
X103711160Y-112453841D01*
X103711160Y-111553839D01*
X103712364Y-111529335D01*
X103715964Y-111505067D01*
X103721925Y-111481268D01*
X103730190Y-111458169D01*
X103740680Y-111435990D01*
X103753292Y-111414947D01*
X103767907Y-111395241D01*
X103784383Y-111377063D01*
X103802561Y-111360587D01*
X103822267Y-111345972D01*
X103843310Y-111333360D01*
X103865489Y-111322870D01*
X103888588Y-111314605D01*
X103912387Y-111308644D01*
X103936655Y-111305044D01*
X103961159Y-111303840D01*
X104611161Y-111303840D01*
X104635665Y-111305044D01*
X104635665Y-111305044D01*
G37*
D12*
G04 #@! TD*
G04 #@! TO.P,R4,1*
G04 #@! TO.N,/DM*
X104286160Y-112003840D03*
D11*
G04 #@! TO.N,/USB_DM*
G04 #@! TO.C,R4*
G36*
X102585665Y-111305044D02*
X102609933Y-111308644D01*
X102633732Y-111314605D01*
X102656831Y-111322870D01*
X102679010Y-111333360D01*
X102700053Y-111345972D01*
X102719759Y-111360587D01*
X102737937Y-111377063D01*
X102754413Y-111395241D01*
X102769028Y-111414947D01*
X102781640Y-111435990D01*
X102792130Y-111458169D01*
X102800395Y-111481268D01*
X102806356Y-111505067D01*
X102809956Y-111529335D01*
X102811160Y-111553839D01*
X102811160Y-112453841D01*
X102809956Y-112478345D01*
X102806356Y-112502613D01*
X102800395Y-112526412D01*
X102792130Y-112549511D01*
X102781640Y-112571690D01*
X102769028Y-112592733D01*
X102754413Y-112612439D01*
X102737937Y-112630617D01*
X102719759Y-112647093D01*
X102700053Y-112661708D01*
X102679010Y-112674320D01*
X102656831Y-112684810D01*
X102633732Y-112693075D01*
X102609933Y-112699036D01*
X102585665Y-112702636D01*
X102561161Y-112703840D01*
X101911159Y-112703840D01*
X101886655Y-112702636D01*
X101862387Y-112699036D01*
X101838588Y-112693075D01*
X101815489Y-112684810D01*
X101793310Y-112674320D01*
X101772267Y-112661708D01*
X101752561Y-112647093D01*
X101734383Y-112630617D01*
X101717907Y-112612439D01*
X101703292Y-112592733D01*
X101690680Y-112571690D01*
X101680190Y-112549511D01*
X101671925Y-112526412D01*
X101665964Y-112502613D01*
X101662364Y-112478345D01*
X101661160Y-112453841D01*
X101661160Y-111553839D01*
X101662364Y-111529335D01*
X101665964Y-111505067D01*
X101671925Y-111481268D01*
X101680190Y-111458169D01*
X101690680Y-111435990D01*
X101703292Y-111414947D01*
X101717907Y-111395241D01*
X101734383Y-111377063D01*
X101752561Y-111360587D01*
X101772267Y-111345972D01*
X101793310Y-111333360D01*
X101815489Y-111322870D01*
X101838588Y-111314605D01*
X101862387Y-111308644D01*
X101886655Y-111305044D01*
X101911159Y-111303840D01*
X102561161Y-111303840D01*
X102585665Y-111305044D01*
X102585665Y-111305044D01*
G37*
D12*
G04 #@! TD*
G04 #@! TO.P,R4,2*
G04 #@! TO.N,/USB_DM*
X102236160Y-112003840D03*
D11*
G04 #@! TO.N,/USB_DP*
G04 #@! TO.C,R1*
G36*
X101747465Y-108376424D02*
X101771733Y-108380024D01*
X101795532Y-108385985D01*
X101818631Y-108394250D01*
X101840810Y-108404740D01*
X101861853Y-108417352D01*
X101881559Y-108431967D01*
X101899737Y-108448443D01*
X101916213Y-108466621D01*
X101930828Y-108486327D01*
X101943440Y-108507370D01*
X101953930Y-108529549D01*
X101962195Y-108552648D01*
X101968156Y-108576447D01*
X101971756Y-108600715D01*
X101972960Y-108625219D01*
X101972960Y-109525221D01*
X101971756Y-109549725D01*
X101968156Y-109573993D01*
X101962195Y-109597792D01*
X101953930Y-109620891D01*
X101943440Y-109643070D01*
X101930828Y-109664113D01*
X101916213Y-109683819D01*
X101899737Y-109701997D01*
X101881559Y-109718473D01*
X101861853Y-109733088D01*
X101840810Y-109745700D01*
X101818631Y-109756190D01*
X101795532Y-109764455D01*
X101771733Y-109770416D01*
X101747465Y-109774016D01*
X101722961Y-109775220D01*
X101072959Y-109775220D01*
X101048455Y-109774016D01*
X101024187Y-109770416D01*
X101000388Y-109764455D01*
X100977289Y-109756190D01*
X100955110Y-109745700D01*
X100934067Y-109733088D01*
X100914361Y-109718473D01*
X100896183Y-109701997D01*
X100879707Y-109683819D01*
X100865092Y-109664113D01*
X100852480Y-109643070D01*
X100841990Y-109620891D01*
X100833725Y-109597792D01*
X100827764Y-109573993D01*
X100824164Y-109549725D01*
X100822960Y-109525221D01*
X100822960Y-108625219D01*
X100824164Y-108600715D01*
X100827764Y-108576447D01*
X100833725Y-108552648D01*
X100841990Y-108529549D01*
X100852480Y-108507370D01*
X100865092Y-108486327D01*
X100879707Y-108466621D01*
X100896183Y-108448443D01*
X100914361Y-108431967D01*
X100934067Y-108417352D01*
X100955110Y-108404740D01*
X100977289Y-108394250D01*
X101000388Y-108385985D01*
X101024187Y-108380024D01*
X101048455Y-108376424D01*
X101072959Y-108375220D01*
X101722961Y-108375220D01*
X101747465Y-108376424D01*
X101747465Y-108376424D01*
G37*
D12*
G04 #@! TD*
G04 #@! TO.P,R1,2*
G04 #@! TO.N,/USB_DP*
X101397960Y-109075220D03*
D11*
G04 #@! TO.N,/DP*
G04 #@! TO.C,R1*
G36*
X103797465Y-108376424D02*
X103821733Y-108380024D01*
X103845532Y-108385985D01*
X103868631Y-108394250D01*
X103890810Y-108404740D01*
X103911853Y-108417352D01*
X103931559Y-108431967D01*
X103949737Y-108448443D01*
X103966213Y-108466621D01*
X103980828Y-108486327D01*
X103993440Y-108507370D01*
X104003930Y-108529549D01*
X104012195Y-108552648D01*
X104018156Y-108576447D01*
X104021756Y-108600715D01*
X104022960Y-108625219D01*
X104022960Y-109525221D01*
X104021756Y-109549725D01*
X104018156Y-109573993D01*
X104012195Y-109597792D01*
X104003930Y-109620891D01*
X103993440Y-109643070D01*
X103980828Y-109664113D01*
X103966213Y-109683819D01*
X103949737Y-109701997D01*
X103931559Y-109718473D01*
X103911853Y-109733088D01*
X103890810Y-109745700D01*
X103868631Y-109756190D01*
X103845532Y-109764455D01*
X103821733Y-109770416D01*
X103797465Y-109774016D01*
X103772961Y-109775220D01*
X103122959Y-109775220D01*
X103098455Y-109774016D01*
X103074187Y-109770416D01*
X103050388Y-109764455D01*
X103027289Y-109756190D01*
X103005110Y-109745700D01*
X102984067Y-109733088D01*
X102964361Y-109718473D01*
X102946183Y-109701997D01*
X102929707Y-109683819D01*
X102915092Y-109664113D01*
X102902480Y-109643070D01*
X102891990Y-109620891D01*
X102883725Y-109597792D01*
X102877764Y-109573993D01*
X102874164Y-109549725D01*
X102872960Y-109525221D01*
X102872960Y-108625219D01*
X102874164Y-108600715D01*
X102877764Y-108576447D01*
X102883725Y-108552648D01*
X102891990Y-108529549D01*
X102902480Y-108507370D01*
X102915092Y-108486327D01*
X102929707Y-108466621D01*
X102946183Y-108448443D01*
X102964361Y-108431967D01*
X102984067Y-108417352D01*
X103005110Y-108404740D01*
X103027289Y-108394250D01*
X103050388Y-108385985D01*
X103074187Y-108380024D01*
X103098455Y-108376424D01*
X103122959Y-108375220D01*
X103772961Y-108375220D01*
X103797465Y-108376424D01*
X103797465Y-108376424D01*
G37*
D12*
G04 #@! TD*
G04 #@! TO.P,R1,1*
G04 #@! TO.N,/DP*
X103447960Y-109075220D03*
D11*
G04 #@! TO.N,+3V3*
G04 #@! TO.C,R17*
G36*
X104635665Y-113083044D02*
X104659933Y-113086644D01*
X104683732Y-113092605D01*
X104706831Y-113100870D01*
X104729010Y-113111360D01*
X104750053Y-113123972D01*
X104769759Y-113138587D01*
X104787937Y-113155063D01*
X104804413Y-113173241D01*
X104819028Y-113192947D01*
X104831640Y-113213990D01*
X104842130Y-113236169D01*
X104850395Y-113259268D01*
X104856356Y-113283067D01*
X104859956Y-113307335D01*
X104861160Y-113331839D01*
X104861160Y-114231841D01*
X104859956Y-114256345D01*
X104856356Y-114280613D01*
X104850395Y-114304412D01*
X104842130Y-114327511D01*
X104831640Y-114349690D01*
X104819028Y-114370733D01*
X104804413Y-114390439D01*
X104787937Y-114408617D01*
X104769759Y-114425093D01*
X104750053Y-114439708D01*
X104729010Y-114452320D01*
X104706831Y-114462810D01*
X104683732Y-114471075D01*
X104659933Y-114477036D01*
X104635665Y-114480636D01*
X104611161Y-114481840D01*
X103961159Y-114481840D01*
X103936655Y-114480636D01*
X103912387Y-114477036D01*
X103888588Y-114471075D01*
X103865489Y-114462810D01*
X103843310Y-114452320D01*
X103822267Y-114439708D01*
X103802561Y-114425093D01*
X103784383Y-114408617D01*
X103767907Y-114390439D01*
X103753292Y-114370733D01*
X103740680Y-114349690D01*
X103730190Y-114327511D01*
X103721925Y-114304412D01*
X103715964Y-114280613D01*
X103712364Y-114256345D01*
X103711160Y-114231841D01*
X103711160Y-113331839D01*
X103712364Y-113307335D01*
X103715964Y-113283067D01*
X103721925Y-113259268D01*
X103730190Y-113236169D01*
X103740680Y-113213990D01*
X103753292Y-113192947D01*
X103767907Y-113173241D01*
X103784383Y-113155063D01*
X103802561Y-113138587D01*
X103822267Y-113123972D01*
X103843310Y-113111360D01*
X103865489Y-113100870D01*
X103888588Y-113092605D01*
X103912387Y-113086644D01*
X103936655Y-113083044D01*
X103961159Y-113081840D01*
X104611161Y-113081840D01*
X104635665Y-113083044D01*
X104635665Y-113083044D01*
G37*
D12*
G04 #@! TD*
G04 #@! TO.P,R17,1*
G04 #@! TO.N,+3V3*
X104286160Y-113781840D03*
D11*
G04 #@! TO.N,/USB_DP*
G04 #@! TO.C,R17*
G36*
X102585665Y-113083044D02*
X102609933Y-113086644D01*
X102633732Y-113092605D01*
X102656831Y-113100870D01*
X102679010Y-113111360D01*
X102700053Y-113123972D01*
X102719759Y-113138587D01*
X102737937Y-113155063D01*
X102754413Y-113173241D01*
X102769028Y-113192947D01*
X102781640Y-113213990D01*
X102792130Y-113236169D01*
X102800395Y-113259268D01*
X102806356Y-113283067D01*
X102809956Y-113307335D01*
X102811160Y-113331839D01*
X102811160Y-114231841D01*
X102809956Y-114256345D01*
X102806356Y-114280613D01*
X102800395Y-114304412D01*
X102792130Y-114327511D01*
X102781640Y-114349690D01*
X102769028Y-114370733D01*
X102754413Y-114390439D01*
X102737937Y-114408617D01*
X102719759Y-114425093D01*
X102700053Y-114439708D01*
X102679010Y-114452320D01*
X102656831Y-114462810D01*
X102633732Y-114471075D01*
X102609933Y-114477036D01*
X102585665Y-114480636D01*
X102561161Y-114481840D01*
X101911159Y-114481840D01*
X101886655Y-114480636D01*
X101862387Y-114477036D01*
X101838588Y-114471075D01*
X101815489Y-114462810D01*
X101793310Y-114452320D01*
X101772267Y-114439708D01*
X101752561Y-114425093D01*
X101734383Y-114408617D01*
X101717907Y-114390439D01*
X101703292Y-114370733D01*
X101690680Y-114349690D01*
X101680190Y-114327511D01*
X101671925Y-114304412D01*
X101665964Y-114280613D01*
X101662364Y-114256345D01*
X101661160Y-114231841D01*
X101661160Y-113331839D01*
X101662364Y-113307335D01*
X101665964Y-113283067D01*
X101671925Y-113259268D01*
X101680190Y-113236169D01*
X101690680Y-113213990D01*
X101703292Y-113192947D01*
X101717907Y-113173241D01*
X101734383Y-113155063D01*
X101752561Y-113138587D01*
X101772267Y-113123972D01*
X101793310Y-113111360D01*
X101815489Y-113100870D01*
X101838588Y-113092605D01*
X101862387Y-113086644D01*
X101886655Y-113083044D01*
X101911159Y-113081840D01*
X102561161Y-113081840D01*
X102585665Y-113083044D01*
X102585665Y-113083044D01*
G37*
D12*
G04 #@! TD*
G04 #@! TO.P,R17,2*
G04 #@! TO.N,/USB_DP*
X102236160Y-113781840D03*
D11*
G04 #@! TO.N,GND*
G04 #@! TO.C,R19*
G36*
X101772865Y-106562864D02*
X101797133Y-106566464D01*
X101820932Y-106572425D01*
X101844031Y-106580690D01*
X101866210Y-106591180D01*
X101887253Y-106603792D01*
X101906959Y-106618407D01*
X101925137Y-106634883D01*
X101941613Y-106653061D01*
X101956228Y-106672767D01*
X101968840Y-106693810D01*
X101979330Y-106715989D01*
X101987595Y-106739088D01*
X101993556Y-106762887D01*
X101997156Y-106787155D01*
X101998360Y-106811659D01*
X101998360Y-107711661D01*
X101997156Y-107736165D01*
X101993556Y-107760433D01*
X101987595Y-107784232D01*
X101979330Y-107807331D01*
X101968840Y-107829510D01*
X101956228Y-107850553D01*
X101941613Y-107870259D01*
X101925137Y-107888437D01*
X101906959Y-107904913D01*
X101887253Y-107919528D01*
X101866210Y-107932140D01*
X101844031Y-107942630D01*
X101820932Y-107950895D01*
X101797133Y-107956856D01*
X101772865Y-107960456D01*
X101748361Y-107961660D01*
X101098359Y-107961660D01*
X101073855Y-107960456D01*
X101049587Y-107956856D01*
X101025788Y-107950895D01*
X101002689Y-107942630D01*
X100980510Y-107932140D01*
X100959467Y-107919528D01*
X100939761Y-107904913D01*
X100921583Y-107888437D01*
X100905107Y-107870259D01*
X100890492Y-107850553D01*
X100877880Y-107829510D01*
X100867390Y-107807331D01*
X100859125Y-107784232D01*
X100853164Y-107760433D01*
X100849564Y-107736165D01*
X100848360Y-107711661D01*
X100848360Y-106811659D01*
X100849564Y-106787155D01*
X100853164Y-106762887D01*
X100859125Y-106739088D01*
X100867390Y-106715989D01*
X100877880Y-106693810D01*
X100890492Y-106672767D01*
X100905107Y-106653061D01*
X100921583Y-106634883D01*
X100939761Y-106618407D01*
X100959467Y-106603792D01*
X100980510Y-106591180D01*
X101002689Y-106580690D01*
X101025788Y-106572425D01*
X101049587Y-106566464D01*
X101073855Y-106562864D01*
X101098359Y-106561660D01*
X101748361Y-106561660D01*
X101772865Y-106562864D01*
X101772865Y-106562864D01*
G37*
D12*
G04 #@! TD*
G04 #@! TO.P,R19,2*
G04 #@! TO.N,GND*
X101423360Y-107261660D03*
D11*
G04 #@! TO.N,/BOOT0*
G04 #@! TO.C,R19*
G36*
X103822865Y-106562864D02*
X103847133Y-106566464D01*
X103870932Y-106572425D01*
X103894031Y-106580690D01*
X103916210Y-106591180D01*
X103937253Y-106603792D01*
X103956959Y-106618407D01*
X103975137Y-106634883D01*
X103991613Y-106653061D01*
X104006228Y-106672767D01*
X104018840Y-106693810D01*
X104029330Y-106715989D01*
X104037595Y-106739088D01*
X104043556Y-106762887D01*
X104047156Y-106787155D01*
X104048360Y-106811659D01*
X104048360Y-107711661D01*
X104047156Y-107736165D01*
X104043556Y-107760433D01*
X104037595Y-107784232D01*
X104029330Y-107807331D01*
X104018840Y-107829510D01*
X104006228Y-107850553D01*
X103991613Y-107870259D01*
X103975137Y-107888437D01*
X103956959Y-107904913D01*
X103937253Y-107919528D01*
X103916210Y-107932140D01*
X103894031Y-107942630D01*
X103870932Y-107950895D01*
X103847133Y-107956856D01*
X103822865Y-107960456D01*
X103798361Y-107961660D01*
X103148359Y-107961660D01*
X103123855Y-107960456D01*
X103099587Y-107956856D01*
X103075788Y-107950895D01*
X103052689Y-107942630D01*
X103030510Y-107932140D01*
X103009467Y-107919528D01*
X102989761Y-107904913D01*
X102971583Y-107888437D01*
X102955107Y-107870259D01*
X102940492Y-107850553D01*
X102927880Y-107829510D01*
X102917390Y-107807331D01*
X102909125Y-107784232D01*
X102903164Y-107760433D01*
X102899564Y-107736165D01*
X102898360Y-107711661D01*
X102898360Y-106811659D01*
X102899564Y-106787155D01*
X102903164Y-106762887D01*
X102909125Y-106739088D01*
X102917390Y-106715989D01*
X102927880Y-106693810D01*
X102940492Y-106672767D01*
X102955107Y-106653061D01*
X102971583Y-106634883D01*
X102989761Y-106618407D01*
X103009467Y-106603792D01*
X103030510Y-106591180D01*
X103052689Y-106580690D01*
X103075788Y-106572425D01*
X103099587Y-106566464D01*
X103123855Y-106562864D01*
X103148359Y-106561660D01*
X103798361Y-106561660D01*
X103822865Y-106562864D01*
X103822865Y-106562864D01*
G37*
D12*
G04 #@! TD*
G04 #@! TO.P,R19,1*
G04 #@! TO.N,/BOOT0*
X103473360Y-107261660D03*
D11*
G04 #@! TO.N,Net-(D2-Pad1)*
G04 #@! TO.C,R6*
G36*
X122724705Y-122218804D02*
X122748973Y-122222404D01*
X122772772Y-122228365D01*
X122795871Y-122236630D01*
X122818050Y-122247120D01*
X122839093Y-122259732D01*
X122858799Y-122274347D01*
X122876977Y-122290823D01*
X122893453Y-122309001D01*
X122908068Y-122328707D01*
X122920680Y-122349750D01*
X122931170Y-122371929D01*
X122939435Y-122395028D01*
X122945396Y-122418827D01*
X122948996Y-122443095D01*
X122950200Y-122467599D01*
X122950200Y-123117601D01*
X122948996Y-123142105D01*
X122945396Y-123166373D01*
X122939435Y-123190172D01*
X122931170Y-123213271D01*
X122920680Y-123235450D01*
X122908068Y-123256493D01*
X122893453Y-123276199D01*
X122876977Y-123294377D01*
X122858799Y-123310853D01*
X122839093Y-123325468D01*
X122818050Y-123338080D01*
X122795871Y-123348570D01*
X122772772Y-123356835D01*
X122748973Y-123362796D01*
X122724705Y-123366396D01*
X122700201Y-123367600D01*
X121800199Y-123367600D01*
X121775695Y-123366396D01*
X121751427Y-123362796D01*
X121727628Y-123356835D01*
X121704529Y-123348570D01*
X121682350Y-123338080D01*
X121661307Y-123325468D01*
X121641601Y-123310853D01*
X121623423Y-123294377D01*
X121606947Y-123276199D01*
X121592332Y-123256493D01*
X121579720Y-123235450D01*
X121569230Y-123213271D01*
X121560965Y-123190172D01*
X121555004Y-123166373D01*
X121551404Y-123142105D01*
X121550200Y-123117601D01*
X121550200Y-122467599D01*
X121551404Y-122443095D01*
X121555004Y-122418827D01*
X121560965Y-122395028D01*
X121569230Y-122371929D01*
X121579720Y-122349750D01*
X121592332Y-122328707D01*
X121606947Y-122309001D01*
X121623423Y-122290823D01*
X121641601Y-122274347D01*
X121661307Y-122259732D01*
X121682350Y-122247120D01*
X121704529Y-122236630D01*
X121727628Y-122228365D01*
X121751427Y-122222404D01*
X121775695Y-122218804D01*
X121800199Y-122217600D01*
X122700201Y-122217600D01*
X122724705Y-122218804D01*
X122724705Y-122218804D01*
G37*
D12*
G04 #@! TD*
G04 #@! TO.P,R6,1*
G04 #@! TO.N,Net-(D2-Pad1)*
X122250200Y-122792600D03*
D11*
G04 #@! TO.N,/LED_G1*
G04 #@! TO.C,R6*
G36*
X122724705Y-120168804D02*
X122748973Y-120172404D01*
X122772772Y-120178365D01*
X122795871Y-120186630D01*
X122818050Y-120197120D01*
X122839093Y-120209732D01*
X122858799Y-120224347D01*
X122876977Y-120240823D01*
X122893453Y-120259001D01*
X122908068Y-120278707D01*
X122920680Y-120299750D01*
X122931170Y-120321929D01*
X122939435Y-120345028D01*
X122945396Y-120368827D01*
X122948996Y-120393095D01*
X122950200Y-120417599D01*
X122950200Y-121067601D01*
X122948996Y-121092105D01*
X122945396Y-121116373D01*
X122939435Y-121140172D01*
X122931170Y-121163271D01*
X122920680Y-121185450D01*
X122908068Y-121206493D01*
X122893453Y-121226199D01*
X122876977Y-121244377D01*
X122858799Y-121260853D01*
X122839093Y-121275468D01*
X122818050Y-121288080D01*
X122795871Y-121298570D01*
X122772772Y-121306835D01*
X122748973Y-121312796D01*
X122724705Y-121316396D01*
X122700201Y-121317600D01*
X121800199Y-121317600D01*
X121775695Y-121316396D01*
X121751427Y-121312796D01*
X121727628Y-121306835D01*
X121704529Y-121298570D01*
X121682350Y-121288080D01*
X121661307Y-121275468D01*
X121641601Y-121260853D01*
X121623423Y-121244377D01*
X121606947Y-121226199D01*
X121592332Y-121206493D01*
X121579720Y-121185450D01*
X121569230Y-121163271D01*
X121560965Y-121140172D01*
X121555004Y-121116373D01*
X121551404Y-121092105D01*
X121550200Y-121067601D01*
X121550200Y-120417599D01*
X121551404Y-120393095D01*
X121555004Y-120368827D01*
X121560965Y-120345028D01*
X121569230Y-120321929D01*
X121579720Y-120299750D01*
X121592332Y-120278707D01*
X121606947Y-120259001D01*
X121623423Y-120240823D01*
X121641601Y-120224347D01*
X121661307Y-120209732D01*
X121682350Y-120197120D01*
X121704529Y-120186630D01*
X121727628Y-120178365D01*
X121751427Y-120172404D01*
X121775695Y-120168804D01*
X121800199Y-120167600D01*
X122700201Y-120167600D01*
X122724705Y-120168804D01*
X122724705Y-120168804D01*
G37*
D12*
G04 #@! TD*
G04 #@! TO.P,R6,2*
G04 #@! TO.N,/LED_G1*
X122250200Y-120742600D03*
D11*
G04 #@! TO.N,/D4*
G04 #@! TO.C,R12*
G36*
X126324505Y-116268204D02*
X126348773Y-116271804D01*
X126372572Y-116277765D01*
X126395671Y-116286030D01*
X126417850Y-116296520D01*
X126438893Y-116309132D01*
X126458599Y-116323747D01*
X126476777Y-116340223D01*
X126493253Y-116358401D01*
X126507868Y-116378107D01*
X126520480Y-116399150D01*
X126530970Y-116421329D01*
X126539235Y-116444428D01*
X126545196Y-116468227D01*
X126548796Y-116492495D01*
X126550000Y-116516999D01*
X126550000Y-117417001D01*
X126548796Y-117441505D01*
X126545196Y-117465773D01*
X126539235Y-117489572D01*
X126530970Y-117512671D01*
X126520480Y-117534850D01*
X126507868Y-117555893D01*
X126493253Y-117575599D01*
X126476777Y-117593777D01*
X126458599Y-117610253D01*
X126438893Y-117624868D01*
X126417850Y-117637480D01*
X126395671Y-117647970D01*
X126372572Y-117656235D01*
X126348773Y-117662196D01*
X126324505Y-117665796D01*
X126300001Y-117667000D01*
X125649999Y-117667000D01*
X125625495Y-117665796D01*
X125601227Y-117662196D01*
X125577428Y-117656235D01*
X125554329Y-117647970D01*
X125532150Y-117637480D01*
X125511107Y-117624868D01*
X125491401Y-117610253D01*
X125473223Y-117593777D01*
X125456747Y-117575599D01*
X125442132Y-117555893D01*
X125429520Y-117534850D01*
X125419030Y-117512671D01*
X125410765Y-117489572D01*
X125404804Y-117465773D01*
X125401204Y-117441505D01*
X125400000Y-117417001D01*
X125400000Y-116516999D01*
X125401204Y-116492495D01*
X125404804Y-116468227D01*
X125410765Y-116444428D01*
X125419030Y-116421329D01*
X125429520Y-116399150D01*
X125442132Y-116378107D01*
X125456747Y-116358401D01*
X125473223Y-116340223D01*
X125491401Y-116323747D01*
X125511107Y-116309132D01*
X125532150Y-116296520D01*
X125554329Y-116286030D01*
X125577428Y-116277765D01*
X125601227Y-116271804D01*
X125625495Y-116268204D01*
X125649999Y-116267000D01*
X126300001Y-116267000D01*
X126324505Y-116268204D01*
X126324505Y-116268204D01*
G37*
D12*
G04 #@! TD*
G04 #@! TO.P,R12,2*
G04 #@! TO.N,/D4*
X125975000Y-116967000D03*
D11*
G04 #@! TO.N,/D4_OUT*
G04 #@! TO.C,R12*
G36*
X128374505Y-116268204D02*
X128398773Y-116271804D01*
X128422572Y-116277765D01*
X128445671Y-116286030D01*
X128467850Y-116296520D01*
X128488893Y-116309132D01*
X128508599Y-116323747D01*
X128526777Y-116340223D01*
X128543253Y-116358401D01*
X128557868Y-116378107D01*
X128570480Y-116399150D01*
X128580970Y-116421329D01*
X128589235Y-116444428D01*
X128595196Y-116468227D01*
X128598796Y-116492495D01*
X128600000Y-116516999D01*
X128600000Y-117417001D01*
X128598796Y-117441505D01*
X128595196Y-117465773D01*
X128589235Y-117489572D01*
X128580970Y-117512671D01*
X128570480Y-117534850D01*
X128557868Y-117555893D01*
X128543253Y-117575599D01*
X128526777Y-117593777D01*
X128508599Y-117610253D01*
X128488893Y-117624868D01*
X128467850Y-117637480D01*
X128445671Y-117647970D01*
X128422572Y-117656235D01*
X128398773Y-117662196D01*
X128374505Y-117665796D01*
X128350001Y-117667000D01*
X127699999Y-117667000D01*
X127675495Y-117665796D01*
X127651227Y-117662196D01*
X127627428Y-117656235D01*
X127604329Y-117647970D01*
X127582150Y-117637480D01*
X127561107Y-117624868D01*
X127541401Y-117610253D01*
X127523223Y-117593777D01*
X127506747Y-117575599D01*
X127492132Y-117555893D01*
X127479520Y-117534850D01*
X127469030Y-117512671D01*
X127460765Y-117489572D01*
X127454804Y-117465773D01*
X127451204Y-117441505D01*
X127450000Y-117417001D01*
X127450000Y-116516999D01*
X127451204Y-116492495D01*
X127454804Y-116468227D01*
X127460765Y-116444428D01*
X127469030Y-116421329D01*
X127479520Y-116399150D01*
X127492132Y-116378107D01*
X127506747Y-116358401D01*
X127523223Y-116340223D01*
X127541401Y-116323747D01*
X127561107Y-116309132D01*
X127582150Y-116296520D01*
X127604329Y-116286030D01*
X127627428Y-116277765D01*
X127651227Y-116271804D01*
X127675495Y-116268204D01*
X127699999Y-116267000D01*
X128350001Y-116267000D01*
X128374505Y-116268204D01*
X128374505Y-116268204D01*
G37*
D12*
G04 #@! TD*
G04 #@! TO.P,R12,1*
G04 #@! TO.N,/D4_OUT*
X128025000Y-116967000D03*
D11*
G04 #@! TO.N,/D3_OUT*
G04 #@! TO.C,R11*
G36*
X128374505Y-118173204D02*
X128398773Y-118176804D01*
X128422572Y-118182765D01*
X128445671Y-118191030D01*
X128467850Y-118201520D01*
X128488893Y-118214132D01*
X128508599Y-118228747D01*
X128526777Y-118245223D01*
X128543253Y-118263401D01*
X128557868Y-118283107D01*
X128570480Y-118304150D01*
X128580970Y-118326329D01*
X128589235Y-118349428D01*
X128595196Y-118373227D01*
X128598796Y-118397495D01*
X128600000Y-118421999D01*
X128600000Y-119322001D01*
X128598796Y-119346505D01*
X128595196Y-119370773D01*
X128589235Y-119394572D01*
X128580970Y-119417671D01*
X128570480Y-119439850D01*
X128557868Y-119460893D01*
X128543253Y-119480599D01*
X128526777Y-119498777D01*
X128508599Y-119515253D01*
X128488893Y-119529868D01*
X128467850Y-119542480D01*
X128445671Y-119552970D01*
X128422572Y-119561235D01*
X128398773Y-119567196D01*
X128374505Y-119570796D01*
X128350001Y-119572000D01*
X127699999Y-119572000D01*
X127675495Y-119570796D01*
X127651227Y-119567196D01*
X127627428Y-119561235D01*
X127604329Y-119552970D01*
X127582150Y-119542480D01*
X127561107Y-119529868D01*
X127541401Y-119515253D01*
X127523223Y-119498777D01*
X127506747Y-119480599D01*
X127492132Y-119460893D01*
X127479520Y-119439850D01*
X127469030Y-119417671D01*
X127460765Y-119394572D01*
X127454804Y-119370773D01*
X127451204Y-119346505D01*
X127450000Y-119322001D01*
X127450000Y-118421999D01*
X127451204Y-118397495D01*
X127454804Y-118373227D01*
X127460765Y-118349428D01*
X127469030Y-118326329D01*
X127479520Y-118304150D01*
X127492132Y-118283107D01*
X127506747Y-118263401D01*
X127523223Y-118245223D01*
X127541401Y-118228747D01*
X127561107Y-118214132D01*
X127582150Y-118201520D01*
X127604329Y-118191030D01*
X127627428Y-118182765D01*
X127651227Y-118176804D01*
X127675495Y-118173204D01*
X127699999Y-118172000D01*
X128350001Y-118172000D01*
X128374505Y-118173204D01*
X128374505Y-118173204D01*
G37*
D12*
G04 #@! TD*
G04 #@! TO.P,R11,1*
G04 #@! TO.N,/D3_OUT*
X128025000Y-118872000D03*
D11*
G04 #@! TO.N,/D3*
G04 #@! TO.C,R11*
G36*
X126324505Y-118173204D02*
X126348773Y-118176804D01*
X126372572Y-118182765D01*
X126395671Y-118191030D01*
X126417850Y-118201520D01*
X126438893Y-118214132D01*
X126458599Y-118228747D01*
X126476777Y-118245223D01*
X126493253Y-118263401D01*
X126507868Y-118283107D01*
X126520480Y-118304150D01*
X126530970Y-118326329D01*
X126539235Y-118349428D01*
X126545196Y-118373227D01*
X126548796Y-118397495D01*
X126550000Y-118421999D01*
X126550000Y-119322001D01*
X126548796Y-119346505D01*
X126545196Y-119370773D01*
X126539235Y-119394572D01*
X126530970Y-119417671D01*
X126520480Y-119439850D01*
X126507868Y-119460893D01*
X126493253Y-119480599D01*
X126476777Y-119498777D01*
X126458599Y-119515253D01*
X126438893Y-119529868D01*
X126417850Y-119542480D01*
X126395671Y-119552970D01*
X126372572Y-119561235D01*
X126348773Y-119567196D01*
X126324505Y-119570796D01*
X126300001Y-119572000D01*
X125649999Y-119572000D01*
X125625495Y-119570796D01*
X125601227Y-119567196D01*
X125577428Y-119561235D01*
X125554329Y-119552970D01*
X125532150Y-119542480D01*
X125511107Y-119529868D01*
X125491401Y-119515253D01*
X125473223Y-119498777D01*
X125456747Y-119480599D01*
X125442132Y-119460893D01*
X125429520Y-119439850D01*
X125419030Y-119417671D01*
X125410765Y-119394572D01*
X125404804Y-119370773D01*
X125401204Y-119346505D01*
X125400000Y-119322001D01*
X125400000Y-118421999D01*
X125401204Y-118397495D01*
X125404804Y-118373227D01*
X125410765Y-118349428D01*
X125419030Y-118326329D01*
X125429520Y-118304150D01*
X125442132Y-118283107D01*
X125456747Y-118263401D01*
X125473223Y-118245223D01*
X125491401Y-118228747D01*
X125511107Y-118214132D01*
X125532150Y-118201520D01*
X125554329Y-118191030D01*
X125577428Y-118182765D01*
X125601227Y-118176804D01*
X125625495Y-118173204D01*
X125649999Y-118172000D01*
X126300001Y-118172000D01*
X126324505Y-118173204D01*
X126324505Y-118173204D01*
G37*
D12*
G04 #@! TD*
G04 #@! TO.P,R11,2*
G04 #@! TO.N,/D3*
X125975000Y-118872000D03*
D11*
G04 #@! TO.N,/D2*
G04 #@! TO.C,R10*
G36*
X121625505Y-114363204D02*
X121649773Y-114366804D01*
X121673572Y-114372765D01*
X121696671Y-114381030D01*
X121718850Y-114391520D01*
X121739893Y-114404132D01*
X121759599Y-114418747D01*
X121777777Y-114435223D01*
X121794253Y-114453401D01*
X121808868Y-114473107D01*
X121821480Y-114494150D01*
X121831970Y-114516329D01*
X121840235Y-114539428D01*
X121846196Y-114563227D01*
X121849796Y-114587495D01*
X121851000Y-114611999D01*
X121851000Y-115512001D01*
X121849796Y-115536505D01*
X121846196Y-115560773D01*
X121840235Y-115584572D01*
X121831970Y-115607671D01*
X121821480Y-115629850D01*
X121808868Y-115650893D01*
X121794253Y-115670599D01*
X121777777Y-115688777D01*
X121759599Y-115705253D01*
X121739893Y-115719868D01*
X121718850Y-115732480D01*
X121696671Y-115742970D01*
X121673572Y-115751235D01*
X121649773Y-115757196D01*
X121625505Y-115760796D01*
X121601001Y-115762000D01*
X120950999Y-115762000D01*
X120926495Y-115760796D01*
X120902227Y-115757196D01*
X120878428Y-115751235D01*
X120855329Y-115742970D01*
X120833150Y-115732480D01*
X120812107Y-115719868D01*
X120792401Y-115705253D01*
X120774223Y-115688777D01*
X120757747Y-115670599D01*
X120743132Y-115650893D01*
X120730520Y-115629850D01*
X120720030Y-115607671D01*
X120711765Y-115584572D01*
X120705804Y-115560773D01*
X120702204Y-115536505D01*
X120701000Y-115512001D01*
X120701000Y-114611999D01*
X120702204Y-114587495D01*
X120705804Y-114563227D01*
X120711765Y-114539428D01*
X120720030Y-114516329D01*
X120730520Y-114494150D01*
X120743132Y-114473107D01*
X120757747Y-114453401D01*
X120774223Y-114435223D01*
X120792401Y-114418747D01*
X120812107Y-114404132D01*
X120833150Y-114391520D01*
X120855329Y-114381030D01*
X120878428Y-114372765D01*
X120902227Y-114366804D01*
X120926495Y-114363204D01*
X120950999Y-114362000D01*
X121601001Y-114362000D01*
X121625505Y-114363204D01*
X121625505Y-114363204D01*
G37*
D12*
G04 #@! TD*
G04 #@! TO.P,R10,2*
G04 #@! TO.N,/D2*
X121276000Y-115062000D03*
D11*
G04 #@! TO.N,/D2_OUT*
G04 #@! TO.C,R10*
G36*
X123675505Y-114363204D02*
X123699773Y-114366804D01*
X123723572Y-114372765D01*
X123746671Y-114381030D01*
X123768850Y-114391520D01*
X123789893Y-114404132D01*
X123809599Y-114418747D01*
X123827777Y-114435223D01*
X123844253Y-114453401D01*
X123858868Y-114473107D01*
X123871480Y-114494150D01*
X123881970Y-114516329D01*
X123890235Y-114539428D01*
X123896196Y-114563227D01*
X123899796Y-114587495D01*
X123901000Y-114611999D01*
X123901000Y-115512001D01*
X123899796Y-115536505D01*
X123896196Y-115560773D01*
X123890235Y-115584572D01*
X123881970Y-115607671D01*
X123871480Y-115629850D01*
X123858868Y-115650893D01*
X123844253Y-115670599D01*
X123827777Y-115688777D01*
X123809599Y-115705253D01*
X123789893Y-115719868D01*
X123768850Y-115732480D01*
X123746671Y-115742970D01*
X123723572Y-115751235D01*
X123699773Y-115757196D01*
X123675505Y-115760796D01*
X123651001Y-115762000D01*
X123000999Y-115762000D01*
X122976495Y-115760796D01*
X122952227Y-115757196D01*
X122928428Y-115751235D01*
X122905329Y-115742970D01*
X122883150Y-115732480D01*
X122862107Y-115719868D01*
X122842401Y-115705253D01*
X122824223Y-115688777D01*
X122807747Y-115670599D01*
X122793132Y-115650893D01*
X122780520Y-115629850D01*
X122770030Y-115607671D01*
X122761765Y-115584572D01*
X122755804Y-115560773D01*
X122752204Y-115536505D01*
X122751000Y-115512001D01*
X122751000Y-114611999D01*
X122752204Y-114587495D01*
X122755804Y-114563227D01*
X122761765Y-114539428D01*
X122770030Y-114516329D01*
X122780520Y-114494150D01*
X122793132Y-114473107D01*
X122807747Y-114453401D01*
X122824223Y-114435223D01*
X122842401Y-114418747D01*
X122862107Y-114404132D01*
X122883150Y-114391520D01*
X122905329Y-114381030D01*
X122928428Y-114372765D01*
X122952227Y-114366804D01*
X122976495Y-114363204D01*
X123000999Y-114362000D01*
X123651001Y-114362000D01*
X123675505Y-114363204D01*
X123675505Y-114363204D01*
G37*
D12*
G04 #@! TD*
G04 #@! TO.P,R10,1*
G04 #@! TO.N,/D2_OUT*
X123326000Y-115062000D03*
D11*
G04 #@! TO.N,/D1_OUT*
G04 #@! TO.C,R9*
G36*
X123675505Y-116268204D02*
X123699773Y-116271804D01*
X123723572Y-116277765D01*
X123746671Y-116286030D01*
X123768850Y-116296520D01*
X123789893Y-116309132D01*
X123809599Y-116323747D01*
X123827777Y-116340223D01*
X123844253Y-116358401D01*
X123858868Y-116378107D01*
X123871480Y-116399150D01*
X123881970Y-116421329D01*
X123890235Y-116444428D01*
X123896196Y-116468227D01*
X123899796Y-116492495D01*
X123901000Y-116516999D01*
X123901000Y-117417001D01*
X123899796Y-117441505D01*
X123896196Y-117465773D01*
X123890235Y-117489572D01*
X123881970Y-117512671D01*
X123871480Y-117534850D01*
X123858868Y-117555893D01*
X123844253Y-117575599D01*
X123827777Y-117593777D01*
X123809599Y-117610253D01*
X123789893Y-117624868D01*
X123768850Y-117637480D01*
X123746671Y-117647970D01*
X123723572Y-117656235D01*
X123699773Y-117662196D01*
X123675505Y-117665796D01*
X123651001Y-117667000D01*
X123000999Y-117667000D01*
X122976495Y-117665796D01*
X122952227Y-117662196D01*
X122928428Y-117656235D01*
X122905329Y-117647970D01*
X122883150Y-117637480D01*
X122862107Y-117624868D01*
X122842401Y-117610253D01*
X122824223Y-117593777D01*
X122807747Y-117575599D01*
X122793132Y-117555893D01*
X122780520Y-117534850D01*
X122770030Y-117512671D01*
X122761765Y-117489572D01*
X122755804Y-117465773D01*
X122752204Y-117441505D01*
X122751000Y-117417001D01*
X122751000Y-116516999D01*
X122752204Y-116492495D01*
X122755804Y-116468227D01*
X122761765Y-116444428D01*
X122770030Y-116421329D01*
X122780520Y-116399150D01*
X122793132Y-116378107D01*
X122807747Y-116358401D01*
X122824223Y-116340223D01*
X122842401Y-116323747D01*
X122862107Y-116309132D01*
X122883150Y-116296520D01*
X122905329Y-116286030D01*
X122928428Y-116277765D01*
X122952227Y-116271804D01*
X122976495Y-116268204D01*
X123000999Y-116267000D01*
X123651001Y-116267000D01*
X123675505Y-116268204D01*
X123675505Y-116268204D01*
G37*
D12*
G04 #@! TD*
G04 #@! TO.P,R9,1*
G04 #@! TO.N,/D1_OUT*
X123326000Y-116967000D03*
D11*
G04 #@! TO.N,/D1*
G04 #@! TO.C,R9*
G36*
X121625505Y-116268204D02*
X121649773Y-116271804D01*
X121673572Y-116277765D01*
X121696671Y-116286030D01*
X121718850Y-116296520D01*
X121739893Y-116309132D01*
X121759599Y-116323747D01*
X121777777Y-116340223D01*
X121794253Y-116358401D01*
X121808868Y-116378107D01*
X121821480Y-116399150D01*
X121831970Y-116421329D01*
X121840235Y-116444428D01*
X121846196Y-116468227D01*
X121849796Y-116492495D01*
X121851000Y-116516999D01*
X121851000Y-117417001D01*
X121849796Y-117441505D01*
X121846196Y-117465773D01*
X121840235Y-117489572D01*
X121831970Y-117512671D01*
X121821480Y-117534850D01*
X121808868Y-117555893D01*
X121794253Y-117575599D01*
X121777777Y-117593777D01*
X121759599Y-117610253D01*
X121739893Y-117624868D01*
X121718850Y-117637480D01*
X121696671Y-117647970D01*
X121673572Y-117656235D01*
X121649773Y-117662196D01*
X121625505Y-117665796D01*
X121601001Y-117667000D01*
X120950999Y-117667000D01*
X120926495Y-117665796D01*
X120902227Y-117662196D01*
X120878428Y-117656235D01*
X120855329Y-117647970D01*
X120833150Y-117637480D01*
X120812107Y-117624868D01*
X120792401Y-117610253D01*
X120774223Y-117593777D01*
X120757747Y-117575599D01*
X120743132Y-117555893D01*
X120730520Y-117534850D01*
X120720030Y-117512671D01*
X120711765Y-117489572D01*
X120705804Y-117465773D01*
X120702204Y-117441505D01*
X120701000Y-117417001D01*
X120701000Y-116516999D01*
X120702204Y-116492495D01*
X120705804Y-116468227D01*
X120711765Y-116444428D01*
X120720030Y-116421329D01*
X120730520Y-116399150D01*
X120743132Y-116378107D01*
X120757747Y-116358401D01*
X120774223Y-116340223D01*
X120792401Y-116323747D01*
X120812107Y-116309132D01*
X120833150Y-116296520D01*
X120855329Y-116286030D01*
X120878428Y-116277765D01*
X120902227Y-116271804D01*
X120926495Y-116268204D01*
X120950999Y-116267000D01*
X121601001Y-116267000D01*
X121625505Y-116268204D01*
X121625505Y-116268204D01*
G37*
D12*
G04 #@! TD*
G04 #@! TO.P,R9,2*
G04 #@! TO.N,/D1*
X121276000Y-116967000D03*
D11*
G04 #@! TO.N,/D0_OUT*
G04 #@! TO.C,R8*
G36*
X123675505Y-118173204D02*
X123699773Y-118176804D01*
X123723572Y-118182765D01*
X123746671Y-118191030D01*
X123768850Y-118201520D01*
X123789893Y-118214132D01*
X123809599Y-118228747D01*
X123827777Y-118245223D01*
X123844253Y-118263401D01*
X123858868Y-118283107D01*
X123871480Y-118304150D01*
X123881970Y-118326329D01*
X123890235Y-118349428D01*
X123896196Y-118373227D01*
X123899796Y-118397495D01*
X123901000Y-118421999D01*
X123901000Y-119322001D01*
X123899796Y-119346505D01*
X123896196Y-119370773D01*
X123890235Y-119394572D01*
X123881970Y-119417671D01*
X123871480Y-119439850D01*
X123858868Y-119460893D01*
X123844253Y-119480599D01*
X123827777Y-119498777D01*
X123809599Y-119515253D01*
X123789893Y-119529868D01*
X123768850Y-119542480D01*
X123746671Y-119552970D01*
X123723572Y-119561235D01*
X123699773Y-119567196D01*
X123675505Y-119570796D01*
X123651001Y-119572000D01*
X123000999Y-119572000D01*
X122976495Y-119570796D01*
X122952227Y-119567196D01*
X122928428Y-119561235D01*
X122905329Y-119552970D01*
X122883150Y-119542480D01*
X122862107Y-119529868D01*
X122842401Y-119515253D01*
X122824223Y-119498777D01*
X122807747Y-119480599D01*
X122793132Y-119460893D01*
X122780520Y-119439850D01*
X122770030Y-119417671D01*
X122761765Y-119394572D01*
X122755804Y-119370773D01*
X122752204Y-119346505D01*
X122751000Y-119322001D01*
X122751000Y-118421999D01*
X122752204Y-118397495D01*
X122755804Y-118373227D01*
X122761765Y-118349428D01*
X122770030Y-118326329D01*
X122780520Y-118304150D01*
X122793132Y-118283107D01*
X122807747Y-118263401D01*
X122824223Y-118245223D01*
X122842401Y-118228747D01*
X122862107Y-118214132D01*
X122883150Y-118201520D01*
X122905329Y-118191030D01*
X122928428Y-118182765D01*
X122952227Y-118176804D01*
X122976495Y-118173204D01*
X123000999Y-118172000D01*
X123651001Y-118172000D01*
X123675505Y-118173204D01*
X123675505Y-118173204D01*
G37*
D12*
G04 #@! TD*
G04 #@! TO.P,R8,1*
G04 #@! TO.N,/D0_OUT*
X123326000Y-118872000D03*
D11*
G04 #@! TO.N,/D0*
G04 #@! TO.C,R8*
G36*
X121625505Y-118173204D02*
X121649773Y-118176804D01*
X121673572Y-118182765D01*
X121696671Y-118191030D01*
X121718850Y-118201520D01*
X121739893Y-118214132D01*
X121759599Y-118228747D01*
X121777777Y-118245223D01*
X121794253Y-118263401D01*
X121808868Y-118283107D01*
X121821480Y-118304150D01*
X121831970Y-118326329D01*
X121840235Y-118349428D01*
X121846196Y-118373227D01*
X121849796Y-118397495D01*
X121851000Y-118421999D01*
X121851000Y-119322001D01*
X121849796Y-119346505D01*
X121846196Y-119370773D01*
X121840235Y-119394572D01*
X121831970Y-119417671D01*
X121821480Y-119439850D01*
X121808868Y-119460893D01*
X121794253Y-119480599D01*
X121777777Y-119498777D01*
X121759599Y-119515253D01*
X121739893Y-119529868D01*
X121718850Y-119542480D01*
X121696671Y-119552970D01*
X121673572Y-119561235D01*
X121649773Y-119567196D01*
X121625505Y-119570796D01*
X121601001Y-119572000D01*
X120950999Y-119572000D01*
X120926495Y-119570796D01*
X120902227Y-119567196D01*
X120878428Y-119561235D01*
X120855329Y-119552970D01*
X120833150Y-119542480D01*
X120812107Y-119529868D01*
X120792401Y-119515253D01*
X120774223Y-119498777D01*
X120757747Y-119480599D01*
X120743132Y-119460893D01*
X120730520Y-119439850D01*
X120720030Y-119417671D01*
X120711765Y-119394572D01*
X120705804Y-119370773D01*
X120702204Y-119346505D01*
X120701000Y-119322001D01*
X120701000Y-118421999D01*
X120702204Y-118397495D01*
X120705804Y-118373227D01*
X120711765Y-118349428D01*
X120720030Y-118326329D01*
X120730520Y-118304150D01*
X120743132Y-118283107D01*
X120757747Y-118263401D01*
X120774223Y-118245223D01*
X120792401Y-118228747D01*
X120812107Y-118214132D01*
X120833150Y-118201520D01*
X120855329Y-118191030D01*
X120878428Y-118182765D01*
X120902227Y-118176804D01*
X120926495Y-118173204D01*
X120950999Y-118172000D01*
X121601001Y-118172000D01*
X121625505Y-118173204D01*
X121625505Y-118173204D01*
G37*
D12*
G04 #@! TD*
G04 #@! TO.P,R8,2*
G04 #@! TO.N,/D0*
X121276000Y-118872000D03*
D21*
G04 #@! TO.P,Y1,1*
G04 #@! TO.N,/OSC_IN*
X113154460Y-121589800D03*
G04 #@! TO.P,Y1,2*
G04 #@! TO.N,/OSC_OUT*
X118036340Y-121589800D03*
G04 #@! TD*
D22*
G04 #@! TO.P,SP1,1*
G04 #@! TO.N,/BEEP*
X123095000Y-109474000D03*
G04 #@! TO.P,SP1,2*
G04 #@! TO.N,GND*
X127095000Y-109474000D03*
G04 #@! TD*
D16*
G04 #@! TO.P,P4,1*
G04 #@! TO.N,+3V3*
X91948000Y-103124000D03*
D17*
G04 #@! TO.P,P4,2*
G04 #@! TO.N,/SWCLK*
X94488000Y-103124000D03*
G04 #@! TO.P,P4,3*
G04 #@! TO.N,GND*
X97028000Y-103124000D03*
G04 #@! TO.P,P4,4*
G04 #@! TO.N,/SWDIO*
X99568000Y-103124000D03*
G04 #@! TO.P,P4,5*
G04 #@! TO.N,/RST*
X102108000Y-103124000D03*
G04 #@! TD*
D23*
G04 #@! TO.P,D1,1*
G04 #@! TO.N,Net-(D1-Pad1)*
X126492000Y-103632000D03*
D24*
G04 #@! TO.P,D1,2*
G04 #@! TO.N,GND*
X129032000Y-103632000D03*
G04 #@! TO.P,D1,3*
G04 #@! TO.N,Net-(D1-Pad3)*
X131572000Y-103632000D03*
G04 #@! TD*
D23*
G04 #@! TO.P,D2,1*
G04 #@! TO.N,Net-(D2-Pad1)*
X126492000Y-122174000D03*
D24*
G04 #@! TO.P,D2,2*
G04 #@! TO.N,GND*
X129032000Y-122174000D03*
G04 #@! TO.P,D2,3*
G04 #@! TO.N,Net-(D2-Pad3)*
X131572000Y-122174000D03*
G04 #@! TD*
D25*
G04 #@! TO.P,P2,3*
G04 #@! TO.N,/D2_OUT*
X132588000Y-110490000D03*
G04 #@! TO.P,P2,5*
G04 #@! TO.N,/D4_OUT*
X132588000Y-113030000D03*
G04 #@! TO.P,P2,1*
G04 #@! TO.N,/D0_OUT*
X132588000Y-107950000D03*
G04 #@! TO.P,P2,9*
G04 #@! TO.N,/5V_OUT*
X132588000Y-118110000D03*
G04 #@! TO.P,P2,7*
G04 #@! TO.N,/3.3V_OUT*
X132588000Y-115570000D03*
G04 #@! TD*
D26*
G04 #@! TO.P,P1,1*
G04 #@! TO.N,+5V*
X98429320Y-111429800D03*
G04 #@! TO.P,P1,2*
G04 #@! TO.N,/USB_DM*
X98429320Y-112229900D03*
G04 #@! TO.P,P1,3*
G04 #@! TO.N,/USB_DP*
X98429320Y-113030000D03*
G04 #@! TO.P,P1,4*
G04 #@! TO.N,Net-(P1-Pad4)*
X98429320Y-113830100D03*
G04 #@! TO.P,P1,5*
G04 #@! TO.N,GND*
X98429320Y-114630200D03*
D27*
G04 #@! TO.P,P1,6*
G04 #@! TO.N,Net-(P1-Pad6)*
X97330260Y-108579920D03*
X91831160Y-108579920D03*
X97330260Y-117480080D03*
X91831160Y-117480080D03*
G04 #@! TD*
D28*
G04 #@! TO.N,/DP*
X109982000Y-109220000D03*
X104348280Y-109428280D03*
G04 #@! TO.N,/DM*
X109982000Y-110109000D03*
X103698040Y-110835440D03*
G04 #@! TO.N,+3V3*
X109728000Y-105029000D03*
X113601500Y-110109000D03*
X98933000Y-105537000D03*
X105918000Y-117805200D03*
X104274620Y-114795300D03*
X105473500Y-118237000D03*
G04 #@! TO.N,/RST*
X104533700Y-110766860D03*
X112268000Y-113030000D03*
G04 #@! TO.N,/D1_OUT*
X124650500Y-117856000D03*
G04 #@! TO.N,/D3_OUT*
X128054100Y-112727740D03*
G04 #@! TO.N,/D3*
X124968000Y-118872000D03*
X119697500Y-114427000D03*
G04 #@! TO.N,/D4*
X124714000Y-116586000D03*
X118872000Y-113665000D03*
G04 #@! TO.N,/D5_OUT*
X128079500Y-113792000D03*
G04 #@! TO.N,/D5*
X124968000Y-115062000D03*
X121051320Y-113553240D03*
G04 #@! TO.N,+5V*
X96774000Y-123596400D03*
X105435400Y-121412000D03*
X104825800Y-121412000D03*
X96329500Y-123190000D03*
G04 #@! TO.N,GND*
X100274120Y-115470940D03*
X97002600Y-106314240D03*
X105791000Y-120396000D03*
X100253800Y-121437400D03*
X100888800Y-121437400D03*
X92252800Y-123571000D03*
X115646200Y-118287800D03*
X115575080Y-110101380D03*
X105359200Y-103733600D03*
X108267500Y-105768140D03*
X108846620Y-105757980D03*
X100418900Y-107558840D03*
X99677220Y-115476020D03*
X99077780Y-115481100D03*
X91262200Y-121920000D03*
X109347000Y-113284000D03*
G04 #@! TO.N,/5V_OUT*
X134366000Y-120777000D03*
X134366000Y-121412000D03*
G04 #@! TO.N,/SWDIO*
X109855000Y-108331000D03*
G04 #@! TO.N,/SWCLK*
X107782360Y-107393740D03*
G04 #@! TO.N,/SPI_MOSI*
X113969800Y-107873800D03*
X117957600Y-106756200D03*
G04 #@! TO.N,/LED_G0*
X113073180Y-108800900D03*
X121869200Y-106680000D03*
G04 #@! TO.N,/LED_G1*
X122275600Y-119888000D03*
X118237000Y-110119160D03*
G04 #@! TO.N,/LED_R1*
X124587000Y-119862600D03*
X119024400Y-109684820D03*
G04 #@! TO.N,/BOOT0*
X104421940Y-106022140D03*
G04 #@! TO.N,/3.3V_OUT*
X110185200Y-119507000D03*
X110185200Y-120015000D03*
G04 #@! TO.N,/D8*
X112928400Y-107924600D03*
G04 #@! TO.N,/PB1*
X115519200Y-112080040D03*
G04 #@! TD*
D29*
G04 #@! TO.N,/DP*
X111272000Y-107803000D02*
X111272000Y-107930000D01*
X111272000Y-107930000D02*
X109982000Y-109220000D01*
X111272000Y-106521000D02*
X111272000Y-107803000D01*
X111272000Y-106521000D02*
X111272000Y-107549000D01*
X103801020Y-109428280D02*
X103447960Y-109075220D01*
X104348280Y-109428280D02*
X103801020Y-109428280D01*
G04 #@! TO.N,/USB_DP*
X98429320Y-113030000D02*
X101459040Y-113030000D01*
X101459040Y-113030000D02*
X101895920Y-113466880D01*
X101459040Y-113030000D02*
X101895920Y-113466880D01*
X102143520Y-113619280D02*
X101854000Y-113466880D01*
X101895920Y-113466880D02*
X102433120Y-113466880D01*
X101484320Y-113030000D02*
X98429320Y-113030000D01*
X102236160Y-113781840D02*
X101484320Y-113030000D01*
X103136170Y-112881830D02*
X103136170Y-112692020D01*
X102236160Y-113781840D02*
X103136170Y-112881830D01*
X101397960Y-109577450D02*
X101397960Y-109075220D01*
X103136170Y-111315660D02*
X101397960Y-109577450D01*
X103136170Y-112881830D02*
X103136170Y-111315660D01*
G04 #@! TO.N,/BEEP*
X116999000Y-111121000D02*
X118162998Y-111121000D01*
X118162998Y-111121000D02*
X118984498Y-110309821D01*
X121680787Y-109474000D02*
X123095000Y-109474000D01*
X120844966Y-110309821D02*
X121680787Y-109474000D01*
X118984498Y-110309821D02*
X120844966Y-110309821D01*
G04 #@! TO.N,/DM*
X104602280Y-111714280D02*
X104595920Y-111714280D01*
X104640420Y-111589780D02*
X104195920Y-111485680D01*
X111772000Y-106521000D02*
X111772000Y-108573000D01*
X109982000Y-110109000D02*
X111772000Y-108573000D01*
X111772000Y-108319000D02*
X111772000Y-107950000D01*
X111772000Y-107950000D02*
X111772000Y-107569000D01*
X111772000Y-106521000D02*
X111772000Y-107569000D01*
X111772000Y-107569000D02*
X111772000Y-107823000D01*
X111772000Y-107823000D02*
X111772000Y-108319000D01*
X104394000Y-111760000D02*
X104276000Y-111760000D01*
X104286160Y-111423560D02*
X103698040Y-110835440D01*
X104286160Y-112003840D02*
X104286160Y-111423560D01*
G04 #@! TO.N,/USB_DM*
X97429320Y-112229900D02*
X98844100Y-112229900D01*
X97429320Y-112229900D02*
X98706900Y-112229900D01*
X102010100Y-112229900D02*
X102236160Y-112003840D01*
X98429320Y-112229900D02*
X102010100Y-112229900D01*
D30*
G04 #@! TO.N,+3V3*
X102870000Y-123063000D02*
X102870000Y-120650000D01*
D29*
X106045000Y-105009000D02*
X109708000Y-105009000D01*
X109708000Y-105009000D02*
X109728000Y-105029000D01*
X109772000Y-106521000D02*
X109772000Y-105073000D01*
X109772000Y-105073000D02*
X109728000Y-105029000D01*
X110744000Y-103632000D02*
X111125000Y-103251000D01*
X113601500Y-110109000D02*
X113665000Y-110109000D01*
X113772000Y-115221000D02*
X113772000Y-113518000D01*
X112299750Y-112045750D02*
X111664750Y-112045750D01*
X111664750Y-112045750D02*
X113601500Y-110109000D01*
X113772000Y-113518000D02*
X112299750Y-112045750D01*
X98572000Y-120650000D02*
X98552000Y-120670000D01*
X109772000Y-114852000D02*
X109772000Y-115221000D01*
X104221320Y-113492280D02*
X104195920Y-113466880D01*
X104195920Y-113426280D02*
X104195920Y-113466880D01*
D30*
X108648500Y-115062000D02*
X113601500Y-110109000D01*
X108140500Y-115570000D02*
X108648500Y-115062000D01*
D29*
X108045000Y-115665500D02*
X108045000Y-113621000D01*
D30*
X107505500Y-116205000D02*
X108045000Y-115665500D01*
X100711000Y-120650000D02*
X103060500Y-120650000D01*
X100711000Y-120650000D02*
X98572000Y-120650000D01*
D29*
X102870000Y-120650000D02*
X100711000Y-120650000D01*
X108362500Y-115348000D02*
X109772000Y-115348000D01*
D30*
X103060500Y-120650000D02*
X104267000Y-119443500D01*
X104267000Y-119443500D02*
X105473500Y-118237000D01*
D29*
X99695000Y-105537000D02*
X98933000Y-105537000D01*
D30*
X106425000Y-119443500D02*
X104267000Y-119443500D01*
X106779000Y-119797500D02*
X106425000Y-119443500D01*
X108204000Y-119797500D02*
X106779000Y-119797500D01*
X102870000Y-116611000D02*
X102870000Y-120650000D01*
X104286160Y-115194840D02*
X102870000Y-116611000D01*
X104286160Y-113781840D02*
X104286160Y-115194840D01*
D29*
X115589500Y-108121000D02*
X113601500Y-110109000D01*
X116872000Y-108121000D02*
X115589500Y-108121000D01*
X116872000Y-108121000D02*
X127997400Y-108121000D01*
X130810000Y-106299000D02*
X133604000Y-103505000D01*
X133604000Y-103505000D02*
X133604000Y-102917000D01*
X127997400Y-108121000D02*
X129819400Y-106299000D01*
X129819400Y-106299000D02*
X130810000Y-106299000D01*
X109829600Y-105029000D02*
X109728000Y-105029000D01*
X111455200Y-103403400D02*
X109829600Y-105029000D01*
X111455200Y-103251000D02*
X111455200Y-103403400D01*
D30*
X105473500Y-118237000D02*
X107696000Y-116014500D01*
D29*
G04 #@! TO.N,/RST*
X102315000Y-103184000D02*
X102315000Y-105918000D01*
X102108000Y-103124000D02*
X102255000Y-103124000D01*
X102255000Y-103124000D02*
X102315000Y-103184000D01*
X102498000Y-102734000D02*
X102108000Y-103124000D01*
X104394000Y-102734000D02*
X102498000Y-102734000D01*
X102990070Y-110205520D02*
X102431010Y-109646460D01*
X104056622Y-110205520D02*
X102990070Y-110205520D01*
X102431010Y-105978010D02*
X101990000Y-105537000D01*
X104533700Y-110682598D02*
X104056622Y-110205520D01*
X102431010Y-109646460D02*
X102431010Y-105978010D01*
X104533700Y-110766860D02*
X104533700Y-110682598D01*
X112772000Y-113508600D02*
X112772000Y-115221000D01*
X112268000Y-113030000D02*
X112772000Y-113508600D01*
G04 #@! TO.N,/D0_OUT*
X133604000Y-105617000D02*
X133604000Y-106934000D01*
X133604000Y-106934000D02*
X132588000Y-107950000D01*
X129798000Y-107950000D02*
X132588000Y-107950000D01*
X122301000Y-114498810D02*
X123048450Y-113751360D01*
X122809000Y-118872000D02*
X122301000Y-118364000D01*
X125605540Y-113157000D02*
X128907540Y-109855000D01*
X122301000Y-118364000D02*
X122301000Y-114498810D01*
X128907540Y-109855000D02*
X128907540Y-108840460D01*
X123651000Y-118872000D02*
X122809000Y-118872000D01*
X123048450Y-113751360D02*
X124500640Y-113751360D01*
X124500640Y-113751360D02*
X125095000Y-113157000D01*
X125095000Y-113157000D02*
X125605540Y-113157000D01*
X128907540Y-108840460D02*
X129798000Y-107950000D01*
G04 #@! TO.N,/D0*
X114272000Y-115348000D02*
X114272000Y-116384410D01*
X114272000Y-116384410D02*
X114695000Y-116807410D01*
X119211410Y-116807410D02*
X121276000Y-118872000D01*
X114695000Y-116807410D02*
X119211410Y-116807410D01*
G04 #@! TO.N,/D1_OUT*
X123761500Y-116967000D02*
X124650500Y-117856000D01*
X123326000Y-116967000D02*
X123761500Y-116967000D01*
G04 #@! TO.N,/D1*
X120624600Y-116967000D02*
X121276000Y-116967000D01*
X114772000Y-115348000D02*
X114772000Y-116248000D01*
X114772000Y-116248000D02*
X114881400Y-116357400D01*
X114881400Y-116357400D02*
X120015000Y-116357400D01*
X120015000Y-116357400D02*
X120624600Y-116967000D01*
G04 #@! TO.N,/D2_OUT*
X123651000Y-115062000D02*
X123651000Y-114728000D01*
X130937000Y-110490000D02*
X132588000Y-110490000D01*
X129252980Y-110490000D02*
X132588000Y-110490000D01*
X123326000Y-115062000D02*
X124001000Y-115062000D01*
X125823980Y-113919000D02*
X129252980Y-110490000D01*
X124001000Y-115062000D02*
X125144000Y-113919000D01*
X125144000Y-113919000D02*
X125823980Y-113919000D01*
G04 #@! TO.N,/D2*
X115272000Y-115221000D02*
X120792000Y-115221000D01*
X120792000Y-115221000D02*
X120951000Y-115062000D01*
G04 #@! TO.N,/D3_OUT*
X127000000Y-113781840D02*
X128054100Y-112727740D01*
X127000000Y-117856000D02*
X127000000Y-113781840D01*
X128016000Y-118872000D02*
X127000000Y-117856000D01*
X128350000Y-118872000D02*
X128016000Y-118872000D01*
G04 #@! TO.N,/D3*
X125603000Y-118872000D02*
X125650000Y-118872000D01*
X117524000Y-113621000D02*
X118330000Y-114427000D01*
X116999000Y-113621000D02*
X117524000Y-113621000D01*
X118330000Y-114427000D02*
X119697500Y-114427000D01*
X124968000Y-118872000D02*
X125975000Y-118872000D01*
G04 #@! TO.N,/D4_OUT*
X128025000Y-116967000D02*
X128981200Y-116010800D01*
X129798000Y-113030000D02*
X132588000Y-113030000D01*
X129719898Y-113030000D02*
X129798000Y-113030000D01*
X128981200Y-114935000D02*
X128981200Y-113768698D01*
X128981200Y-113768698D02*
X129719898Y-113030000D01*
X128981200Y-116010800D02*
X128981200Y-114935000D01*
G04 #@! TO.N,/D4*
X125603000Y-116967000D02*
X125650000Y-116967000D01*
X118328000Y-113121000D02*
X116999000Y-113121000D01*
X118872000Y-113665000D02*
X118328000Y-113121000D01*
X125095000Y-116967000D02*
X124714000Y-116586000D01*
X125975000Y-116967000D02*
X125095000Y-116967000D01*
G04 #@! TO.N,/D5_OUT*
X128025000Y-113846500D02*
X128079500Y-113792000D01*
X128025000Y-115062000D02*
X128025000Y-113846500D01*
G04 #@! TO.N,/D5*
X124968000Y-115062000D02*
X125650000Y-115062000D01*
X119034500Y-112621000D02*
X116872000Y-112621000D01*
X119966740Y-113553240D02*
X119034500Y-112621000D01*
X121051320Y-113553240D02*
X119966740Y-113553240D01*
D30*
G04 #@! TO.N,+5V*
X105156000Y-123063000D02*
X105156000Y-123190000D01*
X97429320Y-111429800D02*
X97078800Y-111429800D01*
X97429320Y-111429800D02*
X96824800Y-111429800D01*
X96528890Y-111429800D02*
X97429320Y-111429800D01*
X95250000Y-122110500D02*
X95250000Y-121856500D01*
X96329500Y-123190000D02*
X95250000Y-122110500D01*
X96088200Y-111429800D02*
X97429320Y-111429800D01*
X93726000Y-113792000D02*
X96088200Y-111429800D01*
X93726000Y-116332000D02*
X93726000Y-113792000D01*
X95213500Y-120495000D02*
X94678500Y-119960000D01*
X95213500Y-121920000D02*
X95213500Y-120495000D01*
X94678500Y-119960000D02*
X94678500Y-117284500D01*
X94678500Y-117284500D02*
X93726000Y-116332000D01*
X105170000Y-121756200D02*
X104825800Y-121412000D01*
X105170000Y-122911000D02*
X105170000Y-121756200D01*
X105170000Y-121677400D02*
X105435400Y-121412000D01*
X105170000Y-122911000D02*
X105170000Y-121677400D01*
X96367600Y-123190000D02*
X96774000Y-123596400D01*
X96329500Y-123190000D02*
X96367600Y-123190000D01*
G04 #@! TO.N,GND*
X100279200Y-115491260D02*
X100279200Y-114640360D01*
X99689920Y-115488720D02*
X99689920Y-114637820D01*
D29*
X100584000Y-122428000D02*
X100584000Y-123063000D01*
X98429320Y-114630200D02*
X98628200Y-114630200D01*
X91726000Y-121920000D02*
X91821000Y-121920000D01*
X91726000Y-122555000D02*
X91726000Y-122968000D01*
D30*
X98171000Y-123170000D02*
X100477000Y-123170000D01*
D29*
X100477000Y-123170000D02*
X100584000Y-123063000D01*
X92075000Y-122555000D02*
X91726000Y-122555000D01*
X97993200Y-114630200D02*
X97429320Y-114630200D01*
X108204000Y-123285000D02*
X108204000Y-122809000D01*
D30*
X108204000Y-122809000D02*
X105791000Y-120396000D01*
D29*
X97429320Y-114630200D02*
X97993200Y-114630200D01*
X113272000Y-115221000D02*
X113272000Y-116078000D01*
X108172000Y-113121000D02*
X109184000Y-113121000D01*
X109184000Y-113121000D02*
X109410500Y-113347500D01*
X106025000Y-102509000D02*
X106045000Y-102509000D01*
X104330500Y-104784000D02*
X104330500Y-104521000D01*
X105791000Y-102988000D02*
X106045000Y-102734000D01*
X105791000Y-103323500D02*
X105791000Y-102988000D01*
X104330500Y-104784000D02*
X105791000Y-103323500D01*
X104330500Y-104784000D02*
X104330500Y-105029000D01*
X116348400Y-118287800D02*
X114533900Y-118287800D01*
D30*
X100570000Y-121756200D02*
X100888800Y-121437400D01*
X100570000Y-121753600D02*
X100253800Y-121437400D01*
X100570000Y-122911000D02*
X100570000Y-121753600D01*
D29*
X113272000Y-115348000D02*
X113272000Y-116248000D01*
X92238500Y-122667700D02*
X92238500Y-121920000D01*
X92252800Y-123571000D02*
X92238500Y-122667700D01*
X115134000Y-118110000D02*
X114071400Y-117047400D01*
X113272000Y-116248000D02*
X114071400Y-117047400D01*
X116872000Y-110121000D02*
X116130898Y-110121000D01*
X115404200Y-110121000D02*
X116999000Y-110121000D01*
X115575080Y-110101380D02*
X115404200Y-110121000D01*
X108849160Y-105791000D02*
X108267500Y-105768140D01*
X108846620Y-105757980D02*
X108849160Y-105791000D01*
X101272340Y-107261660D02*
X101423360Y-107261660D01*
X100418900Y-107558840D02*
X101272340Y-107261660D01*
X105314640Y-105768140D02*
X104330500Y-104784000D01*
X108267500Y-105768140D02*
X105314640Y-105768140D01*
X98976264Y-114681000D02*
X98806000Y-114681000D01*
X99568000Y-114701236D02*
X99568000Y-114681000D01*
D30*
X99077780Y-115481100D02*
X99077780Y-114630200D01*
X92238500Y-121920000D02*
X91282520Y-121920000D01*
D29*
X110272000Y-107277602D02*
X110272000Y-106521000D01*
X110053601Y-107496001D02*
X110272000Y-107277602D01*
X97002600Y-103149400D02*
X97028000Y-103124000D01*
D30*
X97002600Y-106314240D02*
X97002600Y-103149400D01*
D29*
X110053601Y-107496001D02*
X109510221Y-107496001D01*
X108846620Y-106832400D02*
X108846620Y-105757980D01*
X109510221Y-107496001D02*
X108846620Y-106832400D01*
X115575080Y-109677116D02*
X115575080Y-110101380D01*
X115972000Y-108621000D02*
X115575080Y-109017920D01*
X115575080Y-109017920D02*
X115575080Y-109677116D01*
X116872000Y-108621000D02*
X115972000Y-108621000D01*
X106248200Y-102844600D02*
X105359200Y-103733600D01*
X106248200Y-102734000D02*
X106248200Y-102844600D01*
G04 #@! TO.N,/OSC_IN*
X113002060Y-122047000D02*
X113002060Y-122019060D01*
X113154460Y-121589800D02*
X113154460Y-119964200D01*
X111772000Y-116598000D02*
X111772000Y-115348000D01*
X112687100Y-117513100D02*
X111772000Y-116598000D01*
X112687100Y-119037000D02*
X112687100Y-117513100D01*
X113131700Y-119481600D02*
X112687100Y-119037000D01*
X113154460Y-119481600D02*
X113131700Y-119481600D01*
X113154460Y-121589800D02*
X113154460Y-119481600D01*
G04 #@! TO.N,/OSC_OUT*
X112272000Y-115348000D02*
X112272000Y-116233710D01*
X113284000Y-117245710D02*
X113587110Y-117548820D01*
X112272000Y-116233710D02*
X113284000Y-117245710D01*
X113587110Y-118618000D02*
X113587110Y-118675200D01*
X113587110Y-117548820D02*
X113587110Y-118618000D01*
X113587110Y-118618000D02*
X113587110Y-119048110D01*
X114427000Y-119888000D02*
X117285771Y-119888000D01*
X113587110Y-119048110D02*
X114427000Y-119888000D01*
X118036340Y-120528334D02*
X117396006Y-119888000D01*
X117396006Y-119888000D02*
X117285771Y-119888000D01*
X118036340Y-121589800D02*
X118036340Y-120528334D01*
X117396006Y-119442594D02*
X118601600Y-118237000D01*
X117396006Y-119888000D02*
X117396006Y-119442594D01*
D30*
G04 #@! TO.N,/5V_OUT*
X134366000Y-119888000D02*
X132588000Y-118110000D01*
X134366000Y-121412000D02*
X134366000Y-119888000D01*
D29*
G04 #@! TO.N,/TXD*
X116205000Y-103403400D02*
X116205000Y-103251000D01*
X112772000Y-106521000D02*
X112772000Y-105621000D01*
X115501350Y-104589650D02*
X116687600Y-103403400D01*
X112772000Y-106394000D02*
X112772000Y-105287000D01*
X112772000Y-105287000D02*
X113157000Y-104902000D01*
X114530530Y-104589650D02*
X115501350Y-104589650D01*
X113157000Y-104902000D02*
X114218180Y-104902000D01*
X116687600Y-103403400D02*
X116687600Y-103251000D01*
X114218180Y-104902000D02*
X114530530Y-104589650D01*
G04 #@! TO.N,/RXD*
X112272000Y-105621000D02*
X112272000Y-106521000D01*
X112272000Y-105126600D02*
X112272000Y-105621000D01*
X113995200Y-103251000D02*
X113995200Y-103403400D01*
X112272000Y-104923400D02*
X113792000Y-103403400D01*
X113792000Y-103403400D02*
X113792000Y-103251000D01*
X112272000Y-105126600D02*
X112272000Y-104923400D01*
G04 #@! TO.N,/SWDIO*
X110772000Y-107414000D02*
X110772000Y-106521000D01*
X109855000Y-108331000D02*
X110772000Y-107414000D01*
G04 #@! TO.N,/SWCLK*
X108045000Y-107656380D02*
X107782360Y-107393740D01*
X108172000Y-107783380D02*
X107782360Y-107393740D01*
X108172000Y-108121000D02*
X108172000Y-107783380D01*
G04 #@! TO.N,/SPI_CS*
X115843289Y-106717289D02*
X116293900Y-106717289D01*
X115647000Y-106521000D02*
X115843289Y-106717289D01*
X116293900Y-106717289D02*
X115970289Y-106717289D01*
X115647000Y-106521000D02*
X115272000Y-106521000D01*
X118605799Y-106108001D02*
X119354600Y-105359200D01*
X117589799Y-106108001D02*
X118605799Y-106108001D01*
X116980511Y-106717289D02*
X117589799Y-106108001D01*
X116293900Y-106717289D02*
X116980511Y-106717289D01*
G04 #@! TO.N,/SPI_SCK*
X114772000Y-105621000D02*
X114772000Y-106521000D01*
X114847001Y-105545999D02*
X114772000Y-105621000D01*
X115537373Y-105545999D02*
X114847001Y-105545999D01*
X115856034Y-105864660D02*
X115537373Y-105545999D01*
X116563140Y-105864660D02*
X115856034Y-105864660D01*
G04 #@! TO.N,/SPI_MISO*
X114272000Y-106394000D02*
X114272000Y-105533998D01*
X114272000Y-106521000D02*
X114272000Y-105484590D01*
X114272000Y-105484590D02*
X114660600Y-105095990D01*
X114660600Y-105095990D02*
X115782410Y-105095990D01*
X115976400Y-104902000D02*
X117551200Y-104902000D01*
X117551200Y-104902000D02*
X117932200Y-105283000D01*
X115782410Y-105095990D02*
X115976400Y-104902000D01*
G04 #@! TO.N,/SPI_MOSI*
X113772000Y-107676000D02*
X113969800Y-107873800D01*
X113772000Y-106521000D02*
X113772000Y-107676000D01*
X118160800Y-106705400D02*
X119659400Y-106705400D01*
X119659400Y-106705400D02*
X120751600Y-105613200D01*
X117957600Y-106756200D02*
X118160800Y-106705400D01*
G04 #@! TO.N,Net-(D1-Pad1)*
X124850000Y-103632000D02*
X123707000Y-102489000D01*
X126492000Y-103632000D02*
X124850000Y-103632000D01*
G04 #@! TO.N,Net-(D2-Pad1)*
X122250200Y-122529600D02*
X123012200Y-121767600D01*
X123012200Y-121767600D02*
X126441200Y-121767600D01*
G04 #@! TO.N,/LED_G0*
X108172000Y-112121000D02*
X109430500Y-112121000D01*
X109764209Y-112121000D02*
X113119869Y-108765340D01*
X108045000Y-112121000D02*
X109764209Y-112121000D01*
X121920000Y-102489000D02*
X121332000Y-102489000D01*
X122682000Y-105867200D02*
X122682000Y-103251000D01*
X122682000Y-103251000D02*
X121920000Y-102489000D01*
X121869200Y-106680000D02*
X122682000Y-105867200D01*
G04 #@! TO.N,/LED_G1*
X122250200Y-119913400D02*
X122275600Y-119888000D01*
X122250200Y-120742600D02*
X122250200Y-119913400D01*
X116872000Y-109621000D02*
X116788500Y-109621000D01*
X117738840Y-109621000D02*
X116999000Y-109621000D01*
X118237000Y-110119160D02*
X117738840Y-109621000D01*
G04 #@! TO.N,Net-(D1-Pad3)*
X124032000Y-104267000D02*
X124079000Y-104267000D01*
X130149600Y-105054400D02*
X124494400Y-105054400D01*
X124494400Y-105054400D02*
X123707000Y-104267000D01*
X131572000Y-103632000D02*
X130149600Y-105054400D01*
G04 #@! TO.N,/LED_R0*
X121657000Y-105257600D02*
X121657000Y-104267000D01*
X121657000Y-105928802D02*
X121657000Y-105257600D01*
X108172000Y-112621000D02*
X110164498Y-112621000D01*
X110164498Y-112621000D02*
X115168189Y-107617309D01*
X119968493Y-107617309D02*
X121657000Y-105928802D01*
X115168189Y-107617309D02*
X119968493Y-107617309D01*
G04 #@! TO.N,Net-(D2-Pad3)*
X130330028Y-123415972D02*
X130822001Y-122923999D01*
X124905572Y-123415972D02*
X130330028Y-123415972D01*
X130822001Y-122923999D02*
X131572000Y-122174000D01*
X124282200Y-122792600D02*
X124905572Y-123415972D01*
G04 #@! TO.N,/LED_R1*
X124333000Y-120459500D02*
X124333000Y-121149000D01*
X124282200Y-120167400D02*
X124587000Y-119862600D01*
X124282200Y-120742600D02*
X124282200Y-120167400D01*
X119024400Y-109684820D02*
X118460580Y-109121000D01*
X118460580Y-109121000D02*
X117713760Y-109121000D01*
X117713760Y-109121000D02*
X116999000Y-109121000D01*
G04 #@! TO.N,/BOOT0*
X108945000Y-111621000D02*
X108045000Y-111621000D01*
X109229999Y-111336001D02*
X108945000Y-111621000D01*
X109229999Y-111150400D02*
X109229999Y-111336001D01*
X109229999Y-111279799D02*
X109229999Y-111150400D01*
X103473360Y-106970720D02*
X104421940Y-106022140D01*
X103473360Y-107261660D02*
X103473360Y-106970720D01*
X109229999Y-108676440D02*
X109229999Y-111150400D01*
X109229999Y-107945997D02*
X109229999Y-108676440D01*
X109229999Y-108676440D02*
X109229999Y-107852189D01*
X108712000Y-107334190D02*
X107824629Y-106446819D01*
X109229999Y-107852189D02*
X108712000Y-107334190D01*
X107699949Y-106322139D02*
X107950000Y-106572190D01*
X104721939Y-106322139D02*
X107699949Y-106322139D01*
X104421940Y-106022140D02*
X104721939Y-106322139D01*
X108712000Y-107334190D02*
X107950000Y-106572190D01*
X107950000Y-106572190D02*
X107770951Y-106393141D01*
G04 #@! TO.N,/D6*
X119995000Y-112121000D02*
X120459500Y-112585500D01*
X116999000Y-112121000D02*
X119995000Y-112121000D01*
G04 #@! TO.N,/D7*
X116999000Y-111621000D02*
X118249000Y-111621000D01*
X118689501Y-111624999D02*
X119189500Y-111125000D01*
X118252999Y-111624999D02*
X118689501Y-111624999D01*
X118249000Y-111621000D02*
X118252999Y-111624999D01*
G04 #@! TO.N,/C13*
X107645200Y-117957600D02*
X108483400Y-117119400D01*
X108483400Y-117119400D02*
X109296200Y-117119400D01*
X110272000Y-116143600D02*
X110272000Y-115348000D01*
X109296200Y-117119400D02*
X110272000Y-116143600D01*
G04 #@! TO.N,/C14*
X110772000Y-116329400D02*
X110772000Y-115348000D01*
X109143800Y-117957600D02*
X110772000Y-116329400D01*
G04 #@! TO.N,/C15*
X111272000Y-117302600D02*
X111272000Y-115348000D01*
X110642400Y-117932200D02*
X111272000Y-117302600D01*
G04 #@! TO.N,/3.3V_OUT*
X130556000Y-115570000D02*
X132588000Y-115570000D01*
X131064000Y-115570000D02*
X132588000Y-115570000D01*
D30*
X110185200Y-119450300D02*
X110185200Y-120015000D01*
X111143010Y-124079000D02*
X115722400Y-124079000D01*
X110244775Y-123180765D02*
X111143010Y-124079000D01*
X125123756Y-124079000D02*
X115722400Y-124079000D01*
X133324600Y-122504200D02*
X131775200Y-124079000D01*
X133324600Y-121437400D02*
X133324600Y-122504200D01*
X131775200Y-124079000D02*
X125095000Y-124079000D01*
X130352800Y-115722400D02*
X129387600Y-116636800D01*
X129387600Y-116636800D02*
X129387600Y-119329200D01*
X129387600Y-119329200D02*
X130479800Y-120421400D01*
X132308600Y-120421400D02*
X133324600Y-121437400D01*
X130479800Y-120421400D02*
X132308600Y-120421400D01*
X110185200Y-120015000D02*
X110185200Y-123139200D01*
D29*
G04 #@! TO.N,/D8*
X113272000Y-107294000D02*
X113272000Y-106394000D01*
X113272000Y-107421000D02*
X113272000Y-106521000D01*
X113272000Y-106521000D02*
X113272000Y-107494198D01*
X113272000Y-107581000D02*
X113272000Y-106521000D01*
X112928400Y-107924600D02*
X113272000Y-107581000D01*
G04 #@! TO.N,/PB1*
X116099000Y-110621000D02*
X115519200Y-111200800D01*
X116999000Y-110621000D02*
X116099000Y-110621000D01*
X115519200Y-111200800D02*
X115519200Y-112080040D01*
G04 #@! TO.N,/PA15*
X106720640Y-108064740D02*
X107276900Y-108621000D01*
X108045000Y-108621000D02*
X107276900Y-108621000D01*
X106720640Y-108069640D02*
X106720640Y-107863640D01*
X107272000Y-108621000D02*
X106720640Y-108069640D01*
X108172000Y-108621000D02*
X107272000Y-108621000D01*
X106720640Y-107274360D02*
X106720640Y-107863640D01*
X106720640Y-107863640D02*
X106720640Y-108064740D01*
G04 #@! TO.N,/PB3*
X106934060Y-109121000D02*
X107383580Y-109121000D01*
X105084880Y-107271820D02*
X106934060Y-109121000D01*
X108045000Y-109121000D02*
X107383580Y-109121000D01*
G04 #@! TO.N,/PB4*
X108172000Y-109621000D02*
X106797650Y-109621000D01*
X105711879Y-109219619D02*
X105211880Y-108719620D01*
X106396269Y-109219619D02*
X105711879Y-109219619D01*
X106797650Y-109621000D02*
X106396269Y-109219619D01*
G04 #@! TO.N,/PB5*
X106571480Y-110121000D02*
X108045000Y-110121000D01*
X108045000Y-110121000D02*
X105364980Y-110121000D01*
X105791700Y-110121000D02*
X105750360Y-110162340D01*
X108045000Y-110121000D02*
X105791700Y-110121000D01*
G04 #@! TO.N,/PB6*
X106876660Y-110621000D02*
X105882440Y-111615220D01*
X108045000Y-110621000D02*
X106876660Y-110621000D01*
X106815700Y-110621000D02*
X105727500Y-111709200D01*
X108045000Y-110621000D02*
X106815700Y-110621000D01*
G04 #@! TO.N,/PB7*
X106857419Y-112717961D02*
X106357420Y-113217960D01*
X106857419Y-111408581D02*
X106857419Y-112717961D01*
X107145000Y-111121000D02*
X106857419Y-111408581D01*
X108045000Y-111121000D02*
X107145000Y-111121000D01*
G04 #@! TD*
M02*
