M48
;DRILL file {KiCad 4.0.2+dfsg1-stable} date 2017年08月28日 星期一 15时15分44秒
;FORMAT={-:-/ absolute / inch / decimal}
FMAT,2
INCH,TZ
T1C0.016
T2C0.031
T3C0.032
T4C0.039
T5C0.040
T6C0.035
%
G90
G05
M72
T1
X3.7687Y-4.825
X3.895Y-4.525
X3.92Y-4.525
X3.9219Y-4.155
X3.96Y-4.25
X3.96Y-4.82
X4.115Y-4.21
X4.1179Y-4.4672
X4.1181Y-4.32
X4.1181Y-4.395
X4.14Y-4.85
X4.15Y-4.74
X4.165Y-4.045
X4.185Y-4.455
X4.195Y-4.23
X4.195Y-4.365
X4.22Y-4.55
X4.285Y-4.195
X4.3075Y-4.4625
X4.32Y-4.135
X4.325Y-4.265
X4.33Y-4.3
X4.33Y-4.335
X4.365Y-4.48
X4.4725Y-4.335
X4.475Y-4.255
X4.4792Y-4.4692
X4.485Y-4.675
X4.5425Y-4.3825
X4.615Y-4.21
X4.665Y-4.315
X4.69Y-4.475
X4.695Y-4.345
X4.735Y-4.475
X4.78Y-4.47
X4.815Y-4.74
X4.8681Y-4.605
X4.89Y-4.74
X4.945Y-4.53
X4.945Y-4.605
X4.945Y-4.68
X5.05Y-4.745
X5.0531Y-4.53
X5.065Y-4.39
X5.275Y-4.755
T2
X4.98Y-4.08
X4.98Y-4.81
X5.08Y-4.08
X5.08Y-4.81
X5.18Y-4.08
X5.18Y-4.81
T3
X4.4489Y-4.805
X4.6411Y-4.805
T4
X4.8463Y-4.31
X5.0037Y-4.31
T5
X3.62Y-4.06
X3.72Y-4.06
X3.82Y-4.06
X3.92Y-4.06
X4.02Y-4.06
X4.275Y-4.065
X4.375Y-4.065
X4.475Y-4.065
X4.575Y-4.065
X4.675Y-4.065
T6
X3.7335Y-4.3634
X3.7335Y-4.5366
T0
M30
