G04 #@! TF.GenerationSoftware,KiCad,Pcbnew,5.0.0-fee4fd1~66~ubuntu16.04.1*
G04 #@! TF.CreationDate,2018-10-24T10:46:21+08:00*
G04 #@! TF.ProjectId,tiny,74696E792E6B696361645F7063620000,rev?*
G04 #@! TF.SameCoordinates,Original*
G04 #@! TF.FileFunction,Legend,Bot*
G04 #@! TF.FilePolarity,Positive*
%FSLAX46Y46*%
G04 Gerber Fmt 4.6, Leading zero omitted, Abs format (unit mm)*
G04 Created by KiCad (PCBNEW 5.0.0-fee4fd1~66~ubuntu16.04.1) date Wed Oct 24 10:46:21 2018*
%MOMM*%
%LPD*%
G01*
G04 APERTURE LIST*
%ADD10C,0.200000*%
%ADD11C,0.150000*%
%ADD12C,0.120000*%
G04 APERTURE END LIST*
D10*
X128400428Y-112697428D02*
X128767095Y-112697428D01*
X128767095Y-113273619D02*
X128767095Y-112173619D01*
X128243285Y-112173619D01*
X127667095Y-113273619D02*
X127771857Y-113221238D01*
X127824238Y-113168857D01*
X127876619Y-113064095D01*
X127876619Y-112749809D01*
X127824238Y-112645047D01*
X127771857Y-112592666D01*
X127667095Y-112540285D01*
X127509952Y-112540285D01*
X127405190Y-112592666D01*
X127352809Y-112645047D01*
X127300428Y-112749809D01*
X127300428Y-113064095D01*
X127352809Y-113168857D01*
X127405190Y-113221238D01*
X127509952Y-113273619D01*
X127667095Y-113273619D01*
X126829000Y-113273619D02*
X126829000Y-112540285D01*
X126829000Y-112749809D02*
X126776619Y-112645047D01*
X126724238Y-112592666D01*
X126619476Y-112540285D01*
X126514714Y-112540285D01*
X125309952Y-113273619D02*
X125309952Y-112540285D01*
X125309952Y-112645047D02*
X125257571Y-112592666D01*
X125152809Y-112540285D01*
X124995666Y-112540285D01*
X124890904Y-112592666D01*
X124838523Y-112697428D01*
X124838523Y-113273619D01*
X124838523Y-112697428D02*
X124786142Y-112592666D01*
X124681380Y-112540285D01*
X124524238Y-112540285D01*
X124419476Y-112592666D01*
X124367095Y-112697428D01*
X124367095Y-113273619D01*
X123686142Y-113273619D02*
X123790904Y-113221238D01*
X123843285Y-113168857D01*
X123895666Y-113064095D01*
X123895666Y-112749809D01*
X123843285Y-112645047D01*
X123790904Y-112592666D01*
X123686142Y-112540285D01*
X123529000Y-112540285D01*
X123424238Y-112592666D01*
X123371857Y-112645047D01*
X123319476Y-112749809D01*
X123319476Y-113064095D01*
X123371857Y-113168857D01*
X123424238Y-113221238D01*
X123529000Y-113273619D01*
X123686142Y-113273619D01*
X122848047Y-113273619D02*
X122848047Y-112540285D01*
X122848047Y-112749809D02*
X122795666Y-112645047D01*
X122743285Y-112592666D01*
X122638523Y-112540285D01*
X122533761Y-112540285D01*
X121748047Y-113221238D02*
X121852809Y-113273619D01*
X122062333Y-113273619D01*
X122167095Y-113221238D01*
X122219476Y-113116476D01*
X122219476Y-112697428D01*
X122167095Y-112592666D01*
X122062333Y-112540285D01*
X121852809Y-112540285D01*
X121748047Y-112592666D01*
X121695666Y-112697428D01*
X121695666Y-112802190D01*
X122219476Y-112906952D01*
X120386142Y-113273619D02*
X120386142Y-112540285D01*
X120386142Y-112173619D02*
X120438523Y-112226000D01*
X120386142Y-112278380D01*
X120333761Y-112226000D01*
X120386142Y-112173619D01*
X120386142Y-112278380D01*
X119862333Y-112540285D02*
X119862333Y-113273619D01*
X119862333Y-112645047D02*
X119809952Y-112592666D01*
X119705190Y-112540285D01*
X119548047Y-112540285D01*
X119443285Y-112592666D01*
X119390904Y-112697428D01*
X119390904Y-113273619D01*
X119024238Y-112540285D02*
X118605190Y-112540285D01*
X118867095Y-113273619D02*
X118867095Y-112330761D01*
X118814714Y-112226000D01*
X118709952Y-112173619D01*
X118605190Y-112173619D01*
X118081380Y-113273619D02*
X118186142Y-113221238D01*
X118238523Y-113168857D01*
X118290904Y-113064095D01*
X118290904Y-112749809D01*
X118238523Y-112645047D01*
X118186142Y-112592666D01*
X118081380Y-112540285D01*
X117924238Y-112540285D01*
X117819476Y-112592666D01*
X117767095Y-112645047D01*
X117714714Y-112749809D01*
X117714714Y-113064095D01*
X117767095Y-113168857D01*
X117819476Y-113221238D01*
X117924238Y-113273619D01*
X118081380Y-113273619D01*
X117243285Y-113273619D02*
X117243285Y-112540285D01*
X117243285Y-112645047D02*
X117190904Y-112592666D01*
X117086142Y-112540285D01*
X116929000Y-112540285D01*
X116824238Y-112592666D01*
X116771857Y-112697428D01*
X116771857Y-113273619D01*
X116771857Y-112697428D02*
X116719476Y-112592666D01*
X116614714Y-112540285D01*
X116457571Y-112540285D01*
X116352809Y-112592666D01*
X116300428Y-112697428D01*
X116300428Y-113273619D01*
X115305190Y-113273619D02*
X115305190Y-112697428D01*
X115357571Y-112592666D01*
X115462333Y-112540285D01*
X115671857Y-112540285D01*
X115776619Y-112592666D01*
X115305190Y-113221238D02*
X115409952Y-113273619D01*
X115671857Y-113273619D01*
X115776619Y-113221238D01*
X115829000Y-113116476D01*
X115829000Y-113011714D01*
X115776619Y-112906952D01*
X115671857Y-112854571D01*
X115409952Y-112854571D01*
X115305190Y-112802190D01*
X114938523Y-112540285D02*
X114519476Y-112540285D01*
X114781380Y-112173619D02*
X114781380Y-113116476D01*
X114729000Y-113221238D01*
X114624238Y-113273619D01*
X114519476Y-113273619D01*
X114152809Y-113273619D02*
X114152809Y-112540285D01*
X114152809Y-112173619D02*
X114205190Y-112226000D01*
X114152809Y-112278380D01*
X114100428Y-112226000D01*
X114152809Y-112173619D01*
X114152809Y-112278380D01*
X113471857Y-113273619D02*
X113576619Y-113221238D01*
X113629000Y-113168857D01*
X113681380Y-113064095D01*
X113681380Y-112749809D01*
X113629000Y-112645047D01*
X113576619Y-112592666D01*
X113471857Y-112540285D01*
X113314714Y-112540285D01*
X113209952Y-112592666D01*
X113157571Y-112645047D01*
X113105190Y-112749809D01*
X113105190Y-113064095D01*
X113157571Y-113168857D01*
X113209952Y-113221238D01*
X113314714Y-113273619D01*
X113471857Y-113273619D01*
X112633761Y-112540285D02*
X112633761Y-113273619D01*
X112633761Y-112645047D02*
X112581380Y-112592666D01*
X112476619Y-112540285D01*
X112319476Y-112540285D01*
X112214714Y-112592666D01*
X112162333Y-112697428D01*
X112162333Y-113273619D01*
X111586142Y-113221238D02*
X111586142Y-113273619D01*
X111638523Y-113378380D01*
X111690904Y-113430761D01*
X110381380Y-112540285D02*
X110119476Y-113273619D01*
X109857571Y-112540285D01*
X109438523Y-113273619D02*
X109438523Y-112540285D01*
X109438523Y-112173619D02*
X109490904Y-112226000D01*
X109438523Y-112278380D01*
X109386142Y-112226000D01*
X109438523Y-112173619D01*
X109438523Y-112278380D01*
X108967095Y-113221238D02*
X108862333Y-113273619D01*
X108652809Y-113273619D01*
X108548047Y-113221238D01*
X108495666Y-113116476D01*
X108495666Y-113064095D01*
X108548047Y-112959333D01*
X108652809Y-112906952D01*
X108809952Y-112906952D01*
X108914714Y-112854571D01*
X108967095Y-112749809D01*
X108967095Y-112697428D01*
X108914714Y-112592666D01*
X108809952Y-112540285D01*
X108652809Y-112540285D01*
X108548047Y-112592666D01*
X108024238Y-113273619D02*
X108024238Y-112540285D01*
X108024238Y-112173619D02*
X108076619Y-112226000D01*
X108024238Y-112278380D01*
X107971857Y-112226000D01*
X108024238Y-112173619D01*
X108024238Y-112278380D01*
X107657571Y-112540285D02*
X107238523Y-112540285D01*
X107500428Y-112173619D02*
X107500428Y-113116476D01*
X107448047Y-113221238D01*
X107343285Y-113273619D01*
X107238523Y-113273619D01*
X106871857Y-113168857D02*
X106819476Y-113221238D01*
X106871857Y-113273619D01*
X106924238Y-113221238D01*
X106871857Y-113168857D01*
X106871857Y-113273619D01*
X106871857Y-112592666D02*
X106819476Y-112645047D01*
X106871857Y-112697428D01*
X106924238Y-112645047D01*
X106871857Y-112592666D01*
X106871857Y-112697428D01*
X128767095Y-115051619D02*
X128767095Y-113951619D01*
X128295666Y-115051619D02*
X128295666Y-114475428D01*
X128348047Y-114370666D01*
X128452809Y-114318285D01*
X128609952Y-114318285D01*
X128714714Y-114370666D01*
X128767095Y-114423047D01*
X127929000Y-114318285D02*
X127509952Y-114318285D01*
X127771857Y-113951619D02*
X127771857Y-114894476D01*
X127719476Y-114999238D01*
X127614714Y-115051619D01*
X127509952Y-115051619D01*
X127300428Y-114318285D02*
X126881380Y-114318285D01*
X127143285Y-113951619D02*
X127143285Y-114894476D01*
X127090904Y-114999238D01*
X126986142Y-115051619D01*
X126881380Y-115051619D01*
X126514714Y-114318285D02*
X126514714Y-115418285D01*
X126514714Y-114370666D02*
X126409952Y-114318285D01*
X126200428Y-114318285D01*
X126095666Y-114370666D01*
X126043285Y-114423047D01*
X125990904Y-114527809D01*
X125990904Y-114842095D01*
X126043285Y-114946857D01*
X126095666Y-114999238D01*
X126200428Y-115051619D01*
X126409952Y-115051619D01*
X126514714Y-114999238D01*
X125571857Y-114999238D02*
X125467095Y-115051619D01*
X125257571Y-115051619D01*
X125152809Y-114999238D01*
X125100428Y-114894476D01*
X125100428Y-114842095D01*
X125152809Y-114737333D01*
X125257571Y-114684952D01*
X125414714Y-114684952D01*
X125519476Y-114632571D01*
X125571857Y-114527809D01*
X125571857Y-114475428D01*
X125519476Y-114370666D01*
X125414714Y-114318285D01*
X125257571Y-114318285D01*
X125152809Y-114370666D01*
X124629000Y-114946857D02*
X124576619Y-114999238D01*
X124629000Y-115051619D01*
X124681380Y-114999238D01*
X124629000Y-114946857D01*
X124629000Y-115051619D01*
X124629000Y-114370666D02*
X124576619Y-114423047D01*
X124629000Y-114475428D01*
X124681380Y-114423047D01*
X124629000Y-114370666D01*
X124629000Y-114475428D01*
X123319476Y-113899238D02*
X124262333Y-115313523D01*
X122167095Y-113899238D02*
X123109952Y-115313523D01*
X121329000Y-114318285D02*
X121329000Y-115208761D01*
X121381380Y-115313523D01*
X121433761Y-115365904D01*
X121538523Y-115418285D01*
X121695666Y-115418285D01*
X121800428Y-115365904D01*
X121329000Y-114999238D02*
X121433761Y-115051619D01*
X121643285Y-115051619D01*
X121748047Y-114999238D01*
X121800428Y-114946857D01*
X121852809Y-114842095D01*
X121852809Y-114527809D01*
X121800428Y-114423047D01*
X121748047Y-114370666D01*
X121643285Y-114318285D01*
X121433761Y-114318285D01*
X121329000Y-114370666D01*
X120805190Y-115051619D02*
X120805190Y-114318285D01*
X120805190Y-113951619D02*
X120857571Y-114004000D01*
X120805190Y-114056380D01*
X120752809Y-114004000D01*
X120805190Y-113951619D01*
X120805190Y-114056380D01*
X120438523Y-114318285D02*
X120019476Y-114318285D01*
X120281380Y-113951619D02*
X120281380Y-114894476D01*
X120229000Y-114999238D01*
X120124238Y-115051619D01*
X120019476Y-115051619D01*
X119652809Y-115051619D02*
X119652809Y-113951619D01*
X119181380Y-115051619D02*
X119181380Y-114475428D01*
X119233761Y-114370666D01*
X119338523Y-114318285D01*
X119495666Y-114318285D01*
X119600428Y-114370666D01*
X119652809Y-114423047D01*
X118186142Y-114318285D02*
X118186142Y-115051619D01*
X118657571Y-114318285D02*
X118657571Y-114894476D01*
X118605190Y-114999238D01*
X118500428Y-115051619D01*
X118343285Y-115051619D01*
X118238523Y-114999238D01*
X118186142Y-114946857D01*
X117662333Y-115051619D02*
X117662333Y-113951619D01*
X117662333Y-114370666D02*
X117557571Y-114318285D01*
X117348047Y-114318285D01*
X117243285Y-114370666D01*
X117190904Y-114423047D01*
X117138523Y-114527809D01*
X117138523Y-114842095D01*
X117190904Y-114946857D01*
X117243285Y-114999238D01*
X117348047Y-115051619D01*
X117557571Y-115051619D01*
X117662333Y-114999238D01*
X116667095Y-114946857D02*
X116614714Y-114999238D01*
X116667095Y-115051619D01*
X116719476Y-114999238D01*
X116667095Y-114946857D01*
X116667095Y-115051619D01*
X115671857Y-114999238D02*
X115776619Y-115051619D01*
X115986142Y-115051619D01*
X116090904Y-114999238D01*
X116143285Y-114946857D01*
X116195666Y-114842095D01*
X116195666Y-114527809D01*
X116143285Y-114423047D01*
X116090904Y-114370666D01*
X115986142Y-114318285D01*
X115776619Y-114318285D01*
X115671857Y-114370666D01*
X115043285Y-115051619D02*
X115148047Y-114999238D01*
X115200428Y-114946857D01*
X115252809Y-114842095D01*
X115252809Y-114527809D01*
X115200428Y-114423047D01*
X115148047Y-114370666D01*
X115043285Y-114318285D01*
X114886142Y-114318285D01*
X114781380Y-114370666D01*
X114729000Y-114423047D01*
X114676619Y-114527809D01*
X114676619Y-114842095D01*
X114729000Y-114946857D01*
X114781380Y-114999238D01*
X114886142Y-115051619D01*
X115043285Y-115051619D01*
X114205190Y-115051619D02*
X114205190Y-114318285D01*
X114205190Y-114423047D02*
X114152809Y-114370666D01*
X114048047Y-114318285D01*
X113890904Y-114318285D01*
X113786142Y-114370666D01*
X113733761Y-114475428D01*
X113733761Y-115051619D01*
X113733761Y-114475428D02*
X113681380Y-114370666D01*
X113576619Y-114318285D01*
X113419476Y-114318285D01*
X113314714Y-114370666D01*
X113262333Y-114475428D01*
X113262333Y-115051619D01*
X111952809Y-113899238D02*
X112895666Y-115313523D01*
X111586142Y-114318285D02*
X111586142Y-115418285D01*
X111586142Y-114370666D02*
X111481380Y-114318285D01*
X111271857Y-114318285D01*
X111167095Y-114370666D01*
X111114714Y-114423047D01*
X111062333Y-114527809D01*
X111062333Y-114842095D01*
X111114714Y-114946857D01*
X111167095Y-114999238D01*
X111271857Y-115051619D01*
X111481380Y-115051619D01*
X111586142Y-114999238D01*
X110171857Y-114999238D02*
X110276619Y-115051619D01*
X110486142Y-115051619D01*
X110590904Y-114999238D01*
X110643285Y-114894476D01*
X110643285Y-114475428D01*
X110590904Y-114370666D01*
X110486142Y-114318285D01*
X110276619Y-114318285D01*
X110171857Y-114370666D01*
X110119476Y-114475428D01*
X110119476Y-114580190D01*
X110643285Y-114684952D01*
X109648047Y-114318285D02*
X109648047Y-115051619D01*
X109648047Y-114423047D02*
X109595666Y-114370666D01*
X109490904Y-114318285D01*
X109333761Y-114318285D01*
X109229000Y-114370666D01*
X109176619Y-114475428D01*
X109176619Y-115051619D01*
X108181380Y-114318285D02*
X108181380Y-115208761D01*
X108233761Y-115313523D01*
X108286142Y-115365904D01*
X108390904Y-115418285D01*
X108548047Y-115418285D01*
X108652809Y-115365904D01*
X108181380Y-114999238D02*
X108286142Y-115051619D01*
X108495666Y-115051619D01*
X108600428Y-114999238D01*
X108652809Y-114946857D01*
X108705190Y-114842095D01*
X108705190Y-114527809D01*
X108652809Y-114423047D01*
X108600428Y-114370666D01*
X108495666Y-114318285D01*
X108286142Y-114318285D01*
X108181380Y-114370666D01*
X107709952Y-114999238D02*
X107605190Y-115051619D01*
X107395666Y-115051619D01*
X107290904Y-114999238D01*
X107238523Y-114894476D01*
X107238523Y-114842095D01*
X107290904Y-114737333D01*
X107395666Y-114684952D01*
X107552809Y-114684952D01*
X107657571Y-114632571D01*
X107709952Y-114527809D01*
X107709952Y-114475428D01*
X107657571Y-114370666D01*
X107552809Y-114318285D01*
X107395666Y-114318285D01*
X107290904Y-114370666D01*
X106767095Y-115051619D02*
X106767095Y-113951619D01*
X106295666Y-115051619D02*
X106295666Y-114475428D01*
X106348047Y-114370666D01*
X106452809Y-114318285D01*
X106609952Y-114318285D01*
X106714714Y-114370666D01*
X106767095Y-114423047D01*
X105300428Y-114318285D02*
X105300428Y-115051619D01*
X105771857Y-114318285D02*
X105771857Y-114894476D01*
X105719476Y-114999238D01*
X105614714Y-115051619D01*
X105457571Y-115051619D01*
X105352809Y-114999238D01*
X105300428Y-114946857D01*
X104619476Y-115051619D02*
X104724238Y-114999238D01*
X104776619Y-114894476D01*
X104776619Y-113951619D01*
X104200428Y-115051619D02*
X104200428Y-114318285D01*
X104200428Y-113951619D02*
X104252809Y-114004000D01*
X104200428Y-114056380D01*
X104148047Y-114004000D01*
X104200428Y-113951619D01*
X104200428Y-114056380D01*
X103676619Y-114318285D02*
X103676619Y-115051619D01*
X103676619Y-114423047D02*
X103624238Y-114370666D01*
X103519476Y-114318285D01*
X103362333Y-114318285D01*
X103257571Y-114370666D01*
X103205190Y-114475428D01*
X103205190Y-115051619D01*
X101895666Y-113899238D02*
X102838523Y-115313523D01*
X101529000Y-115051619D02*
X101529000Y-114318285D01*
X101529000Y-114423047D02*
X101476619Y-114370666D01*
X101371857Y-114318285D01*
X101214714Y-114318285D01*
X101109952Y-114370666D01*
X101057571Y-114475428D01*
X101057571Y-115051619D01*
X101057571Y-114475428D02*
X101005190Y-114370666D01*
X100900428Y-114318285D01*
X100743285Y-114318285D01*
X100638523Y-114370666D01*
X100586142Y-114475428D01*
X100586142Y-115051619D01*
X99590904Y-114999238D02*
X99695666Y-115051619D01*
X99905190Y-115051619D01*
X100009952Y-114999238D01*
X100062333Y-114946857D01*
X100114714Y-114842095D01*
X100114714Y-114527809D01*
X100062333Y-114423047D01*
X100009952Y-114370666D01*
X99905190Y-114318285D01*
X99695666Y-114318285D01*
X99590904Y-114370666D01*
X98648047Y-114318285D02*
X98648047Y-115051619D01*
X99119476Y-114318285D02*
X99119476Y-114894476D01*
X99067095Y-114999238D01*
X98962333Y-115051619D01*
X98805190Y-115051619D01*
X98700428Y-114999238D01*
X98648047Y-114946857D01*
X98176619Y-114999238D02*
X98071857Y-115051619D01*
X97862333Y-115051619D01*
X97757571Y-114999238D01*
X97705190Y-114894476D01*
X97705190Y-114842095D01*
X97757571Y-114737333D01*
X97862333Y-114684952D01*
X98019476Y-114684952D01*
X98124238Y-114632571D01*
X98176619Y-114527809D01*
X98176619Y-114475428D01*
X98124238Y-114370666D01*
X98019476Y-114318285D01*
X97862333Y-114318285D01*
X97757571Y-114370666D01*
X97233761Y-115051619D02*
X97233761Y-113951619D01*
X96762333Y-115051619D02*
X96762333Y-114475428D01*
X96814714Y-114370666D01*
X96919476Y-114318285D01*
X97076619Y-114318285D01*
X97181380Y-114370666D01*
X97233761Y-114423047D01*
D11*
X90170000Y-101460000D02*
X135170000Y-101460000D01*
X90170000Y-124460000D02*
X90170000Y-101460000D01*
X135170000Y-124460000D02*
X90170000Y-124460000D01*
X135170000Y-101460000D02*
X135170000Y-124460000D01*
D12*
G04 #@! TO.C,TP10*
X113882400Y-106680000D02*
G75*
G03X113882400Y-106680000I-700000J0D01*
G01*
G04 #@! TO.C,TP12*
X116534160Y-111368840D02*
G75*
G03X116534160Y-111368840I-700000J0D01*
G01*
G04 #@! TO.C,F2*
X108983864Y-119165200D02*
X107779736Y-119165200D01*
X108983864Y-116445200D02*
X107779736Y-116445200D01*
G04 #@! TO.C,F1*
X107155064Y-121703000D02*
X105950936Y-121703000D01*
X107155064Y-124423000D02*
X105950936Y-124423000D01*
G04 #@! TD*
G04 #@! TO.C,F2*
D11*
X112118733Y-117886171D02*
X112452066Y-117886171D01*
X112452066Y-118409980D02*
X112452066Y-117409980D01*
X111975876Y-117409980D01*
X111642542Y-117505219D02*
X111594923Y-117457600D01*
X111499685Y-117409980D01*
X111261590Y-117409980D01*
X111166352Y-117457600D01*
X111118733Y-117505219D01*
X111071114Y-117600457D01*
X111071114Y-117695695D01*
X111118733Y-117838552D01*
X111690161Y-118409980D01*
X111071114Y-118409980D01*
G04 #@! TO.C,F1*
X110035933Y-122966171D02*
X110369266Y-122966171D01*
X110369266Y-123489980D02*
X110369266Y-122489980D01*
X109893076Y-122489980D01*
X108988314Y-123489980D02*
X109559742Y-123489980D01*
X109274028Y-123489980D02*
X109274028Y-122489980D01*
X109369266Y-122632838D01*
X109464504Y-122728076D01*
X109559742Y-122775695D01*
G04 #@! TD*
M02*
