M48
;DRILL file {KiCad 4.0.2+dfsg1-stable} date Wed 02 May 2018 20:43:18 CST
;FORMAT={-:-/ absolute / metric / decimal}
FMAT,2
METRIC,TZ
T1C0.400
T2C0.800
T3C0.800
T4C1.001
T5C1.016
%
G90
G05
M71
T1
X95.726Y-122.555
X98.933Y-114.935
X99.568Y-114.935
X99.615Y-105.537
X100.584Y-107.95
X100.584Y-122.428
X104.521Y-106.934
X104.596Y-113.467
X104.601Y-109.728
X104.601Y-111.633
X105.156Y-123.19
X105.41Y-120.396
X105.791Y-102.743
X106.299Y-113.157
X106.553Y-107.442
X106.553Y-110.871
X107.188Y-115.57
X108.839Y-106.553
X109.41Y-113.347
X109.728Y-105.029
X109.855Y-108.331
X109.982Y-109.22
X109.982Y-110.109
X110.871Y-113.792
X113.602Y-110.109
X113.665Y-108.077
X113.772Y-113.518
X113.919Y-118.745
X115.379Y-111.316
X117.221Y-106.934
X118.491Y-109.601
X119.126Y-113.665
X119.253Y-110.363
X120.269Y-113.665
X121.412Y-113.538
X122.301Y-120.396
X123.651Y-116.967
X124.206Y-120.396
X125.603Y-115.062
X125.603Y-116.967
X125.603Y-118.872
X128.27Y-120.523
X128.35Y-115.062
X128.651Y-111.506
X133.985Y-120.777
T2
X126.492Y-103.632
X126.492Y-122.174
X129.032Y-103.632
X129.032Y-122.174
X131.572Y-103.632
X131.572Y-122.174
T3
X113.002Y-122.047
X117.884Y-122.047
T4
X123.095Y-109.474
X127.095Y-109.474
T5
X91.948Y-103.124
X94.488Y-103.124
X97.028Y-103.124
X99.568Y-103.124
X102.108Y-103.124
X108.585Y-103.251
X111.125Y-103.251
X113.665Y-103.251
X116.205Y-103.251
X118.745Y-103.251
T0
M30
