G04 #@! TF.GenerationSoftware,KiCad,Pcbnew,5.0.0-fee4fd1~66~ubuntu16.04.1*
G04 #@! TF.CreationDate,2018-10-04T09:57:08+08:00*
G04 #@! TF.ProjectId,tiny,74696E792E6B696361645F7063620000,rev?*
G04 #@! TF.SameCoordinates,Original*
G04 #@! TF.FileFunction,Soldermask,Bot*
G04 #@! TF.FilePolarity,Negative*
%FSLAX46Y46*%
G04 Gerber Fmt 4.6, Leading zero omitted, Abs format (unit mm)*
G04 Created by KiCad (PCBNEW 5.0.0-fee4fd1~66~ubuntu16.04.1) date Thu Oct  4 09:57:08 2018*
%MOMM*%
%LPD*%
G01*
G04 APERTURE LIST*
%ADD10C,0.150000*%
%ADD11C,1.400000*%
%ADD12R,2.127200X2.432000*%
%ADD13O,2.127200X2.432000*%
%ADD14C,0.100000*%
%ADD15C,1.825000*%
%ADD16C,1.901140*%
%ADD17C,2.400000*%
%ADD18R,1.900000X1.900000*%
%ADD19C,1.900000*%
%ADD20R,5.480000X2.178000*%
%ADD21C,1.299160*%
G04 APERTURE END LIST*
D10*
X90170000Y-101460000D02*
X135170000Y-101460000D01*
X90170000Y-124460000D02*
X90170000Y-101460000D01*
X135170000Y-124460000D02*
X90170000Y-124460000D01*
X135170000Y-101460000D02*
X135170000Y-124460000D01*
D11*
G04 #@! TO.C,TP10*
X113182400Y-106680000D03*
G04 #@! TD*
G04 #@! TO.C,TP12*
X115834160Y-111368840D03*
G04 #@! TD*
D12*
G04 #@! TO.C,P3*
X108712000Y-103251000D03*
D13*
X111252000Y-103251000D03*
X113792000Y-103251000D03*
X116332000Y-103251000D03*
X118872000Y-103251000D03*
G04 #@! TD*
D14*
G04 #@! TO.C,F2*
G36*
X107518007Y-116281742D02*
X107549087Y-116286352D01*
X107579566Y-116293987D01*
X107609150Y-116304572D01*
X107637554Y-116318006D01*
X107664504Y-116334159D01*
X107689742Y-116352877D01*
X107713023Y-116373977D01*
X107734123Y-116397258D01*
X107752841Y-116422496D01*
X107768994Y-116449446D01*
X107782428Y-116477850D01*
X107793013Y-116507434D01*
X107800648Y-116537913D01*
X107805258Y-116568993D01*
X107806800Y-116600376D01*
X107806800Y-119010024D01*
X107805258Y-119041407D01*
X107800648Y-119072487D01*
X107793013Y-119102966D01*
X107782428Y-119132550D01*
X107768994Y-119160954D01*
X107752841Y-119187904D01*
X107734123Y-119213142D01*
X107713023Y-119236423D01*
X107689742Y-119257523D01*
X107664504Y-119276241D01*
X107637554Y-119292394D01*
X107609150Y-119305828D01*
X107579566Y-119316413D01*
X107549087Y-119324048D01*
X107518007Y-119328658D01*
X107486624Y-119330200D01*
X106301976Y-119330200D01*
X106270593Y-119328658D01*
X106239513Y-119324048D01*
X106209034Y-119316413D01*
X106179450Y-119305828D01*
X106151046Y-119292394D01*
X106124096Y-119276241D01*
X106098858Y-119257523D01*
X106075577Y-119236423D01*
X106054477Y-119213142D01*
X106035759Y-119187904D01*
X106019606Y-119160954D01*
X106006172Y-119132550D01*
X105995587Y-119102966D01*
X105987952Y-119072487D01*
X105983342Y-119041407D01*
X105981800Y-119010024D01*
X105981800Y-116600376D01*
X105983342Y-116568993D01*
X105987952Y-116537913D01*
X105995587Y-116507434D01*
X106006172Y-116477850D01*
X106019606Y-116449446D01*
X106035759Y-116422496D01*
X106054477Y-116397258D01*
X106075577Y-116373977D01*
X106098858Y-116352877D01*
X106124096Y-116334159D01*
X106151046Y-116318006D01*
X106179450Y-116304572D01*
X106209034Y-116293987D01*
X106239513Y-116286352D01*
X106270593Y-116281742D01*
X106301976Y-116280200D01*
X107486624Y-116280200D01*
X107518007Y-116281742D01*
X107518007Y-116281742D01*
G37*
D15*
X106894300Y-117805200D03*
D14*
G36*
X110493007Y-116281742D02*
X110524087Y-116286352D01*
X110554566Y-116293987D01*
X110584150Y-116304572D01*
X110612554Y-116318006D01*
X110639504Y-116334159D01*
X110664742Y-116352877D01*
X110688023Y-116373977D01*
X110709123Y-116397258D01*
X110727841Y-116422496D01*
X110743994Y-116449446D01*
X110757428Y-116477850D01*
X110768013Y-116507434D01*
X110775648Y-116537913D01*
X110780258Y-116568993D01*
X110781800Y-116600376D01*
X110781800Y-119010024D01*
X110780258Y-119041407D01*
X110775648Y-119072487D01*
X110768013Y-119102966D01*
X110757428Y-119132550D01*
X110743994Y-119160954D01*
X110727841Y-119187904D01*
X110709123Y-119213142D01*
X110688023Y-119236423D01*
X110664742Y-119257523D01*
X110639504Y-119276241D01*
X110612554Y-119292394D01*
X110584150Y-119305828D01*
X110554566Y-119316413D01*
X110524087Y-119324048D01*
X110493007Y-119328658D01*
X110461624Y-119330200D01*
X109276976Y-119330200D01*
X109245593Y-119328658D01*
X109214513Y-119324048D01*
X109184034Y-119316413D01*
X109154450Y-119305828D01*
X109126046Y-119292394D01*
X109099096Y-119276241D01*
X109073858Y-119257523D01*
X109050577Y-119236423D01*
X109029477Y-119213142D01*
X109010759Y-119187904D01*
X108994606Y-119160954D01*
X108981172Y-119132550D01*
X108970587Y-119102966D01*
X108962952Y-119072487D01*
X108958342Y-119041407D01*
X108956800Y-119010024D01*
X108956800Y-116600376D01*
X108958342Y-116568993D01*
X108962952Y-116537913D01*
X108970587Y-116507434D01*
X108981172Y-116477850D01*
X108994606Y-116449446D01*
X109010759Y-116422496D01*
X109029477Y-116397258D01*
X109050577Y-116373977D01*
X109073858Y-116352877D01*
X109099096Y-116334159D01*
X109126046Y-116318006D01*
X109154450Y-116304572D01*
X109184034Y-116293987D01*
X109214513Y-116286352D01*
X109245593Y-116281742D01*
X109276976Y-116280200D01*
X110461624Y-116280200D01*
X110493007Y-116281742D01*
X110493007Y-116281742D01*
G37*
D15*
X109869300Y-117805200D03*
G04 #@! TD*
D14*
G04 #@! TO.C,F1*
G36*
X108664207Y-121539542D02*
X108695287Y-121544152D01*
X108725766Y-121551787D01*
X108755350Y-121562372D01*
X108783754Y-121575806D01*
X108810704Y-121591959D01*
X108835942Y-121610677D01*
X108859223Y-121631777D01*
X108880323Y-121655058D01*
X108899041Y-121680296D01*
X108915194Y-121707246D01*
X108928628Y-121735650D01*
X108939213Y-121765234D01*
X108946848Y-121795713D01*
X108951458Y-121826793D01*
X108953000Y-121858176D01*
X108953000Y-124267824D01*
X108951458Y-124299207D01*
X108946848Y-124330287D01*
X108939213Y-124360766D01*
X108928628Y-124390350D01*
X108915194Y-124418754D01*
X108899041Y-124445704D01*
X108880323Y-124470942D01*
X108859223Y-124494223D01*
X108835942Y-124515323D01*
X108810704Y-124534041D01*
X108783754Y-124550194D01*
X108755350Y-124563628D01*
X108725766Y-124574213D01*
X108695287Y-124581848D01*
X108664207Y-124586458D01*
X108632824Y-124588000D01*
X107448176Y-124588000D01*
X107416793Y-124586458D01*
X107385713Y-124581848D01*
X107355234Y-124574213D01*
X107325650Y-124563628D01*
X107297246Y-124550194D01*
X107270296Y-124534041D01*
X107245058Y-124515323D01*
X107221777Y-124494223D01*
X107200677Y-124470942D01*
X107181959Y-124445704D01*
X107165806Y-124418754D01*
X107152372Y-124390350D01*
X107141787Y-124360766D01*
X107134152Y-124330287D01*
X107129542Y-124299207D01*
X107128000Y-124267824D01*
X107128000Y-121858176D01*
X107129542Y-121826793D01*
X107134152Y-121795713D01*
X107141787Y-121765234D01*
X107152372Y-121735650D01*
X107165806Y-121707246D01*
X107181959Y-121680296D01*
X107200677Y-121655058D01*
X107221777Y-121631777D01*
X107245058Y-121610677D01*
X107270296Y-121591959D01*
X107297246Y-121575806D01*
X107325650Y-121562372D01*
X107355234Y-121551787D01*
X107385713Y-121544152D01*
X107416793Y-121539542D01*
X107448176Y-121538000D01*
X108632824Y-121538000D01*
X108664207Y-121539542D01*
X108664207Y-121539542D01*
G37*
D15*
X108040500Y-123063000D03*
D14*
G36*
X105689207Y-121539542D02*
X105720287Y-121544152D01*
X105750766Y-121551787D01*
X105780350Y-121562372D01*
X105808754Y-121575806D01*
X105835704Y-121591959D01*
X105860942Y-121610677D01*
X105884223Y-121631777D01*
X105905323Y-121655058D01*
X105924041Y-121680296D01*
X105940194Y-121707246D01*
X105953628Y-121735650D01*
X105964213Y-121765234D01*
X105971848Y-121795713D01*
X105976458Y-121826793D01*
X105978000Y-121858176D01*
X105978000Y-124267824D01*
X105976458Y-124299207D01*
X105971848Y-124330287D01*
X105964213Y-124360766D01*
X105953628Y-124390350D01*
X105940194Y-124418754D01*
X105924041Y-124445704D01*
X105905323Y-124470942D01*
X105884223Y-124494223D01*
X105860942Y-124515323D01*
X105835704Y-124534041D01*
X105808754Y-124550194D01*
X105780350Y-124563628D01*
X105750766Y-124574213D01*
X105720287Y-124581848D01*
X105689207Y-124586458D01*
X105657824Y-124588000D01*
X104473176Y-124588000D01*
X104441793Y-124586458D01*
X104410713Y-124581848D01*
X104380234Y-124574213D01*
X104350650Y-124563628D01*
X104322246Y-124550194D01*
X104295296Y-124534041D01*
X104270058Y-124515323D01*
X104246777Y-124494223D01*
X104225677Y-124470942D01*
X104206959Y-124445704D01*
X104190806Y-124418754D01*
X104177372Y-124390350D01*
X104166787Y-124360766D01*
X104159152Y-124330287D01*
X104154542Y-124299207D01*
X104153000Y-124267824D01*
X104153000Y-121858176D01*
X104154542Y-121826793D01*
X104159152Y-121795713D01*
X104166787Y-121765234D01*
X104177372Y-121735650D01*
X104190806Y-121707246D01*
X104206959Y-121680296D01*
X104225677Y-121655058D01*
X104246777Y-121631777D01*
X104270058Y-121610677D01*
X104295296Y-121591959D01*
X104322246Y-121575806D01*
X104350650Y-121562372D01*
X104380234Y-121551787D01*
X104410713Y-121544152D01*
X104441793Y-121539542D01*
X104473176Y-121538000D01*
X105657824Y-121538000D01*
X105689207Y-121539542D01*
X105689207Y-121539542D01*
G37*
D15*
X105065500Y-123063000D03*
G04 #@! TD*
D16*
G04 #@! TO.C,Y1*
X113154460Y-121589800D03*
X118036340Y-121589800D03*
G04 #@! TD*
D17*
G04 #@! TO.C,SP1*
X123095000Y-109474000D03*
X127095000Y-109474000D03*
G04 #@! TD*
D12*
G04 #@! TO.C,P4*
X91948000Y-103124000D03*
D13*
X94488000Y-103124000D03*
X97028000Y-103124000D03*
X99568000Y-103124000D03*
X102108000Y-103124000D03*
G04 #@! TD*
D18*
G04 #@! TO.C,D1*
X126492000Y-103632000D03*
D19*
X129032000Y-103632000D03*
X131572000Y-103632000D03*
G04 #@! TD*
D18*
G04 #@! TO.C,D2*
X126492000Y-122174000D03*
D19*
X129032000Y-122174000D03*
X131572000Y-122174000D03*
G04 #@! TD*
D20*
G04 #@! TO.C,P2*
X132588000Y-107950000D03*
X132588000Y-110490000D03*
X132588000Y-115570000D03*
X132588000Y-113030000D03*
X132588000Y-118110000D03*
G04 #@! TD*
D21*
G04 #@! TO.C,P1*
X94830900Y-110830360D03*
X94830900Y-115229640D03*
G04 #@! TD*
M02*
