<?xml version="1.0" encoding="UTF-8" standalone="no"?>
<!-- Created with Inkscape (http://www.inkscape.org/) -->

<svg
   xmlns:dc="http://purl.org/dc/elements/1.1/"
   xmlns:cc="http://creativecommons.org/ns#"
   xmlns:rdf="http://www.w3.org/1999/02/22-rdf-syntax-ns#"
   xmlns:svg="http://www.w3.org/2000/svg"
   xmlns="http://www.w3.org/2000/svg"
   xmlns:sodipodi="http://sodipodi.sourceforge.net/DTD/sodipodi-0.dtd"
   xmlns:inkscape="http://www.inkscape.org/namespaces/inkscape"
   width="10.263077mm"
   height="3.7598393mm"
   viewBox="0 0 36.365233 13.322265"
   id="svg2"
   version="1.1"
   inkscape:version="0.91 r13725"
   sodipodi:docname="logo_txt.svg"
   inkscape:export-filename="/home/trees/src/github.mcush/doc/logo_txt.png"
   inkscape:export-xdpi="297.24673"
   inkscape:export-ydpi="297.24673">
  <defs
     id="defs4" />
  <sodipodi:namedview
     id="base"
     pagecolor="#ffffff"
     bordercolor="#666666"
     borderopacity="1.0"
     inkscape:pageopacity="1"
     inkscape:pageshadow="2"
     inkscape:zoom="3.959798"
     inkscape:cx="46.096096"
     inkscape:cy="-24.057847"
     inkscape:document-units="mm"
     inkscape:current-layer="text4136"
     showgrid="false"
     inkscape:window-width="1920"
     inkscape:window-height="1026"
     inkscape:window-x="0"
     inkscape:window-y="30"
     inkscape:window-maximized="1"
     fit-margin-top="0"
     fit-margin-left="0"
     fit-margin-right="0"
     fit-margin-bottom="0" />
  <metadata
     id="metadata7">
    <rdf:RDF>
      <cc:Work
         rdf:about="">
        <dc:format>image/svg+xml</dc:format>
        <dc:type
           rdf:resource="http://purl.org/dc/dcmitype/StillImage" />
        <dc:title></dc:title>
      </cc:Work>
    </rdf:RDF>
  </metadata>
  <g
     inkscape:groupmode="layer"
     id="layer2"
     inkscape:label="background"
     transform="translate(0.37890625,-2.1972656)">
    <path
       style="opacity:1;fill:#000000;fill-opacity:1;stroke:none;stroke-width:3.54330707;stroke-linecap:round;stroke-linejoin:round;stroke-miterlimit:4;stroke-dasharray:none;stroke-dashoffset:0;stroke-opacity:1"
       d="m 2.5253906,2.1972656 c -1.60918362,0 -2.90429685,1.2951133 -2.90429685,2.9042969 l 0,7.5136715 c 0,1.609183 1.29511323,2.904297 2.90429685,2.904297 l 30.5566404,0 c 1.609184,0 2.904297,-1.295114 2.904297,-2.904297 l 0,-7.5136715 c 0,-1.6091836 -1.295113,-2.9042969 -2.904297,-2.9042969 l -30.5566404,0 z m 0.6464844,1.7050782 19.070313,0 0,9.9121092 -19.070313,0 c -1.1973546,0 -2.1621094,-0.964754 -2.1621094,-2.162109 l 0,-5.5878909 c 0,-1.1973547 0.9647548,-2.1621093 2.1621094,-2.1621093 z"
       id="rect4141"
       inkscape:connector-curvature="0" />
  </g>
  <g
     inkscape:label="text"
     inkscape:groupmode="layer"
     id="layer1"
     transform="translate(0.37890625,-1036.843)"
     style="display:inline">
    <g
       style="font-style:normal;font-weight:normal;font-size:8.51055527px;line-height:125%;font-family:sans-serif;letter-spacing:0px;word-spacing:0px;fill:#000000;fill-opacity:1;stroke:none;stroke-width:1px;stroke-linecap:butt;stroke-linejoin:miter;stroke-opacity:1"
       id="text4136">
      <path
         style="font-style:normal;font-variant:normal;font-weight:normal;font-stretch:normal;font-size:8.51055527px;line-height:125%;font-family:FreeSans;-inkscape-font-specification:FreeSans;letter-spacing:0.18000001px;word-spacing:0px;display:inline;fill:#000000;fill-opacity:1;stroke:none;stroke-width:1px;stroke-linecap:butt;stroke-linejoin:miter;stroke-opacity:1"
         d="m 12.388863,1040.2595 c -1.218173,-0.035 -2.303997,0.881 -2.5788189,2.0487 -0.406375,1.4288 -0.122671,3.3068 1.2619619,4.1059 1.173891,0.6152 2.960872,0.4173 3.6047,-0.8657 0.246088,-0.4585 0.338554,-0.979 0.393503,-1.4909 -0.375789,0.1057 -1.144438,-0.2541 -1.18088,0.2537 -0.06654,0.774 -0.673954,1.5384 -1.522551,1.399 -1.150747,-0.018 -1.706762,-1.3186 -1.607786,-2.3281 -0.03772,-0.9575 0.555519,-2.1469 1.644655,-2.0931 0.751255,-0.09 1.379937,0.5147 1.424539,1.2463 0.361289,-0.11 1.336152,0.2849 1.070277,-0.341 -0.146254,-1.0167 -0.999924,-1.8839 -2.047833,-1.9191 -0.153408,-0.015 -0.307719,-0.019 -0.461767,-0.016 z m -9.3619956,0.2829 c 0,2.0054 0,4.0107 0,6.0161 0.580198,0 1.3397721,0.1847 1.0784897,-0.6542 0,-1.0948 0,-2.1897 0,-3.2845 0.4449435,1.3129 0.8896613,2.6258 1.3347403,3.9387 0.4815009,-0.054 1.2143312,0.242 1.2137935,-0.4818 0.3853362,-1.1487 0.7706682,-2.2974 1.1560002,-3.4462 0,1.3094 0,2.6187 0,3.928 0.5801406,0 1.337621,0.1837 1.076663,-0.6542 0,-1.8496 0,-3.6992 0,-5.5488 -0.4379904,0.1236 -1.2424702,-0.2614 -1.4251175,0.2164 -0.4969209,1.488 -0.9938418,2.976 -1.4907627,4.464 -0.5305765,-1.5601 -1.0611571,-3.1202 -1.5917254,-4.6804 -0.3799554,0.1034 -1.2942181,-0.2222 -1.3520811,0.1869 z m 12.7724946,0 c 0.0371,1.5174 -0.06951,3.0445 0.04362,4.557 0.182976,1.1558 1.44092,1.734 2.511792,1.6401 1.078329,0.025 2.227656,-0.7271 2.28602,-1.875 0.02696,-1.5023 0.0025,-3.0061 0.01075,-4.509 -0.581762,0.01 -1.385207,-0.2043 -1.117181,0.6541 -0.04679,1.3412 0.09291,2.7046 -0.06826,4.0325 -0.37317,0.8286 -1.634451,0.8551 -2.2758,0.3411 -0.523328,-0.6504 -0.170043,-1.5743 -0.273772,-2.3389 0,-0.8963 0,-1.7925 0,-2.6888 -0.302194,0.097 -1.136123,-0.2105 -1.117185,0.1869 z"
         id="path4181-0"
         inkscape:connector-curvature="0" />
      <path
         style="font-style:normal;font-variant:normal;font-weight:normal;font-stretch:normal;font-size:8.51055527px;line-height:125%;font-family:FreeSans;-inkscape-font-specification:FreeSans;letter-spacing:0.18000001px;word-spacing:0px;display:inline;fill:#ffffff;fill-opacity:1;stroke:none;stroke-width:1px;stroke-linecap:butt;stroke-linejoin:miter;stroke-opacity:1"
         d="m 25.81952,1040.2624 c -1.023176,-0.034 -2.13986,0.681 -2.134894,1.7904 -0.0996,0.7941 0.511741,1.5122 1.279988,1.6476 0.73634,0.2922 1.681516,0.2357 2.276707,0.815 0.371616,0.5763 -0.283844,1.2313 -0.887576,1.1845 -0.747035,0.1309 -1.785081,-0.1981 -1.768401,-1.0951 0.122244,-0.4689 -0.938938,-0.3012 -1.081929,-0.18 -0.07209,0.9883 0.564569,1.9942 1.563771,2.2019 1.12727,0.282 2.654212,0.1225 3.218128,-1.0473 0.44755,-0.8595 0.04063,-2.0341 -0.899257,-2.3471 -0.796957,-0.3386 -1.759006,-0.3123 -2.471635,-0.8267 -0.402513,-0.5659 0.288979,-1.1925 0.87042,-1.1431 0.669562,-0.097 1.515512,0.3011 1.404009,1.0918 0.164671,0.073 1.243801,0.3326 1.070729,-0.2104 0.01588,-1.044 -0.941118,-1.8367 -1.940147,-1.8655 -0.166066,-0.016 -0.333162,-0.021 -0.499913,-0.016 z m 3.455035,0.2821 c 0,2.0054 0,4.0108 0,6.0161 0.581762,-0.01 1.385207,0.2044 1.117181,-0.6541 0,-0.6666 0,-1.3332 0,-1.9999 0.875046,0 1.750092,0 2.625133,0 0,0.8847 0,1.7694 0,2.654 0.581766,-0.01 1.385208,0.2044 1.117186,-0.6541 0,-1.8496 0,-3.6993 0,-5.5489 -0.581766,0.01 -1.385207,-0.2043 -1.117186,0.6542 0,0.6219 0,1.2439 0,1.8658 -0.875041,0 -1.750087,0 -2.625133,0 0,-0.84 0,-1.68 0,-2.52 -0.302194,0.097 -1.136118,-0.2104 -1.117181,0.1869 z"
         id="path4187-7"
         inkscape:connector-curvature="0" />
    </g>
  </g>
</svg>
