<?xml version="1.0" encoding="UTF-8" standalone="no"?>
<!-- Created with Inkscape (http://www.inkscape.org/) -->

<svg
   xmlns:dc="http://purl.org/dc/elements/1.1/"
   xmlns:cc="http://creativecommons.org/ns#"
   xmlns:rdf="http://www.w3.org/1999/02/22-rdf-syntax-ns#"
   xmlns:svg="http://www.w3.org/2000/svg"
   xmlns="http://www.w3.org/2000/svg"
   xmlns:sodipodi="http://sodipodi.sourceforge.net/DTD/sodipodi-0.dtd"
   xmlns:inkscape="http://www.inkscape.org/namespaces/inkscape"
   width="10.263077mm"
   height="3.7598393mm"
   viewBox="0 0 36.365233 13.322265"
   id="svg2"
   version="1.1"
   inkscape:version="0.91 r13725"
   sodipodi:docname="logo_txt.svg"
   inkscape:export-filename="logo_txt_200.png"
   inkscape:export-xdpi="494.98001"
   inkscape:export-ydpi="494.98001">
  <defs
     id="defs4" />
  <sodipodi:namedview
     id="base"
     pagecolor="#ffffff"
     bordercolor="#666666"
     borderopacity="1.0"
     inkscape:pageopacity="1"
     inkscape:pageshadow="2"
     inkscape:zoom="11.2"
     inkscape:cx="12.080596"
     inkscape:cy="-3.8590951"
     inkscape:document-units="mm"
     inkscape:current-layer="layer2"
     showgrid="false"
     inkscape:window-width="1920"
     inkscape:window-height="1029"
     inkscape:window-x="0"
     inkscape:window-y="27"
     inkscape:window-maximized="1"
     fit-margin-top="0"
     fit-margin-left="0"
     fit-margin-right="0"
     fit-margin-bottom="0" />
  <metadata
     id="metadata7">
    <rdf:RDF>
      <cc:Work
         rdf:about="">
        <dc:format>image/svg+xml</dc:format>
        <dc:type
           rdf:resource="http://purl.org/dc/dcmitype/StillImage" />
        <dc:title></dc:title>
      </cc:Work>
    </rdf:RDF>
  </metadata>
  <g
     inkscape:groupmode="layer"
     id="layer2"
     inkscape:label="background"
     transform="translate(0.37890625,-2.1972656)">
    <path
       style="opacity:1;fill:#000000;fill-opacity:1;stroke:none;stroke-width:3.54330707;stroke-linecap:round;stroke-linejoin:round;stroke-miterlimit:4;stroke-dasharray:none;stroke-dashoffset:0;stroke-opacity:1"
       d="M 2.9042969 0 C 1.2951133 0 5.9211895e-16 1.2951133 0 2.9042969 L 0 10.417969 C 0 12.027152 1.2951133 13.322266 2.9042969 13.322266 L 33.460938 13.322266 C 35.070121 13.322266 36.365234 12.027152 36.365234 10.417969 L 36.365234 2.9042969 C 36.365234 1.2951133 35.070121 0 33.460938 0 L 2.9042969 0 z M 3.5507812 1.7050781 L 22.621094 1.7050781 L 22.621094 11.617188 L 3.5507812 11.617188 C 2.3534268 11.617188 1.3886719 10.652433 1.3886719 9.4550781 L 1.3886719 3.8671875 C 1.3886719 2.6698328 2.3534267 1.7050781 3.5507812 1.7050781 z M 12.767578 3.4160156 C 11.549405 3.3810156 10.464275 4.2971438 10.189453 5.4648438 C 9.7830781 6.8936437 10.066539 8.7712125 11.451172 9.5703125 C 12.625063 10.185512 14.410859 9.9880781 15.054688 8.7050781 C 15.300776 8.2465781 15.39427 7.7267437 15.449219 7.2148438 C 15.07343 7.3205438 14.30402 6.96095 14.267578 7.46875 C 14.201038 8.24275 13.594691 9.0065875 12.746094 8.8671875 C 11.595347 8.8491875 11.039696 7.5485625 11.138672 6.5390625 C 11.100952 5.5815625 11.694067 4.3915125 12.783203 4.4453125 C 13.534458 4.3553125 14.162429 4.9598062 14.207031 5.6914062 C 14.56832 5.5814063 15.543219 5.9774625 15.277344 5.3515625 C 15.13109 4.3348625 14.278378 3.4668406 13.230469 3.4316406 C 13.077061 3.4166406 12.921626 3.4130156 12.767578 3.4160156 z M 26.199219 3.4199219 C 26.36597 3.4149219 26.533153 3.4195469 26.699219 3.4355469 C 27.698248 3.4643469 28.654552 4.2567812 28.638672 5.3007812 C 28.811744 5.8437812 27.73303 5.5847187 27.568359 5.5117188 C 27.679862 4.7210186 26.833624 4.3229219 26.164062 4.4199219 C 25.582621 4.3705219 24.890456 4.9966 25.292969 5.5625 C 26.005598 6.0769 26.968668 6.0500719 27.765625 6.3886719 C 28.705512 6.7016719 29.111613 7.8768281 28.664062 8.7363281 C 28.100147 9.9061281 26.572582 10.065203 25.445312 9.7832031 C 24.44611 9.5755031 23.810724 8.5703312 23.882812 7.5820312 C 24.025803 7.4608313 25.087088 7.2928186 24.964844 7.7617188 C 24.948164 8.6587186 25.985387 8.9883219 26.732422 8.8574219 C 27.336154 8.9042219 27.99271 8.248175 27.621094 7.671875 C 27.025903 7.092575 26.08009 7.1496219 25.34375 6.8574219 C 24.575503 6.7220219 23.964853 6.0030844 24.064453 5.2089844 C 24.059487 4.0995844 25.176043 3.3859219 26.199219 3.4199219 z M 8.4570312 3.4882812 C 8.1783316 3.4672063 7.9311674 3.4896156 7.8398438 3.7285156 L 6.3496094 8.1933594 C 5.8190329 6.6332594 5.2883808 5.0719187 4.7578125 3.5117188 C 4.3778571 3.6151187 3.464113 3.2901188 3.40625 3.6992188 L 3.40625 9.7148438 C 3.986448 9.7148438 4.7456574 9.8994469 4.484375 9.0605469 L 4.484375 5.7773438 C 4.9293185 7.0902437 5.3732804 8.4019438 5.8183594 9.7148438 C 6.2998603 9.6608437 7.0337408 9.958175 7.0332031 9.234375 C 7.4185393 8.085675 7.8041211 6.9359094 8.1894531 5.7871094 L 8.1894531 9.7148438 C 8.7695937 9.7148438 9.526583 9.8984469 9.265625 9.0605469 L 9.265625 3.5117188 C 9.0466298 3.5735187 8.7357309 3.5093562 8.4570312 3.4882812 z M 16.617188 3.4941406 C 16.373298 3.4790656 16.168265 3.5005188 16.177734 3.6992188 C 16.214834 5.2166187 16.109526 6.7433594 16.222656 8.2558594 C 16.405632 9.4116594 17.663503 9.9903844 18.734375 9.8964844 C 19.812704 9.9214844 20.961167 9.1693844 21.019531 8.0214844 C 21.046491 6.5191844 21.023 5.0146187 21.03125 3.5117188 C 20.449488 3.5217187 19.646036 3.3076156 19.914062 4.1660156 C 19.867272 5.5072156 20.006873 6.8713188 19.845703 8.1992188 C 19.472533 9.0278188 18.209708 9.0550156 17.568359 8.5410156 C 17.045031 7.8906156 17.398651 6.9657719 17.294922 6.2011719 L 17.294922 3.5117188 C 17.143825 3.5602187 16.861077 3.5092156 16.617188 3.4941406 z M 30.091797 3.4960938 C 30.335685 3.5111561 30.620387 3.5621719 30.771484 3.5136719 L 30.771484 6.0351562 L 33.396484 6.0351562 L 33.396484 4.1679688 C 33.128463 3.3094686 33.931906 3.5236719 34.513672 3.5136719 L 34.513672 9.0644531 C 34.781694 9.9229531 33.97825 9.7067969 33.396484 9.7167969 L 33.396484 7.0644531 L 30.771484 7.0644531 L 30.771484 9.0644531 C 31.03951 9.9229531 30.236059 9.7067969 29.654297 9.7167969 L 29.654297 3.7011719 C 29.644828 3.5025219 29.847909 3.4810312 30.091797 3.4960938 z "
       transform="translate(-0.37890625,2.1972651)"
       id="rect4141" />
  </g>
  <g
     inkscape:label="text"
     inkscape:groupmode="layer"
     id="layer1"
     transform="translate(0.37890625,-1036.843)"
     style="display:inline" />
</svg>
