<?xml version="1.0" encoding="UTF-8" standalone="no"?>
<!-- Created with Inkscape (http://www.inkscape.org/) -->

<svg
   xmlns:dc="http://purl.org/dc/elements/1.1/"
   xmlns:cc="http://creativecommons.org/ns#"
   xmlns:rdf="http://www.w3.org/1999/02/22-rdf-syntax-ns#"
   xmlns:svg="http://www.w3.org/2000/svg"
   xmlns="http://www.w3.org/2000/svg"
   xmlns:sodipodi="http://sodipodi.sourceforge.net/DTD/sodipodi-0.dtd"
   xmlns:inkscape="http://www.inkscape.org/namespaces/inkscape"
   width="10mm"
   height="10mm"
   viewBox="0 0 35.433068 35.43307"
   id="svg2"
   version="1.1"
   inkscape:version="0.91 r13725"
   sodipodi:docname="logo_inv.svg"
   inkscape:export-filename="/home/trees/src/github.mcush/doc/icons/logo_inv_32.png"
   inkscape:export-xdpi="81.279999"
   inkscape:export-ydpi="81.279999">
  <defs
     id="defs4" />
  <sodipodi:namedview
     id="base"
     pagecolor="#ffffff"
     bordercolor="#666666"
     borderopacity="1.0"
     inkscape:pageopacity="1"
     inkscape:pageshadow="2"
     inkscape:zoom="11.313709"
     inkscape:cx="9.5745876"
     inkscape:cy="13.005558"
     inkscape:document-units="mm"
     inkscape:current-layer="svg2"
     showgrid="false"
     fit-margin-top="0"
     fit-margin-left="0"
     fit-margin-right="0"
     fit-margin-bottom="0"
     inkscape:window-width="1920"
     inkscape:window-height="1029"
     inkscape:window-x="0"
     inkscape:window-y="27"
     inkscape:window-maximized="1" />
  <metadata
     id="metadata7">
    <rdf:RDF>
      <cc:Work
         rdf:about="">
        <dc:format>image/svg+xml</dc:format>
        <dc:type
           rdf:resource="http://purl.org/dc/dcmitype/StillImage" />
        <dc:title></dc:title>
      </cc:Work>
    </rdf:RDF>
  </metadata>
  <g
     inkscape:groupmode="layer"
     id="layer4"
     inkscape:label="background"
     transform="translate(0,-35.433071)"
     style="display:inline" />
  <g
     inkscape:groupmode="layer"
     id="layer3"
     inkscape:label="pins"
     style="display:inline"
     transform="translate(0,-35.433071)">
    <path
       style="fill:#000000;fill-opacity:1;stroke:none;stroke-width:2;stroke-linejoin:miter;stroke-miterlimit:4;stroke-dasharray:none;stroke-dashoffset:0;stroke-opacity:1"
       d="m 9.3316242,35.432617 0,7.620215 2.1904588,0 0,-7.620215 -2.1904588,0 z m 3.0391018,0 0,7.620215 2.190457,0 0,-7.620215 -2.190457,0 z m 3.039101,0 0,7.620215 2.190459,0 0,-7.620215 -2.190459,0 z m 3.039101,0 0,7.620215 2.190459,0 0,-7.620215 -2.190459,0 z m 3.039102,0 0,7.620215 2.190458,0 0,-7.620215 -2.190458,0 z m 3.039102,0 0,7.620215 2.190458,0 0,-7.620215 -2.190458,0 z m -24.5266818559,8.508898 0,2.191435 7.9376017559,0 0,-2.191435 -7.9376017559,0 z m 27.8128568559,0 0,2.191435 7.620214,0 0,-2.191435 -7.620214,0 z m -27.8128568559,3.039101 0,2.191434 7.9376017559,0 0,-2.191434 -7.9376017559,0 z m 27.8128568559,0 0,2.191434 7.620214,0 0,-2.191434 -7.620214,0 z m -27.8128568559,3.039102 0,2.191434 7.9376017559,0 0,-2.191434 -7.9376017559,0 z m 27.8128568559,0 0,2.191434 7.620214,0 0,-2.191434 -7.620214,0 z m -27.8128568559,3.039101 0,2.191435 7.9376017559,0 0,-2.191435 -7.9376017559,0 z m 27.8128568559,0 0,2.191435 7.620214,0 0,-2.191435 -7.620214,0 z m -27.8128568559,3.039102 0,2.191434 7.9376017559,0 0,-2.191434 -7.9376017559,0 z m 27.8128568559,0 0,2.191434 7.620214,0 0,-2.191434 -7.620214,0 z m -27.8128568559,3.039102 0,2.191435 7.9376017559,0 0,-2.191435 -7.9376017559,0 z m 27.8128568559,0 0,2.191435 7.620214,0 0,-2.191435 -7.620214,0 z m -18.4816828,2.978553 0,8.750112 2.1904588,0 0,-8.750112 -2.1904588,0 z m 3.0391018,0 0,8.750112 2.190457,0 0,-8.750112 -2.190457,0 z m 3.039101,0 0,8.750112 2.190459,0 0,-8.750112 -2.190459,0 z m 3.039101,0 0,8.750112 2.190459,0 0,-8.750112 -2.190459,0 z m 3.039102,0 0,8.750112 2.190458,0 0,-8.750112 -2.190458,0 z m 3.039102,0 0,8.750112 2.190458,0 0,-8.750112 -2.190458,0 z"
       id="rect4163-72-0"
       inkscape:connector-curvature="0" />
  </g>
  <rect
     style="opacity:1;fill:#ffffff;fill-opacity:1;stroke:none;stroke-width:3.54330707;stroke-linecap:round;stroke-linejoin:round;stroke-miterlimit:4;stroke-dasharray:none;stroke-dashoffset:0;stroke-opacity:1"
     id="rect4141"
     width="26.574802"
     height="26.574802"
     x="4.4291325"
     y="4.4291344"
     ry="3.84375"
     rx="3.859375" />
  <g
     inkscape:groupmode="layer"
     id="layer5"
     inkscape:label="chip"
     transform="translate(0,-35.433071)"
     style="display:inline">
    <rect
       style="fill:#000000;fill-opacity:1;stroke:#000000;stroke-width:1.63602734;stroke-linecap:round;stroke-linejoin:round;stroke-miterlimit:4;stroke-dasharray:none;stroke-dashoffset:0;stroke-opacity:1"
       id="rect4150"
       width="23.167122"
       height="23.167122"
       x="6.1329727"
       y="41.566044"
       ry="2.8608782" />
    <path
       style="fill:#ffffff;fill-opacity:1;stroke:none;stroke-width:0.35433072;stroke-linecap:round;stroke-linejoin:round;stroke-miterlimit:4;stroke-dasharray:none;stroke-dashoffset:0;stroke-opacity:1"
       id="path4152"
       sodipodi:type="arc"
       sodipodi:cx="9.4604235"
       sodipodi:cy="61.107403"
       sodipodi:rx="1.1515895"
       sodipodi:ry="1.1515895"
       sodipodi:start="2.8828825"
       sodipodi:end="2.8787984"
       sodipodi:open="true"
       d="M 8.347158,61.402018 A 1.1515895,1.1515895 0 0 1 9.1646714,59.994439 1.1515895,1.1515895 0 0 1 10.573085,60.810515 1.1515895,1.1515895 0 0 1 9.7584477,62.219761 1.1515895,1.1515895 0 0 1 8.3483705,61.406563" />
  </g>
  <g
     inkscape:groupmode="layer"
     id="layer2"
     inkscape:label="prompt"
     style="display:inline"
     transform="translate(0,-35.433071)">
    <g
       transform="matrix(0.88039615,0,0,1.1358523,-45.370179,-355.99526)"
       style="font-style:normal;font-weight:normal;font-size:14.10797596px;line-height:125%;font-family:sans-serif;letter-spacing:0px;word-spacing:0px;display:inline;fill:#000000;fill-opacity:1;stroke:none;stroke-width:1px;stroke-linecap:butt;stroke-linejoin:miter;stroke-opacity:1"
       id="text4149" />
    <path
       style="font-style:normal;font-variant:normal;font-weight:500;font-stretch:normal;font-size:31.74294662px;line-height:125%;font-family:monospace;-inkscape-font-specification:'monospace Medium';letter-spacing:0px;word-spacing:0px;display:inline;fill:#ffffff;fill-opacity:1;stroke:none;stroke-width:1px;stroke-linecap:butt;stroke-linejoin:miter;stroke-opacity:1"
       d="m 18.31322,48.739394 0,1.601583 5.799879,2.817418 -5.799879,2.790075 0,1.611349 7.212007,-3.679735 0,-1.461932 -7.212007,-3.678758 z m -8.40538,1.875024 0,1.496112 7.212006,0 0,-1.496112 -7.212006,0 z m 0,3.573288 0,1.514667 7.212006,0 0,-1.514667 -7.212006,0 z"
       id="path4162"
       inkscape:connector-curvature="0" />
  </g>
</svg>
