<?xml version="1.0" encoding="UTF-8" standalone="no"?>
<!-- Created with Inkscape (http://www.inkscape.org/) -->

<svg
   xmlns:dc="http://purl.org/dc/elements/1.1/"
   xmlns:cc="http://creativecommons.org/ns#"
   xmlns:rdf="http://www.w3.org/1999/02/22-rdf-syntax-ns#"
   xmlns:svg="http://www.w3.org/2000/svg"
   xmlns="http://www.w3.org/2000/svg"
   xmlns:sodipodi="http://sodipodi.sourceforge.net/DTD/sodipodi-0.dtd"
   xmlns:inkscape="http://www.inkscape.org/namespaces/inkscape"
   width="10.263077mm"
   height="5.613874mm"
   viewBox="0 0 36.365233 19.891679"
   id="svg2"
   version="1.1"
   inkscape:version="0.91 r13725"
   sodipodi:docname="mcush_powered.svg"
   inkscape:export-filename="/home/trees/src/github.mcush/doc/logo_txt.png"
   inkscape:export-xdpi="297.24673"
   inkscape:export-ydpi="297.24673">
  <defs
     id="defs4" />
  <sodipodi:namedview
     id="base"
     pagecolor="#ffffff"
     bordercolor="#666666"
     borderopacity="1.0"
     inkscape:pageopacity="1"
     inkscape:pageshadow="2"
     inkscape:zoom="7.919596"
     inkscape:cx="-3.7100203"
     inkscape:cy="-2.408155"
     inkscape:document-units="mm"
     inkscape:current-layer="layer2"
     showgrid="false"
     inkscape:window-width="1920"
     inkscape:window-height="1029"
     inkscape:window-x="0"
     inkscape:window-y="27"
     inkscape:window-maximized="1"
     fit-margin-top="0"
     fit-margin-left="0"
     fit-margin-right="0"
     fit-margin-bottom="0" />
  <metadata
     id="metadata7">
    <rdf:RDF>
      <cc:Work
         rdf:about="">
        <dc:format>image/svg+xml</dc:format>
        <dc:type
           rdf:resource="http://purl.org/dc/dcmitype/StillImage" />
        <dc:title />
      </cc:Work>
    </rdf:RDF>
  </metadata>
  <g
     inkscape:groupmode="layer"
     id="layer2"
     inkscape:label="background"
     transform="translate(0.37890625,-2.1972661)">
    <path
       style="opacity:1;fill:#000000;fill-opacity:1;stroke:none;stroke-width:3.54330707;stroke-linecap:round;stroke-linejoin:round;stroke-miterlimit:4;stroke-dasharray:none;stroke-dashoffset:0;stroke-opacity:1"
       d="M 2.9042969 0 C 1.2951133 0 2.9605947e-16 1.2951133 0 2.9042969 L 0 10.417969 C 0 12.027152 1.2951133 13.322266 2.9042969 13.322266 L 33.460938 13.322266 C 35.070121 13.322266 36.365234 12.027152 36.365234 10.417969 L 36.365234 2.9042969 C 36.365234 1.2951133 35.070121 -2.9605947e-16 33.460938 0 L 2.9042969 0 z M 3.5507812 1.7050781 L 22.621094 1.7050781 L 22.621094 11.617188 L 3.5507812 11.617188 C 2.3534268 11.617188 1.3886719 10.652433 1.3886719 9.4550781 L 1.3886719 3.8671875 C 1.3886719 2.6698328 2.3534267 1.7050781 3.5507812 1.7050781 z M 12.767578 3.4160156 C 11.549405 3.3810156 10.464275 4.2971438 10.189453 5.4648438 C 9.7830782 6.8936437 10.066539 8.7712125 11.451172 9.5703125 C 12.625063 10.185512 14.410858 9.9880781 15.054688 8.7050781 C 15.300776 8.2465781 15.39427 7.7267436 15.449219 7.2148438 C 15.07343 7.3205438 14.30402 6.96095 14.267578 7.46875 C 14.201038 8.24275 13.594691 9.0065875 12.746094 8.8671875 C 11.595347 8.8491875 11.039696 7.5485625 11.138672 6.5390625 C 11.100952 5.5815625 11.694067 4.3915125 12.783203 4.4453125 C 13.534458 4.3553125 14.162429 4.9598062 14.207031 5.6914062 C 14.56832 5.5814063 15.543219 5.9774625 15.277344 5.3515625 C 15.13109 4.3348625 14.278378 3.4668406 13.230469 3.4316406 C 13.077061 3.4166406 12.921626 3.4130156 12.767578 3.4160156 z M 26.199219 3.4199219 C 26.36597 3.4149219 26.533153 3.4195469 26.699219 3.4355469 C 27.698248 3.4643469 28.654552 4.2567812 28.638672 5.3007812 C 28.811744 5.8437812 27.73303 5.5847188 27.568359 5.5117188 C 27.679862 4.7210187 26.833624 4.3229219 26.164062 4.4199219 C 25.582621 4.3705219 24.890456 4.9966 25.292969 5.5625 C 26.005598 6.0769 26.968668 6.0500719 27.765625 6.3886719 C 28.705512 6.7016719 29.111614 7.8768281 28.664062 8.7363281 C 28.100147 9.9061281 26.572582 10.065203 25.445312 9.7832031 C 24.44611 9.5755031 23.810724 8.5703312 23.882812 7.5820312 C 24.025803 7.4608313 25.087088 7.2928187 24.964844 7.7617188 C 24.948164 8.6587187 25.985387 8.9883219 26.732422 8.8574219 C 27.336154 8.9042219 27.99271 8.248175 27.621094 7.671875 C 27.025903 7.092575 26.08009 7.1496219 25.34375 6.8574219 C 24.575503 6.7220219 23.964853 6.0030844 24.064453 5.2089844 C 24.059487 4.0995844 25.176043 3.3859219 26.199219 3.4199219 z M 8.4570312 3.4882812 C 8.1783317 3.4672064 7.9311673 3.4896156 7.8398438 3.7285156 L 6.3496094 8.1933594 C 5.8190329 6.6332594 5.2883808 5.0719187 4.7578125 3.5117188 C 4.3778571 3.6151186 3.464113 3.2901187 3.40625 3.6992188 L 3.40625 9.7148438 C 3.986448 9.7148438 4.7456574 9.8994469 4.484375 9.0605469 L 4.484375 5.7773438 C 4.9293185 7.0902437 5.3732804 8.4019437 5.8183594 9.7148438 C 6.2998603 9.6608436 7.0337408 9.958175 7.0332031 9.234375 C 7.4185393 8.085675 7.8041211 6.9359094 8.1894531 5.7871094 L 8.1894531 9.7148438 C 8.7695937 9.7148438 9.526583 9.8984469 9.265625 9.0605469 L 9.265625 3.5117188 C 9.0466298 3.5735187 8.735731 3.5093562 8.4570312 3.4882812 z M 16.617188 3.4941406 C 16.373297 3.4790656 16.168265 3.5005188 16.177734 3.6992188 C 16.214834 5.2166187 16.109526 6.7433594 16.222656 8.2558594 C 16.405632 9.4116594 17.663503 9.9903844 18.734375 9.8964844 C 19.812704 9.9214844 20.961167 9.1693844 21.019531 8.0214844 C 21.046491 6.5191844 21.023 5.0146187 21.03125 3.5117188 C 20.449488 3.5217186 19.646036 3.3076156 19.914062 4.1660156 C 19.867272 5.5072156 20.006873 6.8713187 19.845703 8.1992188 C 19.472533 9.0278187 18.209708 9.0550156 17.568359 8.5410156 C 17.045031 7.8906156 17.398651 6.9657719 17.294922 6.2011719 L 17.294922 3.5117188 C 17.143825 3.5602186 16.861077 3.5092156 16.617188 3.4941406 z M 30.091797 3.4960938 C 30.335685 3.511156 30.620387 3.5621719 30.771484 3.5136719 L 30.771484 6.0351562 L 33.396484 6.0351562 L 33.396484 4.1679688 C 33.128463 3.3094687 33.931906 3.5236719 34.513672 3.5136719 L 34.513672 9.0644531 C 34.781694 9.9229531 33.97825 9.7067969 33.396484 9.7167969 L 33.396484 7.0644531 L 30.771484 7.0644531 L 30.771484 9.0644531 C 31.03951 9.9229531 30.236059 9.7067969 29.654297 9.7167969 L 29.654297 3.7011719 C 29.644828 3.5025219 29.847909 3.4810311 30.091797 3.4960938 z M 8.4375 15.150391 C 8.0638716 15.150391 7.7235756 15.210378 7.4160156 15.330078 C 7.1084557 15.447678 6.8440343 15.612519 6.6230469 15.824219 C 6.4043376 16.035919 6.2340272 16.287325 6.1132812 16.578125 C 5.9925356 16.866825 5.9335936 17.181384 5.9335938 17.521484 C 5.9335938 17.861484 5.9925359 18.175997 6.1132812 18.466797 C 6.234027 18.755497 6.4043376 19.00695 6.6230469 19.21875 C 6.8440343 19.43035 7.1084557 19.595144 7.4160156 19.714844 C 7.7235756 19.832544 8.0638716 19.892578 8.4375 19.892578 C 8.8134066 19.892578 9.1553307 19.832644 9.4628906 19.714844 C 9.7704506 19.595144 10.033244 19.43035 10.251953 19.21875 C 10.470662 19.00695 10.639347 18.755497 10.757812 18.466797 C 10.878559 18.175997 10.939453 17.861484 10.939453 17.521484 C 10.939453 17.294784 10.912102 17.078347 10.857422 16.873047 C 10.805022 16.667847 10.72752 16.478134 10.625 16.302734 C 10.52248 16.127434 10.398084 15.969225 10.25 15.828125 C 10.104194 15.684925 9.9384423 15.563244 9.7539062 15.464844 C 9.5693703 15.364544 9.3655189 15.287975 9.1445312 15.234375 C 8.9235438 15.178375 8.6881044 15.150391 8.4375 15.150391 z M 1.9960938 15.201172 L 1.9960938 19.837891 L 2.9140625 19.837891 L 2.9140625 18.205078 L 3.6015625 18.205078 C 3.9227918 18.205078 4.2021931 18.16915 4.4414062 18.09375 C 4.6828978 18.01875 4.8834931 17.913997 5.0429688 17.779297 C 5.2024443 17.644597 5.3226059 17.484928 5.4023438 17.298828 C 5.4820817 17.110728 5.5214844 16.904287 5.5214844 16.679688 C 5.5214844 16.463788 5.4837094 16.263831 5.40625 16.082031 C 5.331069 15.900231 5.213838 15.743681 5.0566406 15.613281 C 4.8994433 15.482881 4.7004759 15.381394 4.4589844 15.308594 C 4.2174928 15.235594 3.9319046 15.201172 3.6015625 15.201172 L 1.9960938 15.201172 z M 14.582031 15.201172 C 14.504571 15.201172 14.439444 15.223672 14.384766 15.263672 C 14.332366 15.304672 14.295576 15.349736 14.277344 15.398438 L 13.306641 18.171875 C 13.281581 18.239875 13.259108 18.315184 13.236328 18.396484 C 13.215828 18.475484 13.195964 18.560491 13.177734 18.650391 C 13.159514 18.560391 13.141277 18.475584 13.123047 18.396484 C 13.107107 18.315484 13.090496 18.240275 13.072266 18.171875 L 12.230469 15.398438 C 12.212249 15.338437 12.175769 15.290059 12.121094 15.255859 C 12.068694 15.219859 12.003566 15.203125 11.923828 15.203125 L 11.154297 15.203125 L 12.685547 19.839844 L 13.519531 19.839844 L 14.609375 16.669922 C 14.623045 16.629922 14.636721 16.585862 14.650391 16.539062 C 14.666341 16.492062 14.680026 16.442125 14.691406 16.390625 C 14.705076 16.441625 14.718752 16.491863 14.732422 16.539062 C 14.746092 16.586063 14.761394 16.629122 14.777344 16.669922 L 15.857422 19.839844 L 16.6875 19.839844 L 18.220703 15.201172 L 17.5 15.201172 C 17.42254 15.201172 17.355784 15.220766 17.298828 15.259766 C 17.244148 15.297766 17.210928 15.342784 17.197266 15.396484 L 16.355469 18.171875 C 16.319019 18.308675 16.285479 18.461859 16.255859 18.630859 C 16.217129 18.457559 16.174799 18.304475 16.126953 18.171875 L 15.160156 15.396484 C 15.135096 15.338484 15.096996 15.291959 15.046875 15.255859 C 14.996755 15.219859 14.931301 15.201172 14.851562 15.201172 L 14.582031 15.201172 z M 18.828125 15.201172 L 18.828125 19.837891 L 21.945312 19.837891 L 21.945312 19.148438 L 19.75 19.148438 L 19.75 17.835938 L 21.480469 17.835938 L 21.480469 17.173828 L 19.75 17.173828 L 19.75 15.886719 L 21.945312 15.886719 L 21.945312 15.201172 L 18.828125 15.201172 z M 22.751953 15.201172 L 22.751953 19.837891 L 23.671875 19.837891 L 23.671875 18.027344 L 24.064453 18.027344 C 24.155583 18.027344 24.223971 18.037547 24.269531 18.060547 C 24.317371 18.084547 24.361661 18.124486 24.400391 18.179688 L 25.439453 19.666016 C 25.510073 19.781416 25.624053 19.837891 25.78125 19.837891 L 26.611328 19.837891 L 25.373047 18.125 C 25.288757 18.0095 25.190408 17.921375 25.074219 17.859375 C 25.247363 17.808375 25.400741 17.739797 25.535156 17.654297 C 25.67185 17.569297 25.785825 17.468769 25.876953 17.355469 C 25.970363 17.242069 26.040045 17.115562 26.087891 16.976562 C 26.138011 16.837563 26.164063 16.691156 26.164062 16.535156 C 26.164064 16.338356 26.12759 16.158694 26.054688 15.996094 C 25.981787 15.831494 25.86781 15.689866 25.712891 15.572266 C 25.56025 15.454466 25.362586 15.362828 25.121094 15.298828 C 24.881881 15.232828 24.594664 15.201172 24.259766 15.201172 L 22.751953 15.201172 z M 27.144531 15.201172 L 27.144531 19.837891 L 30.261719 19.837891 L 30.261719 19.148438 L 28.066406 19.148438 L 28.066406 17.835938 L 29.796875 17.835938 L 29.796875 17.173828 L 28.066406 17.173828 L 28.066406 15.886719 L 30.261719 15.886719 L 30.261719 15.201172 L 27.144531 15.201172 z M 31.068359 15.201172 L 31.068359 19.837891 L 32.953125 19.837891 C 33.329032 19.837891 33.669002 19.780869 33.976562 19.667969 C 34.284123 19.554569 34.548869 19.396706 34.767578 19.191406 C 34.986288 18.986106 35.154645 18.739478 35.275391 18.455078 C 35.396137 18.170678 35.457031 17.859531 35.457031 17.519531 C 35.457031 17.179531 35.396141 16.866431 35.275391 16.582031 C 35.154645 16.297731 34.986288 16.054662 34.767578 15.851562 C 34.548869 15.646163 34.284123 15.486347 33.976562 15.373047 C 33.669002 15.257647 33.329032 15.201172 32.953125 15.201172 L 31.068359 15.201172 z M 2.9140625 15.867188 L 3.6015625 15.867188 C 3.7724291 15.867188 3.9196197 15.886781 4.0449219 15.925781 C 4.1702241 15.961781 4.2754059 16.015837 4.3574219 16.085938 C 4.4394379 16.156937 4.5000075 16.241297 4.5410156 16.341797 C 4.5820236 16.442297 4.6035156 16.553734 4.6035156 16.677734 C 4.6035156 16.808234 4.5820236 16.928256 4.5410156 17.035156 C 4.5000076 17.139956 4.4378098 17.229887 4.3535156 17.304688 C 4.2714996 17.377688 4.168271 17.433909 4.0429688 17.474609 C 3.9176665 17.513609 3.7701509 17.53125 3.6015625 17.53125 L 2.9140625 17.53125 L 2.9140625 15.869141 L 2.9140625 15.867188 z M 23.671875 15.867188 L 24.259766 15.867188 C 24.59922 15.867188 24.851593 15.930241 25.015625 16.056641 C 25.181935 16.182841 25.263672 16.364409 25.263672 16.599609 C 25.263672 16.717209 25.244135 16.823475 25.203125 16.921875 C 25.162115 17.019875 25.099919 17.106987 25.015625 17.179688 C 24.933605 17.250687 24.827124 17.305003 24.697266 17.345703 C 24.569685 17.386703 24.419238 17.40625 24.246094 17.40625 L 23.671875 17.40625 L 23.671875 15.867188 z M 8.4375 15.882812 C 8.6789915 15.882812 8.89652 15.921894 9.0878906 15.996094 C 9.2815394 16.071094 9.445663 16.179112 9.5800781 16.320312 C 9.7144932 16.461413 9.8177219 16.632738 9.890625 16.835938 C 9.963528 17.036938 10 17.265031 10 17.519531 C 10 17.773931 9.963528 18.001878 9.890625 18.205078 C 9.817722 18.406078 9.7144932 18.57765 9.5800781 18.71875 C 9.445663 18.85775 9.2815394 18.964263 9.0878906 19.039062 C 8.8965199 19.114064 8.6789915 19.152344 8.4375 19.152344 C 8.1960084 19.152344 7.9788051 19.114362 7.7851562 19.039062 C 7.5937857 18.964062 7.4296621 18.85775 7.2929688 18.71875 C 7.1585536 18.57765 7.055325 18.406078 6.9824219 18.205078 C 6.9095189 18.001878 6.8730469 17.773931 6.8730469 17.519531 C 6.8730469 17.265031 6.9095189 17.036938 6.9824219 16.835938 C 7.0553249 16.632738 7.1585536 16.461413 7.2929688 16.320312 C 7.4296621 16.179112 7.5937857 16.070994 7.7851562 15.996094 C 7.9788051 15.921094 8.1960084 15.882813 8.4375 15.882812 z M 31.992188 15.882812 L 32.953125 15.882812 C 33.194617 15.882812 33.410193 15.920894 33.601562 15.996094 C 33.795212 16.071094 33.959335 16.177259 34.09375 16.318359 C 34.230443 16.457359 34.333672 16.628831 34.404297 16.832031 C 34.477197 17.033031 34.513672 17.261125 34.513672 17.515625 C 34.513672 17.770025 34.477202 17.997972 34.404297 18.201172 C 34.333677 18.402172 34.230443 18.573744 34.09375 18.714844 C 33.959335 18.853844 33.795212 18.960356 33.601562 19.035156 C 33.410193 19.110156 33.194617 19.148438 32.953125 19.148438 L 31.992188 19.148438 L 31.992188 15.882812 z "
       transform="translate(-0.37890625,2.1972661)"
       id="rect4141" />
  </g>
  <g
     inkscape:label="text"
     inkscape:groupmode="layer"
     id="layer1"
     transform="translate(0.37890625,-1036.843)"
     style="display:inline" />
</svg>
